<svg xmlns="http://www.w3.org/2000/svg" xml:space="preserve" id="svg1" width="2048" height="2048" version="1.1">
  <style id="style1">
    .fur{fill:#e3dedb}.paw{fill:#e9afaf}.outline{stroke:#000}
  </style>
  <path id="right_paw" class="paw outline" paint-order="stroke markers fill" stroke-width="126" d="M217 1237a147 147 0 1 1 283 76l-16 60a73 73 0 0 1-90 51l-141-38a73 73 0 0 1-52-89z"/>
  <g id="g8" transform="rotate(15 360 1269)">
    <path fill="#900" d="M354 1209c-9-12 7-37 7-37s15 25 6 37c-6 7-8 38-8 38s0-31-5-38z"/>
    <path fill="#900" d="M334 1366c-11-9-19-24-19-24-9 26-35 30-35 30 3-2 22-14 23-44-6-44-28-90-67-111 0 0 42 9 75 72 13 26 2 51 46 82 46-29 36-55 50-80 35-63 76-70 76-70-39 20-62 65-70 109 0 30 18 43 21 44 0 0-25-4-34-31 0 0-8 15-19 24-16 12-24 21-24 27 1-6-8-15-23-28z"/>
    <path fill="#900" d="M279 1219c3 9 14 20 14 20 6 4 17 11 26 26 8 14 27 24 33 27l-10 16c17 21 12 38 12 38l4 11 4-11s-5-17 13-38c-4-5-7-10-9-16 5-2 25-12 33-26 10-14 20-21 27-25 0 0 11-10 14-19 0 0-15 16-61 17l-17 24 24-6s-4 19-23 27l-4-22-4 22c-19-9-23-28-23-28l24 7-16-25c-46-2-61-19-61-19z"/>
  </g>
</svg>
