<?xml version="1.0" encoding="UTF-8" standalone="no"?>
<svg
   version="1.1"
   viewBox="0 0 2048 2048"
   id="svg1"
   sodipodi:docname="arms_eevee.svg"
   inkscape:version="1.3.2 (091e20e, 2023-11-25, custom)"
   xml:space="preserve"
   xmlns:inkscape="http://www.inkscape.org/namespaces/inkscape"
   xmlns:sodipodi="http://sodipodi.sourceforge.net/DTD/sodipodi-0.dtd"
   xmlns:xlink="http://www.w3.org/1999/xlink"
   xmlns="http://www.w3.org/2000/svg"
   xmlns:svg="http://www.w3.org/2000/svg"><sodipodi:namedview
     id="namedview1"
     pagecolor="#ffffff"
     bordercolor="#666666"
     borderopacity="1.0"
     inkscape:showpageshadow="2"
     inkscape:pageopacity="0.0"
     inkscape:pagecheckerboard="0"
     inkscape:deskcolor="#d1d1d1"
     inkscape:zoom="0.36181641"
     inkscape:cx="664.70175"
     inkscape:cy="1372.2429"
     inkscape:window-width="1920"
     inkscape:window-height="1001"
     inkscape:window-x="-9"
     inkscape:window-y="-9"
     inkscape:window-maximized="1"
     inkscape:current-layer="layer1-6" /><defs
     id="defs1"><clipPath
       id="clipPath2763"
       clipPathUnits="userSpaceOnUse"><ellipse
         id="ellipse2765"
         cx="97.1"
         cy="460.6"
         fill="#fdc75a"
         stroke="#000"
         stroke-linecap="round"
         stroke-linejoin="round"
         stroke-width="19.1"
         display="inline"
         paint-order="markers stroke fill"
         rx="40.7"
         ry="56.7" /></clipPath></defs><style
     id="style1">
    .fur{fill:#e3dedb}.paw{fill:#e9afaf}.outline{stroke:#000}
  </style><g
     id="layer1"
     transform="translate(217.6)"><g
       id="left_arm"
       stroke-linejoin="round"
       display="inline"
       transform="scale(.26458 -.26458) rotate(-30 -3962 1467.8)"><path
         id="path2652"
         stroke-width="566.9"
         d="M6950.4 264.7c-37.8-404.3-251.7-1349.2-414.2-1632.6-223-393-517.8-733.2-68-1050.7 340.1-245.6 782.3 22.7 1054.4 706.8C7982.2-556.1 7850.3-171 7790.6 332"
         class="fur outline"
         paint-order="stroke fill markers" /><path
         id="path2654"
         stroke-width="3.8"
         d="m7481-1806.3-11.3-26.5a2199.5 2199.5 0 0 0-241.9-393A1217 1217 0 0 0 7020-2411a703 703 0 0 0-173.9-83.1 480 480 0 0 0-177.6-7.6 423.3 423.3 0 0 0-170 60.5 540.4 540.4 0 0 0-71.9 52.9 782.3 782.3 0 0 0-117.1 121 446 446 0 0 0-60.5 124.6 359 359 0 0 0-11.4 158.8 506.4 506.4 0 0 0 34 128.5 986.4 986.4 0 0 0 98.3 204l83.2 139.9 83.1 143.6 30.2 56.7c291 109.6 865.5-143.6 914.6-495.1z"
         class="paw" /></g><g
       id="baby"
       transform="rotate(30 159.2 478.5)"><ellipse
         id="swaddling_outline"
         cx="1496.4"
         cy="1040.9"
         fill="#fdc75a"
         stroke="#000"
         stroke-linecap="round"
         stroke-linejoin="round"
         stroke-width="79"
         display="inline"
         paint-order="markers stroke fill"
         rx="153.8"
         ry="214.3"
         style="fill:#f9eecb;fill-opacity:1" /><g
         id="swaddling"
         clip-path="url(#clipPath2763)"
         transform="translate(1129.5 -699.9) scale(3.7793)"><path
           id="path2755"
           fill="#5fd38d"
           stroke="#000"
           stroke-linecap="round"
           stroke-linejoin="round"
           stroke-width="19"
           d="m111.1 462.6-1-.5a149 149 0 0 1-21.7-13.8 211.4 211.4 0 0 1-21-17.8l-3.3-3a40.7 56.7 0 0 0-7.7 33.1 40.7 56.7 0 0 0 14 42.7l2.9-2.2a221.4 221.4 0 0 0 37.7-38.4h.1z"
           display="inline"
           paint-order="markers stroke fill" /><path
           id="ellipse2748"
           fill="#5fd38d"
           stroke="#000"
           stroke-linecap="round"
           stroke-linejoin="round"
           stroke-width="19"
           d="m131.5 430.2-.5 1a196.8 196.8 0 0 1-27.1 40.4A220.8 220.8 0 0 1 73.3 501l-3 2.2a40.7 56.7 0 0 0 26.8 14 40.7 56.7 0 0 0 40.7-56.7 40.7 56.7 0 0 0-6.3-30.4z"
           display="inline"
           paint-order="markers stroke fill" /><path
           id="path2709"
           fill="#5fd38d"
           stroke="#000"
           stroke-linecap="round"
           stroke-linejoin="miter"
           stroke-width="11.1"
           d="M53 491.4s14.2 24 88.2 15v-33c-74 9-93.4-15-93.4-15l5.3 33"
           display="inline" /></g><g
         inkscape:label="eevee"
         id="layer1-6"
         transform="matrix(4.8949548,-1.3301425e-7,1.3301425e-7,4.8949548,1324.656,606.11058)"
         style="opacity:1;display:inline"><path
           style="fill:#daaa70;fill-opacity:1;fill-rule:nonzero;stroke:#000000;stroke-width:8.58026302;stroke-linecap:butt;stroke-linejoin:round;stroke-miterlimit:22.2;stroke-dasharray:none;stroke-opacity:1;paint-order:normal"
           d="M 6.0750179,23.074499 3.5200916,7.4473197 C 3.4481461,-6.0416724 13.717964,7.0567229 19.183863,10.310429 29.647381,6.5921015 39.307599,8.1571201 49.034306,10.333254 57.632026,2.5188117 62.944751,1.5087438 64.424478,1.4067142 68.752351,1.1083 63.86553,20.120846 64.119922,22.537728 c 0.03305,0.315515 -0.06069,-0.340015 0.159344,0.112176 2.114606,4.346715 1.963036,13.914434 1.963036,21.97431 0,23.00705 -14.69694,21.517238 -26.385472,21.707774 l -16.044738,0.03999 C -2.779997,65.574755 -0.90234749,37.776239 6.0750179,23.074499 Z"
           id="path8"
           sodipodi:nodetypes="ccccssssccc"
           inkscape:label="body" /><path
           style="fill:none;fill-opacity:1;stroke:#32120b;stroke-width:7.76309;stroke-linejoin:round;stroke-miterlimit:22.2;stroke-dasharray:none;stroke-opacity:1"
           d="m 20.423364,49.828052 3.516279,6.115513 4.634249,-6.64744 6.567301,6.559562 6.252525,-6.117838"
           id="path3"
           inkscape:label="smile"
           sodipodi:nodetypes="ccccc" /><ellipse
           style="fill:#736161;fill-opacity:1;stroke:none;stroke-width:1.3998;stroke-linejoin:round;stroke-miterlimit:22.2;stroke-dasharray:none;stroke-opacity:1"
           id="path6"
           cx="58.463806"
           cy="-21.657158"
           rx="2.1633339"
           ry="5.1115251"
           inkscape:label="path6"
           transform="matrix(0.82678514,0.56251785,-0.43996544,0.89801471,0,0)" /><ellipse
           style="fill:#736161;fill-opacity:1;stroke:none;stroke-width:1.42478;stroke-linejoin:round;stroke-miterlimit:22.2;stroke-dasharray:none;stroke-opacity:1"
           id="path6-9"
           cx="6.4125786"
           cy="17.351263"
           rx="2.1152704"
           ry="5.4159217"
           inkscape:label="path6"
           transform="matrix(0.98451985,-0.17527314,0.32229075,0.94664073,0,0)" /><rect
           style="fill:#754736;fill-opacity:1;stroke:none;stroke-width:1.45208;stroke-linecap:square;stroke-linejoin:round;stroke-miterlimit:22.2;stroke-dasharray:none;stroke-dashoffset:0;stroke-opacity:0"
           id="rect7"
           width="13.01652"
           height="18.783329"
           x="14.914125"
           y="22.74143"
           ry="6.4478631"
           rx="5.6593556" /><rect
           style="fill:#754736;fill-opacity:1;stroke:none;stroke-width:1.45207;stroke-linecap:square;stroke-linejoin:round;stroke-miterlimit:22.2;stroke-dasharray:none;stroke-dashoffset:0;stroke-opacity:0"
           id="rect7-7"
           width="13.01652"
           height="18.783329"
           x="36.761307"
           y="22.686689"
           ry="6.4478631"
           rx="5.6593556" /><rect
           style="fill:#32120b;fill-opacity:1;stroke:none;stroke-width:6.37588;stroke-linecap:square;stroke-linejoin:round;stroke-miterlimit:22.2;stroke-dasharray:none;stroke-dashoffset:0;stroke-opacity:0"
           id="rect8"
           width="5.5295978"
           height="4.3340087"
           x="26.378832"
           y="40.269878"
           ry="2.1670043" /><circle
           style="fill:#ffffff;stroke-width:2.5;stroke-linecap:round;stroke-linejoin:round"
           id="path1"
           cx="22.751322"
           cy="29.210817"
           r="2.3067167" /><use
           x="0"
           y="0"
           xlink:href="#path1"
           id="use1"
           transform="matrix(1.25,0,0,1.25,13.110076,-7.3574441)"
           width="100%"
           height="100%" /></g></g></g></svg>
