<svg xmlns="http://www.w3.org/2000/svg" version="1.2" viewBox="0 0 2048 2048">
  <style>
    .fur{fill:#e3dedb}.paw{fill:#e9afaf}.outline{stroke:#000}
  </style>
  <g>
    <path fill="#000" d="m1226 896-15 3c-8 2-16 3-23 6-8 2-14 10-14 18 0 4 1 9 3 13l2 6-14 1c-7 2-13 8-14 15-2 5-1 10 1 15l6 29a20 20 0 0 0 25 13l11-4h1l1 3a68 68 0 0 0-21 42l-4 12c-2 6-1 12 2 16l6 6 4 5c6 12 16 21 27 28l22 96c-10 1-19 10-20 20l1 8 4 16 4 19c-2 11 0 22 2 32 2 7 4 15 9 21 7 11 19 19 31 22l21 90c-8 8-13 20-13 32a42 42 0 0 0 28 37l27 117c2 7 9 13 16 14 5 1 10-1 15-2l43-9c7-3 13-10 14-17l-2-16-14-60-10-43c10-7 17-17 19-29 2-13-3-27-13-36-6-6-15-11-23-12l-19-82c12-9 20-23 20-38l-2-18-6-23-6-12-5-36c-2-10-11-17-21-17-4-1-8 0-12 2l-22-96c8-11 13-25 13-39 2-4 4-9 4-15s-3-12-8-15l-6-7c-9-13-22-24-37-29l-1-3 15-1c7-2 13-8 14-15 1-5 0-10-1-15l-1-4-6-25c-2-7-9-13-17-14-5 0-9 1-13 3l-6 2-2-15a20 20 0 0 0-20-15Z"/>
    <path fill="#f6e078" d="m1345 1628-124-547 49-11 124 547Z" />
    <g stroke-width="4">
      <path fill="#e7cd54" stroke="#540" d="M1290 1052a48 48 0 1 1-94 22 48 48 0 0 1 94-22Z"/>
      <path fill="#e7cd54" d="M1229 1026c-18 4-29 22-25 41 4 18 22 29 40 25s30-22 25-40c-4-19-22-30-40-26"/>
      <path fill="#e7cd54" d="M1226 1030c-14 3-22 16-19 29 3 14 16 22 29 19 14-3 22-16 19-29-3-14-16-22-29-19"/>
      <path fill="#f6e078" d="m1194 1063-4 10 8 9 93-21 4-11-8-8-37 8-9-39-12-10-7 14 9 39Z"/>
      <path fill="none" stroke="#540" d="m1194 1063-4 10 8 9 93-21 4-11-8-8-37 8-9-39-10 2-9 2 9 39Z"/>
    </g>
    <g id="g8967" stroke-dasharray="none" stroke-miterlimit="4" stroke-width="3.7">
      <path id="use8959" fill="#f6e078" stroke-dasharray="none" stroke-miterlimit="4" stroke-width="3.7" d="m1249 1015-13-37 37-4-8-33-34 12-4-37-33 7 12 36-36 4 7 33 35-13 5 39Z"/>
      <path id="path8961" fill="#fff1ae" stroke-dasharray="none" stroke-miterlimit="4" stroke-width="3.7" d="m1210 920-16 3 12 36-36 4 4 17 48-11Z"/>
      <path id="path8963" fill="#e7cd54" stroke-dasharray="none" stroke-miterlimit="4" stroke-width="3.7" d="m1236 978 37-4-4-16-47 11 11 50 16-4Z"/>
      <path id="use8965" fill="#f6e078" stroke="#540" stroke-dasharray="none" stroke-miterlimit="4" stroke-width="3.7" d="m1249 1015-13-37 37-4-8-33-34 12-4-37-33 7 12 36-36 4 7 33 35-13 5 39Z"/>
    </g>
    <g id="layer2-4">
      <g id="g1817" opacity="1">
        <g id="g1731" display="inline">
          <path id="path1745" fill="#fdc75a" fill-opacity="1" stroke-dasharray="none" stroke-miterlimit="4" stroke-width=".1" d="m1235 1238-2 2-1 2 3 10 6 29v18l1 7 2 7a34 34 0 0 0 11 18 36 36 0 0 0 28 8l3-1 38-8 10-2 4-2a26 26 0 0 0 14-18v-9l-1-5a2323 2323 0 0 0-6-25l-6-11-1-2v-4l-4-31v-2c0-1-1-2-3-2h-2l-20 15-6 4a54 54 0 0 0-34 6l-2 2h-2a4680 4680 0 0 0-30-6Z" display="inline"/>
        </g>
        <g id="g1687" display="inline">
          <path id="path1671" fill="none" stroke="#8e5e31" stroke-dasharray="none" stroke-linecap="round" stroke-linejoin="round" stroke-miterlimit="4" stroke-opacity="1" stroke-width="13.9" d="m1259 1314-8 7" opacity="1"/>
          <path id="path1669" fill="none" stroke="#8e5e31" stroke-dasharray="none" stroke-linecap="round" stroke-linejoin="round" stroke-miterlimit="4" stroke-opacity="1" stroke-width="13.9" d="m1247 1303 10 2" opacity="1"/>
          <path id="path1665" fill="none" stroke="#8e5e31" stroke-dasharray="none" stroke-linecap="round" stroke-linejoin="round" stroke-miterlimit="4" stroke-opacity="1" stroke-width="13.9" d="m1342 1303-15-4" opacity="1"/>
          <path id="path1663" fill="none" stroke="#8e5e31" stroke-dasharray="none" stroke-linecap="round" stroke-linejoin="round" stroke-miterlimit="4" stroke-opacity="1" stroke-width="13.9" d="m1325 1290 12-10" opacity="1"/>
          <path id="path1661" fill="none" stroke="#562a13" stroke-dasharray="none" stroke-linecap="round" stroke-linejoin="round" stroke-miterlimit="4" stroke-opacity="1" stroke-width="13.9" d="m1268 1302 9 10 7-13 14 9 11-15" opacity="1"/>
          <path id="rect1644" stroke-linecap="round" stroke-linejoin="round" stroke-width="15.3" d="M1302 1260c5-1 10 2 11 7l1 4c1 6-2 11-7 12s-10-2-11-7l-1-5c-2-5 2-10 7-11Z" paint-order="markers fill stroke"/>
          <path id="rect1642" stroke-linecap="round" stroke-linejoin="round" stroke-width="15.3" d="M1261 1269c5-1 10 2 11 7l1 5a9 9 0 1 1-18 4l-1-5c-2-5 2-10 7-11Z" paint-order="markers fill stroke"/>
        </g>
      </g>
    </g>
    <path id="rect9167" fill="#e7cd54" stroke-linecap="round" stroke-linejoin="round" stroke-width="17.8" d="m1314 1451 39-8c16-4 31 4 34 17s-7 26-23 30l-39 9c-15 3-30-4-33-18-3-13 7-26 22-30Z" paint-order="markers stroke fill" style="font-variation-settings:'wght' 400"/>
  </g>
  <g id="left_arm" opacity="1">
    <path id="outline" class="outline" stroke-width="128" d="m1611 1733-231 62c-49 12-113-23-131-88-10-39-8-73 6-101 13-27 36-48 81-60l211-54"/>
    <path id="forearm" class="fur" d="m1611 1733-231 62c-49 12-113-23-131-88-10-39-8-73 6-101 13-27 36-48 81-60l211-54"/>
    <path id="paw" class="paw" d="m1474 1770-94 25c-49 12-113-23-131-88-10-39-8-73 6-101 13-27 36-48 81-60l91-23c62 68 91 158 47 247Z"/>
  </g>
</svg>
