<?xml version="1.0" encoding="UTF-8" standalone="no"?>
<svg
   xmlns:dc="http://purl.org/dc/elements/1.1/"
   xmlns:cc="http://creativecommons.org/ns#"
   xmlns:rdf="http://www.w3.org/1999/02/22-rdf-syntax-ns#"
   xmlns:svg="http://www.w3.org/2000/svg"
   xmlns="http://www.w3.org/2000/svg"
   xmlns:xlink="http://www.w3.org/1999/xlink"
   xmlns:sodipodi="http://sodipodi.sourceforge.net/DTD/sodipodi-0.dtd"
   xmlns:inkscape="http://www.inkscape.org/namespaces/inkscape"
   width="2048"
   height="2048"
   viewBox="0 0 541.86665 541.86668"
   version="1.1"
   id="svg849"
   inkscape:version="1.0.2-2 (e86c870879, 2021-01-15)"
   sodipodi:docname="arms_hold_neocat.svg"
   inkscape:export-filename="C:\Users\endic\OneDrive\Documents\Visual Studio\Neomojimixer\neomojimixer\parts\arms_hug_neocat_blue.png"
   inkscape:export-xdpi="12"
   inkscape:export-ydpi="12">
  <defs
     id="defs843">
    <clipPath
       clipPathUnits="userSpaceOnUse"
       id="clipPath1800">
      <rect
         style="opacity:1;fill:#000000;fill-opacity:1;stroke:none;stroke-width:15.7975;stroke-linecap:round;stroke-linejoin:round;stroke-miterlimit:4;stroke-dasharray:none;stroke-opacity:1;paint-order:markers fill stroke"
         id="rect1802"
         width="105.50423"
         height="108.78921"
         x="246.09262"
         y="364.6825"
         transform="scale(-1,1)" />
    </clipPath>
    <clipPath
       clipPathUnits="userSpaceOnUse"
       id="clipPath1800-8">
      <rect
         style="opacity:1;fill:#000000;fill-opacity:1;stroke:none;stroke-width:15.7975;stroke-linecap:round;stroke-linejoin:round;stroke-miterlimit:4;stroke-dasharray:none;stroke-opacity:1;paint-order:markers fill stroke"
         id="rect1802-1"
         width="105.50423"
         height="108.78921"
         x="246.09262"
         y="364.6825"
         transform="scale(-1,1)" />
    </clipPath>
  </defs>
  <sodipodi:namedview
     id="base"
     pagecolor="#ffffff"
     bordercolor="#666666"
     borderopacity="1.0"
     inkscape:pageopacity="0.0"
     inkscape:pageshadow="2"
     inkscape:zoom="0.35"
     inkscape:cx="421.14227"
     inkscape:cy="1454.4988"
     inkscape:document-units="px"
     inkscape:current-layer="layer2"
     inkscape:document-rotation="0"
     showgrid="false"
     units="px"
     inkscape:window-width="1920"
     inkscape:window-height="1001"
     inkscape:window-x="-9"
     inkscape:window-y="-9"
     inkscape:window-maximized="1" />
  <metadata
     id="metadata846">
    <rdf:RDF>
      <cc:Work
         rdf:about="">
        <dc:format>image/svg+xml</dc:format>
        <dc:type
           rdf:resource="http://purl.org/dc/dcmitype/StillImage" />
        <dc:title />
      </cc:Work>
    </rdf:RDF>
  </metadata>
  <g
     inkscape:groupmode="layer"
     id="layer2"
     inkscape:label="Layer 2">
    <g
       id="layer1"
       inkscape:label="neocat_doll"
       transform="translate(227.78189,1.1126866)">
      <path
         id="path11466"
         style="display:inline;opacity:1;fill:#000000;stroke:#000000;stroke-width:72;stroke-miterlimit:4;stroke-dasharray:none;stroke-opacity:1"
         d="m 668.36523,1290.8223 c -0.86678,-2e-4 -1.73651,0.031 -2.61132,0.094 -50.73612,2.5059 -65.59146,58.7398 -60.73243,100.8555 0.89093,40.1883 -0.15745,80.3785 -0.27148,120.5703 -8.93778,15.4081 -12.98298,32.9536 -17.12305,50.2793 l -0.61523,-0.1543 c -3.83848,13.4497 -7.11954,27.0516 -9.60547,40.7695 -6.14727,6.3211 -11.24322,12.8067 -15.62695,20.4551 -2.50207,4.476 -4.81509,9.4456 -6.41016,14.3828 -5.86936,17.0883 -3.60331,36.03 3.32422,52.4531 2.91768,6.1334 4.49057,12.9932 3.41602,19.7793 -0.87052,8.8227 -5.28192,16.6496 -7.9375,24.959 -7.13695,24.0908 -0.36372,52.1421 18.11914,69.4395 13.03972,12.7418 31.04998,19.508 49.0996,20.459 12.31976,1.4313 21.47617,10.6895 30.26954,18.5468 32.97911,28.4473 74.43075,46.7544 117.26562,53.1133 23.42507,3.7425 47.13869,2.0441 70.82422,2.0996 13.6565,-0.094 27.32008,-0.088 40.98047,-0.098 l -0.42774,-0.6524 0.3418,0.3926 c 66.62043,-0.1039 133.51607,2.1237 199.63477,-5.6699 76.4092,-18.2866 134.7353,-92.049 133.1992,-170.959 -0.2189,-67.735 4.5164,-137.9209 -20.4258,-202.3926 -5.6465,-38.8541 9.9611,-77.5145 13.2559,-116.2754 7.7022,-36.6281 13.665,-85.9838 -27.6289,-105.0527 -36.6156,-18.2561 -74.474,8.0194 -108.8516,19.4453 -31.3585,14.1393 -63.5828,30.5314 -97.13279,13.2305 -55.4818,-13.2442 -113.18445,-7.7678 -167.98437,5.5683 -34.44491,-5.9623 -65.33416,-25.4547 -98.86914,-35.4121 -12.33966,-3.4914 -24.47486,-10.2239 -37.47657,-10.2265 z"
         transform="matrix(0.26458333,0,0,0.26458333,-217.5574,0)"
         inkscape:label="outline" />
      <path
         id="fur"
         fill="#fdc75a"
         d="m 86.723167,349.9976 c -6.87916,1.19063 -13.22916,4.89479 -19.84375,7.14375 l -16.93333,6.87917 a 76.596876,76.596876 0 0 0 -55.43021,-0.79375 c -11.24479,-4.36563 -22.48958,-9.26042 -33.86667,-13.22917 -8.99583,-0.92604 -10.45104,9.26042 -9.525,15.875 l -0.13229,36.24792 c -5.55625,10.71562 -7.8052,22.75416 -8.73125,34.52812 -0.26458,5.95313 0.66146,12.30313 1.7198,18.25625 a 51.593752,51.593748 0 0 0 53.8427,39.02604 c 21.43125,-0.13229 42.99479,0.26459 64.42604,-0.39687 a 38.364583,38.364583 0 0 0 32.80834,-40.21667 c -0.1323,-16.40416 1.5875,-33.60208 -5.29167,-49.08021 -2.24896,-2.77812 -1.19063,-5.95312 -0.66146,-8.99583 1.98438,-12.30312 4.23333,-24.47396 5.95313,-36.77708 0.13229,-4.49792 -3.96875,-8.59896 -8.33438,-8.46667 z"
         style="display:inline;stroke-width:0.132292" />
      <g
         id="whiskers"
         fill="none"
         stroke="#8e5e31"
         stroke-linecap="round"
         stroke-linejoin="round"
         stroke-width="78"
         transform="matrix(0.13229166,0,0,0.13229166,-116.60912,248.3976)"
         style="display:inline">
        <path
           id="whisker_tr"
           d="m 544,1471 -64,-30"
           style="stroke-width:152;stroke-miterlimit:4;stroke-dasharray:none" />
        <path
           id="whisker_tl"
           d="m 1376,1473 127,-63"
           style="stroke-width:152;stroke-miterlimit:4;stroke-dasharray:none" />
        <use
           xlink:href="#whisker_tr"
           id="whisker_br"
           width="100%"
           height="100%"
           transform="matrix(-1,0,0,1,1023,161)"
           x="0"
           y="0" />
        <use
           xlink:href="#whisker_tl"
           id="whisker_bl"
           width="100%"
           height="100%"
           transform="matrix(-1,0,0,1,2879,190)"
           x="0"
           y="0" />
      </g>
      <path
         id="mouth"
         fill="none"
         stroke="#562a13"
         stroke-linecap="round"
         stroke-linejoin="round"
         stroke-width="0.4"
         d="m -19.242453,443.13093 8.46666,16.93334 12.8323,-17.06563 16.80104,17.06563 17.06562,-16.80104"
         style="display:inline;stroke-width:20.1083;stroke-miterlimit:4;stroke-dasharray:none" />
      <g
         id="eyes"
         transform="matrix(0.13229166,0,0,0.13229166,-116.60912,248.3976)"
         style="display:inline">
        <path
           id="left_eye"
           d="m 1121,1089 c 54,0 97,43 97,97 v 60 a 97.5,97.5 0 1 1 -195,0 v -60 c 0,-54 44,-97 98,-97 z" />
        <use
           xlink:href="#left_eye"
           id="right_eye"
           width="100%"
           height="100%"
           transform="translate(-385)"
           x="0"
           y="0" />
      </g>
    </g>
    <g
       id="left_arm-7"
       transform="matrix(0.13229167,-0.22913589,0.22913589,0.13229167,-174.62579,519.6163)"
       inkscape:label="left_arm">
      <path
         id="forearm"
         class="fur outline"
         stroke-linecap="butt"
         stroke-linejoin="round"
         stroke-width="144"
         paint-order="markers stroke fill"
         d="m 1565,1517 c -18,-22 -144,-146 -144,-146 -29,-30 -56,-40 -83,-41 l -9,1 c -30,2 -62,17 -89,45 -49,48 -47,121 -12,157 0,0 135,137 156,156" />
      <path
         id="paw"
         class="paw"
         d="m 1297,1602 -69,-69 c -35,-36 -37,-109 12,-157 27,-28 59,-43 89,-45 30,-2 60,7 92,40 l 66,67 c -27,88 -91,158 -190,164 z" />
    </g>
    <use
       xlink:href="#left_arm-7"
       id="right_arm-7"
       width="100%"
       height="100%"
       x="0"
       y="0"
       transform="matrix(-1,0,0,1,474.47191,3.653658e-7)"
       inkscape:label="right_arm" />
  </g>
  <style
     id="style926">
    .fur{fill:#e3dedb}.paw{fill:#e9afaf}.outline{stroke:#000}
  </style>
</svg>
