<?xml version="1.0" encoding="UTF-8" standalone="no"?>
<svg
   width="2048"
   height="2048"
   viewBox="0 0 2048 2048"
   version="1.1"
   id="svg8"
   inkscape:version="1.3.2 (091e20e, 2023-11-25, custom)"
   xml:space="preserve"
   inkscape:export-filename="..\..\..\neomoji\png\neocat_keyboard.png"
   inkscape:export-xdpi="96"
   inkscape:export-ydpi="96"
   sodipodi:docname="arms_keyboard.svg"
   xmlns:inkscape="http://www.inkscape.org/namespaces/inkscape"
   xmlns:sodipodi="http://sodipodi.sourceforge.net/DTD/sodipodi-0.dtd"
   xmlns:xlink="http://www.w3.org/1999/xlink"
   xmlns="http://www.w3.org/2000/svg"
   xmlns:svg="http://www.w3.org/2000/svg"
   xmlns:rdf="http://www.w3.org/1999/02/22-rdf-syntax-ns#"
   xmlns:cc="http://creativecommons.org/ns#"
   xmlns:dc="http://purl.org/dc/elements/1.1/"><defs
     id="defs2"><filter
       id="logo_glow"
       width="1.225"
       height="1.15"
       x="-0.1125"
       y="-0.075"><feFlood
         flood-color="#58d3d7"
         result="flood"
         id="feFlood1916" /><feComposite
         operator="in"
         in2="SourceGraphic"
         in1="flood"
         result="blue"
         id="feComposite1918" /><feGaussianBlur
         in="blue"
         result="blur2"
         stdDeviation="25"
         id="feGaussianBlur1920" /><feGaussianBlur
         in="blue"
         result="blur3"
         stdDeviation="12.5 "
         id="feGaussianBlur1922" /><feComposite
         in="blue"
         in2="blur2"
         result="comp1"
         id="feComposite1924" /><feComposite
         in="comp1"
         in2="blur3"
         result="comp2"
         id="feComposite1926" /></filter><clipPath
       clipPathUnits="userSpaceOnUse"
       id="clipPath1800"><rect
         style="opacity:1;fill:#000000;fill-opacity:1;stroke:none;stroke-width:15.7975;stroke-linecap:round;stroke-linejoin:round;stroke-miterlimit:4;stroke-dasharray:none;stroke-opacity:1;paint-order:markers fill stroke"
         id="rect1802"
         width="105.50423"
         height="108.78921"
         x="246.09262"
         y="364.6825"
         transform="scale(-1,1)" /></clipPath><clipPath
       clipPathUnits="userSpaceOnUse"
       id="clipPath1800-8"><rect
         style="opacity:1;fill:#000000;fill-opacity:1;stroke:none;stroke-width:15.7975;stroke-linecap:round;stroke-linejoin:round;stroke-miterlimit:4;stroke-dasharray:none;stroke-opacity:1;paint-order:markers fill stroke"
         id="rect1802-1"
         width="105.50423"
         height="108.78921"
         x="246.09262"
         y="364.6825"
         transform="scale(-1,1)" /></clipPath><radialGradient
       id="blush_gradient"><stop
         offset="0%"
         stop-color="#f2725a"
         stop-opacity="0.98"
         id="stop1" /><stop
         offset="30%"
         stop-color="#f2725a"
         stop-opacity="0.9"
         id="stop2" /><stop
         offset="70%"
         stop-color="#f2725a"
         stop-opacity="0.3"
         id="stop3" /><stop
         offset="100%"
         stop-color="#f2725a"
         stop-opacity="0"
         id="stop4" /></radialGradient></defs><sodipodi:namedview
     id="base"
     pagecolor="#ffffff"
     bordercolor="#666666"
     borderopacity="1.0"
     inkscape:pageopacity="0.0"
     inkscape:pageshadow="2"
     inkscape:zoom="0.49497475"
     inkscape:cx="1075.8125"
     inkscape:cy="1548.5639"
     inkscape:document-units="px"
     inkscape:current-layer="layer1"
     inkscape:document-rotation="0"
     showgrid="false"
     units="px"
     scale-x="1"
     inkscape:showpageshadow="2"
     inkscape:pagecheckerboard="0"
     inkscape:deskcolor="#d1d1d1"
     inkscape:window-width="1920"
     inkscape:window-height="1001"
     inkscape:window-x="-9"
     inkscape:window-y="-9"
     inkscape:window-maximized="1" /><metadata
     id="metadata5"><rdf:RDF><cc:Work
         rdf:about=""><dc:format>image/svg+xml</dc:format><dc:type
           rdf:resource="http://purl.org/dc/dcmitype/StillImage" /><cc:license
           rdf:resource="http://creativecommons.org/licenses/by-nc-sa/4.0/" /></cc:Work><cc:License
         rdf:about="http://creativecommons.org/licenses/by-nc-sa/4.0/"><cc:permits
           rdf:resource="http://creativecommons.org/ns#Reproduction" /><cc:permits
           rdf:resource="http://creativecommons.org/ns#Distribution" /><cc:requires
           rdf:resource="http://creativecommons.org/ns#Notice" /><cc:requires
           rdf:resource="http://creativecommons.org/ns#Attribution" /><cc:prohibits
           rdf:resource="http://creativecommons.org/ns#CommercialUse" /><cc:permits
           rdf:resource="http://creativecommons.org/ns#DerivativeWorks" /><cc:requires
           rdf:resource="http://creativecommons.org/ns#ShareAlike" /></cc:License></rdf:RDF></metadata><g
     inkscape:label="Layer 1"
     inkscape:groupmode="layer"
     id="layer1"><g
       id="g1"
       transform="translate(21.514328,94.12703)"><path
         id="path5"
         stroke-linejoin="round"
         stroke-width="144"
         d="m 1763.0611,1374.8249 c 10.8286,40.413 80.9583,221.2971 18.7329,283.5225 l -115.9656,115.9655 c -36.0624,34.6482 -112.4299,31.8198 -159.8061,-15.5564 -27.5772,-27.5772 -43.1335,-58.6898 -45.2548,-89.0954 -2.1213,-30.4056 72.0208,-90.0036 96.0624,-109.8026 24.7488,-20.5061 -43.9923,-109.5302 -43.8263,-149.3179"
         class="fur outline"
         paint-order="markers stroke fill"
         style="fill:none;fill-opacity:1;stroke:#000000;stroke-width:256;stroke-dasharray:none;stroke-opacity:1"
         inkscape:label="forearm"
         sodipodi:nodetypes="cscsscc" /><path
         id="keyboard_outline"
         style="display:inline;fill:#58d3d7;fill-opacity:1;stroke:#000000;stroke-width:150;stroke-miterlimit:4;stroke-dasharray:none"
         d="m 464.38477,1483.002 c -85.06142,-2.0987 -168.3171,48.6717 -202.15398,127.5321 -33.07025,64.1714 -79.22192,122.7039 -101.58854,191.6598 -22.55289,77.5897 44.87786,158.614 124.45788,155.3523 420.03029,0.7723 840.07607,0.269 1260.11107,-0.015 77.3576,2.0534 142.5297,-75.6052 123.1328,-151.3907 -23.8778,-77.1257 -76.1185,-141.8649 -113.2359,-213.038 -39.8816,-83.4808 -138.0107,-117.7658 -225.5087,-108.9539 -288.3958,-0.7045 -576.86021,1.0319 -865.21463,-1.1464 z" /><path
         id="keyboard"
         fill="#cbcbcb"
         stroke="none"
         d="m 453,1558 h 922 c 42,0 90,25 109,59 l 100,173 c 29,50 9,94 -47,94 H 291 c -56,0 -76,-44 -47,-94 l 100,-173 c 19,-34 67,-59 109,-59 z"
         style="opacity:1" /><g
         id="g2716"
         inkscape:label="keys"
         transform="translate(-24,-100)"><path
           style="fill:none;stroke:#000000;stroke-width:96;stroke-linecap:round;stroke-linejoin:miter;stroke-miterlimit:4;stroke-dasharray:none;stroke-opacity:1"
           d="m 338.78131,1919.0554 h 48.734"
           id="path2637" /><path
           style="fill:none;stroke:#000000;stroke-width:96;stroke-linecap:round;stroke-linejoin:miter;stroke-miterlimit:4;stroke-dasharray:none;stroke-opacity:1"
           d="m 438.78131,1815.6884 h 48.734"
           id="path2639" /><use
           x="0"
           y="0"
           xlink:href="#path2637"
           id="use2643"
           transform="translate(95.946045,-103.367)"
           width="100%"
           height="100%" /><use
           x="0"
           y="0"
           xlink:href="#path2637"
           id="use2647"
           transform="translate(191.89207)"
           width="100%"
           height="100%" /><use
           x="0"
           y="0"
           xlink:href="#path2637"
           id="use2649"
           transform="translate(287.83812,-103.36688)"
           width="100%"
           height="100%" /><use
           x="0"
           y="0"
           xlink:href="#path2637"
           id="use2651"
           transform="translate(191.89207,-206.734)"
           width="100%"
           height="100%" /><path
           style="fill:none;stroke:#000000;stroke-width:96;stroke-linecap:round;stroke-linejoin:miter;stroke-miterlimit:4;stroke-dasharray:none;stroke-opacity:1"
           d="M 722.56549,1919.0554 H 1155.0835"
           id="use2653"
           sodipodi:nodetypes="cc" /><use
           x="0"
           y="0"
           xlink:href="#path2637"
           id="use2655"
           transform="translate(479.73016,-103.36688)"
           width="100%"
           height="100%" /><use
           x="0"
           y="0"
           xlink:href="#path2637"
           id="use2657"
           transform="translate(383.78418,-206.734)"
           width="100%"
           height="100%" /><use
           x="0"
           y="0"
           xlink:href="#path2637"
           id="use2661"
           transform="translate(671.62217,-103.36688)"
           width="100%"
           height="100%" /><use
           x="0"
           y="0"
           xlink:href="#path2637"
           id="use2663"
           transform="translate(575.67619,-206.734)"
           width="100%"
           height="100%" /><use
           x="0"
           y="0"
           xlink:href="#path2637"
           id="use2667"
           transform="translate(863.51425,-103.36688)"
           width="100%"
           height="100%" /><use
           x="0"
           y="0"
           xlink:href="#path2637"
           id="use2669"
           transform="translate(767.56821,-206.734)"
           width="100%"
           height="100%" /><use
           x="0"
           y="0"
           xlink:href="#path2637"
           id="use2671"
           transform="translate(959.46031)"
           width="100%"
           height="100%" /><path
           id="use2673"
           style="color:#000000;font-style:normal;font-variant:normal;font-weight:normal;font-stretch:normal;font-size:medium;line-height:normal;font-family:sans-serif;font-variant-ligatures:normal;font-variant-position:normal;font-variant-caps:normal;font-variant-numeric:normal;font-variant-alternates:normal;font-variant-east-asian:normal;font-feature-settings:normal;font-variation-settings:normal;text-indent:0;text-align:start;text-decoration:none;text-decoration-line:none;text-decoration-style:solid;text-decoration-color:#000000;letter-spacing:normal;word-spacing:normal;text-transform:none;writing-mode:lr-tb;direction:ltr;text-orientation:mixed;dominant-baseline:auto;baseline-shift:baseline;text-anchor:start;white-space:normal;shape-padding:0;shape-margin:0;inline-size:0;clip-rule:nonzero;display:inline;overflow:visible;visibility:visible;opacity:1;isolation:auto;mix-blend-mode:normal;color-interpolation:sRGB;color-interpolation-filters:linearRGB;solid-color:#000000;solid-opacity:1;vector-effect:none;fill:#000000;fill-opacity:1;fill-rule:nonzero;stroke:none;stroke-linecap:round;stroke-linejoin:miter;stroke-miterlimit:4;stroke-dasharray:none;stroke-dashoffset:0;stroke-opacity:1;color-rendering:auto;image-rendering:auto;shape-rendering:auto;text-rendering:auto;enable-background:accumulate;stop-color:#000000;stop-opacity:1"
           d="m 1394.1875,1767.6895 a 48,48 0 0 0 -48,48 48,48 0 0 0 5.4512,22.2128 l -0.3575,0.1582 1.0918,1.1954 a 48,48 0 0 0 14.5469,15.9355 l 86.1758,94.3945 a 48,48 0 0 0 3.2598,3.5723 l 0.8047,0.8809 0.068,-0.039 a 48,48 0 0 0 32.9043,13.0547 h 48.7344 a 48,48 0 0 0 48,-48 48,48 0 0 0 -12.3418,-32.1309 h 0.01 l -0.498,-0.5312 a 48,48 0 0 0 -0.336,-0.3614 48,48 0 0 0 -0.1933,-0.2031 l -90.8536,-97.0683 a 48,48 0 0 0 -39.7304,-21.0664 z" /><use
           x="0"
           y="0"
           xlink:href="#path2637"
           id="use2675"
           transform="translate(959.46031,-206.734)"
           width="100%"
           height="100%" /></g><path
         id="path6"
         stroke-linejoin="round"
         stroke-width="144"
         d="m 1763.0611,1374.8249 c 10.8286,40.413 80.9583,221.2971 18.7329,283.5225 l -115.9656,115.9655 c -36.0624,34.6482 -112.4299,31.8198 -159.8061,-15.5564 -27.5772,-27.5772 -43.1335,-58.6898 -45.2548,-89.0954 -2.1213,-30.4056 72.0208,-90.0036 96.0624,-109.8026 24.7488,-20.5061 -43.9923,-110.9588 -43.8263,-149.3179"
         class="fur outline"
         paint-order="markers stroke fill"
         style="fill:#ffc95c;fill-opacity:1;stroke:#000000;stroke-opacity:0.5"
         inkscape:label="forearm"
         sodipodi:nodetypes="cscsscc" /></g></g><style
     id="style1">
      <style>
    .fur{fill:#8bb9a0}
    .paw{fill:#8bb9a0}
    .hand{fill:#8bb9a0}
    .outline{stroke:#000}
    .iris{fill:#000}
    .sclera{fill:#ff6a00}
    .mouth{stroke:#542912}
    .tooth{fill:#fefbba}
  </style></svg>
