<?xml version="1.0" encoding="UTF-8" standalone="no"?>
<svg
   width="2048"
   height="2048"
   viewBox="0 0 2048 2048"
   version="1.1"
   id="svg8"
   inkscape:version="1.3.2 (091e20e, 2023-11-25, custom)"
   xml:space="preserve"
   sodipodi:docname="arms_moon_stick.svg"
   inkscape:export-filename="..\..\parts\arms_moon_stick.png"
   inkscape:export-xdpi="12"
   inkscape:export-ydpi="12"
   xmlns:inkscape="http://www.inkscape.org/namespaces/inkscape"
   xmlns:sodipodi="http://sodipodi.sourceforge.net/DTD/sodipodi-0.dtd"
   xmlns="http://www.w3.org/2000/svg"
   xmlns:svg="http://www.w3.org/2000/svg"
   xmlns:rdf="http://www.w3.org/1999/02/22-rdf-syntax-ns#"
   xmlns:cc="http://creativecommons.org/ns#"
   xmlns:dc="http://purl.org/dc/elements/1.1/"><defs
     id="defs2"><inkscape:path-effect
       effect="bend_path"
       id="path-effect24"
       is_visible="true"
       lpeversion="1"
       bendpath="m 321.22851,749.34034 c 685.70139,314.49026 926.23769,174.80895 1404.11199,0"
       prop_scale="1"
       scale_y_rel="false"
       vertical="false"
       hide_knot="false"
       bendpath-nodetypes="cc" /></defs><sodipodi:namedview
     id="base"
     pagecolor="#ffffff"
     bordercolor="#666666"
     borderopacity="1.0"
     inkscape:pageopacity="0.0"
     inkscape:pageshadow="2"
     inkscape:zoom="0.35"
     inkscape:cx="875.71429"
     inkscape:cy="1172.8571"
     inkscape:document-units="px"
     inkscape:current-layer="layer1"
     inkscape:document-rotation="0"
     showgrid="false"
     units="px"
     scale-x="1"
     inkscape:showpageshadow="2"
     inkscape:pagecheckerboard="0"
     inkscape:deskcolor="#d1d1d1"
     inkscape:window-width="1920"
     inkscape:window-height="1001"
     inkscape:window-x="-9"
     inkscape:window-y="-9"
     inkscape:window-maximized="1" /><metadata
     id="metadata5"><rdf:RDF><cc:Work
         rdf:about=""><dc:format>image/svg+xml</dc:format><dc:type
           rdf:resource="http://purl.org/dc/dcmitype/StillImage" /><cc:license
           rdf:resource="http://creativecommons.org/licenses/by-nc-sa/4.0/" /></cc:Work><cc:License
         rdf:about="http://creativecommons.org/licenses/by-nc-sa/4.0/"><cc:permits
           rdf:resource="http://creativecommons.org/ns#Reproduction" /><cc:permits
           rdf:resource="http://creativecommons.org/ns#Distribution" /><cc:requires
           rdf:resource="http://creativecommons.org/ns#Notice" /><cc:requires
           rdf:resource="http://creativecommons.org/ns#Attribution" /><cc:prohibits
           rdf:resource="http://creativecommons.org/ns#CommercialUse" /><cc:permits
           rdf:resource="http://creativecommons.org/ns#DerivativeWorks" /><cc:requires
           rdf:resource="http://creativecommons.org/ns#ShareAlike" /></cc:License></rdf:RDF></metadata><g
     inkscape:label="Layer 1"
     inkscape:groupmode="layer"
     id="layer1"><g
       id="g33"
       transform="rotate(75,1096.1451,2207.7465)"
       inkscape:label="arm"><g
         id="g47"
         transform="matrix(0.4897841,-0.28277698,0.28277698,0.4897841,-654.11651,1446.4986)"
         inkscape:label="wand"><path
           id="path44"
           style="fill:#000000;fill-opacity:1;stroke:none;stroke-width:24;stroke-linecap:butt;stroke-linejoin:miter;stroke-dasharray:none;stroke-opacity:1"
           d="m 1351.8809,291.48242 c -23.2013,0.39987 -46.0975,5.381 -68.1049,12.50633 -17.1987,5.59713 -33.9561,12.62207 -49.8431,21.28139 -12.5063,6.84117 -24.6307,14.63837 -34.9675,24.5246 -4.9763,4.75489 -9.5337,10.01852 -12.9482,16.02045 -2.6969,4.63961 -4.6746,9.68308 -5.8942,14.90747 -1.0851,4.18653 -1.2147,8.60976 -0.3609,12.84984 0.3913,3.36438 1.1693,6.80497 3.2174,9.57934 2.6813,3.96445 7.0012,6.61217 11.6055,7.74114 14.9655,5.13994 30.3932,8.93059 46.0433,11.27133 27.2708,4.30335 54.9299,5.2172 82.2669,8.97948 4.4483,0.62866 8.884,1.34945 13.2962,2.19605 0.6195,0.11833 1.5121,0.29771 2.2363,0.43946 0.6263,0.13546 1.573,0.32648 2.3223,0.48625 12.7175,2.72352 25.2506,6.66902 36.8187,12.67889 7.1434,3.64039 14.3766,7.14397 21.1522,11.45104 20.2373,12.69921 37.5611,29.86449 50.9229,49.63897 0.9747,1.42646 1.9405,2.90651 2.8194,4.28443 1.0241,1.59831 2.0548,3.26525 2.9759,4.80866 15.0678,25.17224 24.3396,53.71185 27.4593,82.85879 0.052,0.55942 0.1459,1.45979 0.2138,2.14994 0.094,1.04259 0.1932,2.10931 0.2661,3.04788 0.3599,4.41863 0.5708,9.06688 0.6432,13.36273 0.021,1.56764 0.028,3.13535 0.021,4.70312 0,0.372 -0.017,1.17001 -0.023,1.70508 -0.1157,6.56579 -0.564,13.12488 -1.332,19.64648 -0.054,0.40018 -0.1494,1.19136 -0.2192,1.7412 -0.3369,2.67028 -0.7434,5.33144 -1.191,7.98536 -0.065,0.38611 -0.2104,1.18214 -0.3063,1.72516 -4.3378,24.06513 -13.4681,47.36765 -27.428,67.49679 -1.4532,2.11059 -3.0656,4.32262 -4.545,6.27805 -2.9976,3.8817 -6.0756,7.70074 -9.0588,11.59379 -12.4525,15.81925 -27.9758,29.14817 -45.2401,39.46883 -6.1664,3.68181 -12.5599,6.97771 -19.1151,9.91004 -0.5168,0.22259 -1.343,0.59056 -1.9784,0.86889 -12.5627,5.42586 -25.7163,9.46376 -39.1388,12.11549 -0.4429,0.0799 -1.2449,0.23679 -1.8253,0.34619 -20.2688,3.79842 -41.1316,4.432 -61.5888,1.81787 -0.4412,-0.0633 -1.256,-0.1685 -1.8402,-0.24785 -25.3478,-3.48089 -50.0871,-12.08891 -71.6949,-25.86739 -0.3647,-0.24248 -1.0448,-0.67287 -1.5308,-0.99257 -7.2075,-4.71041 -14.0361,-10.00056 -20.393,-15.80821 -0.3666,-0.33665 -0.9928,-0.91383 -1.4565,-1.35048 -2.4577,-2.30224 -4.8391,-4.68582 -7.1412,-7.14366 -0.2918,-0.31251 -0.9441,-1.0114 -1.2136,-1.31045 -5.0501,-5.56959 -9.711,-11.4761 -14.386,-17.35981 -16.662,-21.11833 -32.1738,-43.15872 -49.8393,-63.47313 -8.8525,-10.1281 -18.2606,-19.97971 -29.481,-27.51643 -7.7622,-5.14207 -16.7034,-8.92811 -26.0967,-9.36415 -5.6541,-0.28883 -11.258,0.83753 -16.8233,1.46057 -4.4471,0.55578 -8.9172,1.11342 -13.3769,1.67082 -1.7708,20.79537 -3.6177,41.67054 -2.6029,62.55874 1.6019,41.08208 11.0848,81.91966 28.39,119.24595 9.7377,21.16462 22.1841,41.02504 36.456,59.41871 32.9197,44.60827 76.2255,81.45978 125.4092,107.01879 -15.3657,22.49433 -25.332,48.55063 -29.4678,75.44823 -7.5129,47.9205 2.6793,98.4966 28.6324,139.5249 14.2628,22.5245 33.4033,42.0557 56.0807,56.1459 0.7611,0.4759 1.5295,0.9406 2.2958,1.4083 1.5936,23.1176 2.9583,46.2544 4.107,69.4272 0.9164,18.8254 1.7036,37.8265 2.3177,56.6765 0.7474,22.5063 1.2621,45.0934 1.5616,67.5643 0.3508,28.283 0.3707,56.6226 0.041,84.873 -0.3136,26.2329 -0.9355,52.462 -1.8828,78.6797 -0.3902,10.5311 -0.8176,21.1799 -1.3072,31.7527 -1.0462,23.1367 -2.3349,46.2763 -3.8933,69.414 -2.3781,35.4535 -5.3587,70.9209 -8.9387,106.338 -1.4577,14.4452 -3.0424,28.9456 -4.6928,43.4055 -0.5341,4.5401 -1.0591,9.1846 -1.6016,13.7617 -6.2308,13.0089 -9.6916,27.2935 -10.5081,41.6792 -0.926,15.8831 1.5956,31.8658 6.5913,46.9357 7.6142,22.8265 20.979,43.5908 37.9934,60.5468 14.6778,14.5877 32.2533,26.3908 51.638,33.7352 18.1954,6.8372 38.1072,9.534 57.3909,6.6207 17.4109,-2.5939 34.0757,-9.6504 48.2666,-20.0325 4.9329,-3.3125 9.9245,-6.5587 14.519,-10.3388 19.0172,-15.2544 33.7727,-35.7051 42.425,-58.4858 9.9551,-25.8214 12.6136,-54.1782 9.068,-81.5455 -1.5808,-12.3265 -4.4235,-24.4875 -8.4193,-36.2537 -2.784,-27.3529 -5.2814,-54.7992 -7.4576,-82.2422 -1.8037,-22.9099 -3.4108,-45.9852 -4.7566,-68.9588 -1.6455,-27.8918 -2.968,-55.8122 -3.9459,-83.7072 -0.9123,-26.0592 -1.5393,-52.1282 -1.8809,-78.2012 -0.3161,-27.4109 -0.3611,-54.9445 -0.059,-82.4016 0.4459,-43.0001 1.7309,-86.0236 3.7949,-128.9959 1.4198,-29.432 3.2058,-58.8697 5.374,-88.2703 0.1358,-1.8477 0.2713,-3.6955 0.4093,-5.5431 23.7156,-18.5111 42.3625,-43.2686 54.2721,-70.8522 19.5434,-44.9225 22.0264,-97.0906 6.4424,-143.5703 -4.5921,-13.6802 -10.7631,-26.8378 -18.4333,-39.06382 37.8475,-18.03231 72.1968,-43.21797 101.1899,-73.46768 50.6344,-52.69578 85.4439,-120.3139 99.2134,-192.06535 8.8833,-46.14212 8.8868,-94.10035 -1.0274,-140.07853 -2.5271,-11.67001 -5.7731,-23.16701 -9.0661,-34.63893 -10.3148,-34.97838 -26.305,-68.23479 -46.8702,-98.33525 -35.3462,-51.83655 -84.0432,-94.42161 -139.9806,-122.79902 -35.9631,-18.25816 -74.983,-30.61011 -115.0113,-35.74399 -15.8118,-2.04584 -31.7706,-2.9477 -47.7111,-2.73232 -6.0579,-0.73229 -12.1625,-1.06294 -18.2639,-1.01979 z" /><path
           style="fill:#daa520;fill-opacity:1;stroke:none;stroke-width:24;stroke-linecap:butt;stroke-linejoin:miter;stroke-dasharray:none;stroke-opacity:1"
           d="m 1307.1374,1900.8546 c 0,0 69.7005,36.618 128.2894,0 31.8199,42.6789 -23.2335,109.349 -63.6396,109.349 -40.4061,0 -95.4595,-66.6701 -64.6498,-109.349 z"
           id="path39"
           sodipodi:nodetypes="cccc" /><path
           style="fill:none;stroke:#000000;stroke-width:24;stroke-linecap:butt;stroke-linejoin:miter;stroke-dasharray:none;stroke-opacity:1"
           d="m 1291.6075,1951.0056 c 0,0 73.236,40.4061 160.6142,0"
           id="path38"
           sodipodi:nodetypes="cc" /><path
           id="path42"
           style="fill:#dd3890;fill-opacity:1;stroke:none;stroke-width:24;stroke-linecap:butt;stroke-linejoin:miter;stroke-dasharray:none;stroke-opacity:1"
           d="m 1318.1475,1192.9902 c 35.6723,383.7564 -11.0608,708.3694 -11.0608,708.3694 0,0 69.7512,36.113 130.1598,0 0,0 -43.954,-324.613 -8.2817,-708.3694 z"
           sodipodi:nodetypes="ccccc" /><circle
           style="fill:#dd3890;fill-opacity:1;stroke:none;stroke-width:42.2558;stroke-linejoin:round;stroke-dasharray:none;stroke-opacity:1"
           id="circle41"
           cx="1364.7161"
           cy="1095.5104"
           r="131.61142" /><circle
           style="fill:#daa520;fill-opacity:1;stroke:none;stroke-width:30.6548;stroke-linejoin:round;stroke-dasharray:none;stroke-opacity:1"
           id="path41"
           cx="1364.7161"
           cy="1095.5104"
           r="95.478691" /><path
           id="ellipse42"
           style="fill:#daa520;fill-opacity:1;stroke:none;stroke-width:97.7295;stroke-linejoin:round;stroke-dasharray:none;stroke-opacity:1"
           d="m 1370.502,354.79297 a 303.07312,305.71652 0 0 0 -84.6895,12.23242 249.95741,252.13754 0 0 1 11.0098,-0.79492 249.95741,252.13754 0 0 1 249.957,252.13672 249.95741,252.13754 0 0 1 -249.957,252.13867 249.95741,252.13754 0 0 1 -218.7637,-131.49805 303.07312,305.71652 0 0 0 292.4434,227.21875 303.07312,305.71652 0 0 0 303.0722,-305.71679 303.07312,305.71652 0 0 0 -303.0722,-305.7168 z" /><path
           style="fill:#daa520;fill-opacity:1;stroke:none;stroke-width:1px;stroke-linecap:butt;stroke-linejoin:miter;stroke-opacity:1"
           d="m 1454.9002,942.9774 c -40.9112,6.06091 -43.9417,108.0863 -43.9417,108.0863 h -92.4848 c 0,0 -3.0305,-102.02539 -43.9417,-108.0863 z"
           id="path43"
           sodipodi:nodetypes="ccccc" /><circle
           style="fill:#c92b5f;fill-opacity:1;stroke:none;stroke-width:14.8267;stroke-linejoin:round;stroke-dasharray:none;stroke-opacity:1"
           id="circle42"
           cx="1364.7161"
           cy="1001.2247"
           r="46.179859" /></g><path
         id="right_paw"
         class="paw outline"
         paint-order="stroke markers fill"
         stroke-width="98"
         d="m 427.21449,1716.5264 a 114.2366,114.2366 0 1 1 114.00002,198 l -73.99991,43.0001 c -26.99996,14.9999 -61.99998,5.9999 -77.99997,-21.0001 l -57.00009,-99 c -16.00001,-28 -5.99991,-62 21.00009,-78 z"
         fill="#fffafa" /></g></g><style
     id="style1">
    .fur{fill:#e3dedb}.paw{fill:#e9afaf}.outline{stroke:#000}.sclera{fill:#fc5900}.iris{fill:#000}
  </style></svg>
