<?xml version="1.0" encoding="UTF-8" standalone="no"?>
<svg
   xmlns:dc="http://purl.org/dc/elements/1.1/"
   xmlns:cc="http://creativecommons.org/ns#"
   xmlns:rdf="http://www.w3.org/1999/02/22-rdf-syntax-ns#"
   xmlns:svg="http://www.w3.org/2000/svg"
   xmlns="http://www.w3.org/2000/svg"
   xmlns:sodipodi="http://sodipodi.sourceforge.net/DTD/sodipodi-0.dtd"
   xmlns:inkscape="http://www.inkscape.org/namespaces/inkscape"
   width="2048"
   height="2048"
   version="1.1"
   id="svg9"
   sodipodi:docname="arms_touch_grass.svg"
   inkscape:version="1.0.2-2 (e86c870879, 2021-01-15)">
  <metadata
     id="metadata15">
    <rdf:RDF>
      <cc:Work
         rdf:about="">
        <dc:format>image/svg+xml</dc:format>
        <dc:type
           rdf:resource="http://purl.org/dc/dcmitype/StillImage" />
        <dc:title></dc:title>
      </cc:Work>
    </rdf:RDF>
  </metadata>
  <defs
     id="defs13" />
  <sodipodi:namedview
     pagecolor="#ffffff"
     bordercolor="#666666"
     borderopacity="1"
     objecttolerance="10"
     gridtolerance="10"
     guidetolerance="10"
     inkscape:pageopacity="0"
     inkscape:pageshadow="2"
     inkscape:window-width="1920"
     inkscape:window-height="1001"
     id="namedview11"
     showgrid="false"
     inkscape:zoom="0.35888672"
     inkscape:cx="1024"
     inkscape:cy="1024"
     inkscape:window-x="-9"
     inkscape:window-y="-9"
     inkscape:window-maximized="1"
     inkscape:current-layer="svg9" />
  <style
     id="style2">.fur{fill:#e3dedb}.paw{fill:#e9afaf}.outline{stroke:#000}</style>
  <g
     id="left_arm"
     transform="matrix(1,0,0,-1,0,3009.1048)">
    <path
       id="forearm"
       class="fur"
       d="m 1574,1614 -6,-5 -306,-177 c -43,-26 -64,-96 -30,-155 20,-34 46,-57 75,-67 29,-10 60,-8 100,15 l 291,171" />
    <path
       id="paw"
       class="paw"
       d="m 1346,1481 -84,-49 c -43,-26 -64,-96 -30,-155 20,-34 46,-57 75,-67 29,-10 60,-8 100,15 l 81,48 c -4,92 -48,176 -142,208 z" />
    <path
       id="outline"
       class="outline"
       stroke-width="8"
       stroke-linecap="round"
       d="m 1292,1137 -9,3 c -49,17 -88,54 -114,100 -53,92 -27,206 54,255 h 1 l 280,163 c 26,-8 49,-23 70,-44 l -6,-5 -306,-177 c -43,-26 -64,-96 -30,-155 20,-34 46,-57 75,-67 29,-10 60,-8 100,15 l 291,171 c 7,-30 5,-61 -9,-91 l -245,-144 c -51,-30 -105,-37 -152,-24 z" />
  </g>
</svg>
