<?xml version="1.0" encoding="UTF-8" standalone="no"?>
<svg
   version="2.0"
   viewBox="0 0 2048 2048"
   id="svg1"
   sodipodi:docname="arms_mug_honey.svg"
   xml:space="preserve"
   inkscape:version="1.3.2 (091e20e, 2023-11-25, custom)"
   xmlns:inkscape="http://www.inkscape.org/namespaces/inkscape"
   xmlns:sodipodi="http://sodipodi.sourceforge.net/DTD/sodipodi-0.dtd"
   xmlns:xlink="http://www.w3.org/1999/xlink"
   xmlns="http://www.w3.org/2000/svg"
   xmlns:svg="http://www.w3.org/2000/svg"><sodipodi:namedview
     id="namedview1"
     pagecolor="#ffffff"
     bordercolor="#666666"
     borderopacity="1.0"
     inkscape:showpageshadow="2"
     inkscape:pageopacity="0.0"
     inkscape:pagecheckerboard="0"
     inkscape:deskcolor="#d1d1d1"
     showguides="true"
     inkscape:zoom="1.0233713"
     inkscape:cx="916.57834"
     inkscape:cy="1487.7298"
     inkscape:window-width="1920"
     inkscape:window-height="1001"
     inkscape:window-x="-9"
     inkscape:window-y="-9"
     inkscape:window-maximized="1"
     inkscape:current-layer="svg1" /><defs
     id="defs1"><linearGradient
       id="linearGradient44"
       inkscape:collect="always"><stop
         style="stop-color:#c69300;stop-opacity:0.80000001;"
         offset="0"
         id="stop44" /><stop
         style="stop-color:#c69300;stop-opacity:1;"
         offset="1"
         id="stop45" /></linearGradient><linearGradient
       id="linearGradient40"
       inkscape:collect="always"><stop
         style="stop-color:#ffffff;stop-opacity:0.99999982;"
         offset="0"
         id="stop40" /><stop
         style="stop-color:#ffffff;stop-opacity:0.99999952;"
         offset="0.30000001"
         id="stop42" /><stop
         style="stop-color:#ffffff;stop-opacity:0.49803922;"
         offset="0.60000002"
         id="stop43" /><stop
         style="stop-color:#ffffff;stop-opacity:0;"
         offset="1"
         id="stop41" /></linearGradient><linearGradient
       id="steam_gradient"
       x1="50%"
       x2="50%"
       y1="100%"
       y2="0%"><stop
         id="stop3"
         offset="0"
         stop-color="#fff"
         stop-opacity=".4" /><stop
         id="stop4"
         offset="1"
         stop-color="#fff"
         stop-opacity=".1" /></linearGradient><radialGradient
       inkscape:collect="always"
       xlink:href="#linearGradient40"
       id="radialGradient41"
       cx="32.910561"
       cy="75.202591"
       fx="32.910561"
       fy="75.202591"
       r="77.5"
       gradientTransform="matrix(0.6517435,0,0,1.3893605,19.852709,29.694939)"
       gradientUnits="userSpaceOnUse" /><linearGradient
       inkscape:collect="always"
       xlink:href="#linearGradient44"
       id="linearGradient45"
       x1="-3.9703245"
       y1="222.61398"
       x2="151.72064"
       y2="-172.61409"
       gradientUnits="userSpaceOnUse" /></defs><style
     id="style1">
    .fur{fill:#8bb9a0}
    .paw{fill:#8bb9a0}
    .hand{fill:#8bb9a0}
    .outline{stroke:#000}
    .iris{fill:#000}
    .sclera{fill:#ff6a00}
    .mouth{stroke:#542912}
    .tooth{fill:#fefbba}
  </style><g
     id="hex"
     transform="rotate(90,-284.19875,1168.1987)"><path
       fill="#ffff00"
       stroke="#daa520"
       stroke-width="10"
       stroke-linejoin="round"
       d="m -19,-129 110.6025,-50 110.6025,50 V 175 L 91.6025,225 -19,175 Z"
       id="path1"
       sodipodi:nodetypes="ccccccc"
       style="opacity:1;stroke-width:40;stroke-dasharray:none" /><path
       fill="#ffff00"
       stroke="#daa520"
       stroke-width="10"
       stroke-linejoin="round"
       d="m 235,-129 110.6025,-50 110.6025,50 V 175 L 345.6025,225 235,175 Z"
       id="path35"
       sodipodi:nodetypes="ccccccc"
       style="opacity:1;stroke-width:40;stroke-dasharray:none" /><path
       style="fill:#8b6914;stroke:#daa520;stroke-width:40;stroke-linecap:butt;stroke-linejoin:round;stroke-opacity:1;stroke-dasharray:none;fill-opacity:1"
       d="m 345.60255,225 h -254 l 110.6024,-50 h 254 z"
       id="path36" /><path
       style="fill:#8b6914;stroke:#daa520;stroke-width:40;stroke-linecap:butt;stroke-linejoin:round;stroke-opacity:1;stroke-dasharray:none;fill-opacity:1"
       d="m 202.20495,175 v -303.99995 h 254 V 175 Z"
       id="path37" /><path
       style="fill:#8b6914;stroke:#daa520;stroke-width:40;stroke-linecap:butt;stroke-linejoin:round;stroke-opacity:1;stroke-dasharray:none;fill-opacity:1"
       d="m 202.20495,-128.99995 -110.6024,-50.0001 h 254 l 110.6024,50.0001 z"
       id="path38" /><path
       id="liquid"
       fill="#6d4634"
       d="M761 1482h196c33 0 60 26 60 60v4c0 33-27 60-60 60H761c-33 0-60-27-60-60v-4c0-34 27-60 60-60z"
       transform="rotate(-90,-284.19875,1168.1987)"
       style="fill:#c69300;fill-opacity:1"
       inkscape:label="honey_base" /><path
       id="path39"
       fill="#6d4634"
       d="m -1.89745,147.49995 v -245 c 0,-41.25 32.5,-75 75,-75 h 5 c 41.25,0 75,33.75 75,75 v 245 c 0,41.25 -33.75,75 -75,75 h -5 c -42.5,0 -75,-33.75 -75,-75 z"
       style="fill:url(#linearGradient45);fill-opacity:0.8;stroke-width:1.25"
       inkscape:label="honey_overflow" /><path
       id="path40"
       fill="#6d4634"
       d="m -1.89745,147.49995 v -245 c 0,-41.25 32.5,-75 75,-75 h 5 c 41.25,0 75,33.75 75,75 v 245 c 0,41.25 -33.75,75 -75,75 h -5 c -42.5,0 -75,-33.75 -75,-75 z"
       style="mix-blend-mode:hard-light;fill:url(#radialGradient41);stroke-width:1.25"
       inkscape:label="honey_glare" /></g><g
     id="arm"
     transform="translate(-180,240)"><path
       id="forearm"
       class="fur outline"
       paint-order="markers stroke fill"
       stroke-linecap="butt"
       stroke-linejoin="round"
       stroke-width="144"
       d="m 1528,1388 c -28,4 -252,60 -252,60 -41,9 -63,27 -78,49 l -4,9 c -14,26 -18,61 -8,99 15,67 78,103 127,92 0,0 239,-57 267,-65" /><path
       id="paw"
       class="paw"
       d="m 1408,1675 -95,22 c -49,11 -112,-25 -127,-92 -10,-38 -6,-73 8,-99 14,-27 37,-48 82,-58 l 92,-21 c 61,69 87,160 40,248 z" /></g></svg>
