<?xml version="1.0" encoding="UTF-8" standalone="no"?>
<svg
   version="2"
   viewBox="0 0 2048 2048"
   id="svg1"
   sodipodi:docname="arms_clawshot.svg"
   xml:space="preserve"
   inkscape:export-filename="..\..\..\..\neomoji\neomoji\png\neomouse_clawshot.png"
   inkscape:export-xdpi="96"
   inkscape:export-ydpi="96"
   inkscape:version="1.3.2 (091e20e, 2023-11-25, custom)"
   xmlns:inkscape="http://www.inkscape.org/namespaces/inkscape"
   xmlns:sodipodi="http://sodipodi.sourceforge.net/DTD/sodipodi-0.dtd"
   xmlns="http://www.w3.org/2000/svg"
   xmlns:svg="http://www.w3.org/2000/svg"><defs
     id="defs1" /><sodipodi:namedview
     id="namedview1"
     pagecolor="#ffffff"
     bordercolor="#666666"
     borderopacity="1.0"
     inkscape:showpageshadow="2"
     inkscape:pageopacity="0.0"
     inkscape:pagecheckerboard="0"
     inkscape:deskcolor="#d1d1d1"
     inkscape:zoom="0.36181641"
     inkscape:cx="675.75709"
     inkscape:cy="1010.1808"
     inkscape:window-width="1920"
     inkscape:window-height="1001"
     inkscape:window-x="-9"
     inkscape:window-y="-9"
     inkscape:window-maximized="1"
     inkscape:current-layer="svg1" /><style
     id="style1">
    .paw{fill:#e9afaf}.outline{stroke:#000}
  </style><g
     id="wrench"
     transform="rotate(45,-714,-424)"
     style="display:none"><path
       id="rect3"
       fill="#ffc95c"
       stroke="#000000"
       stroke-linejoin="round"
       stroke-width="30"
       d="m 1140,7 c -62,0 -118,40 -138,100 l 87,-24 5,-1 v 0 a 74.111403,74.111403 0 0 1 39,143 v 1 l -5,1 -97,26 a 147,147 0 0 0 241,-32 l 421,4 a 100,100 0 1 0 0,-140 l -421,2 C 1246,38 1196,7 1140,7 Z m 613,97 c 5,0 5,6 11,6 8,0 7,-8 14,-6 7,2 2,8 9,12 6,4 9,-4 15,2 5,5 -3,8 1,14 4,7 10,2 12,9 2,7 -6,6 -6,14 0,7 8,6 6,13 -2,7 -8,3 -12,9 -4,6 4,10 -1,15 -6,5 -9,-2 -15,1 -7,4 -2,10 -9,12 -7,2 -6,-6 -14,-6 -7,0 -6,8 -13,6 -7,-2 -2,-8 -9,-12 -6,-3 -9,4 -15,-1 -5,-5 3,-9 -1,-15 -4,-6 -10,-2 -12,-9 -2,-7 6,-6 6,-13 0,-8 -8,-7 -6,-14 2,-7 8,-2 12,-9 4,-6 -4,-9 1,-14 6,-6 9,2 15,-2 7,-4 2,-10 9,-12 z" /><path
       id="path1969"
       fill="#000000"
       d="m 1123,43 c 2,6 -1,13 -7,16 l -8,4 -9,1 a 16,16 0 0 1 -16,-15 c 0,-6 3,-11 8,-15 l 8,-3 c 6,-1 7,-2 9,-1 5,0 9,2 12,5 2,2 3,5 3,8 z" /><path
       id="path1967"
       fill="#000000"
       d="m 1170,259 c 1,6 -2,12 -7,16 l -9,3 -9,2 a 16,16 0 0 1 -15,-15 c -1,-6 2,-12 7,-15 2,-1 2,-2 8,-3 l 10,-2 c 4,0 8,2 11,6 z" /><path
       id="path1237"
       fill="#8d5d30"
       d="m 1198,90 -2,4 -4,1 -12,-12 -10,-11 v -4 l 1,-3 2,-1 h 2 c 2,1 2,0 13,12 l 9,11 1,1 z" /><path
       id="path1235"
       fill="#8d5d30"
       d="m 1221,203 -2,10 -3,11 -2,1 h -2 l -3,-2 v -2 l -1,-1 2,-9 c 2,-11 2,-11 4,-12 l 1,-1 h 2 l 3,2 z" /><path
       id="path1021"
       fill="#8d5d30"
       d="m 1248,212 -2,4 -3,1 -9,-8 -6,-8 -1,-1 v -2 l 2,-3 2,-1 h 2 l 8,8 7,8 z" /><path
       id="path1017"
       fill="#8d5d30"
       d="m 1220,59 -3,14 c -3,16 -3,15 -5,16 l -2,1 -2,1 -3,-2 -1,-2 v -1 l 3,-15 4,-16 2,-1 3,-1 2,2 z" /><path
       id="mouth"
       fill="none"
       stroke="#542912"
       stroke-linecap="round"
       stroke-linejoin="round"
       stroke-opacity="1"
       stroke-width="10"
       d="m 1220,178 16,-18 -24,-10 15,-25 -27,-19" /></g><path
     id="right_paw"
     stroke-width="98"
     class="paw outline"
     paint-order="stroke markers fill"
     d="m 1462.2492,1509.8231 a 114,114 0 1 1 227.6883,-10e-5 l 0.7071,85.5599 a 57,57 0 0 1 -57.2756,57.2757 h -114.5513 c -31.8198,-0.7071 -56.5685,-26.8701 -57.2757,-57.2757 z"
     style="display:inline" /><g
     id="g45"
     transform="matrix(-2.3713143e-8,1.0755175,-1.0755175,-2.3713143e-8,3178.2709,67.302107)"><path
       id="path32"
       style="fill:#000000;fill-opacity:1;stroke:none;stroke-width:1px;stroke-linecap:butt;stroke-linejoin:miter;stroke-opacity:1"
       d="m 658.50081,1160.8132 c -33.71967,13.8 -17.88275,7.2722 -51.58417,21.1226 -10.56709,4.3673 -21.15164,8.6916 -31.68986,13.1278 -50.9731,22.0982 -98.35711,52.6401 -139.02937,90.5286 -34.6835,32.2607 -64.61547,69.7308 -87.73972,111.1014 -7.72277,13.9422 -14.81156,28.3292 -19.73098,43.5214 -1.89526,6.8725 -1.52363,14.3135 0.86313,21.0174 v 76.2422 c 23.4946,29.253 52.27078,54.115 84.06849,73.9624 39.48158,24.7306 82.94601,42.7449 127.79617,55.1148 21.72565,6.0473 44.0412,9.4939 66.17851,13.629 7.71023,1.4078 15.42036,2.8161 23.13066,4.2235 -4.06941,-16.6269 -8.22473,-33.2415 -13.11133,-49.6504 2.44083,-0.018 4.8496,0.1262 7.22285,0.3056 8.55977,0.6485 17.07377,2.1717 25.38719,4.0825 16.46414,3.7795 32.5255,9.0961 48.95702,13.0035 22.1755,5.3901 44.7812,9.3156 67.60152,10.4235 16.74589,0.7755 33.6548,0.049 50.09142,-3.4158 13.87725,-2.9471 27.47344,-7.931 39.31473,-15.8444 4.14885,-2.7987 8.04721,-5.9814 11.53074,-9.5783 70.83629,14.2184 141.65689,28.5153 212.48709,42.7644 11.2973,2.2744 22.5944,4.5495 33.8918,6.8235 -11.5821,-11.8157 -23.164,-23.6316 -34.7461,-35.4473 31.0319,-0.04 62.0638,-0.016 93.0957,-0.031 v -18.9882 c 12.9793,-4.6333 25.6017,-10.3711 37.3516,-17.5977 36.9214,15.5459 73.8415,31.0946 110.7637,46.6387 1.646,-19.0451 2.6408,-38.1176 4.303,-57.156 0.1666,-1.8397 0.4087,-3.8854 0.6774,-5.7135 0.275,-1.9211 0.5905,-3.7493 0.9825,-5.6909 0.3042,-1.5262 0.6134,-2.8667 0.9929,-4.3965 0.4589,-1.8338 0.9868,-3.6908 1.5378,-5.4052 2.3486,-7.4339 5.8389,-14.503 10.3626,-20.8551 7.4826,-10.6832 16.9897,-19.7005 26.1555,-28.902 15.7675,-15.7349 31.474,-31.6983 44.5908,-49.7676 7.1616,-9.863 13.3465,-20.4683 17.9882,-31.7517 9.1099,-21.8104 13.1103,-45.5848 12.7158,-69.1704 -0.325,-24.1663 -4.8253,-48.2834 -13.3199,-70.913 -1.8252,-4.7706 -4.276,-9.4382 -8.0745,-12.9405 -8.6002,-8.3131 -22,-11.453 -33.2949,-7.3181 -31.1441,12.6743 -62.2532,25.4342 -93.3899,38.1278 -22.7687,9.2997 -45.5417,18.5891 -68.3133,27.882 -17.8495,-10.0169 -64.7149,-35.2095 -159.7558,-34.3711 4.8542,-5.5032 9.7072,-11.0075 14.5625,-16.5098 -27.0398,0.2422 -54.0858,0.1932 -81.11797,-0.5544 -12.84743,-0.3132 -25.73983,0.719 -38.33128,3.3181 -18.38115,3.6347 -36.20245,9.7713 -53.26953,17.4531 -0.758,-13.9603 -3.65763,-27.8105 -8.60569,-40.8877 -5.35197,-13.5738 -14.26253,-25.6431 -25.34136,-35.099 -11.39984,-9.7977 -24.93525,-16.8815 -39.10959,-21.7438 -16.84071,-5.8067 -34.58921,-8.636 -52.3375,-9.6309 -19.62006,-1.0255 -39.39639,0.415 -58.59859,4.6125 -10.89686,2.4623 -21.54036,6.3278 -31.14054,12.0917 -4.75201,2.5964 -10.09755,3.7536 -15.30942,5.0404 -3.69799,0.8527 -7.49285,1.5623 -11.16711,2.1276 -5.89216,0.8922 -11.74424,1.5395 -17.71839,1.8693 -1.31047,0.078 -2.43517,0.1183 -3.77084,0.1623 -0.88593,-10e-4 -1.99755,0.1051 -2.89316,0.036 -0.12441,-1.583 -0.23997,-3.1667 -0.33203,-4.7519 6.51599,-32.6065 14.00996,-44.6921 24.92268,-79.0091 -2.23373,0.9128 -4.46745,1.8255 -6.70117,2.7383 z m 2.97575,219.7493 c 6.23817,0.1035 12.38975,0.1496 18.59731,0.5329 4.01575,0.2106 8.04987,0.5303 12.08824,0.9222 0.63989,0.064 1.28051,0.1209 1.91992,0.1894 4.47081,14.2455 13.10207,27.2474 24.87143,36.4945 1.42522,1.1463 2.88718,2.2475 4.38834,3.2926 h -35.09375 c 0.17175,8.4664 0.44808,16.9326 1.01172,25.3829 -10.24897,0.5719 -20.53473,0.6352 -30.82098,0.5505 -17.28622,-0.1821 -34.56738,-0.6753 -51.85208,-0.9562 -26.87457,-0.4972 -53.75291,-0.7654 -80.63152,-0.9034 -10.72217,-0.1216 -21.54888,-0.291 -32.20128,-0.6284 -16.57526,-0.6395 -33.13065,-1.5089 -49.60502,-3.0978 -0.38387,-0.1083 -1.70617,-0.023 -1.47186,-0.2587 34.40912,-19.0475 70.82091,-34.6137 108.67844,-45.3642 9.92945,-2.8104 20.11759,-5.3402 30.28227,-7.4732 6.08828,-1.2713 12.20548,-2.4179 18.38577,-3.4386 12.22356,-1.9963 24.72089,-3.4803 37.14948,-4.3357 8.05152,-0.5701 16.15361,-0.8161 24.30357,-0.9088 z"
       sodipodi:nodetypes="ccccccccccccccccccccccccccccccccccccccccccccccccccccccccccccccccccccccccccccccccc" /><path
       style="fill:#ffffff;fill-opacity:1;stroke:none;stroke-width:1px;stroke-linecap:butt;stroke-linejoin:miter;stroke-opacity:1"
       d="m 909.30095,1379.8435 c 0,0 204.52365,-60.1134 311.62215,16.583 l 172.7395,-70.4778 c 0,0 28.3293,73.9325 -13.8191,131.2821 -42.1485,57.3495 -87.7517,69.0958 -93.2794,145.1012 l -82.0054,-34.5479 c 0,0 -62.4049,71.2416 -295.25775,29.0931 z"
       id="path1"
       sodipodi:nodetypes="cccscccc" /><path
       id="rect1"
       style="fill:#dda38d;stroke-width:3.05777;stroke-linecap:square;stroke-linejoin:round"
       d="m 859.77179,1407.0107 h 56.90984 v 126.6967 h -56.90984 z" /><path
       style="fill:#dec6b9;fill-opacity:1;stroke:#000000;stroke-width:1px;stroke-linecap:butt;stroke-linejoin:miter;stroke-opacity:1"
       d="m 782.8556,1437.8839 v -57.3495 h 22.80162 l 44.5668,44.5668 z"
       id="path5" /><path
       id="path2"
       style="fill:#fefefe;fill-opacity:1;stroke:none;stroke-width:1px;stroke-linecap:butt;stroke-linejoin:miter;stroke-opacity:1"
       d="m 860.24219,1407.4824 -97.3125,27.6055 -0.11133,-0.088 v 0.1191 49.6309 0.1191 l 0.11133,-0.088 97.3125,27.6075 z"
       sodipodi:nodetypes="ccccccccc" /><path
       style="fill:#ff820f;fill-opacity:1;stroke:none;stroke-width:1px;stroke-linecap:butt;stroke-linejoin:miter;stroke-opacity:1"
       d="m 728.26991,1349.4413 c 0,0 -159.61134,-44.9123 -360.68017,94.6613 0,0 54.5857,-146.4832 234.23482,-219.0338 0,0 0,36.6208 6.90958,48.3671 6.90959,11.7463 79.46019,6.9096 103.64373,-8.9825 24.18353,-15.892 134.73684,-22.1106 152.01079,36.6208 17.27396,58.7315 -18.65587,95.3523 -58.73144,99.498 -40.07557,4.1458 -80.8421,-4.1457 -77.38731,-51.1309 z"
       id="path3"
       sodipodi:nodetypes="cccssssc" /><path
       style="fill:#ff820f;fill-opacity:1;stroke:none;stroke-width:1px;stroke-linecap:butt;stroke-linejoin:miter;stroke-opacity:1"
       d="m 841.27987,1507.0089 v 99.4688 c 0,0 -30.09498,40.0756 -157.92224,2.0729 -127.82727,-38.0027 -105.02565,27.6383 -105.02565,27.6383 0,0 -132.66397,-22.8016 -210.74224,-112.6261 v -58.7315 c 0,0 27.63833,19.3468 170.66667,19.3468 143.02834,0 192.77734,11.7463 190.0135,-24.1835 h 113.00996 z"
       id="path4"
       sodipodi:nodetypes="ccscccsccc" /><path
       style="fill:#dda38d;fill-opacity:1;stroke:none;stroke-width:1px;stroke-linecap:butt;stroke-linejoin:miter;stroke-opacity:1"
       d="m 905.84615,1366.0243 c 0,0 46.2942,-26.9474 89.82457,-25.5655 l -67.02295,76.0054 73.93253,58.7315 -71.16869,76.0054 69.09579,70.4777 -113.31712,-22.8016 V 1386.753 Z"
       id="path6" /><path
       id="path7"
       style="color:#000000;fill:#ff820f;fill-opacity:1;-inkscape-stroke:none"
       d="m 1171.2461,1371.8789 c 2.2353,27.604 9.3217,136.4645 -9.7852,220.6406 18.2246,-6.7415 29.8009,-13.9177 36.2696,-18.8105 11.9733,-71.6392 9.2622,-149.1193 6.7383,-187.4942 -10.4796,-5.7656 -21.6153,-10.5036 -33.2227,-14.3359 z" /><path
       id="path8"
       style="color:#000000;fill:#ff820f;fill-opacity:1;-inkscape-stroke:none"
       d="m 1019.7324,1359.916 c -11.2,1.0462 -21.85096,2.3521 -31.95506,3.8145 1.20169,4.3513 5.60935,21.9172 8.44141,57.2929 3.25006,40.5971 3.80705,102.473 -7.17383,186.7207 11.20828,0.9712 21.83968,1.6122 31.99808,2.0039 10.9714,-85.2936 10.4783,-148.7583 7.0742,-191.2792 -2.335,-29.1665 -6.1339,-48.7432 -8.3848,-58.5528 z" /><path
       d="m 1365.8125,1337.3125 c 5.0282,26.4266 7.4434,70.6193 -19.9687,107.918 -41.716,56.7609 -86.7527,68.9494 -93.0333,142.8808 l 33.754,14.2207 c 5.5276,-76.0053 51.1308,-87.7521 93.2793,-145.1015 42.1483,-57.3496 13.8183,-131.2813 13.8183,-131.2813 z"
       style="fill:#ff820f;fill-opacity:1;stroke:none;stroke-width:1px"
       id="path13" /><path
       id="path18"
       style="fill:none;fill-rule:evenodd;stroke:#6e2b0f;stroke-width:8"
       transform="matrix(1,0,0,-1,73.046126,2699.1837)"
       d="m 726.52026,1349.4613 c 0.90375,-0.03 0.25889,1.7751 0.0679,2.0358 -2.18916,2.987 -6.64786,0.5191 -8.21088,-1.7644 -4.71,-6.8811 1.02362,-15.5711 7.53229,-18.5932 13.74525,-6.3821 28.58265,4.293 33.18281,17.2361 8.09998,22.7902 -9.28219,45.7078 -30.87559,51.9796 -34.03319,9.8848 -66.95618,-15.9891 -74.98366,-48.451" /><path
       id="rect18"
       style="fill:#fffd25;stroke-width:32;stroke-linecap:square;stroke-linejoin:round"
       d="m 1048.4952,1362.1367 h 87.4561 v 119.7024 h -87.4561 z" /><path
       id="rect19"
       style="fill:#fffd25;stroke-width:32;stroke-linecap:square;stroke-linejoin:round"
       d="m 1047.0295,1490.145 h 87.4561 v 119.7024 h -87.4561 z" /><path
       id="rect20"
       style="fill:#6a6f62;stroke-width:32;stroke-linecap:square;stroke-linejoin:round"
       d="m 1084.1617,1421.2827 h 13.1917 v 108.465 h -13.1917 z" /></g></svg>
