<?xml version="1.0" encoding="UTF-8" standalone="no"?>
<svg
   width="2048"
   height="2048"
   viewBox="0 0 2048 2048"
   version="1.1"
   id="svg8"
   inkscape:version="1.3.2 (091e20e, 2023-11-25, custom)"
   xml:space="preserve"
   sodipodi:docname="arms_hold_hajs.svg"
   inkscape:export-filename="..\..\..\neomoji\png\neocat_hold_hajs.png"
   inkscape:export-xdpi="96"
   inkscape:export-ydpi="96"
   xmlns:inkscape="http://www.inkscape.org/namespaces/inkscape"
   xmlns:sodipodi="http://sodipodi.sourceforge.net/DTD/sodipodi-0.dtd"
   xmlns:xlink="http://www.w3.org/1999/xlink"
   xmlns="http://www.w3.org/2000/svg"
   xmlns:svg="http://www.w3.org/2000/svg"
   xmlns:rdf="http://www.w3.org/1999/02/22-rdf-syntax-ns#"
   xmlns:cc="http://creativecommons.org/ns#"
   xmlns:dc="http://purl.org/dc/elements/1.1/"><defs
     id="defs2"><clipPath
       clipPathUnits="userSpaceOnUse"
       id="clipPath1800"><rect
         style="opacity:1;fill:#000000;fill-opacity:1;stroke:none;stroke-width:15.7975;stroke-linecap:round;stroke-linejoin:round;stroke-miterlimit:4;stroke-dasharray:none;stroke-opacity:1;paint-order:markers fill stroke"
         id="rect1802"
         width="105.50423"
         height="108.78921"
         x="246.09262"
         y="364.6825"
         transform="scale(-1,1)" /></clipPath></defs><sodipodi:namedview
     id="base"
     pagecolor="#ffffff"
     bordercolor="#666666"
     borderopacity="1.0"
     inkscape:pageopacity="0.0"
     inkscape:pageshadow="2"
     inkscape:zoom="0.35"
     inkscape:cx="918.57143"
     inkscape:cy="1261.4286"
     inkscape:document-units="px"
     inkscape:current-layer="layer1"
     inkscape:document-rotation="0"
     showgrid="false"
     units="px"
     scale-x="1"
     inkscape:showpageshadow="2"
     inkscape:pagecheckerboard="0"
     inkscape:deskcolor="#d1d1d1"
     inkscape:window-width="1920"
     inkscape:window-height="1001"
     inkscape:window-x="-9"
     inkscape:window-y="-9"
     inkscape:window-maximized="1" /><metadata
     id="metadata5"><rdf:RDF><cc:Work
         rdf:about=""><dc:format>image/svg+xml</dc:format><dc:type
           rdf:resource="http://purl.org/dc/dcmitype/StillImage" /><cc:license
           rdf:resource="http://creativecommons.org/licenses/by-nc-sa/4.0/" /></cc:Work><cc:License
         rdf:about="http://creativecommons.org/licenses/by-nc-sa/4.0/"><cc:permits
           rdf:resource="http://creativecommons.org/ns#Reproduction" /><cc:permits
           rdf:resource="http://creativecommons.org/ns#Distribution" /><cc:requires
           rdf:resource="http://creativecommons.org/ns#Notice" /><cc:requires
           rdf:resource="http://creativecommons.org/ns#Attribution" /><cc:prohibits
           rdf:resource="http://creativecommons.org/ns#CommercialUse" /><cc:permits
           rdf:resource="http://creativecommons.org/ns#DerivativeWorks" /><cc:requires
           rdf:resource="http://creativecommons.org/ns#ShareAlike" /></cc:License></rdf:RDF></metadata><g
     inkscape:label="Layer 1"
     inkscape:groupmode="layer"
     id="layer1"><image
       width="2048"
       height="2048"
       preserveAspectRatio="none"
       xlink:href="file:///Users/endic/OneDrive/Documents/Visual%20Studio/neogob/./../../../../OneDrive/Documents/emoji/Volpeon/neocat/neocat_2048.png"
       id="image1"
       x="0"
       y="0"
       sodipodi:insensitive="true"
       style="display:inline" /><g
       id="g15"><g
         id="g13"
         inkscape:label="neohaj"
         style="display:inline"
         transform="matrix(-2.6725296,2.6725296,2.6725296,2.6725296,140.21124,-258.98931)"><path
           id="path2"
           style="display:inline;fill:none;fill-opacity:1;stroke:#000000;stroke-width:16.93333312;stroke-linecap:butt;stroke-linejoin:miter;stroke-dasharray:none;stroke-opacity:1"
           d="m 300.865,344.439 c -2.597,0 -5.724,0.38 -8.75,0.714 -23.041,2.539 -40.026,13.796 -50.682,23.447 l -0.073,-0.008 c -67.269,-4.735 -88.196,59.837 -78.925,93.254 9.271,33.417 41.786,32.439 41.786,32.439 h 65.82 c 26.788,0 30.21,-28.041 30.21,-28.041 v -43.375 c -1.648,-13.224 -6.455,-23.218 -12.641,-30.803 2.685,-9.827 8.129,-26.958 16.015,-37.568 6.11,-8.221 2.955,-10.06 -2.76,-10.059 z"
           inkscape:label="outline" /><path
           id="path3"
           style="display:inline;fill:#dea3aa;fill-opacity:1;stroke:none;stroke-width:0.240406;stroke-linecap:butt;stroke-linejoin:miter;stroke-opacity:1"
           d="m 300.865,344.439 c -2.597,0 -5.724,0.38 -8.75,0.714 -23.041,2.539 -40.026,13.796 -50.682,23.447 l -0.073,-0.008 c -67.269,-4.735 -88.196,59.837 -78.925,93.254 9.271,33.417 41.786,32.439 41.786,32.439 h 65.82 c 26.788,0 30.21,-28.041 30.21,-28.041 v -43.375 c -1.648,-13.224 -6.455,-23.218 -12.641,-30.803 2.685,-9.827 8.129,-26.958 16.015,-37.568 6.11,-8.221 2.955,-10.06 -2.76,-10.059 z"
           inkscape:label="body" /><path
           id="path4"
           style="fill:#d3d3d1;fill-opacity:1;stroke:none;stroke-width:0.240406;stroke-linecap:butt;stroke-linejoin:miter;stroke-opacity:1"
           d="m 224.596,438.956 c -23.129,-0.256 -45.46,10.542 -62.294,22.343 0.048,0.179 0.084,0.37 0.133,0.547 9.271,33.417 41.786,32.439 41.786,32.439 h 65.82 c 6.159,0 11.07,-1.492 15.001,-3.775 -8.811,-21.316 -23.737,-44.844 -47.611,-49.632 -4.652,-0.933 -8.296,-1.871 -12.835,-1.922 z"
           inkscape:label="chin" /><g
           id="g10"
           inkscape:label="gills"><path
             style="display:inline;fill:#28606d;fill-opacity:1;stroke:#28606d;stroke-width:6.35;stroke-linecap:round;stroke-dasharray:none;stroke-opacity:1"
             d="m 272.77166,441.69666 15.3,-15.271"
             id="path8" /><path
             style="fill:#28606d;fill-opacity:1;stroke:#28606d;stroke-width:6.35;stroke-linecap:round;stroke-dasharray:none;stroke-opacity:1"
             d="m 281.81449,446.03549 8.981,-9.006"
             id="path9" /><path
             style="fill:#28606d;fill-opacity:1;stroke:#28606d;stroke-width:6.35;stroke-linecap:round;stroke-dasharray:none;stroke-opacity:1"
             d="m 290.70032,450.67232 4.465,-4.271"
             id="path10" /></g><path
           id="path11"
           fill="none"
           stroke="#562a13"
           stroke-linecap="round"
           stroke-linejoin="round"
           stroke-width="0.4"
           d="m 192.26733,459.38391 8.46666,16.93334 12.8323,-17.06563 16.80104,17.06563 17.06562,-16.80104"
           style="display:inline;opacity:1;stroke:#000000;stroke-width:16.9333;stroke-miterlimit:4;stroke-dasharray:none" /><g
           id="g12"
           transform="matrix(0.13229166,0,0,0.13229166,100.94828,248.3976)"
           style="display:inline"><path
             id="path12"
             d="m 1119.671,1150.1838 c 49.9057,0 89.6454,39.7397 89.6454,89.6454 v 55.4506 c 0.02,49.7789 -40.3286,90.1429 -90.1074,90.1429 -49.7789,0 -94.1271,-40.364 -94.1075,-90.1429 v -55.4506 c 0,-49.9057 44.6639,-89.6454 94.5695,-89.6454 z"
             style="fill:#000000;fill-opacity:1;stroke-width:0.924179"
             sodipodi:nodetypes="sscscss" /><path
             id="use12"
             d="m 702.671,1150.1838 c 49.9057,0 89.6454,39.7397 89.6454,89.6454 v 55.4506 c 0.02,49.7789 -40.3286,90.1429 -90.1074,90.1429 -49.7789,0 -94.1271,-40.364 -94.1075,-90.1429 v -55.4506 c 0,-49.9057 44.6639,-89.6454 94.5695,-89.6454 z"
             style="fill:#000000;fill-opacity:1;stroke-width:0.924179"
             sodipodi:nodetypes="sscscss" /></g></g><path
         id="path28"
         style="fill:none;stroke:#000000;stroke-width:128;stroke-linecap:butt;stroke-dasharray:none;stroke-opacity:1"
         d="m 267.55664,1111.3496 c -106.15695,114.966 -129.39328,303.5297 -123.34371,466.7608 4.69616,145.2398 88.80739,284.4626 216.74357,353.9904 152.35933,83.6472 336.84827,77.0368 500.83751,35.5815 70.11836,-11.227 129.78327,-72.2823 130.98945,-144.6687 6.23472,-88.2833 -78.63721,-167.3588 -166.228,-155.0126 -76.88189,19.0233 -156.37727,36.71 -236.14398,26.5459 -56.43015,-6.0916 -124.49841,-31.9759 -137.31172,-94.2662 -18.48613,-92.8142 3.38645,-190.8332 44.51382,-274.8028"
         sodipodi:nodetypes="ccccccccc" /><path
         id="path27"
         style="fill:#ffc95c;stroke-linecap:round"
         d="m 267.55664,1111.3496 c -79.89298,141.23 -129.39328,303.5297 -123.34371,466.7608 4.69616,145.2398 88.80739,284.4626 216.74357,353.9904 152.35933,83.6472 336.84827,77.0368 500.83751,35.5815 70.11836,-11.227 129.78327,-72.2823 130.98945,-144.6687 6.23472,-88.2833 -78.63721,-167.3588 -166.228,-155.0126 -76.88189,19.0233 -156.37727,36.71 -236.14398,26.5459 -56.43015,-6.0916 -124.49841,-31.9759 -137.31172,-94.2662 -18.48613,-92.8142 -23.84706,-167.5997 17.28031,-251.5693 8.29084,-11.4049 26.16,-40.3897 43.48143,-53.7825 11.60714,-8.3929 -23.5711,-26.1428 -39.94647,-32.2209 -76.5171,-53.6516 -129.84129,-97.7068 -206.35839,-151.3584 z"
         sodipodi:nodetypes="cccccccccccc" /><path
         d="M 504.66499,1380.9441 C 493.97731,1368.0119 381,1429 313,1484 c -9,7 -18,15 -29.5,25.5 C 272,1520 268,1534 307,1539 c 49,7 139.0379,33.0425 169.3742,55.0563"
         style="display:inline;fill:none;stroke:#000000;stroke-width:64;stroke-dasharray:none;stroke-opacity:1"
         id="path13"
         sodipodi:nodetypes="ccccc" /><path
         id="path17"
         style="display:inline;fill:#dea3aa;stroke-width:0.908621"
         d="m 517.19727,1334.0114 c 0,0 -20.70165,24.8179 -29.03907,45.8519 C 433.87964,1397.83 358.36215,1447.31 313,1484 c -8.99999,7 -18.00001,15 -29.5,25.5 -11.49999,10.5 -15.49996,24.5 23.5,29.5 48.99995,7 181.53873,34.1132 211.875,56.127 0.73993,-108.1967 14.90803,-151.3071 41.84582,-241.4332 z"
         sodipodi:nodetypes="cccscccc" /></g><g
       id="g29"
       transform="matrix(-1,0,0,1,2059.2202,0)"><g
         id="g24"
         inkscape:label="neohaj"
         style="display:inline"
         transform="matrix(-2.6725296,2.6725296,2.6725296,2.6725296,140.21124,-258.98931)"><path
           id="path15"
           style="display:inline;fill:none;fill-opacity:1;stroke:#000000;stroke-width:16.9333;stroke-linecap:butt;stroke-linejoin:miter;stroke-dasharray:none;stroke-opacity:1"
           d="m 300.865,344.439 c -2.597,0 -5.724,0.38 -8.75,0.714 -23.041,2.539 -40.026,13.796 -50.682,23.447 l -0.073,-0.008 c -67.269,-4.735 -88.196,59.837 -78.925,93.254 9.271,33.417 41.786,32.439 41.786,32.439 h 65.82 c 26.788,0 30.21,-28.041 30.21,-28.041 v -43.375 c -1.648,-13.224 -6.455,-23.218 -12.641,-30.803 2.685,-9.827 8.129,-26.958 16.015,-37.568 6.11,-8.221 2.955,-10.06 -2.76,-10.059 z"
           inkscape:label="outline" /><path
           id="path16"
           style="display:inline;fill:#4f8c9e;fill-opacity:1;stroke:none;stroke-width:0.240406;stroke-linecap:butt;stroke-linejoin:miter;stroke-opacity:1"
           d="m 300.865,344.439 c -2.597,0 -5.724,0.38 -8.75,0.714 -23.041,2.539 -40.026,13.796 -50.682,23.447 l -0.073,-0.008 c -67.269,-4.735 -88.196,59.837 -78.925,93.254 9.271,33.417 41.786,32.439 41.786,32.439 h 65.82 c 26.788,0 30.21,-28.041 30.21,-28.041 v -43.375 c -1.648,-13.224 -6.455,-23.218 -12.641,-30.803 2.685,-9.827 8.129,-26.958 16.015,-37.568 6.11,-8.221 2.955,-10.06 -2.76,-10.059 z"
           inkscape:label="body" /><path
           id="path18"
           style="fill:#d3d3d1;fill-opacity:1;stroke:none;stroke-width:0.240406;stroke-linecap:butt;stroke-linejoin:miter;stroke-opacity:1"
           d="m 224.596,438.956 c -23.129,-0.256 -45.46,10.542 -62.294,22.343 0.048,0.179 0.084,0.37 0.133,0.547 9.271,33.417 41.786,32.439 41.786,32.439 h 65.82 c 6.159,0 11.07,-1.492 15.001,-3.775 -8.811,-21.316 -23.737,-44.844 -47.611,-49.632 -4.652,-0.933 -8.296,-1.871 -12.835,-1.922 z"
           inkscape:label="chin" /><g
           id="g21"
           inkscape:label="gills"><path
             style="display:inline;fill:#28606d;fill-opacity:1;stroke:#28606d;stroke-width:6.35;stroke-linecap:round;stroke-dasharray:none;stroke-opacity:1"
             d="m 272.77166,441.69666 15.3,-15.271"
             id="path19" /><path
             style="fill:#28606d;fill-opacity:1;stroke:#28606d;stroke-width:6.35;stroke-linecap:round;stroke-dasharray:none;stroke-opacity:1"
             d="m 281.81449,446.03549 8.981,-9.006"
             id="path20" /><path
             style="fill:#28606d;fill-opacity:1;stroke:#28606d;stroke-width:6.35;stroke-linecap:round;stroke-dasharray:none;stroke-opacity:1"
             d="m 290.70032,450.67232 4.465,-4.271"
             id="path21" /></g><path
           id="path22"
           fill="none"
           stroke="#562a13"
           stroke-linecap="round"
           stroke-linejoin="round"
           stroke-width="0.4"
           d="m 192.26733,459.38391 8.46666,16.93334 12.8323,-17.06563 16.80104,17.06563 17.06562,-16.80104"
           style="display:inline;opacity:1;stroke:#000000;stroke-width:16.9333;stroke-miterlimit:4;stroke-dasharray:none" /><g
           id="g23"
           transform="matrix(0.13229166,0,0,0.13229166,100.94828,248.3976)"
           style="display:inline"><path
             id="path23"
             d="m 1119.671,1150.1838 c 49.9057,0 89.6454,39.7397 89.6454,89.6454 v 55.4506 c 0.02,49.7789 -40.3286,90.1429 -90.1074,90.1429 -49.7789,0 -94.1271,-40.364 -94.1075,-90.1429 v -55.4506 c 0,-49.9057 44.6639,-89.6454 94.5695,-89.6454 z"
             style="fill:#000000;fill-opacity:1;stroke-width:0.924179"
             sodipodi:nodetypes="sscscss" /><path
             id="use23"
             d="m 702.671,1150.1838 c 49.9057,0 89.6454,39.7397 89.6454,89.6454 v 55.4506 c 0.02,49.7789 -40.3286,90.1429 -90.1074,90.1429 -49.7789,0 -94.1271,-40.364 -94.1075,-90.1429 v -55.4506 c 0,-49.9057 44.6639,-89.6454 94.5695,-89.6454 z"
             style="fill:#000000;fill-opacity:1;stroke-width:0.924179"
             sodipodi:nodetypes="sscscss" /></g></g><path
         id="path24"
         style="fill:none;stroke:#000000;stroke-width:128;stroke-linecap:butt;stroke-dasharray:none;stroke-opacity:1"
         d="m 267.55664,1111.3496 c -106.15695,114.966 -129.39328,303.5297 -123.34371,466.7608 4.69616,145.2398 88.80739,284.4626 216.74357,353.9904 152.35933,83.6472 336.84827,77.0368 500.83751,35.5815 70.11836,-11.227 129.78327,-72.2823 130.98945,-144.6687 6.23472,-88.2833 -78.63721,-167.3588 -166.228,-155.0126 -76.88189,19.0233 -156.37727,36.71 -236.14398,26.5459 -56.43015,-6.0916 -124.49841,-31.9759 -137.31172,-94.2662 -18.48613,-92.8142 3.38645,-190.8332 44.51382,-274.8028"
         sodipodi:nodetypes="ccccccccc" /><path
         id="path25"
         style="fill:#ffc95c;stroke-linecap:round"
         d="m 267.55664,1111.3496 c -79.89298,141.23 -129.39328,303.5297 -123.34371,466.7608 4.69616,145.2398 88.80739,284.4626 216.74357,353.9904 152.35933,83.6472 336.84827,77.0368 500.83751,35.5815 70.11836,-11.227 129.78327,-72.2823 130.98945,-144.6687 6.23472,-88.2833 -78.63721,-167.3588 -166.228,-155.0126 -76.88189,19.0233 -156.37727,36.71 -236.14398,26.5459 -56.43015,-6.0916 -124.49841,-31.9759 -137.31172,-94.2662 -18.48613,-92.8142 -23.84706,-167.5997 17.28031,-251.5693 8.29084,-11.4049 26.16,-40.3897 43.48143,-53.7825 11.60714,-8.3929 -23.5711,-26.1428 -39.94647,-32.2209 -76.5171,-53.6516 -129.84129,-97.7068 -206.35839,-151.3584 z"
         sodipodi:nodetypes="cccccccccccc" /><path
         d="M 504.66499,1380.9441 C 493.97731,1368.0119 381,1429 313,1484 c -9,7 -18,15 -29.5,25.5 C 272,1520 268,1534 307,1539 c 49,7 139.0379,33.0425 169.3742,55.0563"
         style="display:inline;fill:none;stroke:#000000;stroke-width:64;stroke-dasharray:none;stroke-opacity:1"
         id="path26"
         sodipodi:nodetypes="ccccc" /><path
         id="path29"
         style="display:inline;fill:#4f8c9e;stroke-width:0.908621;fill-opacity:1"
         d="m 517.19727,1334.0114 c 0,0 -20.70165,24.8179 -29.03907,45.8519 C 433.87964,1397.83 358.36215,1447.31 313,1484 c -8.99999,7 -18.00001,15 -29.5,25.5 -11.49999,10.5 -15.49996,24.5 23.5,29.5 48.99995,7 181.53873,34.1132 211.875,56.127 0.73993,-108.1967 14.90803,-151.3071 41.84582,-241.4332 z"
         sodipodi:nodetypes="cccscccc" /></g></g><style
     id="style1">
    .fur{fill:#e3dedb}.paw{fill:#e9afaf}.outline{stroke:#000}.hand{fill:#e9afaf}
  </style></svg>
