<?xml version="1.0" encoding="UTF-8" standalone="no"?>
<svg
   xmlns:dc="http://purl.org/dc/elements/1.1/"
   xmlns:cc="http://creativecommons.org/ns#"
   xmlns:rdf="http://www.w3.org/1999/02/22-rdf-syntax-ns#"
   xmlns:svg="http://www.w3.org/2000/svg"
   xmlns="http://www.w3.org/2000/svg"
   xmlns:sodipodi="http://sodipodi.sourceforge.net/DTD/sodipodi-0.dtd"
   xmlns:inkscape="http://www.inkscape.org/namespaces/inkscape"
   width="2048"
   height="2048"
   viewBox="0 0 541.86665 541.86668"
   version="1.1"
   id="svg849"
   inkscape:version="1.0.2-2 (e86c870879, 2021-01-15)"
   sodipodi:docname="neocat_hold_neocat.svg"
   inkscape:export-filename="C:\Users\endic\OneDrive\Documents\Visual Studio\Neomojimixer\neomojimixer\parts\arms_hug_neocat_blue.png"
   inkscape:export-xdpi="12"
   inkscape:export-ydpi="12">
  <defs
     id="defs843">
    <clipPath
       clipPathUnits="userSpaceOnUse"
       id="clipPath1800">
      <rect
         style="opacity:1;fill:#000000;fill-opacity:1;stroke:none;stroke-width:15.7975;stroke-linecap:round;stroke-linejoin:round;stroke-miterlimit:4;stroke-dasharray:none;stroke-opacity:1;paint-order:markers fill stroke"
         id="rect1802"
         width="105.50423"
         height="108.78921"
         x="246.09262"
         y="364.6825"
         transform="scale(-1,1)" />
    </clipPath>
    <filter
       inkscape:collect="always"
       style="color-interpolation-filters:sRGB"
       id="filter3396"
       x="-9.6334309e-07"
       width="1.0000019"
       y="-1.5907991e-06"
       height="1.0000032">
      <feGaussianBlur
         inkscape:collect="always"
         stdDeviation="7.6692092e-05"
         id="feGaussianBlur3398" />
    </filter>
  </defs>
  <sodipodi:namedview
     id="base"
     pagecolor="#ffffff"
     bordercolor="#666666"
     borderopacity="1.0"
     inkscape:pageopacity="0.0"
     inkscape:pageshadow="2"
     inkscape:zoom="0.24748737"
     inkscape:cx="214.40327"
     inkscape:cy="1047.3766"
     inkscape:document-units="px"
     inkscape:current-layer="layer2"
     inkscape:document-rotation="0"
     showgrid="false"
     units="px"
     inkscape:window-width="1920"
     inkscape:window-height="1001"
     inkscape:window-x="-9"
     inkscape:window-y="-9"
     inkscape:window-maximized="1" />
  <metadata
     id="metadata846">
    <rdf:RDF>
      <cc:Work
         rdf:about="">
        <dc:format>image/svg+xml</dc:format>
        <dc:type
           rdf:resource="http://purl.org/dc/dcmitype/StillImage" />
        <dc:title></dc:title>
      </cc:Work>
    </rdf:RDF>
  </metadata>
  <g
     inkscape:groupmode="layer"
     id="layer2"
     inkscape:label="Layer 2">
    <g
       id="g1817"
       transform="translate(-27.154045,83.594915)"
       style="opacity:1">
      <g
         id="g1731"
         transform="matrix(0.4,0,0,0.4,157.49189,223.23371)"
         style="display:inline">
        <path
           id="path1733"
           style="display:inline;fill:#000000;stroke-width:0.264583"
           d="M 99.357422,37.410156 C 83.308249,37.770524 67.45496,44.740277 56.554036,56.563321 45.54664,67.981565 39.512777,83.898695 39.786718,99.723042 c -0.08413,18.167888 -0.181186,36.335738 -0.166176,54.503908 -0.02579,27.09166 -0.03938,54.18333 -0.05414,81.275 -10.999965,28.79745 -16.734262,59.59363 -16.811865,90.42102 -0.195442,13.234 -0.160382,26.47943 0.473362,39.70146 2.653354,38.92888 18.628375,76.7757 44.529032,105.94381 17.538715,19.86605 39.482839,35.8528 63.870249,46.25203 23.02089,9.886 48.11802,14.94815 73.1779,14.58698 56.32369,0.1021 112.64793,0.16132 168.97139,-0.0329 10.71919,-0.0887 21.42683,-1.36293 31.85111,-3.86844 25.59525,-6.07699 49.49175,-19.22145 68.2281,-37.70134 18.54958,-18.10821 32.18379,-41.23478 38.85324,-66.29762 3.37205,-12.44941 4.96197,-25.3557 4.95292,-38.24706 0.26359,-16.30864 0.1577,-32.62014 0.18715,-48.93019 -0.0253,-13.549 0.005,-27.10413 -0.52228,-40.64483 -0.86625,-16.89201 -3.80608,-33.64454 -8.23037,-49.9575 -1.58517,-5.76032 -3.3871,-11.46071 -5.40298,-17.08478 4.64464,-42.37252 9.52206,-84.72045 14.00693,-127.10986 1.05375,-16.465196 -4.83606,-33.344564 -16.25786,-45.308254 -5.16952,-5.581798 -11.27703,-10.356368 -18.18948,-13.585442 -14.61754,-7.035176 -32.13304,-8.204045 -47.36964,-2.442051 -4.04084,1.534165 -7.94365,3.353155 -11.91941,4.962211 -26.79425,11.280021 -53.49817,22.7746 -80.23538,34.190425 -25.75436,-7.254222 -52.7192,-10.187063 -79.43094,-8.590357 -17.39226,0.934785 -34.69604,3.607418 -51.53781,8.059107 -30.3552,-12.98483 -60.63253,-26.146097 -91.11364,-38.830712 -7.10191,-2.646593 -14.72951,-3.717872 -22.288712,-3.577491 z" />
        <path
           id="path1745"
           style="display:inline;fill:#fdc75a;fill-opacity:1;stroke-width:0.264583;stroke-miterlimit:4;stroke-dasharray:none"
           d="m 100.3457,86.953125 c -3.157945,0.06793 -6.110662,1.717201 -8.136889,4.088834 -1.550461,1.6052 -2.623763,3.761736 -2.504738,6.035265 -0.462657,12.831616 -0.274591,25.674026 -0.338316,38.511056 -0.03438,36.40351 -0.05587,72.80703 -0.06888,109.21055 -8.615436,19.73408 -13.951139,40.86171 -16.078348,62.27675 -0.830725,8.72236 -0.83924,17.49651 -0.870484,26.25098 0.03549,8.73847 -0.119315,17.48148 0.194088,26.21616 0.358124,10.67545 2.418615,21.24494 5.513561,31.45084 4.183689,13.69705 10.693693,26.67128 19.168534,38.21693 14.145982,19.35539 33.620162,34.86213 55.852142,43.90825 11.84535,4.83868 24.40444,7.91611 37.13672,9.15735 4.45059,0.39917 8.92586,0.24872 13.38879,0.32134 46.482,0.15543 92.96437,0.13402 139.44655,0.10188 12.33781,-0.0279 24.67725,-0.001 37.0135,-0.19978 5.0106,-0.17384 9.93735,-1.24374 14.80487,-2.37586 9.25526,-2.1872 18.09124,-5.98972 26.27025,-10.81332 16.11941,-9.62029 29.34518,-24.03275 37.48746,-40.952 4.70372,-9.7371 7.79374,-20.27421 8.94997,-31.0296 0.46189,-6.50142 0.30139,-13.0273 0.38878,-19.54039 0.11668,-23.28015 0.19429,-46.56114 0.0884,-69.84134 -0.0802,-7.86458 -0.48217,-15.73924 -1.65164,-23.52306 -2.19213,-15.69943 -6.36265,-31.11508 -12.35325,-45.79004 -0.51005,-1.35986 -1.1136,-2.77754 -0.80273,-4.26028 0.61198,-4.85588 1.08575,-9.73067 1.65302,-14.59327 4.2914,-38.57744 8.65639,-77.14748 12.77755,-115.74326 0.21561,-2.37122 0.58625,-4.756922 0.44613,-7.138899 -0.62029,-4.165338 -3.80665,-7.710421 -7.67936,-9.204852 -2.89391,-0.959919 -6.15763,-0.74064 -8.88032,0.641607 -27.70943,11.577558 -55.27215,23.513094 -82.89366,35.304884 -7.49396,3.20794 -14.98792,6.41588 -22.48188,9.62382 -10.4507,-3.79875 -21.13793,-7.02806 -32.09146,-9.00842 -11.03546,-2.07097 -22.24741,-3.27451 -33.48197,-3.29344 -7.26676,-0.0354 -14.54677,0.12177 -21.78307,0.81947 -13.01191,1.3403 -25.93658,3.71803 -38.50098,7.37448 -3.14845,0.9084 -6.2396,2.01121 -9.37778,2.94525 -2.01703,0.46573 -3.80743,-0.79665 -5.60465,-1.48237 -23.29783,-10.00692 -46.59439,-20.01195 -69.91895,-29.96563 -10.44183,-4.435191 -20.88547,-8.877317 -31.37027,-13.210576 -1.18743,-0.474558 -2.45013,-0.520845 -3.71072,-0.489309 z" />
      </g>
      <g
         id="g1687"
         transform="matrix(0.4,0,0,0.4,157.11367,221.92596)"
         style="display:inline">
        <path
           style="opacity:1;fill:none;stroke:#8e5e31;stroke-width:50.2708;stroke-linecap:round;stroke-linejoin:round;stroke-miterlimit:4;stroke-dasharray:none;stroke-opacity:1"
           d="M 126.30267,377.9145 92.305809,394.90254"
           id="path1671"
           sodipodi:nodetypes="cc"
           inkscape:label="whisker br" />
        <path
           style="opacity:1;fill:none;stroke:#8e5e31;stroke-width:50.2708;stroke-linecap:round;stroke-linejoin:round;stroke-miterlimit:4;stroke-dasharray:none;stroke-opacity:1"
           d="m 92.305809,327.1494 33.996861,16.98804"
           id="path1669"
           sodipodi:nodetypes="cc"
           inkscape:label="whisker tr" />
        <path
           style="opacity:1;fill:none;stroke:#8e5e31;stroke-width:50.2708;stroke-linecap:round;stroke-linejoin:round;stroke-miterlimit:4;stroke-dasharray:none;stroke-opacity:1"
           d="M 431.40642,403.72808 380.19856,377.9859"
           id="path1665"
           sodipodi:nodetypes="cc"
           inkscape:label="whisker bl" />
        <path
           style="opacity:1;fill:none;stroke:#8e5e31;stroke-width:50.2708;stroke-linecap:round;stroke-linejoin:round;stroke-miterlimit:4;stroke-dasharray:none;stroke-opacity:1"
           d="M 380.19856,344.46108 431.40642,318.7189"
           id="path1663"
           sodipodi:nodetypes="cc"
           inkscape:label="whisker tl" />
        <path
           style="opacity:1;fill:none;stroke:#562a13;stroke-width:50.2708;stroke-linecap:round;stroke-linejoin:round;stroke-miterlimit:4;stroke-dasharray:none;stroke-opacity:1"
           d="m 168.59081,343.82666 25.18881,42.73227 34.45118,-42.42701 42.07948,42.22656 50.73464,-42.13091"
           id="path1661"
           sodipodi:nodetypes="ccccc"
           inkscape:label="mouth" />
        <rect
           style="fill:#000000;stroke:none;stroke-width:55.3471;stroke-linecap:round;stroke-linejoin:round;paint-order:markers fill stroke"
           id="rect1644"
           width="68.251152"
           height="84.981857"
           x="287.57495"
           y="220.13757"
           rx="34.125576"
           ry="0"
           inkscape:label="left eye" />
        <rect
           style="fill:#000000;stroke:none;stroke-width:55.3471;stroke-linecap:round;stroke-linejoin:round;paint-order:markers fill stroke"
           id="rect1642"
           width="68.251152"
           height="84.981857"
           x="135.23131"
           y="220.13757"
           rx="34.125576"
           ry="0"
           inkscape:label="right eye" />
      </g>
    </g>
    <rect
       style="display:inline;opacity:1;fill:#4f8c9e;fill-opacity:1;stroke:#000000;stroke-width:19.9214;stroke-linecap:round;stroke-linejoin:round;stroke-miterlimit:4;stroke-dasharray:none;stroke-opacity:1;paint-order:markers fill stroke"
       id="left_arm"
       width="193.92979"
       height="88.916389"
       x="-450.6293"
       y="375.3544"
       rx="45.988945"
       ry="42.49102"
       transform="matrix(-0.96592583,0.25881905,0.25881905,0.96592583,-60.890874,79.354532)"
       clip-path="url(#clipPath1800)"
       inkscape:label="left_arm" />
    <rect
       style="paint-order:markers fill stroke;stroke-opacity:1;stroke-dasharray:none;stroke-miterlimit:4;stroke-linejoin:round;stroke-linecap:round;stroke-width:19.9214;stroke:#000000;fill-opacity:1;opacity:1;display:inline;filter:url(#filter3396);fill:#4f8c9e"
       id="right_arm"
       width="193.92979"
       height="88.916389"
       x="-450.6293"
       y="375.3544"
       rx="45.988945"
       ry="42.49102"
       transform="rotate(15,-35.402302,2075.4991)"
       clip-path="url(#clipPath1800)"
       inkscape:label="right_arm" />
  </g>
</svg>
