<svg xmlns="http://www.w3.org/2000/svg" version="2" viewBox="0 0 2048 2048">
  <style>
    .paw{fill:#e9afaf}.outline{stroke:#000}
  </style>
  <g id="wrench" transform="rotate(45 -714 -424)">
    <path id="rect3" fill="#ffc95c" stroke="#000" stroke-linejoin="round" stroke-width="30" d="M1140 7c-62 0-118 40-138 100l87-24 5-1h0a74 74 0 0 1 39 143v1l-5 1-97 26a147 147 0 0 0 241-32l421 4a100 100 0 1 0 0-140l-421 2c-26-49-76-80-132-80Zm613 97c5 0 5 6 11 6 8 0 7-8 14-6s2 8 9 12c6 4 9-4 15 2 5 5-3 8 1 14 4 7 10 2 12 9s-6 6-6 14c0 7 8 6 6 13s-8 3-12 9 4 10-1 15c-6 5-9-2-15 1-7 4-2 10-9 12s-6-6-14-6c-7 0-6 8-13 6s-2-8-9-12c-6-3-9 4-15-1-5-5 3-9-1-15s-10-2-12-9 6-6 6-13c0-8-8-7-6-14s8-2 12-9c4-6-4-9 1-14 6-6 9 2 15-2 7-4 2-10 9-12h2z"/>
    <path id="path1969" fill="#000" d="M1123 43c2 6-1 13-7 16l-8 4-9 1a16 16 0 0 1-16-15c0-6 3-11 8-15l8-3c6-1 7-2 9-1 5 0 9 2 12 5 2 2 3 5 3 8z" />
    <path id="path1967" fill="#000" d="M1170 259c1 6-2 12-7 16l-9 3-9 2a16 16 0 0 1-15-15c-1-6 2-12 7-15 2-1 2-2 8-3l10-2c4 0 8 2 11 6l4 8z" />
    <path id="path1237" fill="#8d5d30" d="m1198 90-2 4-4 1-12-12-10-11v-4l1-3 2-1h2c2 1 2 0 13 12l9 11 1 1v2z" />
    <path id="path1235" fill="#8d5d30" d="m1221 203-2 10-3 11-2 1h-2l-3-2v-2l-1-1 2-9c2-11 2-11 4-12l1-1h2l3 2 1 3z" />
    <path id="path1021" fill="#8d5d30" d="m1248 212-2 4-3 1-9-8-6-8-1-1v-2l2-3 2-1h2l8 8 7 8v2z" />
    <path id="path1017" fill="#8d5d30" d="m1220 59-3 14c-3 16-3 15-5 16l-2 1-2 1-3-2-1-2v-1l3-15 4-16 2-1 3-1 2 2 2 4z" />
    <path id="mouth" fill="none" stroke="#542912" stroke-linecap="round" stroke-linejoin="round" stroke-opacity="1" stroke-width="10" d="m1220 178 16-18-24-10 15-25-27-19" />
  </g>
  <path id="right_paw" stroke-width="98" class="paw outline" paint-order="stroke markers fill" d="M562 1671a114 114 0 1 0-161-161l-61 60a57 57 0 0 0 0 81l81 81c23 22 59 21 81 0z"/>
</svg>
