<?xml version="1.0" encoding="UTF-8" standalone="no"?>
<svg
   version="1.2"
   viewBox="0 0 2048 2048"
   id="svg7"
   sodipodi:docname="arms_fries.svg"
   xml:space="preserve"
   inkscape:version="1.3.2 (091e20e, 2023-11-25, custom)"
   xmlns:inkscape="http://www.inkscape.org/namespaces/inkscape"
   xmlns:sodipodi="http://sodipodi.sourceforge.net/DTD/sodipodi-0.dtd"
   xmlns:xlink="http://www.w3.org/1999/xlink"
   xmlns="http://www.w3.org/2000/svg"
   xmlns:svg="http://www.w3.org/2000/svg"><sodipodi:namedview
     id="namedview7"
     pagecolor="#ffffff"
     bordercolor="#666666"
     borderopacity="1.0"
     inkscape:showpageshadow="2"
     inkscape:pageopacity="0.0"
     inkscape:pagecheckerboard="0"
     inkscape:deskcolor="#d1d1d1"
     inkscape:zoom="1.0233713"
     inkscape:cx="620.00955"
     inkscape:cy="1386.1049"
     inkscape:window-width="1920"
     inkscape:window-height="1001"
     inkscape:window-x="-9"
     inkscape:window-y="-9"
     inkscape:window-maximized="1"
     inkscape:current-layer="svg7" /><style
     id="style1">
    .mouth{stroke:#37270c}
  </style><defs
     id="defs3"><symbol
       id="fry"><path
         fill="#ffaf2d"
         d="m 15 0 l 16 0 c 17 0 32 14 32 32 l 0 368 c 0 18 -15 32 -32 32 l -31 0"
         id="path1" /><path
         fill="#fbcc3e"
         d="m 0 432 l -34 0 c -18 0 -32 -14 -32 -32 l 0 -368 c 0 -18 14 -32 32 -32 l 0 0 l 49 0 z"
         id="path3" /></symbol></defs><image
     width="2048"
     height="2048"
     preserveAspectRatio="none"
     xlink:href="../../../../emoji/Volpeon/neocat/neocat_2048.png"
     id="image1-9"
     x="0"
     y="0" /><path
     id="mouth"
     fill="none"
     stroke-linecap="round"
     stroke-linejoin="round"
     stroke-width="80"
     d="m643 1313 98 155 125-160 156 163 191-160"
     class="mouth" /><g
     id="french_fries"
     clip-path="none"
     transform="translate(1213.1789,286.829)"><path
       id="box_back"
       fill="#c1124c"
       d="m 58,1228 88,447 c 7,38 41,65 80,65 h 365 c 42,0 78,-30 86,-71 l 87,-442 C 764,1044 628,921 438,905 246,890 67,1005 58,1228" /><use
       href="#fry"
       transform="rotate(2.6514048,-22268.33,9502.8539)"
       id="use3" /><use
       href="#fry"
       transform="rotate(-11.615163,5708.404,-358.87488)"
       id="use4" /><use
       href="#fry"
       transform="rotate(-4.1459222,15228.15,-3728.6044)"
       id="use5" /><use
       href="#fry"
       transform="rotate(10.813175,-5577.2558,3866.5086)"
       id="use6" /><use
       href="#fry"
       transform="rotate(10.688769,-5874.6562,3446.2468)"
       id="use7" /><path
       id="box_front"
       fill="#ef3837"
       d="m 58,1228 c 0,0 0,1 0,1 l 88,447 c 7,38 41,65 80,65 h 365 c 42,0 78,-30 86,-71 l 87,-442 h -80 c -37,0 -62,23 -68,53 -19,96 -109,168 -203,168 -94,0 -184,-73 -206,-166 -7,-30 -28,-55 -65,-55 z" /></g><use
     xlink:href="#fry"
     id="use1"
     transform="translate(375.75321,1242.9035)" /><image
     width="2048"
     height="2048"
     preserveAspectRatio="none"
     xlink:href="../../../../emoji/Volpeon/drgn/drgn_nom_fries_2048.png"
     id="image1"
     x="0"
     y="0"
     sodipodi:insensitive="true"
     style="display:none" /><style
     id="style2">
    .fur{fill:#e3dedb}.paw{fill:#e9afaf}.outline{stroke:#000}
  </style><use
     xlink:href="#fry"
     id="use8"
     transform="rotate(32.500775,-1971.0426,1582.1548)" /><use
     xlink:href="#fry"
     id="use9"
     transform="rotate(-14.842094,5092.889,-358.67198)" /><path
     id="right_paw"
     class="paw outline"
     stroke-width="98"
     d="m 368.83333,1695.3852 a 114,114 0 1 0 0,-228 h -86 c -31,0 -57,25 -57,57 v 114 c 0,32 26,57 57,57 z"
     paint-order="stroke markers fill" /></svg>
