<?xml version="1.0" encoding="UTF-8" standalone="no"?>
<svg
   version="1.1"
   viewBox="0 0 2048 2048"
   id="svg1"
   sodipodi:docname="arms_baby_devil.svg"
   xml:space="preserve"
   inkscape:version="1.3.2 (091e20e, 2023-11-25, custom)"
   xmlns:inkscape="http://www.inkscape.org/namespaces/inkscape"
   xmlns:sodipodi="http://sodipodi.sourceforge.net/DTD/sodipodi-0.dtd"
   xmlns:xlink="http://www.w3.org/1999/xlink"
   xmlns="http://www.w3.org/2000/svg"
   xmlns:svg="http://www.w3.org/2000/svg"><sodipodi:namedview
     id="namedview1"
     pagecolor="#ffffff"
     bordercolor="#666666"
     borderopacity="1.0"
     inkscape:showpageshadow="2"
     inkscape:pageopacity="0.0"
     inkscape:pagecheckerboard="0"
     inkscape:deskcolor="#d1d1d1"
     inkscape:zoom="0.51168567"
     inkscape:cx="1573.2315"
     inkscape:cy="1326.0094"
     inkscape:window-width="1920"
     inkscape:window-height="1001"
     inkscape:window-x="-9"
     inkscape:window-y="-9"
     inkscape:window-maximized="1"
     inkscape:current-layer="baby" /><defs
     id="defs1"><clipPath
       id="clipPath2763"
       clipPathUnits="userSpaceOnUse"><ellipse
         id="ellipse2765"
         cx="97.1"
         cy="460.6"
         fill="#fdc75a"
         stroke="#000"
         stroke-linecap="round"
         stroke-linejoin="round"
         stroke-width="19.1"
         display="inline"
         paint-order="markers stroke fill"
         rx="40.7"
         ry="56.7" /></clipPath><clipPath
       clipPathUnits="userSpaceOnUse"
       id="clipPath1800"><rect
         style="opacity:1;fill:#000000;fill-opacity:1;stroke:none;stroke-width:15.7975;stroke-linecap:round;stroke-linejoin:round;stroke-miterlimit:4;stroke-dasharray:none;stroke-opacity:1;paint-order:markers fill stroke"
         id="rect1802"
         width="105.50423"
         height="108.78921"
         x="246.09262"
         y="364.6825"
         transform="scale(-1,1)" /></clipPath></defs><style
     id="style1">
    .fur{fill:#e3dedb}.paw{fill:#e9afaf}.outline{stroke:#000}
  </style><g
     id="layer1"
     transform="translate(217.6)"><g
       id="left_arm"
       stroke-linejoin="round"
       display="inline"
       transform="scale(.26458 -.26458) rotate(-30 -3962 1467.8)"><path
         id="path2652"
         stroke-width="566.9"
         d="M6950.4 264.7c-37.8-404.3-251.7-1349.2-414.2-1632.6-223-393-517.8-733.2-68-1050.7 340.1-245.6 782.3 22.7 1054.4 706.8C7982.2-556.1 7850.3-171 7790.6 332"
         class="fur outline"
         paint-order="stroke fill markers" /><path
         id="path2654"
         stroke-width="3.8"
         d="m7481-1806.3-11.3-26.5a2199.5 2199.5 0 0 0-241.9-393A1217 1217 0 0 0 7020-2411a703 703 0 0 0-173.9-83.1 480 480 0 0 0-177.6-7.6 423.3 423.3 0 0 0-170 60.5 540.4 540.4 0 0 0-71.9 52.9 782.3 782.3 0 0 0-117.1 121 446 446 0 0 0-60.5 124.6 359 359 0 0 0-11.4 158.8 506.4 506.4 0 0 0 34 128.5 986.4 986.4 0 0 0 98.3 204l83.2 139.9 83.1 143.6 30.2 56.7c291 109.6 865.5-143.6 914.6-495.1z"
         class="paw" /></g><g
       id="baby"
       transform="rotate(30 159.2 478.5)"><ellipse
         id="swaddling_outline"
         cx="1496.4"
         cy="1040.9"
         fill="#fdc75a"
         stroke="#000"
         stroke-linecap="round"
         stroke-linejoin="round"
         stroke-width="79"
         display="inline"
         paint-order="markers stroke fill"
         rx="153.8"
         ry="214.3"
         style="fill:#f2725a;fill-opacity:1" /><g
         id="swaddling"
         clip-path="url(#clipPath2763)"
         transform="translate(1129.5 -699.9) scale(3.7793)"><path
           id="path2755"
           fill="#5fd38d"
           stroke="#000"
           stroke-linecap="round"
           stroke-linejoin="round"
           stroke-width="19"
           d="m111.1 462.6-1-.5a149 149 0 0 1-21.7-13.8 211.4 211.4 0 0 1-21-17.8l-3.3-3a40.7 56.7 0 0 0-7.7 33.1 40.7 56.7 0 0 0 14 42.7l2.9-2.2a221.4 221.4 0 0 0 37.7-38.4h.1z"
           display="inline"
           paint-order="markers stroke fill" /><path
           id="ellipse2748"
           fill="#5fd38d"
           stroke="#000"
           stroke-linecap="round"
           stroke-linejoin="round"
           stroke-width="19"
           d="m131.5 430.2-.5 1a196.8 196.8 0 0 1-27.1 40.4A220.8 220.8 0 0 1 73.3 501l-3 2.2a40.7 56.7 0 0 0 26.8 14 40.7 56.7 0 0 0 40.7-56.7 40.7 56.7 0 0 0-6.3-30.4z"
           display="inline"
           paint-order="markers stroke fill" /><path
           id="path2709"
           fill="#5fd38d"
           stroke="#000"
           stroke-linecap="round"
           stroke-linejoin="miter"
           stroke-width="11.1"
           d="M53 491.4s14.2 24 88.2 15v-33c-74 9-93.4-15-93.4-15l5.3 33"
           display="inline" /></g><g
         id="layer1-5"
         inkscape:label="neocat_devil"
         transform="matrix(3.7795276,0,0,3.7795276,1431.6082,-806.62698)"><path
           id="path1"
           style="display:inline;fill:#000000;fill-opacity:1;stroke-width:0.066146"
           d="m 12.34375,350.69531 c -5.8268817,0.0521 -11.0994229,4.26082 -13.1328125,9.60938 -2.1158948,5.41532 -3.4487399,11.10467 -4.4433594,16.82226 -3.5457928,-1.35888 -7.5424191,-2.34529 -11.2664261,-1.09205 -6.245985,1.95556 -10.761123,8.32914 -10.521625,14.87428 -0.214462,5.19154 0.09792,10.38862 -0.0825,15.58058 0.06462,1.7418 0.06617,3.56851 -0.765787,5.15146 -0.304633,0.82106 -0.59095,1.64836 -0.859756,2.48183 -6.674659,2.66328 -11.008876,10.41604 -9.343616,17.48283 0.35849,1.81907 1.092651,3.55381 2.068226,5.12654 -3.815822,5.80666 -3.103715,14.2233 1.838107,19.16661 3.885103,4.13756 10.146973,5.87937 15.58902,4.20576 0.498364,-0.17233 0.784365,0.53448 1.206337,0.72017 7.361332,5.84785 17.01605679,8.41465 26.3321316,7.781 11.1050494,-0.23427 22.2462814,0.34039 33.3213594,-0.677 3.475754,-0.72086 6.831027,-2.04417 9.834139,-3.93873 5.55119,2.02338 12.325518,0.76101 16.419561,-3.61096 4.48726,-4.50789 5.981772,-11.93868 3.009607,-17.66256 -1.093098,-2.31267 -2.782209,-4.32765 -4.815887,-5.87101 4.689392,-3.46969 7.379352,-9.69989 6.068359,-15.4707 -1.033311,-5.15893 -4.74671,-9.79816 -9.728516,-11.61719 0.22547,-1.69618 0.588404,-3.37082 0.816476,-5.06759 0.891552,-5.49133 2.129735,-10.99407 1.981093,-16.58632 -0.773928,-7.38272 -8.130369,-13.26324 -15.487157,-12.57899 -3.124334,0.28633 -6.026248,1.59286 -8.940515,2.66267 -2.960519,1.15927 -5.866327,2.43512 -8.817162,3.55265 -0.657361,-0.14269 -1.394092,-0.31591 -1.972656,-0.58203 -2.048516,-7.26705 -3.613544,-14.69758 -5.886719,-21.91992 -2.063729,-4.86932 -6.998577,-8.69155 -12.419922,-8.54297 z"
           inkscape:label="outline" /><path
           id="fur"
           fill="#fdc75a"
           d="m 51.335249,386.01568 c -3.43958,0.59531 -6.61458,2.44739 -9.921875,3.57187 l -8.466665,3.43959 A 38.298438,38.298438 0 0 0 5.2316043,392.63026 c -5.622395,-2.18281 -11.24479,-4.63021 -16.9333353,-6.61458 -4.497915,-0.46302 -5.22552,4.63021 -4.7625,7.9375 l -0.06614,18.12396 c -2.778125,5.35781 -3.9026,11.37708 -4.365625,17.26406 -0.13229,2.97656 0.33073,6.15156 0.8599,9.12812 a 25.796876,25.796874 0 0 0 26.9213503,19.51302 c 10.7156247,-0.0661 21.4973947,0.1323 32.2130197,-0.19843 a 19.182292,19.182292 0 0 0 16.40417,-20.10834 c -0.06615,-8.20208 0.79375,-16.80104 -2.645835,-24.5401 -1.12448,-1.38906 -0.595315,-2.97656 -0.33073,-4.49792 0.99219,-6.15156 2.116665,-12.23698 2.976565,-18.38854 0.06614,-2.24896 -1.984375,-4.29948 -4.16719,-4.23333 z"
           style="display:inline;fill:#f2725a;fill-opacity:1;stroke-width:0.066146" /><g
           id="whiskers-2"
           fill="none"
           stroke="#8e5e31"
           stroke-linecap="round"
           stroke-linejoin="round"
           stroke-width="78"
           transform="matrix(0.06614583,0,0,0.06614583,-50.330894,335.21568)"
           style="display:inline;stroke:#872a11;stroke-opacity:1"><path
             id="path11487-9"
             style="stroke:#872a11;stroke-width:152;stroke-miterlimit:4;stroke-dasharray:none;stroke-opacity:1"
             d="m 544,1471 c -42.66667,-20 -85.33333,-40 -128,-60"
             sodipodi:nodetypes="cc" /><use
             x="0"
             y="0"
             xlink:href="#path11487-9"
             id="use11492-0"
             width="100%"
             height="100%"
             transform="matrix(-1,0,0,1,959,191)"
             style="stroke:#872a11;stroke-opacity:1" /><path
             id="path11494-2"
             style="stroke:#872a11;stroke-width:152;stroke-miterlimit:4;stroke-dasharray:none;stroke-opacity:1"
             d="m 1630,1347 c -84.6667,42 -169.3333,84 -254,126"
             sodipodi:nodetypes="cc" /><use
             x="0"
             y="0"
             xlink:href="#path11494-2"
             id="use11508-7"
             width="100%"
             height="100%"
             transform="matrix(-1,0,0,1,3006,253)"
             style="stroke:#872a11;stroke-opacity:1" /></g><path
           id="mouth-6"
           fill="none"
           stroke="#562a13"
           stroke-linecap="round"
           stroke-linejoin="round"
           stroke-width="0.4"
           d="m -1.6475607,437.87401 4.23333,8.46667 6.41615,-8.53281 8.4005197,8.53281 8.53281,-8.40052"
           style="display:inline;stroke-width:10.0541;stroke-miterlimit:4;stroke-dasharray:none" /><path
           style="display:inline;fill:#9b3f32;fill-opacity:1;stroke-width:0.0793748"
           d="m 15.605939,408.01882 c -4.209454,0.67393 -9.3000649,-1.01267 -10.9499527,-5.23056 -2.1054912,-16.07702 1.037633,-27.08828 2.2832568,-32.03318 1.245626,-4.9449 2.602359,-9.78298 5.7505769,-9.47139 3.148219,0.31158 3.13222,5.96625 5.803538,15.57943 1.576579,5.67359 3.508694,12.67866 6.565976,23.66987 -0.288689,1.78125 -2.869794,6.26965 -9.453395,7.48583 z"
           id="path6"
           inkscape:label="left_horn" /><g
           id="g16"
           inkscape:label="left_eye"
           transform="matrix(0.06614584,0,0,0.06614582,-54.32728,353.84351)"
           style="display:inline"><path
             id="path16"
             style="display:inline;opacity:1;fill:none;stroke:#000000;stroke-width:78"
             d="m 1070.4919,1001.5952 c 12.3635,22.8874 44.7509,46.0214 73.0081,54.8247 8.1073,2.5259 17.7311,4.9303 28.3789,5.8203 10.6478,0.89 22.1625,0.8868 42.3555,0.8868 19.464,0 29.6934,0.5043 39.7812,0.3378 10.0879,-0.1664 21.7404,-1.9937 31.5918,-5.25 52.545,-17.3682 83.4796,-59.03718 92.4864,-102.08199 3.8519,-18.40948 7.194,-34.45444 3.4863,-53.65429 v -0.002 c -3.2784,-16.97428 -13.0735,-31.58964 -21.1016,-46.90234"
             sodipodi:nodetypes="cssssssccc"
             inkscape:label="eye_outline" /><path
             id="path14"
             style="display:inline;opacity:1;fill:#ffcf50;fill-opacity:1;stroke-width:0.79;stroke-dasharray:none"
             inkscape:label="left_eye"
             d="m 1327.0328,872.79105 c 8.042,11.03968 13.688,23.63248 16.2844,37.07687 1.7332,8.97426 1.2466,25.78561 -1.3687,38.2846 -6.5304,31.20988 -27.6144,59.52208 -68.5708,73.05988 -14.6402,4.8392 -18.9883,2.9431 -59.1431,2.9431 -40.1551,0 -44.4221,-0.3566 -59.1433,-4.9431 -20.7407,-6.4616 -38.8911,-19.0114 -51.7583,-35.46446" /></g><use
           x="0"
           y="0"
           xlink:href="#g16"
           id="use16"
           transform="matrix(-1,0,0,1,27.385444,6.1644505e-7)"
           inkscape:label="right_eye"
           style="display:inline" /></g></g></g></svg>
