<?xml version="1.0" encoding="UTF-8" standalone="no"?>
<svg
   version="1.1"
   viewBox="0 0 2048 2048"
   id="svg30"
   sodipodi:docname="arms_baby_sleep.svg"
   inkscape:version="1.3.2 (091e20e, 2023-11-25, custom)"
   xml:space="preserve"
   xmlns:inkscape="http://www.inkscape.org/namespaces/inkscape"
   xmlns:sodipodi="http://sodipodi.sourceforge.net/DTD/sodipodi-0.dtd"
   xmlns:xlink="http://www.w3.org/1999/xlink"
   xmlns="http://www.w3.org/2000/svg"
   xmlns:svg="http://www.w3.org/2000/svg"
   xmlns:rdf="http://www.w3.org/1999/02/22-rdf-syntax-ns#"
   xmlns:cc="http://creativecommons.org/ns#"
   xmlns:dc="http://purl.org/dc/elements/1.1/"><sodipodi:namedview
     pagecolor="#ffffff"
     bordercolor="#666666"
     borderopacity="1"
     objecttolerance="10"
     gridtolerance="10"
     guidetolerance="10"
     inkscape:pageopacity="0"
     inkscape:pageshadow="2"
     inkscape:window-width="1920"
     inkscape:window-height="1001"
     id="namedview32"
     showgrid="false"
     inkscape:zoom="4.0603397"
     inkscape:cx="1301.369"
     inkscape:cy="1443.8447"
     inkscape:window-x="-9"
     inkscape:window-y="-9"
     inkscape:window-maximized="1"
     inkscape:current-layer="layer2"
     inkscape:showpageshadow="2"
     inkscape:pagecheckerboard="0"
     inkscape:deskcolor="#d1d1d1" /><metadata
     id="metadata34"><rdf:RDF><cc:Work
         rdf:about=""><dc:format>image/svg+xml</dc:format><dc:type
           rdf:resource="http://purl.org/dc/dcmitype/StillImage" /></cc:Work></rdf:RDF></metadata><defs
     id="defs4"><clipPath
       id="clipPath2763"
       clipPathUnits="userSpaceOnUse"><ellipse
         id="ellipse2765"
         cx="97.1"
         cy="460.6"
         fill="#fdc75a"
         stroke="#000"
         stroke-linecap="round"
         stroke-linejoin="round"
         stroke-width="19.1"
         display="inline"
         paint-order="markers stroke fill"
         rx="40.7"
         ry="56.7" /></clipPath><filter
       id="drop_shadow"
       color-interpolation-filters="sRGB"
       x="0"
       y="0"
       width="1.0931485"
       height="1.0931485"><feFlood
         flood-color="#657DFE"
         flood-opacity="1"
         result="flood"
         id="feFlood1" /><feComposite
         in="flood"
         in2="SourceGraphic"
         operator="in"
         result="composite1"
         id="feComposite1" /><feOffset
         dx="32"
         dy="32"
         result="offset"
         id="feOffset1" /><feComposite
         in="SourceGraphic"
         in2="offset"
         result="composite2"
         id="feComposite2" /></filter></defs><style
     id="style6">
    .fur{fill:#e3dedb}.paw{fill:#e9afaf}.outline{stroke:#000}
  </style><g
     id="layer1"
     transform="translate(217.6)"><g
       id="left_arm"
       stroke-linejoin="round"
       display="inline"
       transform="matrix(0.229133,0.13229,0.13229,-0.229133,-334.61627,472.10388)"><path
         id="path2652"
         stroke-width="566.9"
         d="m 6950.4,264.7 c -37.8,-404.3 -251.7,-1349.2 -414.2,-1632.6 -223,-393 -517.8,-733.2 -68,-1050.7 340.1,-245.6 782.3,22.7 1054.4,706.8 459.6,1155.7 327.7,1540.8 268,2043.8"
         class="fur outline"
         paint-order="stroke fill markers" /><path
         id="path2654"
         stroke-width="3.8"
         d="m 7481,-1806.3 -11.3,-26.5 a 2199.5,2199.5 0 0 0 -241.9,-393 1217,1217 0 0 0 -207.8,-185.2 703,703 0 0 0 -173.9,-83.1 480,480 0 0 0 -177.6,-7.6 423.3,423.3 0 0 0 -170,60.5 540.4,540.4 0 0 0 -71.9,52.9 782.3,782.3 0 0 0 -117.1,121 446,446 0 0 0 -60.5,124.6 359,359 0 0 0 -11.4,158.8 506.4,506.4 0 0 0 34,128.5 986.4,986.4 0 0 0 98.3,204 l 83.2,139.9 83.1,143.6 30.2,56.7 c 291,109.6 865.5,-143.6 914.6,-495.1 z"
         class="paw" /></g><g
       id="baby"
       transform="rotate(30,159.2,478.5)"><ellipse
         id="swaddling_outline"
         cx="1496.4"
         cy="1040.9"
         fill="#fdc75a"
         stroke="#000000"
         stroke-linecap="round"
         stroke-linejoin="round"
         stroke-width="79"
         display="inline"
         paint-order="markers stroke fill"
         rx="153.8"
         ry="214.3" /><g
         id="swaddling"
         clip-path="url(#clipPath2763)"
         transform="matrix(3.7793,0,0,3.7793,1129.5,-699.9)"><path
           id="path2755"
           fill="#5fd38d"
           stroke="#000000"
           stroke-linecap="round"
           stroke-linejoin="round"
           stroke-width="19"
           d="m 111.1,462.6 -1,-0.5 a 149,149 0 0 1 -21.7,-13.8 211.4,211.4 0 0 1 -21,-17.8 l -3.3,-3 a 40.7,56.7 0 0 0 -7.7,33.1 40.7,56.7 0 0 0 14,42.7 l 2.9,-2.2 A 221.4,221.4 0 0 0 111,462.7 h 0.1 z"
           display="inline"
           paint-order="markers stroke fill" /><path
           id="ellipse2748"
           fill="#5fd38d"
           stroke="#000000"
           stroke-linecap="round"
           stroke-linejoin="round"
           stroke-width="19"
           d="m 131.5,430.2 -0.5,1 A 196.8,196.8 0 0 1 103.9,471.6 220.8,220.8 0 0 1 73.3,501 l -3,2.2 a 40.7,56.7 0 0 0 26.8,14 40.7,56.7 0 0 0 40.7,-56.7 40.7,56.7 0 0 0 -6.3,-30.4 z"
           display="inline"
           paint-order="markers stroke fill" /><path
           id="path2709"
           fill="#5fd38d"
           stroke="#000000"
           stroke-linecap="round"
           stroke-linejoin="miter"
           stroke-width="11.1"
           d="m 53,491.4 c 0,0 14.2,24 88.2,15 v -33 c -74,9 -93.4,-15 -93.4,-15 l 5.3,33"
           display="inline" /></g><g
         id="neocat"
         transform="matrix(3.7793,0,0,3.7793,1431,-807.2)"><path
           id="path11524"
           fill="#000000"
           fill-fill-rule="nonzero"
           stroke="#000000"
           stroke-linecap="round"
           stroke-linejoin="round"
           stroke-width="11.1"
           d="m -13,380.7 a 9.2,9.2 0 0 0 -6.8,4 c -1.4,1.8 -2,4.2 -2,6.4 -0.1,4.2 0.2,8.4 0,12.6 0,2.5 0.1,5 -0.1,7.5 a 44,44 0 0 0 -2.5,6.8 c -0.5,0.7 -1.4,0.5 -2,0.9 -4.3,1.6 -7.4,6.3 -6.6,10.9 0.3,2.5 1.6,5 3.6,6.6 0.1,0.7 -0.3,1 -0.8,1.5 a 10.2,10.2 0 0 0 -2.3,11 c 1.3,3.5 4.7,6.2 8.5,6.5 1.4,0 2.6,0 3.8,-0.3 1,-0.2 1.8,-0.7 2.7,-1 0.8,0 1.2,0.9 1.8,1.3 a 33.2,33.2 0 0 0 23.4,8 c 10.3,-0.3 20.6,0.1 31,-0.4 a 20,20 0 0 0 6.7,-1.5 c 2,-0.8 4,-2 5.9,-3.3 0.8,-0.2 1.5,0.5 2.3,0.7 2.8,1 6.2,1.1 8.9,-0.5 4,-2.2 6.4,-7.5 4.9,-12 a 11,11 0 0 0 -6.3,-6.8 c -0.6,-0.7 -0.2,-1.6 -0.3,-2.4 v -2.7 c 0.4,-0.7 1.3,-0.8 1.8,-1.3 a 10,10 0 0 0 5.1,-7.5 c 0.7,-4.8 -2.4,-10 -7.2,-11.2 -0.7,-0.2 -1.8,-0.3 -2,-1.2 -0.5,-1.3 -1.2,-2.7 -0.7,-4.2 1,-6.5 2.4,-13 3,-19.5 -0.2,-5.5 -6.2,-10 -11.5,-8.6 -2.8,0.8 -5.4,2 -8.1,3 -2.8,1 -5.5,2.3 -8.3,3.3 -1.3,-0.2 -2.5,-0.8 -3.8,-1 a 44,44 0 0 0 -23.6,0.6 c -1,-0.1 -2,-0.7 -3,-1 -4.6,-1.9 -9,-3.8 -13.7,-5.1 H -13 Z"
           baseline-shift="baseline"
           clip-rule="nonzero"
           color="#000000"
           color-interpolation="sRGB"
           color-interpolation-filters="linearRGB"
           color-rendering="auto"
           direction="ltr"
           display="inline"
           dominant-baseline="auto"
           font-family="sans-serif"
           font-size="medium"
           font-stretch="normal"
           font-style="normal"
           font-variant="normal"
           font-weight="400"
           image-rendering="auto"
           letter-spacing="normal"
           overflow="visible"
           shape-rendering="auto"
           stop-color="#000000"
           stop-style="line-height:normal;font-variant-ligatures:normal;font-variant-position:normal;font-variant-caps:normal;font-variant-numeric:normal;font-variant-alternates:normal;font-variant-east-asian:normal;font-feature-settings:normal;font-variation-settings:normal;text-indent:0;text-align:start;text-decoration-line:none;text-decoration-style:solid;text-decoration-color:#000;text-transform:none;text-orientation:mixed;white-space:normal;shape-padding:0;shape-margin:0;inline-size:0;isolation:auto;mix-blend-mode:normal;solid-color:#000;solid-opacity:1"
           text-anchor="start"
           text-decoration="none"
           text-rendering="auto"
           vector-effect="none"
           visibility="visible"
           word-spacing="normal"
           writing-mode="lr-tb"
           style="text-decoration:none;text-decoration-line:none" /><path
           id="baby_fur"
           fill="#fdc75a"
           stroke-width="0.1"
           d="m 51.3,386 c -3.4,0.6 -6.6,2.5 -9.9,3.6 L 33,393 A 38.3,38.3 0 0 0 5.3,392.6 c -5.7,-2.2 -11.3,-4.6 -17,-6.6 -4.5,-0.4 -5.2,4.6 -4.8,8 v 18 a 45,45 0 0 0 -4.4,17.3 c -0.1,3 0.3,6.2 0.9,9.2 A 25.8,25.8 0 0 0 6.9,458 c 10.7,0 21.5,0.1 32.2,-0.2 a 19.2,19.2 0 0 0 16.4,-20.1 c 0,-8.2 0.8,-16.8 -2.6,-24.6 -1.2,-1.4 -0.6,-3 -0.4,-4.5 1,-6.1 2.1,-12.2 3,-18.4 0,-2.2 -2,-4.3 -4.2,-4.2 z"
           display="inline" /><g
           id="whiskers"
           fill="none"
           stroke="#8e5e31"
           stroke-linecap="round"
           stroke-linejoin="round"
           stroke-width="78"
           display="inline"
           transform="matrix(0.06615,0,0,0.06615,-50.3,335.2)"><path
             id="path11487"
             stroke-width="152"
             d="M 544,1471 416,1411" /><use
             xlink:href="#path11487"
             id="use11492"
             width="100%"
             height="100%"
             x="0"
             y="0"
             transform="matrix(-1,0,0,1,959,191)" /><path
             id="path11494"
             stroke-width="152"
             d="m 1630,1347 -254,126" /><use
             xlink:href="#path11494"
             id="use11508"
             width="100%"
             height="100%"
             x="0"
             y="0"
             transform="matrix(-1,0,0,1,3006,253)" /></g><path
           id="mouth"
           fill="none"
           stroke="#562a13"
           stroke-linecap="round"
           stroke-linejoin="round"
           stroke-width="10.1"
           d="m -1.6,437.9 4.2,8.4 6.4,-8.5 8.4,8.5 8.5,-8.4"
           display="inline" /></g></g></g><g
     id="layer2"
     inkscape:label="face"
     transform="matrix(0.17320508,0.1,-0.1,0.17320508,1323.272,1117.8138)"><path
       style="opacity:1;fill:none;stroke:#000000;stroke-width:127.5;stroke-linecap:round;stroke-linejoin:miter;stroke-miterlimit:4;stroke-dasharray:none;stroke-opacity:1"
       d="m 506.21685,1040.5307 281.08862,-40.1269"
       id="path874"
       sodipodi:nodetypes="cc" /><path
       style="opacity:1;fill:none;stroke:#000000;stroke-width:127.5;stroke-linecap:round;stroke-linejoin:miter;stroke-miterlimit:4;stroke-dasharray:none;stroke-opacity:1"
       d="m 1112.9898,987.22566 319.8628,40.17004"
       id="path876"
       sodipodi:nodetypes="cc" /><g
       id="g1"><path
         id="mouth_guard"
         fill="#96c1fe"
         d="M 662.714 1292.19 C 615.823 1292.19 535.718 1378.15 535.718 1489.52 C 535.718 1599.91 567.955 1755.23 723.281 1733.74 C 839.53 1718.11 797.524 1688.8 879.583 1688.8 C 1016.35 1688.8 907.912 1728.86 1105.24 1728.86 C 1207.82 1728.86 1244.94 1576.46 1244.94 1553.99 C 1244.94 1530.55 1269.36 1292.19 1096.45 1292.19 C 904.005 1292.19 934.288 1540.32 934.288 1540.32 L 879.583 1542.27 L 824.877 1540.32 C 824.877 1540.32 855.161 1292.19 662.714 1292.19 Z M 1115.99 1327.35 C 1116.32 1327.35 1116.64 1327.35 1116.97 1327.35 C 1131.22 1327.35 1144.88 1333.01 1154.96 1343.09 C 1165.03 1353.17 1170.7 1366.83 1170.7 1381.08 C 1170.7 1395.33 1165.03 1409 1154.96 1419.08 C 1144.88 1429.15 1131.22 1434.81 1116.97 1434.81 C 1102.72 1434.81 1089.05 1429.15 1078.97 1419.08 C 1068.9 1409 1063.24 1395.33 1063.24 1381.08 C 1063.23 1351.79 1086.7 1327.89 1115.99 1327.35 Z M 626.569 1357.64 C 639.005 1357.64 650.932 1362.58 659.725 1371.37 C 668.519 1380.17 673.459 1392.09 673.459 1404.53 C 673.459 1416.96 668.519 1428.89 659.725 1437.69 C 650.932 1446.48 639.005 1451.42 626.569 1451.42 C 614.133 1451.42 602.206 1446.48 593.412 1437.69 C 584.618 1428.89 579.678 1416.96 579.678 1404.53 C 579.678 1392.09 584.618 1380.17 593.412 1371.37 C 602.206 1362.58 614.133 1357.64 626.569 1357.64 Z M 1177.53 1439.7 C 1177.86 1439.69 1178.18 1439.69 1178.51 1439.7 C 1190.69 1439.7 1202.37 1444.53 1210.98 1453.14 C 1219.59 1461.75 1224.42 1473.43 1224.42 1485.61 C 1224.69 1497.96 1219.97 1509.89 1211.33 1518.71 C 1202.69 1527.53 1190.86 1532.5 1178.51 1532.5 C 1165.99 1532.77 1153.91 1527.92 1145.06 1519.06 C 1136.2 1510.21 1131.35 1498.13 1131.62 1485.61 C 1131.62 1473.43 1136.46 1461.75 1145.07 1453.14 C 1153.68 1444.53 1165.36 1439.7 1177.53 1439.7 Z M 591.401 1473.89 C 603.487 1473.62 615.17 1478.24 623.809 1486.7 C 632.449 1495.15 637.317 1506.74 637.314 1518.82 C 637.317 1530.91 632.449 1542.49 623.809 1550.95 C 615.17 1559.41 603.487 1564.02 591.401 1563.76 C 579.483 1563.76 568.053 1559.03 559.626 1550.6 C 551.198 1542.17 546.464 1530.74 546.464 1518.82 C 546.464 1506.91 551.198 1495.48 559.626 1487.05 C 568.053 1478.62 579.483 1473.89 591.401 1473.89 Z M 1168.74 1585.25 C 1176 1585.25 1182.95 1588.13 1188.08 1593.26 C 1193.21 1598.39 1196.09 1605.35 1196.09 1612.61 C 1196.36 1620.03 1193.6 1627.24 1188.44 1632.58 C 1183.28 1637.92 1176.17 1640.94 1168.74 1640.94 C 1161.31 1640.94 1154.21 1637.92 1149.05 1632.58 C 1143.89 1627.24 1141.12 1620.03 1141.39 1612.61 C 1141.39 1605.35 1144.27 1598.39 1149.4 1593.26 C 1154.53 1588.13 1161.49 1585.25 1168.74 1585.25 Z M 665.644 1606.74 C 674.453 1606.74 682.901 1610.24 689.13 1616.47 C 695.359 1622.7 698.858 1631.15 698.858 1639.96 C 698.858 1648.77 695.359 1657.22 689.13 1663.44 C 682.901 1669.67 674.453 1673.17 665.644 1673.17 C 656.835 1673.17 648.387 1669.67 642.158 1663.44 C 635.929 1657.22 632.43 1648.77 632.43 1639.96 C 632.43 1631.15 635.929 1622.7 642.158 1616.47 C 648.387 1610.24 656.835 1606.74 665.644 1606.74 Z" /><path
         id="ring"
         fill="none"
         stroke="#657dfe"
         stroke-linejoin="round"
         stroke-width="64"
         d="M 1099.38 1451.42 C 1183.39 1528.59 1093.52 1861.71 847.345 1861.71 C 649.037 1861.71 561.117 1576.46 681.274 1451.42 Z" /><circle
         id="handle"
         cx="839.6873896684707"
         cy="1455.195073805864"
         r="171.76869442796806"
         fill="#cff1ff"
         filter="url(#drop_shadow)" /></g></g></svg>
