<svg xmlns="http://www.w3.org/2000/svg" version="1.2" viewBox="0 0 2048 2048">
  <style>
    .paw{fill:#e9afaf}
    .outline{stroke:#000}
  </style>
  <g id="pencil">
    <path id="outline" fill="none" stroke="#000" stroke-linejoin="round" stroke-width="64" d="M650 1383c-9 0-14 5-18 9l-24 24-2-2-25 25-20 20-25 25 3 2-316 315-30 91-15 45 42-17 87-35 315-316 1 3 25-25 20-20 25-25-2-2 24-24c8-8 20-24-21-64-21-22-35-29-44-29Z"/>
    <path id="wood" fill="#dfc4a3" d="m223 1801-45 136 129-52Z"/>
    <path id="tip" fill="#3e3844" d="m193 1892-15 45 42-17a340 340 0 0 0-27-28Z"/>
    <path id="painted" fill="#ef9a27" d="m223 1801 329-329 83 84-328 329Z"/>
    <path id="top_line" stroke="#000" stroke-width="16" d="m244 1822 329-329"/>
    <path id="bottom_line" stroke="#000" stroke-width="16" d="m284 1862 329-329"/>
    <path id="eraser" fill="#c15140" d="M608 1416a368 368 0 0 1 83 84l24-24c8-8 20-24-21-64-40-41-53-29-62-20Z"/>
    <path id="eraser_holder" fill="silver" d="M536 1484c11 7 29 22 46 40 20 19 36 38 41 48l70-70c-6-10-22-29-41-48-18-18-35-33-46-40Z"/>
    <path id="eraser_band" fill="gray" d="M561 1459c11 7 28 22 46 40 19 19 35 38 41 48l20-20c-5-10-21-29-41-48-18-18-35-33-46-40Z"/>
  </g>
  <path id="paw" class="paw outline" paint-order="stroke markers fill" stroke-width="98" d="M402 1653a114 114 0 1 0 60 221l82-22c30-8 48-39 41-70l-30-110c-9-31-40-48-70-40z"/>
</svg>
