<svg xmlns="http://www.w3.org/2000/svg" width="2048" height="2048" version="1.1" viewBox="0 0 542 542">
  <style>
     #left_arm{fill:#4f8c9e;stroke:#000;}
  </style>
  <defs>
    <clipPath id="clipPath1800" clipPathUnits="userSpaceOnUse">
      <path id="rect1802" d="M246 365h106v109H246z" transform="scale(-1 1)"/>
    </clipPath>
  </defs>
  <g id="layer2" stroke-linecap="round" stroke-linejoin="round">
    <g id="Megaphone" fill-rule="evenodd" stroke-miterlimit="1.5" clip-rule="evenodd" transform="matrix(-1.87328 .529 .529 1.87328 396 9)">
      <path id="Outline-2" d="m159 191-4 3c-4 2-8 2-12 1-6-2-13-7-18-15-4-9-5-18-4-23s4-8 8-10l5-2 50-52c2-4 5-7 8-9 5-3 11-3 18 0 10 4 22 16 32 32 9 17 13 34 11 44-1 8-5 13-10 15-3 2-7 3-11 2zm-7-9 80-15h7c8-5 5-25-6-46-12-20-27-33-36-28-2 1-3 3-4 6l-55 56-5 1c-4 2-3 11 1 19 5 8 12 13 16 10l2-3z"/>
      <path id="Mouthpiece" fill="#e3e3e3" d="M133 156c5-3 12 2 16 10 5 8 5 17 1 19-4 3-11-2-16-10-4-8-5-17-1-19z"/>
      <path id="Body1" fill="#ff5c5c" d="m138 156 60-62 40 72-87 16c-9-2-17-19-13-26z"/>
      <path id="Outer-ring" fill="#e3e3e3" d="M197 93c9-5 24 8 36 28 11 21 14 41 6 46-9 4-25-9-36-29s-14-41-6-45z"/>
      <path id="Inside" fill="#2a2a2a" d="M203 98c5-3 18 8 27 25s12 33 7 36c-6 3-18-8-27-25s-12-33-7-36z"/>
    </g>
    <rect id="left_arm" width="193.9" height="88.9" x="-451" y="375" stroke-width="20" clip-path="url(#clipPath1800)" rx="46" ry="42.5" transform="scale(-1 1) rotate(-63 -211 344)"/>
  </g>
</svg>

