<?xml version="1.0" encoding="UTF-8" standalone="no"?>
<svg
   version="1.1"
   viewBox="0 0 2048 2048"
   id="svg1"
   sodipodi:docname="arms_egg.svg"
   inkscape:version="1.3.2 (091e20e, 2023-11-25, custom)"
   xml:space="preserve"
   xmlns:inkscape="http://www.inkscape.org/namespaces/inkscape"
   xmlns:sodipodi="http://sodipodi.sourceforge.net/DTD/sodipodi-0.dtd"
   xmlns="http://www.w3.org/2000/svg"
   xmlns:svg="http://www.w3.org/2000/svg"><sodipodi:namedview
     id="namedview1"
     pagecolor="#ffffff"
     bordercolor="#666666"
     borderopacity="1.0"
     inkscape:showpageshadow="2"
     inkscape:pageopacity="0.0"
     inkscape:pagecheckerboard="0"
     inkscape:deskcolor="#d1d1d1"
     inkscape:zoom="0.72363281"
     inkscape:cx="1100.6964"
     inkscape:cy="1440.6478"
     inkscape:window-width="1920"
     inkscape:window-height="1001"
     inkscape:window-x="-9"
     inkscape:window-y="-9"
     inkscape:window-maximized="1"
     inkscape:current-layer="layer1" /><defs
     id="defs1"><clipPath
       id="clipPath2763"
       clipPathUnits="userSpaceOnUse"><ellipse
         id="ellipse2765"
         cx="97.1"
         cy="460.6"
         fill="#fdc75a"
         stroke="#000"
         stroke-linecap="round"
         stroke-linejoin="round"
         stroke-width="19.1"
         display="inline"
         paint-order="markers stroke fill"
         rx="40.7"
         ry="56.7" /></clipPath></defs><style
     id="style1">
    .fur{fill:#e3dedb}.paw{fill:#e9afaf}.outline{stroke:#000}
  </style><g
     id="layer1"
     transform="translate(217.6)"><g
       id="left_arm"
       stroke-linejoin="round"
       display="inline"
       transform="scale(.26458 -.26458) rotate(-30 -3962 1467.8)"><path
         id="path2652"
         stroke-width="566.9"
         d="M6950.4 264.7c-37.8-404.3-251.7-1349.2-414.2-1632.6-223-393-517.8-733.2-68-1050.7 340.1-245.6 782.3 22.7 1054.4 706.8C7982.2-556.1 7850.3-171 7790.6 332"
         class="fur outline"
         paint-order="stroke fill markers" /><path
         id="path2654"
         stroke-width="3.8"
         d="m7481-1806.3-11.3-26.5a2199.5 2199.5 0 0 0-241.9-393A1217 1217 0 0 0 7020-2411a703 703 0 0 0-173.9-83.1 480 480 0 0 0-177.6-7.6 423.3 423.3 0 0 0-170 60.5 540.4 540.4 0 0 0-71.9 52.9 782.3 782.3 0 0 0-117.1 121 446 446 0 0 0-60.5 124.6 359 359 0 0 0-11.4 158.8 506.4 506.4 0 0 0 34 128.5 986.4 986.4 0 0 0 98.3 204l83.2 139.9 83.1 143.6 30.2 56.7c291 109.6 865.5-143.6 914.6-495.1z"
         class="paw" /></g><g
       id="g16"
       inkscape:label="egg"
       transform="matrix(0.77398926,0.44686291,-0.44686291,0.77398926,876.7792,511.53913)"><path
         id="path16"
         style="display:inline;opacity:1;fill:none;fill-opacity:1;stroke:#000000;stroke-width:100.70202555;stroke-linecap:round;stroke-linejoin:round;stroke-dasharray:none;stroke-opacity:1;paint-order:fill markers stroke"
         d="m 749.73203,614.95312 c -60.21565,0 -112.38608,43.0263 -158.83203,111.42969 -33.69291,49.62131 -70.23483,131.93519 -84.76563,185.24024 -7.47484,24.07289 -11.31146,49.12739 -11.38281,74.33398 6.1e-4,139.77417 113.30982,253.08337 253.08399,253.08397 139.77494,5e-4 253.08535,-113.309 252.57005,-222.073 C 999.89023,908.20394 956.15955,790.78302 909.41172,727.60547 852.34228,650.47875 809.94768,614.95312 749.73203,614.95312 Z"
         sodipodi:nodetypes="ssccscss" /><path
         id="path1"
         style="display:inline;opacity:1;fill:#f0e8c4;fill-opacity:1;stroke:none;stroke-width:44.333;stroke-linecap:round;stroke-linejoin:round;stroke-dasharray:none;stroke-opacity:1;paint-order:fill markers stroke"
         d="m 749.73203,614.95312 c -60.21565,0 -112.38608,43.0263 -158.83203,111.42969 -33.69291,49.62131 -70.23483,131.93519 -84.76563,185.24024 -7.47484,24.07289 -11.31146,49.12739 -11.38281,74.33398 6.1e-4,139.77417 113.30982,253.08337 253.08399,253.08397 139.77494,5e-4 253.08535,-113.309 252.57005,-222.073 C 999.89023,908.20394 956.15955,790.78302 909.41172,727.60547 852.34228,650.47875 809.94768,614.95312 749.73203,614.95312 Z"
         sodipodi:nodetypes="ssccscss" /><path
         style="fill:#9cc67b;fill-opacity:1;stroke:none;stroke-width:1px;stroke-linecap:butt;stroke-linejoin:miter;stroke-opacity:1"
         d="m 704.6834,934.8664 c 12.32639,-51.87882 55.39099,-107.81262 114.24684,-101.37884 64.08823,9.95078 107.97697,81.06728 93.25526,143.39474 -10.69778,56.7303 -43.39691,115.1969 -98.49641,138.4426 -50.58159,12.9807 -94.31016,-34.6009 -114.04912,-76.2387 -16.58656,-33.291 -4.91098,-70.89446 5.04343,-104.2198 z"
         id="path3" /><path
         style="fill:#9cc67b;fill-opacity:1;stroke:none;stroke-width:1px;stroke-linecap:butt;stroke-linejoin:miter;stroke-opacity:1"
         d="m 916.9533,858.17004 c -8.63233,4.42684 -30.26794,-12.32889 -37.45938,-35.20078 -7.19144,-22.87189 0.0613,-51.85995 4.98438,-52.55091 4.92307,-0.69096 22.54018,13.50587 31.58624,34.50982 9.04606,21.00395 9.52109,48.81503 0.88876,53.24187 z"
         id="path4"
         sodipodi:nodetypes="sssss" /><path
         d="m 808.38633,628.66797 c -0.12821,12.07792 2.88359,33.55814 23.23437,52.27148 16.25677,14.94874 43.81764,25.00694 65.89844,31.22071 -31.6797,-40.91256 -59.44328,-68.60828 -89.13281,-83.49219 z"
         style="fill:#9cc67b;stroke-width:1px"
         id="path11" /><path
         d="m 538.82969,823.38281 c 13.93297,-6.24237 25.4679,-25.4143 38.86328,-46.40039 11.76584,-18.43315 20.40506,-46.84544 25.78125,-68.19531 -4.23242,5.68122 -8.4344,11.49877 -12.57422,17.5957 -17.81522,26.23741 -36.33708,61.60347 -52.07031,97 z"
         style="fill:#9cc67b;stroke-width:1px"
         id="path15" /><path
         d="m 659.39414,1222.416 c 24.10062,2.1074 46.367,0.6399 53.75391,-10.2461 18.56607,-27.3606 -11.23847,-39.0856 -33.22461,-52.2773 -21.98613,-13.1917 -96.61028,-56.6905 -141.6875,-91.3653 -36.15333,-27.8102 -16.48433,16.3106 -11.69141,39.1934 a 253.08507,253.08507 0 0 0 132.84961,114.6953 z"
         style="fill:#9cc67b;stroke-width:1px"
         id="path13" /></g></g></svg>
