<svg xmlns="http://www.w3.org/2000/svg" width="2048" height="2048">
  <style>.paw{fill:#e9afaf}.outline{stroke:#000}</style>
  <path class="paw outline" stroke-linejoin="round" stroke-width="150" d="m1468 1227-9 1c-26 7-39 42-29 79l14 55c-12-31-37-49-61-43-26 7-39 42-29 79l72 268v140h-191s70 127 160 127h319c53 0 96-42 96-95v-149l72-268c10-37-3-72-29-79-22-6-45 10-58 36l8-32c10-37-3-72-29-79l-10-1c-23 0-46 23-54 55l-62 229h-53l-72-268c-8-32-31-55-55-55z" paint-order="stroke markers fill" />
</svg>
