<svg xmlns="http://www.w3.org/2000/svg" xmlns:xlink="http://www.w3.org/1999/xlink" width="2048" height="2048">
  <style>.fur{fill:#e3dedb}.paw{fill:#e9afaf}.outline{stroke:#000}</style>
  <g id="left_arm">
    <path id="forearm" class="fur" d="m1574 1614-6-5-306-177c-43-26-64-96-30-155 20-34 46-57 75-67s60-8 100 15l291 171"/>
    <path id="paw" class="paw" d="m1346 1481-84-49c-43-26-64-96-30-155 20-34 46-57 75-67s60-8 100 15l81 48c-4 92-48 176-142 208z"/>
    <path id="outline" class="outline" stroke-width="8" stroke-linecap="round" d="m1292 1137-9 3c-49 17-88 54-114 100-53 92-27 206 54 255h1l280 163c26-8 49-23 70-44l-6-5-306-177c-43-26-64-96-30-155 20-34 46-57 75-67s60-8 100 15l291 171c7-30 5-61-9-91l-245-144c-51-30-105-37-152-24z"/>
  </g>
  <use id="right_arm" xlink:href="#left_arm" width="100%" height="100%" transform="translate(-1098)"/>
</svg>
