<svg xmlns="http://www.w3.org/2000/svg" version="2.0" viewBox="0 0 2048 2048">
  <style>
    .fur{fill:#8bb9a0}
    .paw{fill:#8bb9a0}
    .hand{fill:#8bb9a0}
    .outline{stroke:#000}
    .iris{fill:#000}
    .sclera{fill:#ff6a00}
    .mouth{stroke:#542912}
    .tooth{fill:#fefbba}
    #inner_heart{fill:#ef7c94}
    #outer_heart{fill:#a8093e}
  </style>
  <g id="heart">
    <path id="outer_heart" d="M578 957a323 323 0 0 0-323 324c0 96 43 188 81 219l481 395c46 38 113 38 160 0l483-399c36-31 78-121 78-215 0-179-145-324-323-324-95 0-176 40-207 77l-111 103-112-103c-31-37-112-77-207-77Z"/>
    <path id="inner_heart" d="M576 1084c-108 0-195 87-195 195 0 58 26 114 49 132 156 128 311 256 465 386 155-131 314-259 470-388 22-19 47-73 47-130 0-108-88-195-195-195-89 0-131 51-196 108-64 57-126 120-126 120s-61-63-124-120c-64-57-108-108-195-108z"/>
  </g>
  <g id="left_arm" transform="rotate(60 1342 1507)">
    <path id="forearm" stroke-linecap="butt" stroke-linejoin="round" stroke-width="144" d="M1436 1371c-28 5-198 52-198 52-41 10-63 28-77 51l-4 8c-13 27-16 63-6 100 17 66 82 101 130 89 0 0 187-49 213-57" class="fur outline" paint-order="markers stroke fill"/>
    <path id="paw" d="m1376 1646-95 25c-48 12-113-23-130-89-10-37-7-73 6-100s36-48 81-59l91-24c62 67 91 158 47 247z" class="paw"/>
  </g>
  <use id="right_arm" x="0" y="0" display="inline" href="#left_arm" transform="matrix(-1,0,0,1,1875,27)"/>
</svg>

