<?xml version="1.0" encoding="UTF-8" standalone="no"?>
<svg
   version="1.1"
   viewBox="0 0 2048 2048"
   id="svg1"
   sodipodi:docname="arms_baby_googly_woozy.svg"
   xml:space="preserve"
   inkscape:version="1.3.2 (091e20e, 2023-11-25, custom)"
   xmlns:inkscape="http://www.inkscape.org/namespaces/inkscape"
   xmlns:sodipodi="http://sodipodi.sourceforge.net/DTD/sodipodi-0.dtd"
   xmlns:xlink="http://www.w3.org/1999/xlink"
   xmlns="http://www.w3.org/2000/svg"
   xmlns:svg="http://www.w3.org/2000/svg"><sodipodi:namedview
     id="namedview1"
     pagecolor="#ffffff"
     bordercolor="#666666"
     borderopacity="1.0"
     inkscape:showpageshadow="2"
     inkscape:pageopacity="0.0"
     inkscape:pagecheckerboard="0"
     inkscape:deskcolor="#d1d1d1"
     inkscape:zoom="0.72363281"
     inkscape:cx="1229.2146"
     inkscape:cy="1513.8893"
     inkscape:window-width="1920"
     inkscape:window-height="1001"
     inkscape:window-x="-9"
     inkscape:window-y="-9"
     inkscape:window-maximized="1"
     inkscape:current-layer="neocat" /><defs
     id="defs1"><clipPath
       id="clipPath2763"
       clipPathUnits="userSpaceOnUse"><ellipse
         id="ellipse2765"
         cx="97.1"
         cy="460.6"
         fill="#fdc75a"
         stroke="#000"
         stroke-linecap="round"
         stroke-linejoin="round"
         stroke-width="19.1"
         display="inline"
         paint-order="markers stroke fill"
         rx="40.7"
         ry="56.7" /></clipPath><inkscape:path-effect
       effect="powerclip"
       id="path-effect17509"
       is_visible="true"
       lpeversion="1"
       inverse="true"
       flatten="false"
       hide_clip="false"
       message="Use fill-rule evenodd on &lt;b&gt;fill and stroke&lt;/b&gt; dialog if no flatten result after convert clip to paths." /><inkscape:path-effect
       effect="powerclip"
       id="path-effect17492"
       is_visible="true"
       lpeversion="1"
       inverse="true"
       flatten="false"
       hide_clip="false"
       message="Use fill-rule evenodd on &lt;b&gt;fill and stroke&lt;/b&gt; dialog if no flatten result after convert clip to paths." /><inkscape:path-effect
       effect="powerclip"
       id="path-effect17482"
       is_visible="true"
       lpeversion="1"
       inverse="true"
       flatten="false"
       hide_clip="false"
       message="Use fill-rule evenodd on &lt;b&gt;fill and stroke&lt;/b&gt; dialog if no flatten result after convert clip to paths." /><inkscape:path-effect
       effect="powermask"
       id="path-effect7"
       is_visible="true"
       lpeversion="1"
       uri="#mask-powermask-path-effect7"
       invert="false"
       hide_mask="false"
       background="true"
       background_color="#ffffffff" /><linearGradient
       id="swatch3"
       inkscape:swatch="solid"><stop
         style="stop-color:#000000;stop-opacity:1;"
         offset="0"
         id="stop3" /></linearGradient><clipPath
       clipPathUnits="userSpaceOnUse"
       id="clipPath11"><ellipse
         style="fill:#d84848;fill-opacity:1;stroke:none;stroke-width:2.53246;stroke-linecap:round;stroke-linejoin:round;stroke-opacity:1"
         id="ellipse11"
         ry="4.6219215"
         rx="4.8717556"
         cy="59.085651"
         cx="33.935734" /></clipPath><clipPath
       clipPathUnits="userSpaceOnUse"
       id="clipPath17488"><path
         style="display:none;fill:none;stroke:none;stroke-width:0.0219128px;stroke-linecap:butt;stroke-linejoin:miter;stroke-opacity:1"
         d="m 72.021239,30.382498 11.80099,5.87171 4.67334,0.680511 0.08141,-15.183025 -10.746163,-1.424681 -8.873728,1.01763 -1.506087,8.833021 z"
         id="path17490" /><path
         id="lpe_path-effect17492"
         style="fill:none;stroke:none;stroke-width:0.0219128px;stroke-linecap:butt;stroke-linejoin:miter;stroke-opacity:1"
         class="powerclip"
         d="M 66.155438,22.148583 H 89.313342 V 45.306487 H 66.155438 Z m 5.865801,8.233915 11.80099,5.87171 4.67334,0.680511 0.08141,-15.183025 -10.746163,-1.424681 -8.873728,1.01763 -1.506087,8.833021 z" /></clipPath><clipPath
       clipPathUnits="userSpaceOnUse"
       id="clipPath17505"><path
         style="display:none;fill:#ff0000;stroke:none;stroke-width:0.0219128px;stroke-linecap:butt;stroke-linejoin:miter;stroke-opacity:1"
         d="M 83.698836,31.075033 71.279018,34.642366 62.259955,29.70756 86.149847,17.185502 Z"
         id="path17507"
         sodipodi:nodetypes="ccccc" /><path
         id="lpe_path-effect17509"
         style="display:block;fill:#ff0000;stroke:none;stroke-width:0.0219128px;stroke-linecap:butt;stroke-linejoin:miter;stroke-opacity:1"
         class="powerclip"
         d="M 66.155438,22.148583 H 89.313342 V 45.306487 H 66.155438 Z m 17.543398,8.92645 2.451011,-13.889531 -23.889892,12.522058 9.019063,4.934806 z" /></clipPath><filter
       style="color-interpolation-filters:sRGB;"
       inkscape:label="Silhouette"
       id="filter1503"
       x="-4.429134e-05"
       y="-4.429134e-05"
       width="1.0000886"
       height="1.0000886"><feFlood
         flood-opacity="1"
         flood-color="rgb(42,152,14)"
         result="flood"
         id="feFlood1497" /><feComposite
         in="flood"
         in2="SourceGraphic"
         operator="in"
         result="composite"
         id="feComposite1499" /><feGaussianBlur
         stdDeviation="0.01"
         id="feGaussianBlur1501" /></filter><filter
       style="color-interpolation-filters:sRGB;"
       inkscape:label="Silhouette"
       id="filter1555"><feFlood
         flood-opacity="1"
         flood-color="rgb(0,0,0)"
         result="flood"
         id="feFlood1549" /><feComposite
         in="flood"
         in2="SourceGraphic"
         operator="in"
         result="composite"
         id="feComposite1551" /><feGaussianBlur
         stdDeviation="0.01"
         id="feGaussianBlur1553" /></filter><filter
       style="color-interpolation-filters:sRGB;"
       inkscape:label="Silhouette"
       id="filter1482"
       x="-0.00035433072"
       y="-0.00035433072"
       width="1.0007087"
       height="1.0007087"><feFlood
         flood-opacity="1"
         flood-color="rgb(42,152,14)"
         result="flood"
         id="feFlood1476" /><feComposite
         in="flood"
         in2="SourceGraphic"
         operator="in"
         result="composite"
         id="feComposite1478" /><feGaussianBlur
         stdDeviation="0.01"
         id="feGaussianBlur1480" /></filter><filter
       style="color-interpolation-filters:sRGB;"
       inkscape:label="Silhouette"
       id="filter1490"
       x="-0.00035433072"
       y="-0.00035433072"
       width="1.0007087"
       height="1.0007087"><feFlood
         flood-opacity="1"
         flood-color="rgb(42,152,14)"
         result="flood"
         id="feFlood1484" /><feComposite
         in="flood"
         in2="SourceGraphic"
         operator="in"
         result="composite"
         id="feComposite1486" /><feGaussianBlur
         stdDeviation="0.01"
         id="feGaussianBlur1488" /></filter><inkscape:path-effect
       effect="fillet_chamfer"
       id="path-effect4"
       is_visible="true"
       lpeversion="1"
       nodesatellites_param="F,0,0,1,0,0,0,1 @ F,0,0,1,0,15,0,1 @ F,0,0,1,0,15,0,1 @ F,0,0,1,0,0,0,1"
       radius="0"
       unit="px"
       method="auto"
       mode="F"
       chamfer_steps="1"
       flexible="false"
       use_knot_distance="true"
       apply_no_radius="true"
       apply_with_radius="true"
       only_selected="false"
       hide_knots="false" /><inkscape:path-effect
       effect="fillet_chamfer"
       id="path-effect30-0-3-9"
       is_visible="true"
       lpeversion="1"
       nodesatellites_param="F,0,0,1,0,0,0,1 @ F,0,0,1,0,0,0,1 @ F,0,0,1,0,8.2056445,0,1 @ F,0,0,1,0,0,0,1 @ F,0,0,1,0,0,0,1"
       radius="0"
       unit="px"
       method="auto"
       mode="F"
       chamfer_steps="1"
       flexible="false"
       use_knot_distance="true"
       apply_no_radius="true"
       apply_with_radius="true"
       only_selected="false"
       hide_knots="false" /><inkscape:path-effect
       effect="fillet_chamfer"
       id="path-effect30-0-3-9-6"
       is_visible="true"
       lpeversion="1"
       nodesatellites_param="F,0,0,1,0,0,0,1 @ F,0,0,1,0,0,0,1 @ F,0,0,1,0,8.2056445,0,1 @ F,0,0,1,0,0,0,1 @ F,0,0,1,0,0,0,1"
       radius="0"
       unit="px"
       method="auto"
       mode="F"
       chamfer_steps="1"
       flexible="false"
       use_knot_distance="true"
       apply_no_radius="true"
       apply_with_radius="true"
       only_selected="false"
       hide_knots="false" /></defs><style
     id="style1">
    .fur{fill:#e3dedb}.paw{fill:#e9afaf}.outline{stroke:#000}
  </style><g
     id="layer1"
     transform="translate(217.6)"><g
       id="left_arm"
       stroke-linejoin="round"
       display="inline"
       transform="scale(.26458 -.26458) rotate(-30 -3962 1467.8)"><path
         id="path2652"
         stroke-width="566.9"
         d="M6950.4 264.7c-37.8-404.3-251.7-1349.2-414.2-1632.6-223-393-517.8-733.2-68-1050.7 340.1-245.6 782.3 22.7 1054.4 706.8C7982.2-556.1 7850.3-171 7790.6 332"
         class="fur outline"
         paint-order="stroke fill markers" /><path
         id="path2654"
         stroke-width="3.8"
         d="m7481-1806.3-11.3-26.5a2199.5 2199.5 0 0 0-241.9-393A1217 1217 0 0 0 7020-2411a703 703 0 0 0-173.9-83.1 480 480 0 0 0-177.6-7.6 423.3 423.3 0 0 0-170 60.5 540.4 540.4 0 0 0-71.9 52.9 782.3 782.3 0 0 0-117.1 121 446 446 0 0 0-60.5 124.6 359 359 0 0 0-11.4 158.8 506.4 506.4 0 0 0 34 128.5 986.4 986.4 0 0 0 98.3 204l83.2 139.9 83.1 143.6 30.2 56.7c291 109.6 865.5-143.6 914.6-495.1z"
         class="paw" /></g><g
       id="baby"
       transform="rotate(30 159.2 478.5)"><ellipse
         id="swaddling_outline"
         cx="1496.4"
         cy="1040.9"
         fill="#fdc75a"
         stroke="#000"
         stroke-linecap="round"
         stroke-linejoin="round"
         stroke-width="79"
         display="inline"
         paint-order="markers stroke fill"
         rx="153.8"
         ry="214.3" /><g
         id="swaddling"
         clip-path="url(#clipPath2763)"
         transform="translate(1129.5 -699.9) scale(3.7793)"><path
           id="path2755"
           fill="#5fd38d"
           stroke="#000"
           stroke-linecap="round"
           stroke-linejoin="round"
           stroke-width="19"
           d="m111.1 462.6-1-.5a149 149 0 0 1-21.7-13.8 211.4 211.4 0 0 1-21-17.8l-3.3-3a40.7 56.7 0 0 0-7.7 33.1 40.7 56.7 0 0 0 14 42.7l2.9-2.2a221.4 221.4 0 0 0 37.7-38.4h.1z"
           display="inline"
           paint-order="markers stroke fill" /><path
           id="ellipse2748"
           fill="#5fd38d"
           stroke="#000"
           stroke-linecap="round"
           stroke-linejoin="round"
           stroke-width="19"
           d="m131.5 430.2-.5 1a196.8 196.8 0 0 1-27.1 40.4A220.8 220.8 0 0 1 73.3 501l-3 2.2a40.7 56.7 0 0 0 26.8 14 40.7 56.7 0 0 0 40.7-56.7 40.7 56.7 0 0 0-6.3-30.4z"
           display="inline"
           paint-order="markers stroke fill" /><path
           id="path2709"
           fill="#5fd38d"
           stroke="#000"
           stroke-linecap="round"
           stroke-linejoin="miter"
           stroke-width="11.1"
           d="M53 491.4s14.2 24 88.2 15v-33c-74 9-93.4-15-93.4-15l5.3 33"
           display="inline" /></g><g
         id="neocat"
         transform="translate(1431 -807.2) scale(3.7793)"><path
           id="path11524"
           fill="#000"
           fill-fill-rule="nonzero"
           stroke="#000"
           stroke-linecap="round"
           stroke-linejoin="round"
           stroke-width="11.1"
           d="M-13 380.7a9.2 9.2 0 0 0-6.8 4c-1.4 1.8-2 4.2-2 6.4-.1 4.2.2 8.4 0 12.6 0 2.5.1 5-.1 7.5a44 44 0 0 0-2.5 6.8c-.5.7-1.4.5-2 .9-4.3 1.6-7.4 6.3-6.6 10.9.3 2.5 1.6 5 3.6 6.6.1.7-.3 1-.8 1.5a10.2 10.2 0 0 0-2.3 11c1.3 3.5 4.7 6.2 8.5 6.5 1.4 0 2.6 0 3.8-.3 1-.2 1.8-.7 2.7-1 .8 0 1.2.9 1.8 1.3a33.2 33.2 0 0 0 23.4 8c10.3-.3 20.6.1 31-.4a20 20 0 0 0 6.7-1.5c2-.8 4-2 5.9-3.3.8-.2 1.5.5 2.3.7 2.8 1 6.2 1.1 8.9-.5 4-2.2 6.4-7.5 4.9-12a11 11 0 0 0-6.3-6.8c-.6-.7-.2-1.6-.3-2.4v-2.7c.4-.7 1.3-.8 1.8-1.3a10 10 0 0 0 5.1-7.5c.7-4.8-2.4-10-7.2-11.2-.7-.2-1.8-.3-2-1.2-.5-1.3-1.2-2.7-.7-4.2 1-6.5 2.4-13 3-19.5-.2-5.5-6.2-10-11.5-8.6-2.8.8-5.4 2-8.1 3-2.8 1-5.5 2.3-8.3 3.3-1.3-.2-2.5-.8-3.8-1a44 44 0 0 0-23.6.6c-1-.1-2-.7-3-1-4.6-1.9-9-3.8-13.7-5.1H-13Z"
           baseline-shift="baseline"
           clip-rule="nonzero"
           color="#000"
           color-interpolation="sRGB"
           color-interpolation-filters="linearRGB"
           color-rendering="auto"
           direction="ltr"
           display="inline"
           dominant-baseline="auto"
           font-family="sans-serif"
           font-size="medium"
           font-stretch="normal"
           font-style="normal"
           font-variant="normal"
           font-weight="400"
           image-rendering="auto"
           letter-spacing="normal"
           overflow="visible"
           shape-rendering="auto"
           stop-color="#000"
           stop-style="line-height:normal;font-variant-ligatures:normal;font-variant-position:normal;font-variant-caps:normal;font-variant-numeric:normal;font-variant-alternates:normal;font-variant-east-asian:normal;font-feature-settings:normal;font-variation-settings:normal;text-indent:0;text-align:start;text-decoration-line:none;text-decoration-style:solid;text-decoration-color:#000;text-transform:none;text-orientation:mixed;white-space:normal;shape-padding:0;shape-margin:0;inline-size:0;isolation:auto;mix-blend-mode:normal;solid-color:#000;solid-opacity:1"
           text-anchor="start"
           text-decoration="none"
           text-rendering="auto"
           vector-effect="none"
           visibility="visible"
           word-spacing="normal"
           writing-mode="lr-tb" /><path
           id="baby_fur"
           fill="#fdc75a"
           stroke-width=".1"
           d="M51.3 386c-3.4.6-6.6 2.5-9.9 3.6L33 393a38.3 38.3 0 0 0-27.7-.4c-5.7-2.2-11.3-4.6-17-6.6-4.5-.4-5.2 4.6-4.8 8v18a45 45 0 0 0-4.4 17.3c-.1 3 .3 6.2.9 9.2A25.8 25.8 0 0 0 6.9 458c10.7 0 21.5.1 32.2-.2a19.2 19.2 0 0 0 16.4-20.1c0-8.2.8-16.8-2.6-24.6-1.2-1.4-.6-3-.4-4.5 1-6.1 2.1-12.2 3-18.4 0-2.2-2-4.3-4.2-4.2z"
           display="inline" /><g
           id="whiskers"
           fill="none"
           stroke="#8e5e31"
           stroke-linecap="round"
           stroke-linejoin="round"
           stroke-width="78"
           display="inline"
           transform="translate(-50.3 335.2) scale(.06615)"><path
             id="path11487"
             stroke-width="152"
             d="m544 1471-128-60" /><use
             xlink:href="#path11487"
             id="use11492"
             width="100%"
             height="100%"
             x="0"
             y="0"
             transform="matrix(-1 0 0 1 959 191)" /><path
             id="path11494"
             stroke-width="152"
             d="m1630 1347-254 126" /><use
             xlink:href="#path11494"
             id="use11508"
             width="100%"
             height="100%"
             x="0"
             y="0"
             transform="matrix(-1 0 0 1 3006 253)" /></g><g
           id="g19"
           inkscape:label="right_eye"
           transform="matrix(0.06614981,0,0,0.06614981,-39.989403,347.91495)"><path
             d="m 812.46289,898.55273 -138.66602,40.69922 a 128.26585,128.26585 0 0 1 31.22071,83.83005 128.26585,128.26585 0 0 1 -128.26563,128.2657 128.26585,128.26585 0 0 1 -128.26562,-128.2657 128.26585,128.26585 0 0 1 1.79492,-18.2304 l -65.45117,19.2109 a 225,225 0 0 0 222.39648,191.5449 225,225 0 0 0 225,-224.99998 225,225 0 0 0 -19.76367,-92.05469 z"
             style="opacity:1;fill:#ffffff;stroke-width:71.583;stroke-linejoin:bevel;paint-order:fill markers stroke"
             id="path16" /><path
             d="m 450.28125,1004.8516 a 128.26585,128.26585 0 0 0 -1.79492,18.2304 128.26585,128.26585 0 0 0 128.26562,128.2657 128.26585,128.26585 0 0 0 128.26563,-128.2657 128.26585,128.26585 0 0 0 -31.22071,-83.83005 z"
             style="opacity:1;stroke-width:40.8074;stroke-linejoin:bevel;paint-order:fill markers stroke"
             id="path18" /></g><g
           id="g18"
           inkscape:label="left_eye"
           transform="matrix(0.06614981,0,0,0.06614981,-49.749407,347.68388)"><path
             d="m 1454.291,1078.5313 -74.8965,-37.3653 a 128.26585,128.26585 0 0 1 -98.6289,47.2324 128.26585,128.26585 0 0 1 -128.2656,-128.26754 128.26585,128.26585 0 0 1 4.0215,-30.1543 L 1053.125,878.39258 a 225,225 0 0 0 -30.5703,112.21484 225,225 0 0 0 225,224.99998 225,225 0 0 0 206.7363,-137.0761 z"
             style="opacity:1;fill:#ffffff;stroke-width:71.583;stroke-linejoin:bevel;paint-order:fill markers stroke"
             id="path12" /><path
             d="m 1156.5215,929.97656 a 128.26585,128.26585 0 0 0 -4.0215,30.1543 128.26585,128.26585 0 0 0 128.2656,128.26754 128.26585,128.26585 0 0 0 98.6289,-47.2324 z"
             style="opacity:1;stroke-width:40.8074;stroke-linejoin:bevel;paint-order:fill markers stroke"
             id="path14" /></g><path
           style="font-variation-settings:normal;display:inline;fill:none;fill-opacity:1;stroke:#562a13;stroke-width:10.0548;stroke-linecap:round;stroke-linejoin:round;stroke-miterlimit:4;stroke-dasharray:none;stroke-dashoffset:0;stroke-opacity:1;stop-color:#000000"
           d="m -2.6031062,438.71284 c -0.4755113,1.90201 1.4207868,6.14562 3.9554306,6.71505 4.6428755,1.04305 6.5732543,-5.79197 10.1525286,-4.84592 3.366116,0.88971 4.503887,7.4958 10.836132,6.47627 3.590697,-0.57813 6.501447,-4.71438 7.13547,-8.25424"
           id="path18-8"
           sodipodi:nodetypes="csssc"
           inkscape:label="woozy" /><path
           style="font-variation-settings:normal;display:inline;fill:none;fill-opacity:1;stroke:#000000;stroke-width:19.9999;stroke-linecap:round;stroke-linejoin:round;stroke-miterlimit:4;stroke-dasharray:none;stroke-dashoffset:0;stroke-opacity:1;stop-color:#000000"
           d="m 1399.4863,731.4195 c 8.3351,-10.32749 22.964,-23.99398 48.5833,-24.44895"
           id="path2-6"
           sodipodi:nodetypes="cc"
           transform="matrix(0.26459926,0,0,0.26459926,-378.64155,213.58453)" /><path
           style="font-variation-settings:normal;display:inline;fill:none;fill-opacity:1;stroke:#000000;stroke-width:19.9999;stroke-linecap:round;stroke-linejoin:round;stroke-miterlimit:4;stroke-dasharray:none;stroke-dashoffset:0;stroke-opacity:1;stop-color:#000000"
           d="m 1536.4854,707.12027 c 6.2551,13.03139 25.8758,27.9459 54.823,23.825"
           id="path3"
           sodipodi:nodetypes="cc"
           transform="matrix(0.26459926,0,0,0.26459926,-378.64155,213.58453)" /></g></g></g></svg>
