<?xml version="1.0" encoding="UTF-8" standalone="no"?>
<svg
   version="1.1"
   viewBox="0 0 2048 2048"
   id="svg1"
   sodipodi:docname="arms_baby_gob.svg"
   inkscape:version="1.3.2 (091e20e, 2023-11-25, custom)"
   xml:space="preserve"
   inkscape:export-filename="..\..\..\neomoji\png\neobot_baby_gob.png"
   inkscape:export-xdpi="96"
   inkscape:export-ydpi="96"
   xmlns:inkscape="http://www.inkscape.org/namespaces/inkscape"
   xmlns:sodipodi="http://sodipodi.sourceforge.net/DTD/sodipodi-0.dtd"
   xmlns:xlink="http://www.w3.org/1999/xlink"
   xmlns="http://www.w3.org/2000/svg"
   xmlns:svg="http://www.w3.org/2000/svg"><sodipodi:namedview
     id="namedview1"
     pagecolor="#ffffff"
     bordercolor="#666666"
     borderopacity="1.0"
     inkscape:showpageshadow="2"
     inkscape:pageopacity="0.0"
     inkscape:pagecheckerboard="0"
     inkscape:deskcolor="#d1d1d1"
     inkscape:zoom="0.25584284"
     inkscape:cx="619.52096"
     inkscape:cy="1276.1741"
     inkscape:window-width="1920"
     inkscape:window-height="1001"
     inkscape:window-x="-9"
     inkscape:window-y="-9"
     inkscape:window-maximized="1"
     inkscape:current-layer="svg1" /><defs
     id="defs1"><clipPath
       id="clipPath2763"
       clipPathUnits="userSpaceOnUse"><ellipse
         id="ellipse2765"
         cx="97.1"
         cy="460.6"
         fill="#fdc75a"
         stroke="#000"
         stroke-linecap="round"
         stroke-linejoin="round"
         stroke-width="19.1"
         display="inline"
         paint-order="markers stroke fill"
         rx="40.7"
         ry="56.7" /></clipPath><filter
       id="eye_glow"
       width="2.640625"
       height="2.125"
       x="-0.8203125"
       y="-0.5625"><feGaussianBlur
         in="SourceGraphic"
         result="blur1"
         stdDeviation="50"
         id="feGaussianBlur1" /><feGaussianBlur
         in="SourceGraphic"
         result="blur2"
         stdDeviation="25"
         id="feGaussianBlur2" /><feGaussianBlur
         in="SourceGraphic"
         result="blur3"
         stdDeviation="12.5 "
         id="feGaussianBlur3" /><feComposite
         in="SourceGraphic"
         in2="blur1"
         result="comp1"
         id="feComposite3" /><feComposite
         in="comp1"
         in2="blur2"
         result="comp2"
         id="feComposite4" /><feComposite
         in="comp2"
         in2="blur3"
         id="feComposite5" /></filter></defs><style
     id="style1">
    .fur{fill:#e3dedb}.paw{fill:#e9afaf}.outline{stroke:#000}
  </style><image
     width="2048"
     height="2048"
     preserveAspectRatio="none"
     xlink:href="../../../symtrkl/highres/neobot/neobot_cute_2048.png"
     id="image1"
     x="-217.60001"
     y="0"
     transform="translate(217.6)" /><g
     id="layer1"
     transform="translate(293.6)"><g
       id="left_arm"
       stroke-linejoin="round"
       display="inline"
       transform="matrix(0.229133,0.13229,0.13229,-0.229133,-334.61627,472.10388)"><path
         id="path2652"
         stroke-width="566.9"
         d="m 6950.4,264.7 c -37.8,-404.3 -251.7,-1349.2 -414.2,-1632.6 -223,-393 -517.8,-733.2 -68,-1050.7 340.1,-245.6 782.3,22.7 1054.4,706.8 459.6,1155.7 327.7,1540.8 268,2043.8"
         class="fur outline"
         paint-order="stroke fill markers"
         style="fill:#cdcdcd;fill-opacity:1" /><path
         id="path2654"
         stroke-width="3.8"
         d="m 7481,-1806.3 -11.3,-26.5 a 2199.5,2199.5 0 0 0 -241.9,-393 1217,1217 0 0 0 -207.8,-185.2 703,703 0 0 0 -173.9,-83.1 480,480 0 0 0 -177.6,-7.6 423.3,423.3 0 0 0 -170,60.5 540.4,540.4 0 0 0 -71.9,52.9 782.3,782.3 0 0 0 -117.1,121 446,446 0 0 0 -60.5,124.6 359,359 0 0 0 -11.4,158.8 506.4,506.4 0 0 0 34,128.5 986.4,986.4 0 0 0 98.3,204 l 83.2,139.9 83.1,143.6 30.2,56.7 c 291,109.6 865.5,-143.6 914.6,-495.1 z"
         class="paw"
         style="fill:#cdcdcd;fill-opacity:1" /></g><g
       id="g9"
       inkscape:label="fire"
       transform="matrix(1.9887947,0,0,1.9887947,-1310.0024,-1053.8723)"><path
         id="ellipse7"
         style="display:inline;opacity:0.35;fill:#d45500;fill-opacity:1;stroke:none;stroke-width:19.8033;stroke-linejoin:round;stroke-dasharray:none;stroke-opacity:1;paint-order:markers stroke fill"
         d="m 1176.6367,1004.5645 a 93.199722,186.07381 0 0 0 -0.1,0.039 117.42558,234.44087 0 0 1 4.4981,64.041 117.42558,234.44087 0 0 1 -63.7246,207.6856 93.199722,186.07381 0 0 0 49.5136,83.4863 93.199722,186.07381 0 0 0 70.8692,-180.6191 93.199722,186.07381 0 0 0 -61.0567,-174.6328 z" /><path
         id="path3"
         style="display:inline;opacity:0.35;fill:#ffff00;fill-opacity:1;stroke:none;stroke-width:19.6596;stroke-linejoin:round;stroke-dasharray:none;stroke-opacity:1;paint-order:markers stroke fill"
         d="m 1219.1953,1000.4727 a 92.52388,184.72449 0 0 1 15.4316,102.0683 92.52388,184.72449 0 0 1 -92.5234,184.7246 92.52388,184.72449 0 0 1 -12.6133,-1.7929 92.52388,184.72449 0 0 0 76.8731,82.6367 92.52388,184.72449 0 0 0 92.5234,-184.7246 92.52388,184.72449 0 0 0 -79.6914,-182.9121 z" /><path
         id="ellipse4"
         style="display:inline;opacity:0.35;fill:#ffff00;fill-opacity:1;stroke:none;stroke-width:19.8033;stroke-linejoin:round;stroke-dasharray:none;stroke-opacity:1;paint-order:markers stroke fill"
         d="m 1172.7754,999.30469 a 93.199722,186.07381 0 0 0 -69.4805,179.89261 93.199722,186.07381 0 0 0 93.1992,186.0742 93.199722,186.07381 0 0 0 89.3594,-134.0078 93.199722,186.07381 0 0 1 -23.7187,6.1816 93.199722,186.07381 0 0 1 -93.1992,-186.0742 93.199722,186.07381 0 0 1 3.8398,-52.06641 z" /><path
         style="display:inline;opacity:0.35;fill:#ff0000;fill-opacity:1;stroke:none;stroke-width:22.0087;stroke-linejoin:round;stroke-dasharray:none;stroke-opacity:1;paint-order:markers stroke fill"
         d="m 1239.4258,969.4375 a 110.50089,220.61569 0 0 1 0.3105,15.89258 110.50089,220.61569 0 0 1 -110.5,220.61522 110.50089,220.61569 0 0 1 -27.664,-7.1465 103.57921,206.79652 0 0 0 101.8457,171.3106 103.57921,206.79652 0 0 0 103.58,-206.7969 103.57921,206.79652 0 0 0 -67.5722,-193.875 z"
         id="path7" /></g><use
       x="0"
       y="0"
       xlink:href="#g9"
       id="use9"
       transform="matrix(-1,0,0,1,1984.9702,223.87044)" /><g
       id="baby"
       transform="rotate(30,159.2,478.5)"><ellipse
         id="swaddling_outline"
         cx="1496.4"
         cy="1040.9"
         fill="#fdc75a"
         stroke="#000000"
         stroke-linecap="round"
         stroke-linejoin="round"
         stroke-width="79"
         display="inline"
         paint-order="markers stroke fill"
         rx="153.8"
         ry="214.3"
         style="fill:#8bb9a0;fill-opacity:1" /><g
         id="swaddling"
         clip-path="url(#clipPath2763)"
         transform="matrix(3.7793,0,0,3.7793,1129.5,-699.9)"><path
           id="path2755"
           fill="#5fd38d"
           stroke="#000000"
           stroke-linecap="round"
           stroke-linejoin="round"
           stroke-width="19"
           d="m 111.1,462.6 -1,-0.5 a 149,149 0 0 1 -21.7,-13.8 211.4,211.4 0 0 1 -21,-17.8 l -3.3,-3 a 40.7,56.7 0 0 0 -7.7,33.1 40.7,56.7 0 0 0 14,42.7 l 2.9,-2.2 A 221.4,221.4 0 0 0 111,462.7 h 0.1 z"
           display="inline"
           paint-order="markers stroke fill" /><path
           id="ellipse2748"
           fill="#5fd38d"
           stroke="#000000"
           stroke-linecap="round"
           stroke-linejoin="round"
           stroke-width="19"
           d="m 131.5,430.2 -0.5,1 A 196.8,196.8 0 0 1 103.9,471.6 220.8,220.8 0 0 1 73.3,501 l -3,2.2 a 40.7,56.7 0 0 0 26.8,14 40.7,56.7 0 0 0 40.7,-56.7 40.7,56.7 0 0 0 -6.3,-30.4 z"
           display="inline"
           paint-order="markers stroke fill" /><path
           id="path2709"
           fill="#5fd38d"
           stroke="#000000"
           stroke-linecap="round"
           stroke-linejoin="miter"
           stroke-width="11.1"
           d="m 53,491.4 c 0,0 14.2,24 88.2,15 v -33 c -74,9 -93.4,-15 -93.4,-15 l 5.3,33"
           display="inline" /></g><g
         id="g1"
         transform="matrix(0.2,0,0,0.2,1293.4274,559.90336)"
         style="opacity:1"
         inkscape:label="gob"><path
           id="path2"
           style="display:inline;fill:#000000;fill-opacity:1;stroke:#000000;stroke-width:100;stroke-linejoin:round;stroke-dasharray:none;stroke-opacity:1"
           inkscape:label="outline"
           d="m 83.570312,101.33203 c -1.796081,0.10785 -3.576697,0.42222 -5.358149,0.6557 -2.291132,0.47052 -4.442796,1.40463 -6.618413,2.23883 -2.465566,1.04285 -4.551379,2.76739 -6.704265,4.32461 -1.940022,1.61226 -3.472933,3.63807 -5.049641,5.59336 -1.766513,2.22104 -2.734255,4.92306 -3.793161,7.52199 -0.789155,2.29071 -1.078771,4.71602 -1.454994,7.10015 -0.448595,3.74845 -0.04168,7.55565 0.911664,11.197 10.818042,46.5856 21.669033,93.1639 32.502548,139.74591 12.106819,51.91802 24.164599,103.84739 36.400699,155.73516 7.00711,29.46399 14.16744,58.89156 21.42001,88.2957 2.5335,10.72807 7.05217,21.04558 13.68417,29.88221 7.69968,10.43244 17.78674,19.20096 29.48139,24.86874 6.87628,3.17239 14.13045,5.40242 21.15645,8.20457 24.81541,9.42716 49.696,18.71168 74.1424,29.07162 0.67089,0.95611 1.3957,1.87221 2.12109,2.78711 0.0869,0.19907 0.75944,0.71786 0.67684,1.21694 0.51341,4.23971 1.2393,8.45761 1.58878,12.7147 -0.007,0.76322 0.0953,1.73472 -0.74282,2.11958 -14.93907,10.49984 -29.83363,21.06521 -44.75554,31.59032 -16.64904,11.76994 -33.31774,23.51379 -49.9545,35.30004 -2.7463,2.13538 -4.94974,4.8524 -7.0974,7.56319 -1.31449,1.64837 -2.10848,3.60584 -2.91589,5.52993 -0.99592,2.03226 -1.46327,4.25461 -1.80533,6.47506 -0.92944,4.60031 -0.6826,9.43223 0.74219,13.90625 1.55275,4.89936 3.35538,9.71618 5.01311,14.58085 10.56294,30.3077 21.13833,60.61141 31.56595,90.96606 2.80887,8.14764 5.56448,16.31622 7.97507,24.59223 3.40406,11.64491 6.26045,23.51043 7.44872,35.60548 0.25667,2.83939 -0.0749,5.73052 -1.10619,8.39554 -0.44871,1.1501 -0.99428,2.25899 -1.53533,3.36766 -0.12982,0.25273 -0.52632,1.05281 -0.75335,1.52172 -11.65635,24.53989 -21.61376,49.87517 -30.0155,75.70774 -11.49476,35.31232 -20.09843,71.52602 -26.51018,108.09212 -5.92508,33.518 -10.11775,67.3318 -12.94452,101.2479 -1.49619,19.9317 -1.5143,39.931 -1.85344,59.9049 -0.50244,38.3456 -0.65895,76.7 -0.0194,115.0448 1.41958,61.9282 12.62608,123.6074 32.91564,182.1285 18.97129,54.8085 46.04663,106.7889 79.98086,153.8198 28.27173,39.205 61.30191,74.9802 98.19206,106.2161 51.31615,43.5131 110.00275,78.3424 172.8722,102.3291 52.51747,20.1006 107.8741,32.8156 163.92134,37.4505 13.74415,1.1198 27.53645,1.5397 41.32359,1.5486 91.5451,0.7727 183.09409,0.8419 274.64183,0.9173 119.1836,0.075 238.368,0 357.5498,-0.6991 16.5771,-0.1302 33.1588,-0.1416 49.7284,-0.7105 13.7055,-0.4673 27.3475,-2.0324 40.9155,-3.9662 39.0307,-5.6969 77.3482,-16.3127 113.6969,-31.6395 46.8697,-19.6975 90.5519,-47.0253 128.5826,-80.7815 40.0167,-35.381 73.9445,-77.6399 99.7494,-124.4126 15.7565,-28.4927 28.467,-58.6582 37.9494,-89.8036 11.1434,-36.5433 17.8866,-74.455 19.6799,-112.6265 0.6694,-16.2245 0.5363,-32.4668 0.6943,-48.7009 0.3963,-66.8064 0.1841,-133.6147 -0.1419,-200.421 -0.2175,-37.1228 -0.5154,-74.2466 -1.2772,-111.3627 -0.2482,-10.1112 -1.0235,-20.2017 -2.107,-30.2557 -1.5895,-14.9071 -3.5414,-29.7744 -5.6974,-44.6094 -7.1173,-47.5554 -17.9782,-94.66305 -34.3072,-139.93588 -3.2548,-9.21412 -6.8934,-18.29322 -10.0054,-27.55619 -0.3704,-1.89451 -0.6027,-3.8658 -0.353,-5.78766 0.7186,-3.80922 1.8477,-7.52639 2.605,-11.32809 7.2942,-31.89034 14.249,-63.85712 21.1851,-95.82689 14.458,-67.00021 28.6216,-134.063 42.8295,-201.11658 31.2188,-147.36739 62.3488,-294.75376 93.5331,-442.12844 0.6767,-3.37102 1.5099,-6.7191 1.9761,-10.127 0.2247,-2.23915 0.1406,-4.56047 0,-6.70999 -0.059,-2.53761 -0.5336,-5.06799 -1.5441,-7.40244 -0.67,-2.24254 -1.7251,-4.34907 -3.079,-6.2551 -1.3459,-2.27136 -2.973,-4.39867 -5.0676,-6.03025 -1.7134,-1.58033 -3.5828,-3.0028 -5.7023,-3.99412 -2.4389,-1.37585 -5.0289,-2.56154 -7.8229,-2.96519 -2.3166,-0.53511 -4.6932,-0.84268 -7.0713,-0.6413 -2.9615,0.004 -5.9175,0.40037 -8.7506,1.27245 -3.6856,1.145 -7.0064,3.16921 -10.464,4.83998 -60.5264,30.74404 -121.066,61.46185 -181.6112,92.16886 -29.3312,14.86631 -58.6626,29.73255 -88.0224,44.54225 -40.0465,20.12301 -80.1392,40.15486 -120.351,59.94599 -4.831,2.37504 -9.7874,4.81404 -14.6224,7.1792 -38.8295,19.02222 -77.7618,37.83952 -116.9637,56.08382 -19.783,9.1675 -39.6379,18.18804 -59.6971,26.73698 -5.1676,2.15051 -10.33,4.33994 -15.5889,6.24886 -1.9554,0.24529 -3.9618,0.32418 -5.9157,0.0497 -3.8275,-0.70941 -7.6071,-1.65502 -11.4387,-2.34615 -98.7795,-20.09513 -199.8967,-29.11706 -300.6688,-25.55386 -48.47089,1.73805 -96.86633,6.28054 -144.72379,14.21439 -25.56386,4.23753 -50.95764,9.50757 -76.07886,15.86549 -2.27751,0.5717 -4.67648,0.51645 -6.98579,0.19018 -2.62211,-0.8759 -5.12179,-2.09638 -7.6612,-3.18821 C 731.9715,387.65756 683.79963,366.28327 635.66168,344.83336 548.67004,306.07997 461.73708,267.19388 374.8046,228.30864 282.03845,186.7944 189.27121,145.28257 96.509766,103.75781 c -3.263968,-1.31427 -6.762784,-1.83511 -10.226469,-2.31451 -0.900457,-0.098 -1.807503,-0.13725 -2.712985,-0.11127 z" /><path
           id="body"
           d="m 242.42383,325.73047 c 6.74041,28.93547 13.5027,57.86597 20.3789,86.76953 3.42903,14.34861 6.89884,28.81007 10.43062,43.18105 0.46975,1.90384 0.93949,3.80768 1.40923,5.71153 33.422,12.55283 66.64836,25.71383 99.03374,40.7688 16.30686,7.65764 32.38038,15.91452 47.52363,25.70297 11.07617,7.27125 21.61552,15.61592 30.04398,25.90919 6.00115,7.38341 10.68459,15.80617 13.93507,24.74269 9.5429,25.07827 9.72723,53.65415 0.17188,78.75817 -6.79962,18.18533 -18.80573,34.37224 -34.21596,46.17876 -13.27423,10.68096 -27.21947,20.48428 -41.05559,30.41398 -16.03951,11.41811 -32.18617,22.68291 -48.25706,34.05669 5.69566,16.44298 11.61299,32.815 16.75286,49.44422 6.68082,21.56418 12.21885,43.59251 14.60041,66.08288 2.06085,19.78984 1.52727,40.05273 -3.55623,59.37028 -2.48949,9.5107 -6.1017,18.71394 -10.62788,27.43754 -19.08405,39.03855 -32.17465,80.77815 -41.35317,123.18215 -0.13738,0.6208 -0.2105,0.9849 -0.35056,1.6368 -0.20007,0.9389 -0.40013,1.8779 -0.6002,2.8168 -0.0762,0.3502 -0.24401,1.1757 -0.35529,1.7079 -4.66067,22.5789 -8.29333,45.3628 -11.15252,68.2374 -0.044,0.3327 -0.14549,1.1919 -0.21153,1.7263 -1.00199,8.094 -1.89282,16.2014 -2.72207,24.3148 -0.0383,0.351 -0.11781,1.1949 -0.17191,1.7347 -0.79877,8.1531 -1.64681,16.3097 -1.86963,24.5042 -0.37885,11.8406 -0.59766,23.6857 -0.79049,35.5306 -0.0132,1.206 -0.0366,2.6665 -0.0537,3.9703 -0.31516,23.1333 -0.44735,46.2693 -0.43009,69.4047 0.0221,10.8076 0.1012,21.615 0.22593,32.4219 0.006,0.672 0.0229,1.6667 0.0331,2.4626 0.0995,10.1127 0.49604,20.2229 1.29999,30.3049 0.11653,1.4734 0.23653,2.9466 0.35439,4.42 0.0241,0.2185 0.10716,1.1941 0.15403,1.705 1.60529,18.1458 4.28063,36.1971 8.0237,54.0254 0.0262,0.094 0.24317,1.1226 0.33949,1.5601 6.46112,30.2562 16.02432,59.8444 28.44176,88.1802 0.0478,0.093 0.46732,1.0498 0.65144,1.4597 18.79598,42.4812 44.12172,82.0636 74.79192,116.9524 0.24101,0.2655 0.79532,0.8996 1.15633,1.3062 0.80534,0.9148 1.62249,1.8192 2.43352,2.7289 0.22681,0.2557 0.80591,0.8901 1.16772,1.2908 27.42407,30.2234 58.90738,56.7572 93.33618,78.6702 0.27973,0.1818 1.01448,0.6421 1.46863,0.9307 0.58553,0.3721 0.87934,0.5539 1.44226,0.9053 43.51981,27.2483 91.65553,47.0996 141.73759,58.4282 8.00932,1.8179 16.06905,3.4113 24.16402,4.7983 0.23653,0.035 1.18324,0.1961 1.69358,0.2797 15.12971,2.5126 30.38369,4.3096 45.69137,5.2718 6.26183,0.2997 12.41707,0.2873 18.67113,0.377 54.86749,0.5751 109.73845,0.6695 164.60835,0.807 129.5357,0.2668 259.0722,0.2382 388.6077,-0.14 40.4324,-0.1488 80.866,-0.2662 121.2954,-0.8098 5.0344,-0.064 10.0615,-0.3816 15.0658,-0.9325 51.1572,-4.9528 101.0755,-22.1874 144.3869,-49.8598 26.2602,-16.7227 50.0962,-37.2321 70.593,-60.6634 0.1854,-0.2209 0.7873,-0.9059 1.1327,-1.3052 18.8378,-21.7609 34.7794,-46.0201 47.2954,-71.9376 15.3311,-31.6994 25.4707,-65.8904 29.9712,-100.8111 1.0285,-8.2057 1.8516,-16.4456 2.1749,-24.7117 0.01,-0.1878 0.039,-1.1973 0.056,-1.7033 0.023,-0.6357 0.024,-0.9286 0.043,-1.6561 0.014,-0.6339 0.032,-1.2063 0.039,-1.6636 0.03,-1.7445 0.049,-3.5006 0.076,-5.3106 0.6373,-48.0975 0.5212,-96.2006 0.4834,-144.3011 -0.1,-57.4843 -0.3752,-114.969 -1.0819,-172.4493 -0.017,-1.206 -0.044,-2.6663 -0.065,-3.9701 -0.1031,-6.4831 -0.2169,-12.966 -0.3826,-19.4478 0,-0.2107 -0.034,-1.1292 -0.051,-1.6133 -0.1581,-7.8127 -1.2564,-15.5379 -2.043,-23.2862 -3.7581,-33.4444 -9.199,-66.7516 -17.5663,-99.3701 -0.094,-0.3758 -0.3019,-1.1621 -0.4396,-1.6951 -2.7019,-10.3845 -5.7233,-20.6856 -9.0507,-30.88689 -0.1056,-0.33105 -0.3755,-1.14049 -0.544,-1.65482 -4.4788,-13.59393 -9.6781,-26.93251 -14.6712,-40.34159 -4.9431,-13.24463 -9.3764,-26.86425 -10.6405,-41.01957 -1.1727,-12.61307 0.2534,-25.49446 4.4419,-37.46415 1.376,-4.5739 2.3558,-9.25456 3.4845,-13.89312 5.7947,-24.7267 11.1535,-49.55259 16.5845,-74.36093 9.9065,-45.64792 19.6636,-91.42188 29.3889,-137.14904 22.035,-103.81268 43.8631,-207.65272 65.868,-311.47225 -62.1985,31.61892 -124.5532,62.93166 -187.1291,93.79769 -44.1208,21.72695 -88.3589,43.22125 -132.9041,64.06623 -24.2685,11.31179 -48.6194,22.46202 -73.2871,32.88022 -12.2688,5.13026 -24.6095,10.13556 -37.2637,14.2461 -10.7172,3.43734 -21.9136,6.06744 -33.2429,5.50788 -4.991,-0.20779 -9.9284,-1.08758 -14.7575,-2.3373 -4.4754,-1.02587 -8.9587,-2.01717 -13.4449,-2.9948 -0.4001,-0.0891 -1.1739,-0.25208 -1.717,-0.36944 -18.8047,-4.04643 -37.7066,-7.6408 -56.6834,-10.78291 -0.4054,-0.0688 -1.1849,-0.19358 -1.7335,-0.28381 -3.8701,-0.64113 -7.749,-1.22636 -11.6239,-1.83728 -0.3895,-0.0618 -1.1871,-0.17991 -1.7329,-0.26326 -4.7934,-0.74152 -9.5959,-1.42113 -14.3979,-2.10393 -0.3065,-0.0445 -1.1895,-0.16212 -1.7172,-0.23468 -29.4072,-4.05781 -58.9705,-6.98486 -88.6032,-8.76141 -0.4032,-0.0201 -1.1987,-0.0686 -1.7521,-0.0996 -5.1555,-0.30057 -10.3133,-0.56291 -15.4725,-0.79498 -0.4877,-0.0246 -1.3326,-0.0567 -1.9572,-0.0842 -11.1845,-0.48158 -22.3763,-0.78248 -33.5701,-0.92755 -0.3728,-1.3e-4 -1.2388,-0.0117 -1.8008,-0.0156 -9.0955,-0.0898 -18.1918,-0.0757 -27.2871,0.0332 -0.3352,0.003 -1.1974,0.0183 -1.7347,0.0275 -4.8379,0.10412 -9.676,0.19685 -14.5133,0.32601 -0.3366,0.0149 -1.2001,0.0379 -1.7386,0.0559 -6.7819,0.2039 -13.5607,0.49698 -20.3376,0.82298 -0.3025,0.0202 -1.1987,0.0648 -1.7291,0.0943 -4.35829,0.22076 -8.71409,0.48471 -13.06971,0.75331 -0.29335,0.0173 -1.19759,0.0808 -1.72557,0.11584 -1.88965,0.12806 -3.77931,0.25611 -5.66896,0.38416 -0.27677,0.0247 -1.1967,0.0904 -1.72073,0.13085 -16.66243,1.21463 -33.29397,2.84803 -49.87498,4.89259 -0.26556,0.0385 -1.19017,0.1529 -1.70927,0.2206 -1.87816,0.24027 -3.75632,0.48054 -5.63447,0.72081 -0.27238,0.0332 -1.18921,0.16101 -1.7094,0.23059 -13.28249,1.77293 -26.52668,3.83213 -39.71639,6.1991 -0.25144,0.0434 -1.17998,0.21671 -1.69215,0.31013 -1.59285,0.2931 -3.1857,0.58621 -4.77855,0.87932 -0.23521,0.0502 -1.17765,0.22749 -1.6855,0.32669 -19.71358,3.77929 -39.32897,8.16473 -58.61397,13.75424 -9.69692,2.80609 -19.2005,6.22344 -28.77577,9.40925 -0.99022,0.28878 -1.98303,0.76102 -2.97168,0.93804 -13.69392,-4.99947 -27.30232,-10.25376 -40.6241,-16.18245 C 696.41519,525.15865 649.85501,504.40021 603.2673,483.70493 482.6227,430.01772 362.09425,376.07988 241.58008,322.09961 c 0.28125,1.21029 0.5625,2.42057 0.84375,3.63086 z"
           style="fill:#8bb9a0;fill-opacity:1" /><path
           id="tooth"
           fill="#fefbba"
           d="m 1114.5398,1593.1166 130,160 a 12,12 0 0 0 22,-6 l 30,-298 a 12,12 0 0 0 -20,-10 l -160,132 c -6,6 -6,16 -2,22 z"
           style="stroke-width:2" /><path
           id="mouth-8"
           fill="none"
           stroke="#542912"
           stroke-linecap="round"
           stroke-linejoin="round"
           stroke-width="80"
           d="m 635,1375 99,157 127,-162 158,165 193,-162"
           style="stroke-width:190;stroke-dasharray:none" /><g
           id="eyes"
           display="inline"
           transform="matrix(1.8749107,0,0,1.8749107,-765.32167,-1312.03)"><g
             id="left_eye-5"
             transform="matrix(0.66669841,0,0,0.66669841,303.10877,526.87841)"><circle
               id="sclera"
               class="sclera"
               cx="1244"
               cy="1004"
               r="227"
               style="fill:#fc5900;fill-opacity:1" /><circle
               id="iris"
               class="iris"
               cx="1209"
               cy="1008"
               r="195"
               style="fill:#000000" /><ellipse
               id="glare"
               cx="142"
               cy="1497"
               fill="#ffffff"
               rx="99"
               ry="77"
               transform="rotate(-45)" /><path
               id="glint"
               fill="#8bb9a0"
               d="m 1294,1024 c -8,3 -15,9 -18,16 -9,17 -20,29 -32,34 a 32.310989,32.310989 0 1 0 24,60 c 31,-13 52,-38 66,-64 a 32,32 0 0 0 -40,-46 z"
               color="#000000"
               style="mix-blend-mode:luminosity;fill:#fdc75a;fill-opacity:1" /></g><use
             id="right_eye-5"
             href="#left_eye-5"
             transform="translate(-348.91247,-1.9522624)"
             x="0"
             y="0" /></g></g></g><use
       x="0"
       y="0"
       xlink:href="#g9"
       id="use10"
       transform="rotate(32.31758,690.32804,1441.8436)" /></g><style
     id="style1-9">.iris{fill:#000000}</style></svg>
