<svg xmlns="http://www.w3.org/2000/svg" id="svg9" width="2048" height="2048" version="1.1">
  <style id="style2">
    .fur{fill:#e3dedb}.paw{fill:#e9afaf}.outline{stroke:#000}
  </style>
  <path id="right_gun_outline" stroke="#000" stroke-linecap="round" stroke-linejoin="round" stroke-width="98" d="M65 1379v128h255l1 131c0 19 9 35 24 47 19 16 47 12 71 13-1 38 35 68 72 64 81 1 160-2 241 2 52 10 94 55 101 108-1-68 4-135-2-203-10-68-60-128-125-151v-43c-31 7-81-29-37-52 16-13 46-4 37-32 6-19-16-10-27-12H65z"/>
  <g id="right_gun">
    <path id="path8453" fill="#fdfdfd" stroke-width="1" d="M384 1443v64h83c82 0 82 0 88 2a32 32 0 0 1 0 59c-6 2-6 2-88 2h-83v64h87c86 0 87 0 95-3 21-5 41-18 53-35 7-9 15-24 17-35 3-13 3-32 0-45-5-21-18-41-35-54-8-6-24-14-35-16-8-3-9-3-95-3z" display="inline"/>
    <path id="path8444" fill="#d2d2d2" stroke-width="1" d="M469 1761a66 66 0 0 1-53-60v-3h-19c-21 0-28-1-37-5-18-7-30-20-37-40-2-5-2-6-3-76v-70H65v-128h638v32h-3a66 66 0 0 0-53 34l-4 8c1 3 16 11 25 15 9 3 23 7 30 7h5v43l5 2 14 6a193 193 0 0 1 108 179l1 25-6-4c-21-16-51-30-77-36-19-4-25-5-76-5-49 0-51 1-61 3a139 139 0 0 0-94 69l-3 5h-21l-24-1zm97-130c21-5 41-18 53-35 7-9 15-24 17-35 3-13 3-32 0-45-5-21-18-41-35-54-8-6-24-14-35-16-8-3-9-3-95-3h-87v64h83c82 0 82 0 88 2a32 32 0 0 1 0 59c-6 2-6 2-88 2h-83v64h87c86 0 87 0 95-3z" display="inline"/>
    <path id="path8442" fill="#8a8a8a" stroke-width="1" d="M607 1379v4a98 98 0 0 0 27 62l8 8 5-8a65 65 0 0 1 53-34h3v-32h-48Zm-223 127v64h167l5-3c12-5 19-16 19-29 0-12-7-23-19-28l-5-3h-84zm318 12v4a192 192 0 0 1-160 173c-10 2-17 2-69 3h-57v3a66 66 0 0 0 53 60l24 1h128c-54-91 161-56 210-32l-1-25a193 193 0 0 0-122-185zm-381 120-1 2c0 2 0 3 1 2v-4zm0 8v2l1 1v-2l-1-1zm12 27 2 2 3 3-3-3zm6 6 3 3 3 3-3-3zm14 10-1 1 2 1c1 0 1-1-1-1v-1zm14 6h-1v1l2-1h-1zm4 1h-1v1l2-1h-1zm7 1h-1c-1 1 0 1 1 1s2 0 1-1h-1z" display="inline"/>
    <path id="path8440" fill="#414141" stroke-width="1" d="m703 1519-1 9a195 195 0 0 1-89 141 194 194 0 0 1-88 29h-5l9 1 28 7c97 42 308-173 6 2l6 4c4 3 12 7 16 11 10 7 25 22 30 31l5 7 52 1c55 0 56 0 74 7a130 130 0 0 1 84 103l1-70v-72c1-22-1-59-7-81a193 193 0 0 0-121-130zm-287 183v3-3zm14 36 1 1 1 2c1 0 1-1-1-2l-1-1zm7 7 1 1 1 2c1 0 1-1-1-2l-1-1zm36 16h-2l1 1 1-1z"/>
  </g>
  <path id="right_paw" class="paw outline" stroke-width="98" d="M716 1980a114 114 0 1 0 0-228h-86c-31 0-57 25-57 57v114c0 32 26 57 57 57z" paint-order="stroke markers fill" />
</svg>
