<svg xmlns="http://www.w3.org/2000/svg" version="1.2" viewBox="0 0 2048 2048">
  <style>
    .fur{fill:#e3dedb}.paw{fill:#e9afaf}.outline{stroke:#000}
  </style>
  <g id="Megaphone">
    <path id="Outline-2" d="m758 1700 34 13c33 6 61-2 87-17 39-26 78-75 97-142 11-71 0-137-17-170s-44-49-77-55l-39-4-457-267c-22-25-49-40-74-48-42-11-84 1-127 36-63 48-124 157-163 290-29 138-24 266 11 332 23 55 61 82 100 86 25 8 55 8 82-8Zm32-78-595 54-50 14c-66-20-85-167-49-337 45-165 125-287 198-270 16 4 28 16 41 35l500 286 37-3c32 6 43 71 31 136-20 66-59 116-93 102Z"/>
    <path id="Mouthpiece" fill="#e3e3e3" d="M872 1401c-41-11-81 38-93 102-19 67-1 130 31 136 34 14 73-36 93-102 12-65 1-130-31-136Z"/>
    <path id="Body1" fill="#ff5c5c" d="m837 1405-548-317-139 603 647-67c59-32 82-178 40-219Z"/>
    <path id="Outer-ring" fill="#e3e3e3" d="M294 1083c-73-17-153 105-198 270-36 170-17 317 49 337 72 10 159-114 197-277s17-317-48-330Z"/>
    <path id="Inside" fill="#2a2a2a" d="M262 1131c-41-12-111 92-141 230s-19 257 23 268c48 10 111-92 140-230 30-138 19-257-22-268Z"/>
  </g>
  <g id="left_arm">
    <path id="forearm" class="fur outline" paint-order="markers stroke fill" stroke-linecap="butt" stroke-linejoin="round" stroke-width="144" d="M897 1841c-12-25-102-177-102-177-20-37-43-54-69-62l-8-1c-30-6-65 1-99 20-59 33-76 105-52 148l110 191"/>
    <path id="paw" class="paw" d="m616 1855-49-86c-24-43-7-115 52-148 34-19 69-26 99-20 29 5 55 22 77 63l47 81c-48 78-129 129-226 110Z"/>
  </g>
</svg>