<svg xmlns="http://www.w3.org/2000/svg" version="1.1" viewBox="0 0 2048 2048">
  <style>
    .fur{fill:#e3dedb}.paw{fill:#e9afaf}.outline{stroke:#000}
  </style>
  <g id="hammer" transform="translate(372 309) scale(.75837)">
    <path id="handle" fill="#a05a2c" stroke="#000" stroke-width="144"  paint-order="markers stroke fill" d="m997 1679 683-683 95 95-683 683s-28-1-61-34-34-61-34-61z"/>
    <path id="head" fill="#afc6e9" stroke="#000" stroke-width="144"  paint-order="markers stroke fill" d="M1632 781c18 1 49 18 124 61l212 213s9 10-48 66c-57 57-67 49-67 49l-212-213c-73-126-73-126-42-157 12-12 20-20 33-19z"/>
  </g>
  <g id="left_arm">
    <path id="forearm" stroke-linecap="butt" stroke-linejoin="round" stroke-width="144" d="M1565 1517c-18-22-144-146-144-146-29-30-56-40-83-41l-9 1c-30 2-62 17-89 45-49 48-47 121-12 157 0 0 135 137 156 156" class="fur outline" paint-order="markers stroke fill"/>
    <path id="paw" d="m1297 1602-69-69c-35-36-37-109 12-157 27-28 59-43 89-45s60 7 92 40l66 67c-27 88-91 158-190 164z" class="paw"/>
  </g>
</svg>

