<svg xmlns="http://www.w3.org/2000/svg" version="1.2" viewBox="0 0 2048 2048">
  <defs>
    <symbol id="knob">
      <path fill="#f0c86c" d="M919-192a21 11 60 0 0-3 1 21 11 60 0 0-1 0v22a21 11 60 0 0 1 2 21 11 60 0 0 8 9 11 21 30 0 0-8 9 11 21 30 0 0-1 2v22a11 21 30 0 0 1 0 11 21 30 0 0 20-12 11 21 30 0 0 3-6h19l-1-30h-18a21 11 60 0 0-3-6 21 11 60 0 0-17-13z"/>
    </symbol>
  </defs>
  <style>
    .paw{fill:#e9afaf}
    .outline{stroke:#000}
  </style>
  <g id="g34" transform="rotate(75 318 955)">
    <path id="path34" fill="none" stroke="#000" stroke-linecap="round" stroke-linejoin="round" stroke-width="64" d="m928-340 2 22a21 11 55 0 0 1 1 21 11 55 0 0 9 9 11 21 25 0 0-7 10 11 21 25 0 0-1 2l2 22a11 21 25 0 0 0 0 11 21 25 0 0 20-14 11 21 25 0 0 2-6l14-1 3 42-13 1a21 11 55 0 0-4-5 21 11 55 0 0-18-12 21 11 55 0 0-3 1 21 11 55 0 0 0 0l2 22a21 11 55 0 0 1 2 21 11 55 0 0 8 8 11 21 25 0 0-7 10 11 21 25 0 0 0 2l1 22a11 21 25 0 0 1 0 11 21 25 0 0 19-14 11 21 25 0 0 2-6l12-1 2 43h-10a21 11 55 0 0-3-5 21 11 55 0 0-19-12 21 11 55 0 0-3 1 21 11 55 0 0 0 1l2 21a21 11 55 0 0 1 2 21 11 55 0 0 9 9 11 21 25 0 0-7 10 11 21 25 0 0-1 2l2 21a11 21 25 0 0 0 1 11 21 25 0 0 19-15 11 21 25 0 0 3-5l9-1 3 57v635c-108 19-188 88-188 204 0 23 3 45 10 66h-1c47 159-62 199-64 349 0 168 136 244 304 244s304-76 304-244c-1-174-107-124-73-404 15-122-58-192-162-213V-93h-1l4-57 9 1a21 11 65 0 0 2 5 21 11 65 0 0 19 15 21 11 65 0 0 1-1l2-21a21 11 65 0 0-1-2 21 11 65 0 0-7-10 11 21 35 0 0 8-9 11 21 35 0 0 1-2l2-21a11 21 35 0 0 0-1 11 21 35 0 0-3-1 11 21 35 0 0-18 12 11 21 35 0 0-4 5h-10l3-43 11 1a21 11 65 0 0 2 6 21 11 65 0 0 20 14 21 11 65 0 0 0 0l2-22a21 11 65 0 0-1-2 21 11 65 0 0-7-10 11 21 35 0 0 9-8 11 21 35 0 0 1-2l2-22a11 21 35 0 0-1 0 11 21 35 0 0-2-1 11 21 35 0 0-19 12 11 21 35 0 0-3 5l-13-1 3-46 12 3a21 11 70 0 0 2 6 21 11 70 0 0 18 16 21 11 70 0 0 0-1l4-21a21 11 70 0 0 0-2 21 11 70 0 0-7-11 11 21 40 0 0 10-7 11 21 40 0 0 1-2l4-22a11 21 40 0 0 0 0 11 21 40 0 0-3-1 11 21 40 0 0-20 10 11 21 40 0 0-3 5l-17-3 2-26s-30-9-33-30c-1-8-21 6-25-14 0 0-9-4-21-4-13 0-21 4-21 4-4 20-24 6-26 14-2 21-32 30-32 30l2 29-16 2a21 11 55 0 0-3-6 21 11 55 0 0-19-11 21 11 55 0 0-2 1 21 11 55 0 0-1 0z" display="inline" paint-order="markers stroke fill"/>
    <path id="rect1" fill="#410f05" stroke-linecap="round" stroke-linejoin="round" stroke-width="39.7" d="M1111-82H981v803h130z" display="inline" paint-order="markers stroke fill"/>
    <path id="path15" fill="#a95900" stroke-linecap="round" stroke-linejoin="round" stroke-width="39.7" d="M1046-403c-13 0-21 4-21 4-4 20-24 6-26 14-2 21-32 30-32 30l14 262v11h130v-11h-1l15-262s-30-9-33-30c-1-8-21 6-25-14 0 0-9-4-21-4z" display="inline" paint-order="markers stroke fill"/>
    <path id="path1" fill="#e47800" stroke-linecap="round" stroke-linejoin="round" stroke-width="51.3" d="M1042 537c-138 0-249 72-249 209 0 23 3 45 10 66h-1c47 159-62 199-64 349 0 168 136 244 304 244s304-76 304-244c-1-174-107-124-73-404 18-148-93-220-231-220z" display="inline" paint-order="markers stroke fill"/>
    <circle id="circle1" cx="1042" cy="800.1" r="122.3" fill="#410f05" stroke-linecap="round" stroke-linejoin="round" stroke-width="20.6" display="inline" paint-order="markers stroke fill"/>
    <path id="path9" fill="none" stroke="#fffacd" stroke-linecap="butt" stroke-linejoin="miter" stroke-opacity="1" stroke-width="8" d="M988-331v1474"/>
    <path id="path10" fill="none" stroke="#fffacd" stroke-linecap="butt" stroke-linejoin="miter" stroke-opacity="1" stroke-width="8" d="M1103-331v1474"/>
    <path id="path11" fill="none" stroke="#fffacd" stroke-linecap="butt" stroke-linejoin="miter" stroke-opacity="1" stroke-width="8" d="M1011-331v1474"/>
    <path id="path12" fill="none" stroke="#fffacd" stroke-linecap="butt" stroke-linejoin="miter" stroke-opacity="1" stroke-width="8" d="M1034-331v1474"/>
    <path id="path13" fill="none" stroke="#fffacd" stroke-linecap="butt" stroke-linejoin="miter" stroke-opacity="1" stroke-width="8" d="M1057-331v1474"/>
    <path id="path14" fill="none" stroke="#fffacd" stroke-linecap="butt" stroke-linejoin="miter" stroke-opacity="1" stroke-width="8" d="M1080-331v1474"/>
    <use id="use4" x="0" y="0" href="#knob" transform="rotate(-5 -781 -387)"/>
    <use id="use5" x="0" y="0" href="#knob" transform="translate(21 -8)"/>
    <use id="use2" x="0" y="0" href="#knob" transform="translate(16 -79)"/>
    <use id="use6" x="0" y="0" href="#knob" transform="scale(-1 1) rotate(-5 -1042 23571)"/>
    <use id="use7" x="0" y="0" href="#knob" transform="scale(-1 1) rotate(-5 -1837 23582)"/>
    <use id="use8" x="0" y="0" href="#knob" transform="scale(-1 1) rotate(-5 -248 23560)"/>
    <path id="rect14" fill="#410f05" stroke="none" stroke-linecap="round" stroke-linejoin="round" stroke-width="9.8" d="M884 1119h316v68H884z" paint-order="markers stroke fill"/>
  </g>
  <path id="left_paw" stroke-width="98" d="M1266 1450a114 114 0 1 1 220-59l23 83c8 30-10 62-41 70l-110 30c-31 8-62-11-70-40z" class="paw outline" paint-order="stroke markers fill"/>
  <path id="right_paw" stroke-width="98" d="M478 1608a114 114 0 1 0 114-198l-75-43c-26-15-61-6-77 21l-57 99c-16 28-6 62 20 78z" class="paw outline" paint-order="stroke markers fill"/>
</svg>
