<?xml version="1.0" encoding="UTF-8" standalone="no"?>
<svg
   width="2048"
   height="2048"
   version="1.1"
   id="svg1"
   sodipodi:docname="arm_command_seal.svg"
   xml:space="preserve"
   inkscape:version="1.3.2 (091e20e, 2023-11-25, custom)"
   xmlns:inkscape="http://www.inkscape.org/namespaces/inkscape"
   xmlns:sodipodi="http://sodipodi.sourceforge.net/DTD/sodipodi-0.dtd"
   xmlns="http://www.w3.org/2000/svg"
   xmlns:svg="http://www.w3.org/2000/svg"><defs
     id="defs1" /><sodipodi:namedview
     id="namedview1"
     pagecolor="#ffffff"
     bordercolor="#666666"
     borderopacity="1.0"
     inkscape:showpageshadow="2"
     inkscape:pageopacity="0.0"
     inkscape:pagecheckerboard="0"
     inkscape:deskcolor="#d1d1d1"
     inkscape:zoom="0.36181641"
     inkscape:cx="954.90418"
     inkscape:cy="1336.3131"
     inkscape:window-width="1920"
     inkscape:window-height="1001"
     inkscape:window-x="-9"
     inkscape:window-y="-9"
     inkscape:window-maximized="1"
     inkscape:current-layer="svg1" /><style
     id="style1">.fur{fill:#e3dedb}.paw{fill:#e9afaf}.outline{stroke:#000}</style><g
     id="left_arm"
     transform="rotate(71.351902,892.65931,620.22233)"><path
       id="forearm"
       class="fur"
       d="m 1574,1614 -6,-5 -306,-177 c -43,-26 -64,-96 -30,-155 20,-34 46,-57 75,-67 29,-10 60,-8 100,15 l 291,171" /><path
       id="paw"
       class="paw"
       d="m 1346,1481 -84,-49 c -43,-26 -64,-96 -30,-155 20,-34 46,-57 75,-67 29,-10 60,-8 100,15 l 81,48 c -4,92 -48,176 -142,208 z" /><path
       id="outline"
       class="outline"
       stroke-width="8"
       stroke-linecap="round"
       d="m 1292,1137 -9,3 c -49,17 -88,54 -114,100 -53,92 -27,206 54,255 h 1 l 280,163 c 26,-8 49,-23 70,-44 l -6,-5 -306,-177 c -43,-26 -64,-96 -30,-155 20,-34 46,-57 75,-67 29,-10 60,-8 100,15 l 291,171 c 7,-30 5,-61 -9,-91 l -245,-144 c -51,-30 -105,-37 -152,-24 z" /><g
       id="g8"
       inkscape:label="command_seal"
       transform="matrix(0.12375679,-0.17928755,0.17928755,0.12375679,1084.7886,1551.8624)"><path
         style="fill:#990000;fill-opacity:1;stroke:none;stroke-width:1px;stroke-linecap:butt;stroke-linejoin:miter;stroke-opacity:1"
         d="M 1463.7893,166.11761 C 1424.1591,116.074 1491.6496,8.885812 1491.6496,8.885812 c 0,0 67.4905,107.188188 27.8603,157.231798 -23.6902,29.91511 -27.8603,166.16328 -27.8603,166.16328 0,0 -4.1701,-136.24817 -27.8603,-166.16328 z"
         id="path1"
         sodipodi:nodetypes="scscs" /><path
         style="fill:#990000;fill-opacity:1;stroke:none;stroke-width:1px;stroke-linecap:butt;stroke-linejoin:miter;stroke-opacity:1"
         d="m 1390.5917,846.49663 c -47.789,-38.26215 -82.1512,-102.73415 -82.1512,-102.73415 -39.3846,114.0081 -149.1012,129.60864 -149.1012,129.60864 13.8192,-5.52766 93.9344,-60.74464 95.3523,-187.94062 -31.1287,-189.63082 -129.1038,-387.76449 -295.2578,-475.37922 0,0 179.8707,35.32147 324.9689,307.47639 58.1084,108.99155 12.4374,219.03373 207.2469,348.93387 194.8095,-129.90014 149.1385,-239.94232 207.2469,-348.93387 145.0982,-272.15492 324.9689,-307.47639 324.9689,-307.47639 -166.154,87.61473 -264.1291,285.7484 -295.2578,475.37922 1.4179,127.19598 81.5331,182.41296 95.3523,187.94062 0,0 -109.7166,-15.60054 -149.1012,-129.60864 0,0 -34.3622,64.472 -82.1512,102.73415 -67.5683,54.09839 -103.1715,91.82456 -101.0579,119.46288 2.1135,-27.63832 -33.4897,-65.36449 -101.0579,-119.46288 z"
         id="path5"
         sodipodi:nodetypes="sscccscscccsscs" /><path
         id="path6"
         style="fill:#990000;fill-opacity:1;stroke:none;stroke-width:1px;stroke-linecap:butt;stroke-linejoin:miter;stroke-opacity:1"
         d="m 1144.6105,216.88867 c 13.1283,40.07553 61.7129,84.36914 61.7129,84.36914 26.9474,16.58298 72.551,48.36656 111.9356,110.55274 36.9145,58.28594 120.0709,101.6036 143.3554,112.92968 -9.8922,23.93706 -22.9581,47.98932 -40.2617,68.88672 73.2871,92.34176 52.8125,163.67383 52.8125,163.67383 l 17.4844,45.92578 17.4844,-45.92578 c 0,0 -20.4746,-71.33207 52.8125,-163.67383 -17.3036,-20.8974 -30.3696,-44.94966 -40.2618,-68.88672 23.2848,-11.32623 106.4412,-54.6439 143.3555,-112.92968 39.3846,-62.18618 84.9882,-93.96976 111.9355,-110.55274 0,0 48.5847,-44.29361 61.7129,-84.36914 0,0 -63.714,69.78664 -264.0917,78.07813 l -68.4765,106.48047 101.5703,-27.63868 c 0,0 -17.3763,79.9441 -98.5078,115.53125 -15.0579,-49.90965 -17.5333,-91.63476 -17.5333,-91.63476 0,0 -2.4755,41.72511 -17.5332,91.63476 -81.1315,-35.58715 -98.5078,-115.53125 -98.5078,-115.53125 l 101.5703,27.63868 -68.4766,-106.48047 c -200.3777,-8.29149 -264.0918,-78.07813 -264.0918,-78.07813 z" /></g></g></svg>
