<svg xmlns="http://www.w3.org/2000/svg" xmlns:xlink="http://www.w3.org/1999/xlink" version="1.1" viewBox="0 0 2048 2048">
  <style>
    .fur{fill:#e3dedb}.paw{fill:#e9afaf}.outline{stroke:#000}
  </style>
  <g id="left_arm">
    <path id="forearm" class="fur outline" stroke-linecap="butt" stroke-linejoin="round" stroke-width="144"  paint-order="markers stroke fill" d="M1565 1517c-18-22-144-146-144-146-29-30-56-40-83-41l-9 1c-30 2-62 17-89 45-49 48-47 121-12 157 0 0 135 137 156 156"/>
    <path id="paw" class="paw" d="m1297 1602-69-69c-35-36-37-109 12-157 27-28 59-43 89-45s60 7 92 40l66 67c-27 88-91 158-190 164z"/>
  </g>
  <use xlink:href="#left_arm" id="right_arm" width="100%" height="100%" x="0" y="0" transform="matrix(-1 0 0 1 1801 0)"/>
</svg>
