<?xml version="1.0" encoding="UTF-8" standalone="no"?>
<!-- Created with Inkscape (http://www.inkscape.org/) -->

<svg
   version="1.1"
   id="svg1"
   width="2048"
   height="2048"
   viewBox="0 0 2048 2048"
   sodipodi:docname="arms_wine.svg"
   inkscape:version="1.3.2 (091e20e, 2023-11-25, custom)"
   xml:space="preserve"
   xmlns:inkscape="http://www.inkscape.org/namespaces/inkscape"
   xmlns:sodipodi="http://sodipodi.sourceforge.net/DTD/sodipodi-0.dtd"
   xmlns="http://www.w3.org/2000/svg"
   xmlns:svg="http://www.w3.org/2000/svg"><defs
     id="defs1" /><sodipodi:namedview
     id="namedview1"
     pagecolor="#ffffff"
     bordercolor="#666666"
     borderopacity="1.0"
     inkscape:showpageshadow="2"
     inkscape:pageopacity="0.0"
     inkscape:pagecheckerboard="0"
     inkscape:deskcolor="#d1d1d1"
     inkscape:zoom="0.54272459"
     inkscape:cx="1139.6204"
     inkscape:cy="1283.3397"
     inkscape:window-width="1920"
     inkscape:window-height="1001"
     inkscape:window-x="-9"
     inkscape:window-y="-9"
     inkscape:window-maximized="1"
     inkscape:current-layer="svg1" /><path
     id="path5"
     style="fill:#722f37;fill-opacity:0.69999999;stroke:none;stroke-width:7.22089;stroke-linecap:butt;stroke-linejoin:miter;stroke-dasharray:none;stroke-opacity:1"
     d="m 999.66211,1051.2832 c -17.56005,67.2333 -31.45412,153.1811 -10.1582,213.5195 29.15209,82.5977 72.21279,95.9769 108.65039,116.4532 36.4376,20.4762 120.0348,21.6509 159.3418,0 39.307,-21.651 79.5003,-33.8555 108.6523,-116.4532 18.6667,-52.8889 10.2487,-125.4633 -3.9218,-187.8906 -7.9474,-4.9715 -23.5747,-12.2171 -48.92,-13.4844 -39.0864,-1.9543 -17.5901,19.543 -144.6211,19.543 -124.3284,0 -167.2413,-30.3865 -169.02339,-31.6875 z"
     inkscape:label="wine" /><path
     id="path2"
     style="fill:#d3d3d3;fill-opacity:0.1;stroke:#d3d3d3;stroke-width:16;stroke-linecap:butt;stroke-linejoin:miter;stroke-dasharray:none;stroke-opacity:1"
     d="m 1017.5508,923.12109 c 0,0 -92.58848,225.71221 -48.36721,351.00591 64.97121,184.0852 193.46871,52.513 193.46871,325.2109 0,202.2202 0.084,201.7068 -67.3125,219.6543 -35.3946,9.4255 -78.25,6.5201 -78.25,25.4062 h 321.4707 c 0,-18.8861 -42.8533,-15.9807 -78.248,-25.4062 -67.3968,-17.9475 -67.3145,-17.4341 -67.3145,-219.6543 0,-272.6979 128.4976,-141.1257 193.4688,-325.2109 44.2213,-125.2937 -48.3672,-351.00591 -48.3672,-351.00591 a 160.27446,36.6973 0 0 1 -160.2734,36.69727 160.27446,36.6973 0 0 1 -160.2754,-36.69727 z"
     inkscape:label="glass exterior" /><ellipse
     style="fill:#d3d3d3;fill-opacity:0.05;stroke:#d3d3d3;stroke-width:16;stroke-linecap:round;stroke-dasharray:none"
     id="path3"
     cx="1177.8256"
     cy="923.12012"
     rx="160.27446"
     ry="36.6973"
     inkscape:label="glass_interior" /><path
     id="right_paw"
     class="paw outline"
     stroke-width="98"
     d="m 1207.498,1713.3379 a 114,114 0 1 0 0,-228 h -86 c -31,0 -57,25 -57,57 v 114 c 0,32 26,57 57,57 z"
     paint-order="stroke markers fill" /><style
     id="style2">
    .fur{fill:#e3dedb}.paw{fill:#e9afaf}.outline{stroke:#000}
  </style></svg>
