<svg xmlns="http://www.w3.org/2000/svg" xmlns:xlink="http://www.w3.org/1999/xlink" xml:space="preserve" id="svg1" version="1.1" viewBox="0 0 2048 2048">
  <defs id="defs1">
    <clipPath id="clipPath2763" clipPathUnits="userSpaceOnUse">
      <ellipse id="ellipse2765" cx="97.1" cy="460.6" fill="#fdc75a" stroke="#000" stroke-linecap="round" stroke-linejoin="round" stroke-width="19.1" display="inline" paint-order="markers stroke fill" rx="40.7" ry="56.7"/>
    </clipPath>
    <clipPath id="clipPath1800" clipPathUnits="userSpaceOnUse">
      <rect id="rect1802" width="105.5" height="108.8" x="246.1" y="364.7" fill="#000" fill-opacity="1" stroke="none" stroke-dasharray="none" stroke-linecap="round" stroke-linejoin="round" stroke-miterlimit="4" stroke-opacity="1" stroke-width="15.8" opacity="1" paint-order="markers fill stroke" transform="scale(-1 1)"/>
    </clipPath>
    <clipPath id="clipPath1800-8" clipPathUnits="userSpaceOnUse">
      <rect id="rect1802-1" width="105.5" height="108.8" x="246.1" y="364.7" fill="#000" fill-opacity="1" stroke="none" stroke-dasharray="none" stroke-linecap="round" stroke-linejoin="round" stroke-miterlimit="4" stroke-opacity="1" stroke-width="15.8" opacity="1" paint-order="markers fill stroke" transform="scale(-1 1)"/>
    </clipPath>
  </defs>
  <style>
    .fur{fill:#e3dedb}.paw{fill:#e9afaf}.outline{stroke:#000}
  </style>
  <g id="layer1" display="inline" transform="translate(217.6)">
    <g id="left_arm" stroke-linejoin="round" display="inline" transform="scale(.26458 -.26458) rotate(-30 -3962 1467.8)">
      <path id="path2652" stroke-width="566.9" d="M6950.4 264.7c-37.8-404.3-251.7-1349.2-414.2-1632.6-223-393-517.8-733.2-68-1050.7 340.1-245.6 782.3 22.7 1054.4 706.8C7982.2-556.1 7850.3-171 7790.6 332" class="fur outline" paint-order="stroke fill markers"/>
      <path id="path2654" stroke-width="3.8" d="m7481-1806.3-11.3-26.5a2199.5 2199.5 0 0 0-241.9-393A1217 1217 0 0 0 7020-2411a703 703 0 0 0-173.9-83.1 480 480 0 0 0-177.6-7.6 423.3 423.3 0 0 0-170 60.5 540.4 540.4 0 0 0-71.9 52.9 782.3 782.3 0 0 0-117.1 121 446 446 0 0 0-60.5 124.6 359 359 0 0 0-11.4 158.8 506.4 506.4 0 0 0 34 128.5 986.4 986.4 0 0 0 98.3 204l83.2 139.9 83.1 143.6 30.2 56.7c291 109.6 865.5-143.6 914.6-495.1z" class="paw"/>
    </g>
    <g id="baby" transform="rotate(30 159.2 478.5)">
      <ellipse id="swaddling_outline" cx="1496.4" cy="1040.9" fill="#fdc75a" stroke="#000" stroke-linecap="round" stroke-linejoin="round" stroke-width="79" display="inline" paint-order="markers stroke fill" rx="153.8" ry="214.3"/>
      <g id="swaddling" clip-path="url(#clipPath2763)" transform="translate(1129.5 -699.9) scale(3.7793)">
        <path id="path2755" fill="#5fd38d" stroke="#000" stroke-linecap="round" stroke-linejoin="round" stroke-width="19" d="m111.1 462.6-1-.5a149 149 0 0 1-21.7-13.8 211.4 211.4 0 0 1-21-17.8l-3.3-3a40.7 56.7 0 0 0-7.7 33.1 40.7 56.7 0 0 0 14 42.7l2.9-2.2a221.4 221.4 0 0 0 37.7-38.4h.1z" display="inline" paint-order="markers stroke fill"/>
        <path id="ellipse2748" fill="#5fd38d" stroke="#000" stroke-linecap="round" stroke-linejoin="round" stroke-width="19" d="m131.5 430.2-.5 1a196.8 196.8 0 0 1-27.1 40.4A220.8 220.8 0 0 1 73.3 501l-3 2.2a40.7 56.7 0 0 0 26.8 14 40.7 56.7 0 0 0 40.7-56.7 40.7 56.7 0 0 0-6.3-30.4z" display="inline" paint-order="markers stroke fill"/>
        <path id="path2709" fill="#5fd38d" stroke="#000" stroke-linecap="round" stroke-linejoin="miter" stroke-width="11.1" d="M53 491.4s14.2 24 88.2 15v-33c-74 9-93.4-15-93.4-15l5.3 33" display="inline"/>
      </g>
      <g id="neocat" transform="translate(1431 -807.2) scale(3.7793)">
        <path id="path11524" fill="#000" stroke="#000" stroke-linecap="round" stroke-linejoin="round" stroke-width="11.1" d="M-13 380.7a9.2 9.2 0 0 0-6.8 4c-1.4 1.8-2 4.2-2 6.4-.1 4.2.2 8.4 0 12.6 0 2.5.1 5-.1 7.5a44 44 0 0 0-2.5 6.8c-.5.7-1.4.5-2 .9-4.3 1.6-7.4 6.3-6.6 10.9.3 2.5 1.6 5 3.6 6.6.1.7-.3 1-.8 1.5a10.2 10.2 0 0 0-2.3 11c1.3 3.5 4.7 6.2 8.5 6.5 1.4 0 2.6 0 3.8-.3 1-.2 1.8-.7 2.7-1 .8 0 1.2.9 1.8 1.3a33.2 33.2 0 0 0 23.4 8c10.3-.3 20.6.1 31-.4a20 20 0 0 0 6.7-1.5c2-.8 4-2 5.9-3.3.8-.2 1.5.5 2.3.7 2.8 1 6.2 1.1 8.9-.5 4-2.2 6.4-7.5 4.9-12a11 11 0 0 0-6.3-6.8c-.6-.7-.2-1.6-.3-2.4v-2.7c.4-.7 1.3-.8 1.8-1.3a10 10 0 0 0 5.1-7.5c.7-4.8-2.4-10-7.2-11.2-.7-.2-1.8-.3-2-1.2-.5-1.3-1.2-2.7-.7-4.2 1-6.5 2.4-13 3-19.5-.2-5.5-6.2-10-11.5-8.6-2.8.8-5.4 2-8.1 3-2.8 1-5.5 2.3-8.3 3.3-1.3-.2-2.5-.8-3.8-1a44 44 0 0 0-23.6.6c-1-.1-2-.7-3-1-4.6-1.9-9-3.8-13.7-5.1H-13Z" baseline-shift="baseline" clip-rule="nonzero" color="#000" color-interpolation="sRGB" color-interpolation-filters="linearRGB" color-rendering="auto" direction="ltr" display="inline" dominant-baseline="auto" font-family="sans-serif" font-size="medium" font-stretch="normal" font-style="normal" font-variant="normal" font-weight="400" image-rendering="auto" letter-spacing="normal" overflow="visible" shape-rendering="auto" stop-color="#000" style="text-decoration-line:none" text-anchor="start" text-decoration="none" text-rendering="auto" vector-effect="none" visibility="visible" word-spacing="normal" writing-mode="lr-tb"/>
        <path id="baby_fur" fill="#fdc75a" stroke-width=".1" d="M51.3 386c-3.4.6-6.6 2.5-9.9 3.6L33 393a38.3 38.3 0 0 0-27.7-.4c-5.7-2.2-11.3-4.6-17-6.6-4.5-.4-5.2 4.6-4.8 8v18a45 45 0 0 0-4.4 17.3c-.1 3 .3 6.2.9 9.2A25.8 25.8 0 0 0 6.9 458c10.7 0 21.5.1 32.2-.2a19.2 19.2 0 0 0 16.4-20.1c0-8.2.8-16.8-2.6-24.6-1.2-1.4-.6-3-.4-4.5 1-6.1 2.1-12.2 3-18.4 0-2.2-2-4.3-4.2-4.2z" display="inline"/>
        <g id="whiskers" fill="none" stroke="#8e5e31" stroke-linecap="round" stroke-linejoin="round" stroke-width="78" display="inline" transform="translate(-50.3 335.2) scale(.06615)">
          <path id="path11487" stroke-width="152" d="m544 1471-128-60"/>
          <use xlink:href="#path11487" id="use11492" width="100%" height="100%" x="0" y="0" transform="matrix(-1 0 0 1 959 191)"/>
          <path id="path11494" stroke-width="152" d="m1630 1347-254 126"/>
          <use xlink:href="#path11494" id="use11508" width="100%" height="100%" x="0" y="0" transform="matrix(-1 0 0 1 3006 253)"/>
        </g>
        <path id="path8" fill="none" stroke="#562a13" stroke-dasharray="none" stroke-linecap="round" stroke-linejoin="miter" stroke-opacity="1" stroke-width="10.1" d="M12.8 433.8s-.3 8.3 8.8 12.3"/>
        <g id="eyes" display="none" transform="translate(-78.4 295) scale(.09922)">
          <path id="left_eye" d="M1067.7 1089c54 0 97 43 97 97v60a97.5 97.5 0 1 1-195 0v-60c0-54 44-97 98-97z"/>
          <use xlink:href="#left_eye" id="right_eye" width="100%" height="100%" x="0" y="0" transform="translate(-278.3)"/>
        </g>
        <path id="path1" fill="none" fill-opacity="1" stroke="#000" stroke-dasharray="none" stroke-dashoffset="0" stroke-linecap="round" stroke-linejoin="round" stroke-miterlimit="4" stroke-opacity="1" stroke-width="10.1" d="M39 413.2c-6-1.3-12.8 0-16 6" display="inline" stop-color="#000" style="font-variation-settings:normal"/>
        <path id="path3" fill="none" fill-opacity="1" stroke="#000" stroke-dasharray="none" stroke-dashoffset="0" stroke-linecap="round" stroke-linejoin="round" stroke-miterlimit="4" stroke-opacity="1" stroke-width="10.1" d="M-7.3 413c4.4-.9 11.7.3 14 6" display="inline" stop-color="#000" style="font-variation-settings:normal"/>
      </g>
    </g>
  </g>
  <g id="layer3" display="inline" transform="translate(30 -5)">
    <path id="path5" fill="none" fill-opacity=".5" stroke="#000" stroke-dasharray="none" stroke-linejoin="round" stroke-width="34.8" d="M1329.7 1486.7c9.8-36.6-4.9-48-18.5-32.6-13.7 15.4-21.8-8.4-30.7-38a116 116 0 0 0-4.5-12.3l9-33.3-84-40.4-2.5 9.6a105.2 105.2 0 0 0-55.7-40.7l-213.2-66c-52.1-16.3-89.7 21.3-103.8 74l-22.4 83.3c-14 52.7-.3 104 52.9 116.1l217.7 49.4c24 5.4 48 2.4 68.6-7.3l-2.6 9.6 92.9 6.9 8.9-33.4c3-2.3 6.3-5 10-8.3 22.5-21.3 41.4-37.8 45.5-17.6 4.2 20.1 22.6 17.6 32.4-19z" paint-order="fill markers stroke"/>
    <path id="path7" fill="#fff" fill-opacity="1" stroke="none" stroke-dasharray="none" stroke-linejoin="bevel" stroke-width="16.5" d="M1215 1382.1c-32.5-.6-79.4-20-122-20-43.3 0-80.2 20-123.5 20s-91-20-123.5-20c-13.1 0-25.6 1.7-36 3.7l-6.6 24.5c-14 52.7-.3 104 52.9 116.1l217.7 49.4c53.2 12 106.5-17 120.6-69.7l17.8-66.5a96.5 96.5 0 0 0 2.5-37.5z" paint-order="fill markers stroke"/>
    <path id="rect1" fill="#8cc8f2" fill-opacity=".5" stroke="#000" stroke-linejoin="bevel" stroke-width="16.5" d="m1212.4 1419.6-17.8 66.5c-14.1 52.7-67.4 81.7-120.6 69.7l-217.7-49.4c-53.2-12-67-63.4-52.9-116l22.4-83.4c14-52.7 51.7-90.3 103.8-74l213.2 66c52 16.2 83.7 68 69.6 120.6z" paint-order="fill markers stroke"/>
    <path id="path4" fill="#f0f" stroke="none" stroke-linecap="butt" stroke-linejoin="miter" stroke-opacity="1" stroke-width=".4" d="M1217.1 1542s12 2.5 34.6-18.7c22.6-21.3 41.5-37.8 45.6-17.6 4.2 20.1 22.6 17.6 32.4-19 9.8-36.6-4.9-48-18.5-32.6-13.7 15.4-21.8-8.4-30.7-38-9-29.7-20.6-33.6-20.6-33.6"/>
    <path id="rect2" fill="#1890e5" fill-opacity="1" stroke="none" stroke-linejoin="bevel" stroke-width="16.5" d="m1285 1370.5-52.1 194.5-92.9-7 61-228z" paint-order="fill markers stroke"/>
  </g>
  <g id="layer2-4" display="inline" transform="rotate(-47.8 1058.4 2119.4) scale(3.77953)">
    <path id="forearm" stroke-linecap="butt" stroke-linejoin="round" stroke-width="38.1" d="M305.2 361.7c7.4 1.2 52.5 13.7 52.5 13.7a31 31 0 0 1 20.4 13.6l1 2.2a36.8 36.8 0 0 1 1.4 26.3c-4.5 17.6-21.5 26.8-34.4 23.5 0 0-49.2-12.8-56.3-15" class="fur outline" paint-order="markers stroke fill"/>
    <path id="paw" stroke-width=".3" d="m321.2 434.4 25 6.6c12.8 3.3 29.8-5.9 34.3-23.5a37 37 0 0 0-1.4-26.3c-3.5-7.2-9.6-12.8-21.4-15.8l-24-6.3C317 387 309.4 411 321.1 434.4z" class="paw"/>
  </g>
  <g id="layer4">
    <path id="path10" fill="#fdc75a" fill-opacity="1" stroke="none" stroke-linecap="butt" stroke-linejoin="miter" stroke-opacity="1" stroke-width="1.3" d="M1343.2 1408.7s-.9 38-2.5 66.2c-1.5 28.1-21 32-27.2 39.5-6.3 7.5 4.2 16.9 4.2 16.9l49.8 10 25-58.6-15.2-50.9z"/>
    <path id="path9" fill="none" stroke="#562a13" stroke-dasharray="none" stroke-linecap="round" stroke-linejoin="miter" stroke-opacity="1" stroke-width="38" d="M1337.1 1444.4s-21 33.4 7.2 71" display="inline"/>
  </g>
</svg>
