<?xml version="1.0" encoding="UTF-8" standalone="no"?>
<svg
   xmlns:dc="http://purl.org/dc/elements/1.1/"
   xmlns:cc="http://creativecommons.org/ns#"
   xmlns:rdf="http://www.w3.org/1999/02/22-rdf-syntax-ns#"
   xmlns:svg="http://www.w3.org/2000/svg"
   xmlns="http://www.w3.org/2000/svg"
   xmlns:sodipodi="http://sodipodi.sourceforge.net/DTD/sodipodi-0.dtd"
   xmlns:inkscape="http://www.inkscape.org/namespaces/inkscape"
   width="2048"
   height="2048"
   version="1.1"
   id="svg1334"
   sodipodi:docname="arms_scepter_dutch.svg"
   inkscape:version="1.0.2-2 (e86c870879, 2021-01-15)">
  <metadata
     id="metadata1340">
    <rdf:RDF>
      <cc:Work
         rdf:about="">
        <dc:format>image/svg+xml</dc:format>
        <dc:type
           rdf:resource="http://purl.org/dc/dcmitype/StillImage" />
        <dc:title></dc:title>
      </cc:Work>
    </rdf:RDF>
  </metadata>
  <defs
     id="defs1338" />
  <sodipodi:namedview
     pagecolor="#ffffff"
     bordercolor="#666666"
     borderopacity="1"
     objecttolerance="10"
     gridtolerance="10"
     guidetolerance="10"
     inkscape:pageopacity="0"
     inkscape:pageshadow="2"
     inkscape:window-width="1920"
     inkscape:window-height="1001"
     id="namedview1336"
     showgrid="false"
     inkscape:zoom="0.25377123"
     inkscape:cx="56.609712"
     inkscape:cy="1063.0267"
     inkscape:window-x="-9"
     inkscape:window-y="-9"
     inkscape:window-maximized="1"
     inkscape:current-layer="svg1334" />
  <style
     id="style1327">.fur{fill:#e3dedb}.paw{fill:#e9afaf}.outline{stroke:#000}</style>
  <g
     inkscape:groupmode="layer"
     id="layer1"
     inkscape:label="Layer 1" />
  <g
     id="g2084"
     inkscape:label="scepter"
     transform="translate(-61.35181,72.246546)">
    <path
       id="rect1230"
       style="font-variation-settings:'wght' 400;fill:#000000;fill-opacity:1;stroke:none;stroke-width:17.8182;stroke-linecap:round;stroke-linejoin:round;stroke-miterlimit:4;stroke-dasharray:none;stroke-opacity:1;paint-order:markers stroke fill"
       d="m 1287.4414,823.79883 c -5.2378,0.47823 -10.3007,1.99465 -15.4329,3.06508 -7.68,1.78409 -15.416,3.35007 -23.028,5.41148 -7.7018,2.48242 -13.5914,10.0253 -13.7039,18.18041 -0.27,4.58605 1.488,8.92508 3.0163,13.15314 0.6666,1.89408 1.3333,3.78807 2.0001,5.68208 -4.6107,0.50799 -9.2459,0.88664 -13.8162,1.6868 -7.0493,1.83953 -13.1507,7.62814 -14.6194,14.86788 -1.2652,4.79846 -0.078,9.75986 1.0781,14.45118 2.2756,9.89238 4.3963,19.82307 6.8868,29.66406 2.4713,6.89039 8.809,12.48912 16.1897,13.30249 2.6645,0.43859 5.57,0.16627 8.2344,-0.53299 3.6452,-0.95764 7.1109,-2.47097 10.6835,-3.6558 0.515,-0.1081 1.2672,-0.5954 1.6418,-0.47917 0.1161,1.03458 0.2321,2.06917 0.3482,3.10375 -11.4926,11.08526 -18.958,26.30282 -20.5,42.21094 -1.4581,3.93176 -3.0097,7.83817 -4.2132,11.85689 -1.4678,5.50865 -0.6309,11.62375 2.4915,16.42155 1.4311,2.3176 3.4139,4.2069 5.4099,6.0282 1.5202,1.4574 3.3036,2.7798 4.1186,4.7947 6.1711,11.4926 15.7517,21.1102 27.1854,27.3811 7.2435,31.957 14.487,63.914 21.7305,95.8711 -9.978,1.4478 -18.3589,10.167 -19.4245,20.1907 -0.3697,2.8793 0.1078,5.7616 0.6662,8.5817 1.0764,5.428 2.4077,10.8014 3.5728,16.2107 1.4167,6.2548 2.8143,12.5137 4.2128,18.7727 -1.4217,10.7007 -0.2165,21.6063 2.481,32.0128 1.623,7.1852 4.1705,14.2638 8.4077,20.3431 7.3846,11.0131 18.7951,19.2483 31.5684,22.8023 6.7539,29.793 13.5078,59.586 20.2617,89.3789 -7.9766,8.4812 -12.8102,20.1226 -12.2177,31.8374 0.5732,13.6611 8.4455,26.7418 20.1946,33.7181 2.4561,1.5323 5.064,2.8166 7.7594,3.8703 8.8323,38.9311 17.6341,77.868 26.5273,116.7832 2.2472,7.3757 8.8779,13.4539 16.644,14.3142 5.0328,0.7223 9.9354,-0.9638 14.7896,-2.0153 14.2522,-3.2074 28.5166,-6.3717 42.7246,-9.7676 7.2724,-2.4162 13.1467,-9.1532 13.8126,-16.8899 0.6083,-5.2178 -1.2447,-10.2488 -2.2628,-15.2893 -4.498,-20.0773 -9.0841,-40.1349 -13.6182,-60.2043 -3.2239,-14.2276 -6.4479,-28.4553 -9.6718,-42.6829 9.5214,-7.045 16.5789,-17.6882 18.3965,-29.4805 2.0554,-13.0738 -2.5611,-27.082 -12.2617,-36.1435 -6.5033,-6.2761 -14.9219,-10.4547 -23.7754,-12.1631 -6.1862,-27.2917 -12.3724,-54.5834 -18.5586,-81.875 12.2658,-8.4087 20.2338,-22.9163 20.2905,-37.8383 0.1114,-5.9736 -1.3612,-11.8077 -2.7187,-17.5785 -1.7983,-7.9484 -3.3007,-16.0071 -6.0895,-23.6865 -1.5394,-4.0396 -3.4686,-7.9286 -5.7147,-11.6213 -1.4016,-12.0131 -2.5495,-24.1007 -4.3197,-36.0852 -2.2892,-9.6265 -11.5045,-16.9098 -21.3175,-17.3787 -4.224,-0.2815 -8.4633,0.8466 -12.1675,2.8467 -7.3119,-32.2572 -14.6237,-64.5144 -21.9356,-96.7715 7.9645,-11.0845 12.5252,-24.6015 12.7871,-38.25588 1.6785,-4.90068 4.1365,-9.75668 3.9717,-15.06596 -0.1164,-6.04748 -2.9979,-11.96097 -7.6784,-15.79025 -2.1382,-2.1308 -4.3849,-4.16322 -6.4358,-6.37526 -8.2538,-13.4879 -21.4267,-23.84354 -36.42,-28.82908 -0.3548,-1.01953 -0.7096,-2.03906 -1.0644,-3.05859 4.8233,-0.53345 9.6726,-0.93401 14.4525,-1.77788 6.9695,-1.86179 13.0183,-7.56618 14.5104,-14.73189 1.2931,-4.76673 0.1502,-9.71863 -1.0078,-14.38672 -0.2788,-1.24601 -0.6188,-2.73084 -0.9211,-4.06866 -1.9203,-8.39174 -3.7437,-16.80893 -5.8512,-25.15542 -2.2878,-7.5552 -9.3781,-13.50896 -17.3131,-14.05109 -4.6942,-0.47352 -9.2527,1.10652 -13.5664,2.76349 -1.8183,0.66333 -3.6436,1.30695 -5.4674,1.95504 -0.5507,-4.87784 -0.9681,-9.78038 -1.7864,-14.62084 -1.8397,-7.05254 -7.619,-13.17065 -14.8659,-14.64088 -1.7463,-0.34243 -3.5165,-0.60283 -5.3008,-0.5664 z" />
    <rect
       style="font-variation-settings:'wght' 400;fill:#f6e078;fill-opacity:1;stroke:none;stroke-width:16.4814;stroke-linecap:round;stroke-linejoin:round;stroke-miterlimit:4;stroke-dasharray:none;stroke-opacity:1;paint-order:markers stroke fill"
       id="rect8934"
       width="560.48047"
       height="50.208374"
       x="-1827.7717"
       y="1027.7611"
       rx="0"
       ry="0"
       transform="rotate(-102.77135)" />
    <g
       style="stroke-width:1.58305;stroke-miterlimit:4;stroke-dasharray:none"
       transform="matrix(2.2986232,-0.52102595,0.52102595,2.2986232,326.76723,953.93918)"
       id="g8947">
      <path
         d="m 435.03401,56.828999 c 0,9.368958 -7.59504,16.964 -16.964,16.964 -9.36896,0 -16.964,-7.595042 -16.964,-16.964 0,-9.368959 7.59504,-16.964001 16.964,-16.964001 9.36896,0 16.964,7.595042 16.964,16.964001 z"
         style="fill:#e7cd54;fill-opacity:1;stroke:#554400;stroke-width:1.31637;stroke-miterlimit:4;stroke-dasharray:none;stroke-opacity:1"
         transform="matrix(1.20259,0,0,1.20259,-101.79566,38.544585)"
         id="path8937" />
      <path
         d="m 398.78066,90.296796 c -7.92508,0 -14.31077,6.348469 -14.31077,14.392584 0,8.04652 6.37367,14.35651 14.31077,14.35651 7.94913,0 14.29874,-6.29916 14.29874,-14.35651 0,-8.057344 -6.36163,-14.392584 -14.29874,-14.392584"
         style="fill:#e7cd54;fill-opacity:1;stroke-width:1.58305;stroke-miterlimit:4;stroke-dasharray:none"
         id="path8939" />
      <path
         d="m 396.95276,91.714656 c -5.72436,0 -10.29417,4.495275 -10.29417,10.405994 0,5.91313 4.54576,10.37594 10.29417,10.37594 5.73638,0 10.25809,-4.44236 10.25809,-10.37594 0,-5.928758 -4.53373,-10.405994 -10.25809,-10.405994"
         style="fill:#e7cd54;fill-opacity:1;stroke-width:1.58305;stroke-miterlimit:4;stroke-dasharray:none"
         id="path8941" />
      <path
         d="m 401.32,52.868 -2.23143,3.457 2.23143,3.44 h 33.51 l 2.22143,-3.44 L 434.83,52.868 H 421.52 V 38.732 l -3.44,-4.363 -3.46,4.363 v 14.136 z"
         style="fill:#f6e078;fill-opacity:1;stroke-width:1.31637;stroke-miterlimit:4;stroke-dasharray:none"
         transform="matrix(1.20259,0,0,1.20259,-101.79566,38.544585)"
         id="path8943" />
      <path
         d="m 401.32,52.868 -2.23143,3.457 2.23143,3.44 h 33.51 l 2.22143,-3.44 L 434.83,52.868 H 421.52 V 38.732 l -3.44,-0.08587 -3.46,0.08587 v 14.136 z"
         style="fill:none;stroke:#554400;stroke-width:1.31637;stroke-miterlimit:4;stroke-dasharray:none"
         id="path8945"
         transform="matrix(1.20259,0,0,1.20259,-101.79566,38.544585)" />
    </g>
    <g
       style="stroke-width:1.70529;stroke-miterlimit:4;stroke-dasharray:none"
       transform="matrix(2.1338658,-0.4836806,0.4836806,2.1338658,396.94918,957.08374)"
       id="g8967">
      <path
         id="use8959"
         d="m 408.52341,85.862894 -1.98428,-17.727379 16.80019,1.987881 V 54.537829 l -16.60777,1.985476 1.9963,-17.016648 h -15.51341 l 1.98427,17.016648 -16.60777,-1.985476 v 15.585567 l 16.81221,-1.987881 -1.98427,17.727379 z"
         style="fill:#f6e078;stroke-width:1.7053;stroke-miterlimit:4;stroke-dasharray:none" />
      <path
         d="m 418.11,0.8 h -6.49 l 1.65,14.15 -13.81,-1.651 v 6.775 h 18.65 z"
         style="fill:#fff1ae;stroke-width:1.41802;stroke-miterlimit:4;stroke-dasharray:none"
         transform="matrix(1.20259,0,0,1.20259,-101.79566,38.544585)"
         id="path8961" />
      <path
         d="m 422.7,24.606 13.97,1.653 v -6.185 h -18.56 v 19.273 h 6.24 z"
         style="fill:#e7cd54;stroke-width:1.41802;stroke-miterlimit:4;stroke-dasharray:none"
         transform="matrix(1.20259,0,0,1.20259,-101.79566,38.544585)"
         id="path8963" />
      <path
         id="use8965"
         d="m 408.52341,85.862894 -1.98428,-17.727379 16.80019,1.987881 V 54.537829 l -16.60777,1.985476 1.9963,-17.016648 h -15.51341 l 1.98427,17.016648 -16.60777,-1.985476 v 15.585567 l 16.81221,-1.987881 -1.98427,17.727379 z"
         style="fill:#f6e078;stroke:#554400;stroke-width:1.7053;stroke-miterlimit:4;stroke-dasharray:none" />
    </g>
    <g
       id="layer2-4"
       inkscape:label="Layer 2"
       transform="matrix(3.6860221,-0.83550588,0.83550588,3.6860221,962.11398,8.6805265)">
      <g
         id="g1817"
         transform="matrix(0.1823227,0,0,0.1823227,-17.606587,271.14168)"
         style="opacity:1">
        <g
           id="g1731"
           transform="matrix(0.4,0,0,0.4,157.49189,223.23371)"
           style="display:inline">
          <path
             id="path1745"
             style="display:inline;fill:#fdc75a;fill-opacity:1;stroke-width:0.264583;stroke-miterlimit:4;stroke-dasharray:none"
             d="m 100.3457,86.953125 c -3.157945,0.06793 -6.110662,1.717201 -8.136889,4.088834 -1.550461,1.6052 -2.623763,3.761736 -2.504738,6.035265 -0.462657,12.831616 -0.274591,25.674026 -0.338316,38.511056 -0.03438,36.40351 -0.05587,72.80703 -0.06888,109.21055 -8.615436,19.73408 -13.951139,40.86171 -16.078348,62.27675 -0.830725,8.72236 -0.83924,17.49651 -0.870484,26.25098 0.03549,8.73847 -0.119315,17.48148 0.194088,26.21616 0.358124,10.67545 2.418615,21.24494 5.513561,31.45084 4.183689,13.69705 10.693693,26.67128 19.168534,38.21693 14.145982,19.35539 33.620162,34.86213 55.852142,43.90825 11.84535,4.83868 24.40444,7.91611 37.13672,9.15735 4.45059,0.39917 8.92586,0.24872 13.38879,0.32134 46.482,0.15543 92.96437,0.13402 139.44655,0.10188 12.33781,-0.0279 24.67725,-0.001 37.0135,-0.19978 5.0106,-0.17384 9.93735,-1.24374 14.80487,-2.37586 9.25526,-2.1872 18.09124,-5.98972 26.27025,-10.81332 16.11941,-9.62029 29.34518,-24.03275 37.48746,-40.952 4.70372,-9.7371 7.79374,-20.27421 8.94997,-31.0296 0.46189,-6.50142 0.30139,-13.0273 0.38878,-19.54039 0.11668,-23.28015 0.19429,-46.56114 0.0884,-69.84134 -0.0802,-7.86458 -0.48217,-15.73924 -1.65164,-23.52306 -2.19213,-15.69943 -6.36265,-31.11508 -12.35325,-45.79004 -0.51005,-1.35986 -1.1136,-2.77754 -0.80273,-4.26028 0.61198,-4.85588 1.08575,-9.73067 1.65302,-14.59327 4.2914,-38.57744 8.65639,-77.14748 12.77755,-115.74326 0.21561,-2.37122 0.58625,-4.756922 0.44613,-7.138899 -0.62029,-4.165338 -3.80665,-7.710421 -7.67936,-9.204852 -2.89391,-0.959919 -6.15763,-0.74064 -8.88032,0.641607 -27.70943,11.577558 -55.27215,23.513094 -82.89366,35.304884 -7.49396,3.20794 -14.98792,6.41588 -22.48188,9.62382 -10.4507,-3.79875 -21.13793,-7.02806 -32.09146,-9.00842 -11.03546,-2.07097 -22.24741,-3.27451 -33.48197,-3.29344 -7.26676,-0.0354 -14.54677,0.12177 -21.78307,0.81947 -13.01191,1.3403 -25.93658,3.71803 -38.50098,7.37448 -3.14845,0.9084 -6.2396,2.01121 -9.37778,2.94525 -2.01703,0.46573 -3.80743,-0.79665 -5.60465,-1.48237 -23.29783,-10.00692 -46.59439,-20.01195 -69.91895,-29.96563 -10.44183,-4.435191 -20.88547,-8.877317 -31.37027,-13.210576 -1.18743,-0.474558 -2.45013,-0.520845 -3.71072,-0.489309 z" />
        </g>
        <g
           id="g1687"
           transform="matrix(0.4,0,0,0.4,157.11367,221.92596)"
           style="display:inline">
          <path
             style="opacity:1;fill:none;stroke:#8e5e31;stroke-width:50.2708;stroke-linecap:round;stroke-linejoin:round;stroke-miterlimit:4;stroke-dasharray:none;stroke-opacity:1"
             d="M 126.30267,377.9145 92.305809,394.90254"
             id="path1671"
             sodipodi:nodetypes="cc"
             inkscape:label="whisker br" />
          <path
             style="opacity:1;fill:none;stroke:#8e5e31;stroke-width:50.2708;stroke-linecap:round;stroke-linejoin:round;stroke-miterlimit:4;stroke-dasharray:none;stroke-opacity:1"
             d="m 92.305809,327.1494 33.996861,16.98804"
             id="path1669"
             sodipodi:nodetypes="cc"
             inkscape:label="whisker tr" />
          <path
             style="opacity:1;fill:none;stroke:#8e5e31;stroke-width:50.2708;stroke-linecap:round;stroke-linejoin:round;stroke-miterlimit:4;stroke-dasharray:none;stroke-opacity:1"
             d="M 431.40642,403.72808 380.19856,377.9859"
             id="path1665"
             sodipodi:nodetypes="cc"
             inkscape:label="whisker bl" />
          <path
             style="opacity:1;fill:none;stroke:#8e5e31;stroke-width:50.2708;stroke-linecap:round;stroke-linejoin:round;stroke-miterlimit:4;stroke-dasharray:none;stroke-opacity:1"
             d="M 380.19856,344.46108 431.40642,318.7189"
             id="path1663"
             sodipodi:nodetypes="cc"
             inkscape:label="whisker tl" />
          <path
             style="opacity:1;fill:none;stroke:#562a13;stroke-width:50.2708;stroke-linecap:round;stroke-linejoin:round;stroke-miterlimit:4;stroke-dasharray:none;stroke-opacity:1"
             d="m 168.59081,343.82666 25.18881,42.73227 34.45118,-42.42701 42.07948,42.22656 50.73464,-42.13091"
             id="path1661"
             sodipodi:nodetypes="ccccc"
             inkscape:label="mouth" />
          <rect
             style="fill:#000000;stroke:none;stroke-width:55.3471;stroke-linecap:round;stroke-linejoin:round;paint-order:markers fill stroke"
             id="rect1644"
             width="68.251152"
             height="84.981857"
             x="287.57495"
             y="220.13757"
             rx="34.125576"
             ry="0"
             inkscape:label="left eye" />
          <rect
             style="fill:#000000;stroke:none;stroke-width:55.3471;stroke-linecap:round;stroke-linejoin:round;paint-order:markers fill stroke"
             id="rect1642"
             width="68.251152"
             height="84.981857"
             x="135.23131"
             y="220.13757"
             rx="34.125576"
             ry="0"
             inkscape:label="right eye" />
        </g>
      </g>
    </g>
    <rect
       style="font-variation-settings:'wght' 400;fill:#e7cd54;fill-opacity:1;stroke:none;stroke-width:17.8182;stroke-linecap:round;stroke-linejoin:round;stroke-miterlimit:4;stroke-dasharray:none;stroke-opacity:1;paint-order:markers stroke fill"
       id="rect9167"
       width="97.195091"
       height="48.597546"
       x="1008.1495"
       y="1649.1637"
       rx="28.617651"
       transform="rotate(-12.771354)" />
  </g>
  <g
     id="left_arm"
     transform="rotate(-45,1758.9006,1471.3901)"
     style="opacity:1">
    <path
       id="forearm"
       class="fur"
       d="M 1469.3452,1552.0417 1262,1432 c -43,-26 -64,-96 -30,-155 20,-34 46,-57 75,-67 29,-10 60,-8 100,15 l 187.077,111"
       sodipodi:nodetypes="cccscc"
       style="opacity:1" />
    <path
       id="paw"
       class="paw"
       d="m 1346,1481 -84,-49 c -43,-26 -64,-96 -30,-155 20,-34 46,-57 75,-67 29,-10 60,-8 100,15 l 81,48 c -4,92 -48,176 -142,208 z" />
    <path
       id="outline"
       class="outline"
       stroke-width="8"
       stroke-linecap="round"
       d="m 1292,1137 -9,3 c -49,17 -88,54 -114,100 -53,92 -27,206 54,255 h 1 l 175.3452,101.0417 c 26,-8 49,-23 70,-44 0,0 -103.2936,-59.855 -207.3452,-120.0417 -43,-26 -64,-96 -30,-155 20,-34 46,-57 75,-67 29,-10 60,-8 100,15 l 187.077,111 c 7,-30 5,-61 -9,-91 L 1444,1161 c -51,-30 -105,-37 -152,-24 z"
       sodipodi:nodetypes="cccccccccsccccc" />
  </g>
</svg>
