<svg xmlns="http://www.w3.org/2000/svg" version="1.2" viewBox="0 0 2048 2048">
  <style>
    .fur{fill:#e3dedb}
    .paw{fill:#e9afaf}
    .outline{stroke:#000}
  </style>
  <g id="left_arm">
    <path id="outline" class="outline" stroke-width="128" stroke-linecap="butt" stroke-linejoin="round" d="M1598 1298c-62 88-236 276-311 320-103 60-216 99-155 231 46 102 182 99 335-22 259-204 337-397 352-433"/>
    <path id="forearm" class="fur" d="M1598 1298c-62 88-236 276-311 320-103 60-216 99-155 231 46 102 182 99 335-22 259-204 337-397 352-433"/>
    <path id="paw" class="paw" d="m1445 1843-6 5c-33 23-69 42-107 58-24 7-48 12-72 15-17 1-34-1-51-4a127 127 0 0 1-73-59 207 207 0 0 1-20-65c-1-12 0-24 2-36 4-14 10-27 19-38a261 261 0 0 1 74-59l38-21 38-21 14-9c81 13 180 147 144 234Z"/>
  </g>
  <g id="bowl">
    <path id="outline" stroke="#000" stroke-width="64" d="m 1316 1391 c 5 0 11 0 16 0 c 65 5 133 21 186 61 c 34 25 61 68 48 111 c -1 4 -3 9 -5 13 v 5 c 0 88 -36 119 -98 173 c -3 47 -71 85 -155 85 c -83 0 -151 -38 -154 -85 c -62 -54 -98 -85 -98 -173 v -4 c 0 -1 -1 -1 -1 -2 c -12 -26 -6 -55 6 -80 c 30 -51 87 -76 142 -91 c 37 -9 75 -14 113 -13 z" />
    <path id="bowl_interior" fill="#a9a9a9" d="m 1203,1404c -55,15 -112,40 -142,91 -12,25 -18,54 -6,80 19,44 64,69 106,87 98,37 210,36 306,-4 43,-18 85,-49 99,-95 13,-43 -14,-86 -48,-111 -53,-40 -121,-56 -186,-61 -43,-2 -87,3 -129,13z"/>
    <path id="copper_bottom" fill="#8b4513" d="M1463 1754c-44 39-99 61-155 61s-110-22-154-61c3 47 71 85 154 85 84 0 152-38 155-85Z"/>
    <path id="bowl_exterior" fill="#a9a9a9" d="M1561 1571c-25 68-131 116-253 117-121-1-226-49-252-116v9c0 88 36 119 98 173 44 39 98 61 154 61s111-22 155-61c62-54 98-85 98-173v-10Z"/>
  </g>
  <g id="baby">
    <path id="dough" fill="#fce9ba" d="m1061 1570c12-28 37-47 77-70s102-44 161-44 111 13 160 34c38 17 80 39 96 80-9 24-26 44-46 60-57 43-130 58-200 59-69 0-143-14-200-56-20-17-43-37-47-64z"/>
    <path id="left_eye" fill="#000" d="m1398 1511c15 4 17 19 4 34l-13 16c-8 9-21 16-33 19-12 2-22-1-26-8s-2-17 6-26l14-17c12-14 34-22 48-18z"/>
    <path id="right_eye" fill="#000" d="m1323 1489c15 5 17 19 4 34l-13 16c-8 9-20 17-33 19-12 2-22-1-26-8s-2-17 6-26l14-16c12-15 34-23 48-19z"/>
    <path id="mouth" fill="none" stroke="#562a13" stroke-linecap="round" stroke-linejoin="round" stroke-width="48" d="m1216 1595-10 32 46-22 5 37 52-20" />
  </g>
</svg>
