<svg xmlns="http://www.w3.org/2000/svg" version="1.2" viewBox="0 0 2048 2048">
  <style>
    .paw{fill:#8bb9a0}
    .outline{stroke:#000}
  </style>
  <path id="right_leg" fill="#2e2e2e" stroke="#000" stroke-width="24" d="M296 1982s-40 35-73 49c-34 15-61 9-35-71Z"/>
  <path id="left_leg" fill="#2e2e2e" stroke="#000" stroke-width="24" d="M664 1982s40 35 73 49c34 15 61 9 35-71Z"/>
  <path id="cauldron_interior" fill="#333" d="M479 1457c-213 0-385 39-385 88 0 23 40 45 112 61 73 17 171 26 273 26s200-9 272-26c72-16 113-38 113-61 0-49-173-88-385-88Z"/>
  <path id="ladle" fill="silver" stroke="none" d="M250 1087c-20 2-50 1-61 16v90c33-35 92-32 125 0 15 11 23 29 20 47l1 493h80v-529c-7-43-43-74-79-94-26-14-56-23-86-23Z"/>
  <path id="potion" fill="#0f0" d="m103 1536-7 1-2 8c0 3 0 6 2 10l8 10c4 3 8 7 14 10 56 34 200 57 361 57s305-23 361-57c10-6 18-13 21-20l3-10-1-4c-5 3-22 10-41 1-23-11-44 1-44 1s-20 12-43 1-43 1-43 1-21 12-44 1c-5-3-11-4-16-5-15-1-27 6-27 6s-21 12-43 1c-23-11-44 0-44 0s-21 12-43 0l-2-1c-21-9-41 1-41 1s-22 11-44 0c-21-12-43-1-43-1s-14 7-30 4c-4-1-9-2-13-5-22-12-44-1-44-1s-21 11-43-1c-21-12-43-1-43-1s-22 11-43-1c-9-5-19-6-26-6Z"/>
  <path id="cauldron_exterior" fill="#333" stroke="#000" stroke-width="36" d="M118 1575c-6 26-19 59-47 83-52 43-77 106 17 214a336 336 0 0 0 270 111h242c55 0 177-3 270-111s68-171 17-214c-28-24-41-57-47-83-19 12-49 22-89 31-72 17-170 26-272 26s-200-9-273-26c-39-9-69-19-88-31Z"/>
  <path id="rim" fill="none" stroke="#000" stroke-width="48" d="M479 1457c-213 0-385 39-385 88 0 23 40 45 112 61 73 17 171 26 273 26s200-9 272-26c72-16 113-38 113-61 0-49-173-88-385-88Z"/>
  <path id="right_paw" class="paw outline" paint-order="stroke markers fill" stroke-width="98" d="M406 1466a114 114 0 0 0 0-228h-86c-31 0-57 25-57 57v114c0 32 26 57 57 57Z"/>
</svg>