<?xml version="1.0" encoding="UTF-8" standalone="no"?>
<svg
   width="2048"
   height="2048"
   viewBox="0 0 2048 2048"
   version="1.1"
   id="svg8"
   inkscape:version="1.3.2 (091e20e, 2023-11-25, custom)"
   xml:space="preserve"
   sodipodi:docname="back_outlet.svg"
   inkscape:export-filename="..\..\parts\back_outlet.png"
   inkscape:export-xdpi="12"
   inkscape:export-ydpi="12"
   xmlns:inkscape="http://www.inkscape.org/namespaces/inkscape"
   xmlns:sodipodi="http://sodipodi.sourceforge.net/DTD/sodipodi-0.dtd"
   xmlns:xlink="http://www.w3.org/1999/xlink"
   xmlns="http://www.w3.org/2000/svg"
   xmlns:svg="http://www.w3.org/2000/svg"
   xmlns:rdf="http://www.w3.org/1999/02/22-rdf-syntax-ns#"
   xmlns:cc="http://creativecommons.org/ns#"
   xmlns:dc="http://purl.org/dc/elements/1.1/"><defs
     id="defs2"><rect
       x="1767.767"
       y="1620.7898"
       width="175.26147"
       height="107.07617"
       id="rect11" /><inkscape:path-effect
       effect="skeletal"
       id="path-effect7"
       is_visible="true"
       lpeversion="1"
       pattern="m 12,46.6997 v 59.76144 m 130.58849,0 V 46.6997 m -8,-34.05593 L 20,141.16083 M 21.705215,12 134.58849,140.80369"
       copytype="repeated"
       prop_scale="1"
       scale_y_rel="true"
       spacing="300"
       normal_offset="0"
       tang_offset="0"
       prop_units="false"
       vertical_pattern="false"
       hide_knot="false"
       fuse_tolerance="0" /><inkscape:path-effect
       effect="skeletal"
       id="path-effect3"
       is_visible="true"
       lpeversion="1"
       pattern="m 12,46.6997 v 59.76144 m 130.58849,0 V 46.6997 m -8,-34.05593 L 20,141.16083 M 21.705215,12 134.58849,140.80369"
       copytype="repeated"
       prop_scale="1"
       scale_y_rel="false"
       spacing="2"
       normal_offset="0"
       tang_offset="0.05"
       prop_units="true"
       vertical_pattern="false"
       hide_knot="false"
       fuse_tolerance="0" /><inkscape:path-effect
       effect="curvestitching"
       id="path-effect1"
       is_visible="true"
       lpeversion="1"
       count="5"
       startpoint_edge_variation="0;1"
       startpoint_spacing_variation="0;1"
       endpoint_edge_variation="0;1"
       endpoint_spacing_variation="0;1"
       strokepath="M0,0 L1,0"
       prop_scale="1"
       scale_y_rel="false" /></defs><sodipodi:namedview
     id="base"
     pagecolor="#ffffff"
     bordercolor="#666666"
     borderopacity="1.0"
     inkscape:pageopacity="0.0"
     inkscape:pageshadow="2"
     inkscape:zoom="0.24748737"
     inkscape:cx="1139.4521"
     inkscape:cy="1299.0562"
     inkscape:document-units="px"
     inkscape:current-layer="svg8"
     inkscape:document-rotation="0"
     showgrid="false"
     units="px"
     scale-x="1"
     inkscape:showpageshadow="2"
     inkscape:pagecheckerboard="0"
     inkscape:deskcolor="#d1d1d1"
     inkscape:window-width="1920"
     inkscape:window-height="1001"
     inkscape:window-x="-9"
     inkscape:window-y="-9"
     inkscape:window-maximized="1" /><metadata
     id="metadata5"><rdf:RDF><cc:Work
         rdf:about=""><dc:format>image/svg+xml</dc:format><dc:type
           rdf:resource="http://purl.org/dc/dcmitype/StillImage" /><cc:license
           rdf:resource="http://creativecommons.org/licenses/by-nc-sa/4.0/" /></cc:Work><cc:License
         rdf:about="http://creativecommons.org/licenses/by-nc-sa/4.0/"><cc:permits
           rdf:resource="http://creativecommons.org/ns#Reproduction" /><cc:permits
           rdf:resource="http://creativecommons.org/ns#Distribution" /><cc:requires
           rdf:resource="http://creativecommons.org/ns#Notice" /><cc:requires
           rdf:resource="http://creativecommons.org/ns#Attribution" /><cc:prohibits
           rdf:resource="http://creativecommons.org/ns#CommercialUse" /><cc:permits
           rdf:resource="http://creativecommons.org/ns#DerivativeWorks" /><cc:requires
           rdf:resource="http://creativecommons.org/ns#ShareAlike" /></cc:License></rdf:RDF></metadata><g
     id="g9"
     transform="matrix(1.7881945,0,0,1.7881945,1525.3351,-1611.0771)"><rect
       style="fill:#daccb5;fill-opacity:1;stroke:#baaa8d;stroke-width:36.2933;stroke-linecap:round;stroke-linejoin:round;stroke-dasharray:none;stroke-opacity:1;paint-order:markers stroke fill"
       id="rect1"
       width="163.07736"
       height="251.85596"
       x="102.67313"
       y="1614.8409" /><g
       id="g6"
       transform="translate(421.81239,10.046031)"><path
         id="path3"
         style="fill:#eae5e2;fill-opacity:1;stroke:none;stroke-width:54.1782;stroke-linecap:round;stroke-linejoin:round;stroke-dasharray:none;stroke-opacity:1;paint-order:markers stroke fill"
         d="m -206.44922,1626.0938 h -62.30469 a 55.024742,55.024742 0 0 0 -23.87109,45.2382 55.024742,55.024742 0 0 0 23.72266,45.1289 h 62.60351 a 55.024742,55.024742 0 0 0 23.72266,-45.1289 55.024742,55.024742 0 0 0 -23.87305,-45.2382 z" /><rect
         style="fill:#000000;fill-opacity:1;stroke:none;stroke-width:64;stroke-linecap:round;stroke-linejoin:round;stroke-dasharray:none;stroke-opacity:1;paint-order:markers stroke fill"
         id="rect4"
         width="7.8288527"
         height="29.925779"
         x="-260.99817"
         y="1646.5487" /><rect
         style="fill:#000000;fill-opacity:1;stroke:none;stroke-width:64;stroke-linecap:round;stroke-linejoin:round;stroke-dasharray:none;stroke-opacity:1;paint-order:markers stroke fill"
         id="rect5"
         width="7.450048"
         height="22.980967"
         x="-218.4455"
         y="1650.9681" /><path
         id="path5"
         style="fill:#000000;fill-opacity:1;stroke:none;stroke-width:64;stroke-linecap:round;stroke-linejoin:round;stroke-dasharray:none;stroke-opacity:1;paint-order:markers stroke fill"
         d="m -236.375,1692.2578 c -4.88236,-6e-4 -8.84043,3.9575 -8.83984,8.8399 v 8.8378 h 17.67773 v -8.8378 c 5.9e-4,-4.8816 -3.95629,-8.8394 -8.83789,-8.8399 z"
         sodipodi:nodetypes="sccccs" /></g><use
       x="0"
       y="0"
       xlink:href="#g6"
       id="use6"
       transform="translate(0,118.89108)" /></g><path
     style="color:#000000;fill:#228b22;stroke:#000000;stroke-width:32;stroke-linecap:round;stroke-dasharray:none;stroke-opacity:1"
     d="m 1853.2305,1737.3691 a 36,36 0 0 0 -29.0469,27.502 c 0,0 -6.3352,22.9246 0.8359,50.0742 3.5856,13.5748 11.5819,29.7233 26.8067,41.4844 15.2248,11.7611 35.8901,17.3773 58.1523,16.6816 26.193,-0.8185 30.5198,5.256 31.8477,7.3086 1.3278,2.0526 2.8967,9.6536 -1.6426,21.5293 -4.5393,11.8758 -14.7929,24.9866 -24.8106,31.6797 -10.0176,6.6931 -16.4755,7.7276 -24.0488,4.7051 -57.0122,-22.7536 -125.4175,-23.5353 -207.2285,-17.0781 -21.3422,1.6844 -51.3185,8.0419 -90.25,14.5937 -38.9315,6.5518 -84.6242,13.2717 -127.2031,15.582 -42.579,2.3104 -82.238,-0.5797 -105.709,-8.9765 -11.7355,-4.1984 -18.8824,-9.2666 -22.7715,-13.9082 -3.8891,-4.6416 -6.0617,-9.0596 -6.1367,-19.416 a 36,36 0 0 0 -36.2598,-35.7383 36,36 0 0 0 -35.7383,36.2597 c 0.1775,24.4938 8.4711,47.8576 22.9473,65.1348 14.4762,17.2772 33.5927,28.2657 53.7051,35.4609 40.2248,14.3906 86.5974,15.6429 133.8633,13.0782 47.2659,-2.5647 95.2312,-9.7395 135.2519,-16.4746 40.0208,-6.7352 74.291,-13.0567 83.9668,-13.8203 77.6343,-6.1275 136.8997,-2.9814 174.8731,12.1738 32.2856,12.8852 66.4499,4.5176 90.7363,-11.709 24.2864,-16.2266 42.0186,-39.5528 52.0664,-65.8398 10.0478,-26.2871 12.8058,-58.5749 -5.1582,-86.3438 -17.964,-27.7689 -53.409,-41.4516 -94.5488,-40.166 -10.0626,0.3144 -11.7566,-1.5967 -11.8867,-1.6973 -0.1302,-0.1005 -0.4857,-0.1467 -1.211,-2.8926 -1.4505,-5.4917 -0.2441,-15.7129 -0.2441,-15.7128 a 36,36 0 0 0 -27.1172,-43.0899 36,36 0 0 0 -14.041,-0.3848 z"
     id="path12" /><rect
     style="fill:#000000;fill-opacity:1;stroke:none;stroke-width:64;stroke-linecap:round;stroke-linejoin:round;stroke-dasharray:none;stroke-opacity:1;paint-order:markers stroke fill"
     id="rect9"
     width="251.63786"
     height="296.12045"
     x="1730"
     y="1512.8572"
     ry="62.142841" /><path
     style="fill:#696969;fill-opacity:1;stroke:none;stroke-width:44.0567;stroke-linecap:round;stroke-linejoin:round;stroke-dasharray:none;stroke-opacity:1;paint-order:markers stroke fill"
     d="m 1769.2852,1620.7891 0,100.5174 c 0,23.6991 19.0801,42.7773 42.7793,42.7773 h 88.0136 c 23.6991,0 42.7793,-19.0782 42.7793,-42.7773 l 0,-100.5174 z"
     id="path11"
     sodipodi:nodetypes="csssscc" /><path
     style="fill:#f08080;fill-opacity:1;stroke:none;stroke-width:44.0567;stroke-linecap:round;stroke-linejoin:round;stroke-dasharray:none;stroke-opacity:1;paint-order:markers stroke fill"
     d="m 1812.0645,1552.6992 c -22.0066,0 -40.0047,16.4599 -42.4668,37.7852 h 172.9472 c -2.4621,-21.3253 -20.4602,-37.7852 -42.4668,-37.7852 z"
     id="rect10" /><text
     xml:space="preserve"
     id="text11"
     style="font-style:normal;font-weight:normal;font-size:13.3333px;line-height:1.25;font-family:sans-serif;text-align:justify;letter-spacing:0px;word-spacing:0px;white-space:pre;shape-inside:url(#rect11);display:inline;fill:#ffffff;fill-opacity:1;stroke:none"
     x="85.501083"
     y="0"
     transform="matrix(0.94750666,0,0,0.94750666,97.406483,85.712793)"><tspan
       x="1767.7676"
       y="1632.9534"
       id="tspan2"><tspan
         dx="0 0 0 0 0 0 9.6880569 0 0 0 0 0 9.6880608 0 0 0 0 0 9.6880608"
         id="tspan1">Lorem ipsum dolor sit </tspan></tspan><tspan
       x="1767.7676"
       y="1649.6201"
       id="tspan4"><tspan
         dx="0 0 0 0 0 0 8.6336632 0 0 0 0 0 0 0 0 0 0 0 0 0 0 8.6336632"
         id="tspan3">amet, consecteturadi pi </tspan></tspan><tspan
       x="1767.7676"
       y="1666.2867"
       id="tspan6"><tspan
         dx="0 0 0 0 0 0 3.5811543 0 0 0 0 0 3.5811582 0 0 0 0 0 3.5811582 0 0 0 3.5811582"
         id="tspan5">scing elit. Nulla vel mau </tspan></tspan><tspan
       x="1767.7676"
       y="1682.9533"
       id="tspan8"><tspan
         dx="0 0 0 0 1.2113709 0 0 0 0 0 0 1.211369 0 0 0 0 0 0 0 1.211369 0 1.2113767"
         id="tspan7">ris ipsum. Integer a enim </tspan></tspan><tspan
       x="1767.7676"
       y="1699.6199"
       id="tspan9">velit. Praesent vehic u la</tspan></text></svg>
