<?xml version="1.0" encoding="UTF-8" standalone="no"?>
<svg
   width="2048"
   height="2048"
   viewBox="0 0 2048 2048"
   version="1.1"
   id="svg8"
   inkscape:version="1.3.2 (091e20e, 2023-11-25, custom)"
   xml:space="preserve"
   sodipodi:docname="back_spade_tail.svg"
   xmlns:inkscape="http://www.inkscape.org/namespaces/inkscape"
   xmlns:sodipodi="http://sodipodi.sourceforge.net/DTD/sodipodi-0.dtd"
   xmlns="http://www.w3.org/2000/svg"
   xmlns:svg="http://www.w3.org/2000/svg"
   xmlns:rdf="http://www.w3.org/1999/02/22-rdf-syntax-ns#"
   xmlns:cc="http://creativecommons.org/ns#"
   xmlns:dc="http://purl.org/dc/elements/1.1/"><defs
     id="defs2" /><sodipodi:namedview
     id="base"
     pagecolor="#ffffff"
     bordercolor="#666666"
     borderopacity="1.0"
     inkscape:pageopacity="0.0"
     inkscape:pageshadow="2"
     inkscape:zoom="0.35"
     inkscape:cx="1634.2857"
     inkscape:cy="1150"
     inkscape:document-units="px"
     inkscape:current-layer="layer1"
     inkscape:document-rotation="0"
     showgrid="false"
     units="px"
     scale-x="1"
     inkscape:showpageshadow="2"
     inkscape:pagecheckerboard="0"
     inkscape:deskcolor="#d1d1d1"
     inkscape:window-width="1920"
     inkscape:window-height="1001"
     inkscape:window-x="-9"
     inkscape:window-y="-9"
     inkscape:window-maximized="1" /><metadata
     id="metadata5"><rdf:RDF><cc:Work
         rdf:about=""><dc:format>image/svg+xml</dc:format><dc:type
           rdf:resource="http://purl.org/dc/dcmitype/StillImage" /><cc:license
           rdf:resource="http://creativecommons.org/licenses/by-nc-sa/4.0/" /></cc:Work><cc:License
         rdf:about="http://creativecommons.org/licenses/by-nc-sa/4.0/"><cc:permits
           rdf:resource="http://creativecommons.org/ns#Reproduction" /><cc:permits
           rdf:resource="http://creativecommons.org/ns#Distribution" /><cc:requires
           rdf:resource="http://creativecommons.org/ns#Notice" /><cc:requires
           rdf:resource="http://creativecommons.org/ns#Attribution" /><cc:prohibits
           rdf:resource="http://creativecommons.org/ns#CommercialUse" /><cc:permits
           rdf:resource="http://creativecommons.org/ns#DerivativeWorks" /><cc:requires
           rdf:resource="http://creativecommons.org/ns#ShareAlike" /></cc:License></rdf:RDF></metadata><g
     inkscape:label="Layer 1"
     inkscape:groupmode="layer"
     id="layer1"><path
       style="fill:none;stroke:#000000;stroke-width:128;stroke-linecap:round;stroke-linejoin:miter;stroke-dasharray:none;stroke-opacity:1"
       d="m 1472.8024,1913.2289 c 0,0 133.3402,-7.0711 213.1422,9.0914 76.8932,15.5733 282.8427,102.0254 293.9544,-50.5077 10.0695,-138.2272 -185.6406,-211.4002 -153.5432,-324.2589 31.3147,-110.1067 153.2995,-194.9703 154.5533,-350.5229 1.4169,-175.787 -226.2741,-315.16763 -136.3706,-402.04075"
       id="path2"
       sodipodi:nodetypes="cssssc" /><path
       id="path4"
       style="fill:#8b0000;stroke:#000000;stroke-width:50.6734;stroke-linecap:round;stroke-linejoin:round;stroke-dasharray:none;stroke-opacity:1;paint-order:markers stroke fill"
       d="m 1978.1552,553.77332 c -114.8954,119.04712 -76.1223,10.20218 -76.1223,10.20218 -13.8707,25.04058 -59.1784,75.39562 -89.4457,80.28483 -30.2671,4.88925 -51.9685,16.9963 -68.1865,46.13788 -20.7349,37.43229 -21.0512,76.91295 16.3812,97.64766 33.6126,18.60741 50.1497,-11.67394 83.7566,6.94418 33.6069,18.61809 16.7102,48.69647 50.3139,67.32111 37.432,20.73382 70.7327,-0.47552 91.467,-37.9074 16.1938,-29.257 14.8855,-54.22764 2.9306,-82.47237 -11.9549,-28.24475 6.784,-93.21402 20.6327,-118.21488 0,0 -71.7988,90.97367 -31.7275,-69.94319 z"
       sodipodi:nodetypes="cczcczcczcc" /><path
       style="fill:none;stroke:#8b0000;stroke-width:64;stroke-linecap:round;stroke-linejoin:miter;stroke-dasharray:none;stroke-opacity:1"
       d="m 1472.8024,1913.2289 c 0,0 133.3402,-7.0711 213.1422,9.0914 76.8932,15.5733 282.8427,102.0254 293.9544,-50.5077 10.0695,-138.2272 -185.6406,-211.4002 -153.5432,-324.2589 31.3147,-110.1067 153.2995,-194.9703 154.5533,-350.5229 1.4169,-175.787 -226.2741,-315.16763 -136.3706,-402.04075"
       id="path3"
       sodipodi:nodetypes="cssssc" /></g></svg>
