<?xml version="1.0" encoding="UTF-8" standalone="no"?>
<svg
   id="svg1"
   version="1.1"
   viewBox="0 0 2048 2048"
   sodipodi:docname="hat_mask_catraxx.svg"
   inkscape:version="1.3.2 (091e20e, 2023-11-25, custom)"
   xml:space="preserve"
   inkscape:export-filename="..\png\neomelody_mask_catraxx.png"
   inkscape:export-xdpi="96"
   inkscape:export-ydpi="96"
   xmlns:inkscape="http://www.inkscape.org/namespaces/inkscape"
   xmlns:sodipodi="http://sodipodi.sourceforge.net/DTD/sodipodi-0.dtd"
   xmlns:xlink="http://www.w3.org/1999/xlink"
   xmlns="http://www.w3.org/2000/svg"
   xmlns:svg="http://www.w3.org/2000/svg"><defs
     id="defs1"><filter
       id="eye_glow"
       width="2.640625"
       height="2.125"
       x="-0.8203125"
       y="-0.5625"><feGaussianBlur
         in="SourceGraphic"
         result="blur1"
         stdDeviation="50"
         id="feGaussianBlur1" /><feGaussianBlur
         in="SourceGraphic"
         result="blur2"
         stdDeviation="25"
         id="feGaussianBlur2" /><feGaussianBlur
         in="SourceGraphic"
         result="blur3"
         stdDeviation="12.5 "
         id="feGaussianBlur3" /><feComposite
         in="SourceGraphic"
         in2="blur1"
         result="comp1"
         id="feComposite3" /><feComposite
         in="comp1"
         in2="blur2"
         result="comp2"
         id="feComposite4" /><feComposite
         in="comp2"
         in2="blur3"
         id="feComposite5" /></filter><filter
       style="color-interpolation-filters:sRGB"
       id="filter13"
       inkscape:label="mask_shadow"
       x="-0.0093458566"
       y="-0.011629219"
       width="1.0186917"
       height="1.0232584"><feColorMatrix
         id="feColorMatrix14"
         values="0 0 0 0 0 0 0 0 0 0 0 0 0 0 0 0 0 0 0.25 0" /><feGaussianBlur
         stdDeviation="5"
         id="feGaussianBlur14" /></filter></defs><sodipodi:namedview
     id="namedview1"
     pagecolor="#ffffff"
     bordercolor="#666666"
     borderopacity="1.0"
     inkscape:showpageshadow="2"
     inkscape:pageopacity="0.0"
     inkscape:pagecheckerboard="0"
     inkscape:deskcolor="#d1d1d1"
     inkscape:zoom="0.25584284"
     inkscape:cx="394.7736"
     inkscape:cy="1303.5346"
     inkscape:window-width="1920"
     inkscape:window-height="1001"
     inkscape:window-x="-9"
     inkscape:window-y="-9"
     inkscape:window-maximized="1"
     inkscape:current-layer="svg1" /><g
     id="g15"
     inkscape:label="mask"
     style="display:inline"
     inkscape:groupmode="layer"><rect
       style="display:inline;opacity:1;fill:#000000;fill-opacity:1;stroke-width:19.1539;stroke-linecap:round;stroke-linejoin:round"
       id="rect15"
       width="1785.36"
       height="127.51971"
       x="132.32141"
       y="896.05792"
       inkscape:label="strap" /><path
       id="path1"
       style="display:inline;fill:#000000;fill-opacity:0.4;stroke:none;stroke-width:74.2001;stroke-linecap:round;stroke-linejoin:miter;stroke-miterlimit:4;stroke-dasharray:none;stroke-opacity:1"
       inkscape:label="chin_shadow"
       d="m 741.34766,646.12695 c -267.30913,0 -482.50782,230.15934 -482.50782,516.05075 v 49.7481 c 0,235.3516 145.89259,432.8028 346.58399,495.3047 31.19256,47.3471 97.91178,93.0581 240.00195,90.2832 176.48332,-3.4468 249.55972,-16.0592 280.55862,-69.793 262.8773,-5.3912 473.0195,-233.3076 473.0195,-515.7949 v -49.7481 c 0,-285.89141 -215.1987,-516.05075 -482.5078,-516.05075 z" /><rect
       style="display:inline;opacity:1;fill:#070362;fill-opacity:1;stroke-width:20;stroke-linecap:round;stroke-linejoin:round"
       id="rect1"
       width="1283.9915"
       height="1031.8835"
       x="254.06226"
       y="637.10986"
       rx="465"
       ry="450"
       inkscape:label="mask" /><rect
       style="opacity:1;fill:#2a980e;fill-opacity:1;stroke-width:22.3034;stroke-linecap:round;stroke-linejoin:round"
       id="rect16"
       width="225.02132"
       height="288.41513"
       x="943.59595"
       y="847.81793"
       ry="111.99999"
       rx="111.99999"
       inkscape:label="left_eye" /><use
       x="0"
       y="0"
       xlink:href="#rect16"
       id="use16"
       transform="translate(-447.74089)"
       inkscape:label="right_eye" /><path
       id="mouth-2"
       stroke-linecap="round"
       stroke-linejoin="round"
       stroke-width="64.0001"
       d="m 596.14187,1348.2977 96.08228,159.3642 95.71689,-159.3642 128.25476,159.3642 160.055,-159.3642"
       style="display:inline;opacity:1;fill:none;fill-opacity:1;stroke:#000000;stroke-width:77;stroke-dasharray:none;stroke-opacity:1"
       sodipodi:nodetypes="ccccc"
       inkscape:label="mouth" /><path
       id="path2033"
       style="display:inline;fill:#000000;stroke:#000000;stroke-width:0.999999px;stroke-linecap:butt;stroke-linejoin:miter;stroke-opacity:1"
       d="m 671.73962,1176.5022 c -48.1878,0.1848 -90.98158,14.4784 -33.89454,75.0253 58.92855,62.5 61.78655,28.2135 91.07229,61.4277 29.28571,33.2143 66.78517,28.5723 66.78517,28.5723 l -0.35755,-148.5723 c 0,0 -74.28601,3.2139 -75.35743,-5.7148 -1.07143,-8.9286 6.42969,-9.9986 -43.57032,-10.7129 -1.56249,-0.023 -3.12329,-0.03 -4.67773,-0.026 z m 123.96292,165.0253 c 0,0 37.49941,4.642 66.78512,-28.5723 29.28571,-33.2142 32.14375,1.0723 91.07229,-61.4277 58.92855,-62.4999 11.4277,-75.7143 -38.57227,-75 -50.00002,0.7143 -42.4989,1.7843 -43.57031,10.7129 -1.07143,8.9287 -75.35744,5.7148 -75.35744,5.7148 z"
       inkscape:label="nose" /><g
       id="g2067"
       inkscape:label="forehead spots"
       style="display:inline"
       transform="matrix(3.401575,0,0,3.401575,-10.849619,113.59309)"><ellipse
         style="fill:#000000;fill-opacity:1;stroke-width:4.49792;stroke-linecap:round;stroke-linejoin:round;paint-order:markers fill stroke"
         id="path2039"
         cx="273.36325"
         cy="168.49773"
         rx="8.3154764"
         ry="8.5044641" /><ellipse
         style="fill:#000000;fill-opacity:1;stroke-width:4.49792;stroke-linecap:round;stroke-linejoin:round;paint-order:markers fill stroke"
         id="ellipse2041"
         cx="225.17128"
         cy="168.49773"
         rx="8.3154764"
         ry="8.5044641" /><path
         id="ellipse2043"
         style="fill:#000000;fill-opacity:1;stroke-width:4.49792;stroke-linecap:round;stroke-linejoin:round;paint-order:markers fill stroke"
         d="m 273.32388,194.95616 c -3.63344,-0.0378 -7.0152,2.63542 -7.9443,6.12643 -0.7462,2.53089 -0.20868,5.35378 1.31301,7.49322 1.34615,2.70463 2.74373,5.38847 4.05768,8.1061 1.03907,3.46591 4.51732,6.02977 8.15256,5.86259 3.6346,-0.0558 6.94802,-2.81419 7.79182,-6.32798 0.65926,-2.44553 0.1159,-5.12037 -1.29679,-7.20115 -1.3982,-2.81317 -2.83795,-5.60888 -4.21014,-8.43298 -1.11324,-3.29334 -4.36786,-5.68144 -7.86384,-5.62623 z" /><path
         id="path2060"
         style="fill:#000000;fill-opacity:1;stroke-width:4.49792;stroke-linecap:round;stroke-linejoin:round;paint-order:markers fill stroke"
         d="m 225.02301,194.95616 c 3.63344,-0.0378 7.0152,2.63542 7.9443,6.12643 0.7462,2.53089 0.20868,5.35378 -1.31301,7.49322 -1.34615,2.70463 -2.74373,5.38847 -4.05768,8.1061 -1.03907,3.46591 -4.51732,6.02977 -8.15256,5.86259 -3.6346,-0.0558 -6.94802,-2.81419 -7.79182,-6.32798 -0.65926,-2.44553 -0.1159,-5.12037 1.29679,-7.20115 1.3982,-2.81317 2.83795,-5.60888 4.21014,-8.43298 1.11324,-3.29334 4.36786,-5.68144 7.86384,-5.62623 z" /></g><g
       id="g2087"
       inkscape:label="left_cheek"
       transform="matrix(3.401575,0,0,3.401575,-97.516634,185.78568)"
       style="display:inline"><circle
         style="fill:#000000;fill-opacity:1;stroke-width:4.99291;stroke-linecap:round;stroke-linejoin:round;paint-order:markers fill stroke"
         id="path2069"
         cx="397.25296"
         cy="314.2872"
         r="10.961309" /><circle
         style="fill:#000000;fill-opacity:1;stroke-width:4.99291;stroke-linecap:round;stroke-linejoin:round;paint-order:markers fill stroke"
         id="circle2071"
         cx="423.7113"
         cy="328.93378"
         r="10.961309" /><path
         id="path2073"
         style="fill:#000000;fill-opacity:1;stroke-width:4.82642;stroke-linecap:round;stroke-linejoin:round;paint-order:markers fill stroke"
         d="m 433.57398,268.36296 c -3.71018,-0.0462 -7.26895,2.45808 -8.47804,5.96603 -3.04529,4.01061 -6.09058,8.02122 -9.13587,12.03182 -3.17805,2.58268 -4.14816,7.42186 -2.2105,11.02974 1.80163,3.65882 6.27334,5.68346 10.21151,4.62682 3.1082,-0.74578 5.69629,-3.27416 6.51438,-6.3641 3.05485,-3.8477 6.06509,-7.7375 9.14781,-11.5589 3.08165,-2.67767 3.89907,-7.52494 1.86501,-11.06485 -1.53874,-2.84663 -4.67817,-4.69794 -7.9143,-4.66656 z" /><path
         id="path2081"
         style="fill:#000000;fill-opacity:1;stroke-width:4.82642;stroke-linecap:round;stroke-linejoin:round;paint-order:markers fill stroke"
         d="m 452.01558,283.73096 c -3.71018,-0.0462 -7.26896,2.45808 -8.47804,5.96603 -3.04529,4.01061 -6.09058,8.02122 -9.13588,12.03182 -3.17804,2.58268 -4.14815,7.42186 -2.21049,11.02974 1.80163,3.65882 6.27333,5.68346 10.21151,4.62682 3.10819,-0.74578 5.69629,-3.27416 6.51438,-6.3641 3.05484,-3.8477 6.06509,-7.7375 9.1478,-11.5589 3.08166,-2.67767 3.89908,-7.52494 1.86502,-11.06485 -1.53875,-2.84663 -4.67818,-4.69794 -7.9143,-4.66656 z" /></g><g
       id="g2097"
       inkscape:label="right_cheek"
       transform="matrix(-3.401575,0,0,3.401575,1837.0548,191.49998)"
       style="display:inline"><circle
         style="fill:#000000;fill-opacity:1;stroke-width:4.99291;stroke-linecap:round;stroke-linejoin:round;paint-order:markers fill stroke"
         id="circle2089"
         cx="397.25296"
         cy="314.2872"
         r="10.961309" /><circle
         style="fill:#000000;fill-opacity:1;stroke-width:4.99291;stroke-linecap:round;stroke-linejoin:round;paint-order:markers fill stroke"
         id="circle2091"
         cx="423.7113"
         cy="328.93378"
         r="10.961309" /><path
         id="path2093"
         style="fill:#000000;fill-opacity:1;stroke-width:4.82642;stroke-linecap:round;stroke-linejoin:round;paint-order:markers fill stroke"
         d="m 433.57398,268.36296 c -3.71018,-0.0462 -7.26895,2.45808 -8.47804,5.96603 -3.04529,4.01061 -6.09058,8.02122 -9.13587,12.03182 -3.17805,2.58268 -4.14816,7.42186 -2.2105,11.02974 1.80163,3.65882 6.27334,5.68346 10.21151,4.62682 3.1082,-0.74578 5.69629,-3.27416 6.51438,-6.3641 3.05485,-3.8477 6.06509,-7.7375 9.14781,-11.5589 3.08165,-2.67767 3.89907,-7.52494 1.86501,-11.06485 -1.53874,-2.84663 -4.67817,-4.69794 -7.9143,-4.66656 z" /><path
         id="path2095"
         style="fill:#000000;fill-opacity:1;stroke-width:4.82642;stroke-linecap:round;stroke-linejoin:round;paint-order:markers fill stroke"
         d="m 452.01558,283.73096 c -3.71018,-0.0462 -7.26896,2.45808 -8.47804,5.96603 -3.04529,4.01061 -6.09058,8.02122 -9.13588,12.03182 -3.17804,2.58268 -4.14815,7.42186 -2.21049,11.02974 1.80163,3.65882 6.27333,5.68346 10.21151,4.62682 3.10819,-0.74578 5.69629,-3.27416 6.51438,-6.3641 3.05484,-3.8477 6.06509,-7.7375 9.1478,-11.5589 3.08166,-2.67767 3.89908,-7.52494 1.86502,-11.06485 -1.53875,-2.84663 -4.67818,-4.69794 -7.9143,-4.66656 z" /></g><path
       style="display:inline;fill:#070362;fill-opacity:1;stroke:none;stroke-width:70.5293;stroke-linecap:round;stroke-linejoin:miter;stroke-miterlimit:4;stroke-dasharray:none;stroke-opacity:1"
       d="m 563.39838,1577.5702 c 0,0 -22.5764,185.2956 255.03369,179.9493 265.82803,-5.1195 286.71813,-31.5029 290.91203,-197.1814"
       id="path2099"
       inkscape:label="chin"
       sodipodi:nodetypes="csc" /></g></svg>
