<?xml version="1.0" encoding="UTF-8" standalone="no"?>
<svg
   xmlns:serif="http://www.serif.com/"
   xmlns:dc="http://purl.org/dc/elements/1.1/"
   xmlns:cc="http://creativecommons.org/ns#"
   xmlns:rdf="http://www.w3.org/1999/02/22-rdf-syntax-ns#"
   xmlns:svg="http://www.w3.org/2000/svg"
   xmlns="http://www.w3.org/2000/svg"
   xmlns:xlink="http://www.w3.org/1999/xlink"
   xmlns:sodipodi="http://sodipodi.sourceforge.net/DTD/sodipodi-0.dtd"
   xmlns:inkscape="http://www.inkscape.org/namespaces/inkscape"
   width="2048"
   height="2048"
   viewBox="0 0 2048 2048"
   version="1.1"
   id="svg8"
   inkscape:version="1.0.2-2 (e86c870879, 2021-01-15)"
   sodipodi:docname="eyes_heart.svg"
   inkscape:export-filename="..\..\parts\eyes_heart.png"
   inkscape:export-xdpi="12"
   inkscape:export-ydpi="12">
  <defs
     id="defs2" />
  <sodipodi:namedview
     id="base"
     pagecolor="#ffffff"
     bordercolor="#666666"
     borderopacity="1.0"
     inkscape:pageopacity="0.0"
     inkscape:pageshadow="2"
     inkscape:zoom="0.35"
     inkscape:cx="928.34441"
     inkscape:cy="844.92399"
     inkscape:document-units="px"
     inkscape:current-layer="layer1"
     inkscape:document-rotation="0"
     showgrid="false"
     units="px"
     scale-x="1"
     inkscape:window-width="1920"
     inkscape:window-height="1001"
     inkscape:window-x="-9"
     inkscape:window-y="-9"
     inkscape:window-maximized="1" />
  <metadata
     id="metadata5">
    <rdf:RDF>
      <cc:Work
         rdf:about="">
        <dc:format>image/svg+xml</dc:format>
        <dc:type
           rdf:resource="http://purl.org/dc/dcmitype/StillImage" />
        <dc:title></dc:title>
        <cc:license
           rdf:resource="http://creativecommons.org/licenses/by-nc-sa/4.0/" />
      </cc:Work>
      <cc:License
         rdf:about="http://creativecommons.org/licenses/by-nc-sa/4.0/">
        <cc:permits
           rdf:resource="http://creativecommons.org/ns#Reproduction" />
        <cc:permits
           rdf:resource="http://creativecommons.org/ns#Distribution" />
        <cc:requires
           rdf:resource="http://creativecommons.org/ns#Notice" />
        <cc:requires
           rdf:resource="http://creativecommons.org/ns#Attribution" />
        <cc:prohibits
           rdf:resource="http://creativecommons.org/ns#CommercialUse" />
        <cc:permits
           rdf:resource="http://creativecommons.org/ns#DerivativeWorks" />
        <cc:requires
           rdf:resource="http://creativecommons.org/ns#ShareAlike" />
      </cc:License>
    </rdf:RDF>
  </metadata>
  <g
     inkscape:label="Layer 1"
     inkscape:groupmode="layer"
     id="layer1">
    <g
       id="g863"
       inkscape:label="left eye">
      <path
         id="Right-eye"
         serif:id="Right eye"
         d="M 1198.67,1089.8466 1073.5562,978.37492 c -25.4675,-22.03232 -28.2565,-60.59471 -6.2242,-86.0623 22.0265,-25.4676 60.5889,-28.26239 86.0565,-6.23007 l 68.391,59.15655 68.3852,-59.15655 c 25.4676,-22.03232 64.0358,-19.23753 86.0623,6.23007 22.0324,25.46759 19.2434,64.02998 -6.2242,86.0623 L 1244.889,1089.8466 c -6.067,6.888 -14.5737,10.3932 -23.1095,10.3407 -8.5358,0.053 -17.0424,-3.4527 -23.1095,-10.3407 z"
         style="clip-rule:evenodd;fill:#ef7c94;fill-rule:evenodd;stroke-width:5.8225;stroke-linecap:round;stroke-linejoin:round;stroke-miterlimit:1.5"
         inkscape:label="interior" />
      <path
         d="m 1137.8657,1152.648 c -0.01,-0.012 -0.018,-0.023 -0.035,-0.035 -2.527,-2.2533 -122.0104,-108.706 -121.9522,-108.6594 -61.42149,-53.64266 -68.01256,-147.03549 -14.6028,-208.78305 53.5669,-61.92224 147.3324,-68.70545 209.2547,-15.13849 l 11.249,9.72939 11.2491,-9.72939 c 61.9222,-53.56696 155.6877,-46.78375 209.2546,15.13849 53.4098,61.74756 46.8187,155.14039 -14.5446,208.73645 0,0 -122.0511,108.7409 -121.9929,108.6827 -22.8824,23.1619 -53.3923,35.0049 -83.9604,34.935 -30.603,0.052 -61.0546,-11.7731 -83.9196,-34.8768 z m 60.8043,-62.8014 c 6.0671,6.888 14.5737,10.3932 23.1095,10.3407 8.5358,0.053 17.0425,-3.4527 23.1095,-10.3407 l 125.1138,-111.47168 c 25.4676,-22.03232 28.2566,-60.59471 6.2242,-86.0623 -22.0265,-25.4676 -60.5947,-28.26239 -86.0623,-6.23007 l -68.3852,59.15655 -68.391,-59.15655 c -25.4676,-22.03232 -64.03,-19.23753 -86.0565,6.23007 -22.0323,25.46759 -19.2433,64.02998 6.2242,86.0623 z"
         style="clip-rule:evenodd;fill:#a8093e;fill-rule:evenodd;stroke-width:5.8225;stroke-linecap:round;stroke-linejoin:round;stroke-miterlimit:1.5"
         id="path4132"
         inkscape:label="outline" />
    </g>
    <use
       x="0"
       y="0"
       xlink:href="#g863"
       id="use869"
       width="100%"
       height="100%"
       transform="translate(-574.99406)"
       inkscape:label="right eye" />
  </g>
</svg>
