<?xml version="1.0" encoding="UTF-8" standalone="no"?>
<svg
   xmlns:dc="http://purl.org/dc/elements/1.1/"
   xmlns:cc="http://creativecommons.org/ns#"
   xmlns:rdf="http://www.w3.org/1999/02/22-rdf-syntax-ns#"
   xmlns:svg="http://www.w3.org/2000/svg"
   xmlns="http://www.w3.org/2000/svg"
   xmlns:xlink="http://www.w3.org/1999/xlink"
   xmlns:sodipodi="http://sodipodi.sourceforge.net/DTD/sodipodi-0.dtd"
   xmlns:inkscape="http://www.inkscape.org/namespaces/inkscape"
   width="2048"
   height="2048"
   viewBox="0 0 2048 2048"
   version="1.1"
   id="svg8"
   inkscape:version="1.0.2-2 (e86c870879, 2021-01-15)"
   sodipodi:docname="eyes_neocat_glasses.svg"
   inkscape:export-filename="..\eyes_neocat_glasses.png"
   inkscape:export-xdpi="96"
   inkscape:export-ydpi="96">
  <defs
     id="defs2">
    <pattern
       patternUnits="userSpaceOnUse"
       width="224.45391"
       height="224.00037"
       patternTransform="translate(-240.20278,-231.79873)"
       id="pattern1026">
      <g
         id="g960"
         transform="translate(240.20278,447.79069)"
         style="fill:#ffc95c;fill-opacity:1"
         inkscape:label="neocat"
         sodipodi:insensitive="true">
        <path
           id="path980"
           style="display:inline;opacity:1;fill:#ffc95c;fill-opacity:1;stroke:#000000;stroke-width:32;stroke-linejoin:round;stroke-miterlimit:4;stroke-dasharray:none;stroke-opacity:1;paint-order:stroke fill markers"
           d="m -74.1875,-240.1532 c 24.71441,-2.39033 44.699547,-26.80304 42.065004,-51.5274 -0.226407,-22.37647 2.501542,-45.78053 -6.587123,-66.93666 0.348022,-12.56222 2.590763,-25.15294 3.783854,-37.72162 0.54278,-10.31161 3.600132,-21.08782 1.933067,-31.17033 -7.495965,-9.71384 -19.454007,1.56097 -28.203387,3.98803 -10.354265,4.42752 -20.700069,8.87479 -31.05094,13.31024 -20.508845,-7.59317 -43.595675,-7.37126 -64.215645,-0.30478 -17.01894,-6.98535 -33.73848,-15.11215 -50.99101,-21.275 -13.06075,1.24577 -7.3875,18.13721 -8.54344,26.9781 -0.003,16.50654 -0.001,33.01307 -0.003,49.51961 -8.92072,20.43897 -9.5729,43.60698 -6.55223,65.39884 6.17398,29.51013 35.52039,52.23716 65.7546,49.93221 27.5367,-0.004 55.0756,0.2589 82.61027,-0.19124 z"
           inkscape:label="fur" />
        <g
           id="g1017"
           inkscape:label="whiskers"
           transform="translate(0,-215.45851)">
          <path
             style="display:inline;fill:#8e5e31;fill-opacity:1;stroke-width:0.125"
             d="m -77.31248,-87.425263 c -1.383537,-0.438712 -2.380025,-1.297325 -2.988188,-2.574737 -0.34825,-0.731513 -0.386812,-0.930862 -0.386812,-2 0,-1.068025 0.03883,-1.26925 0.385825,-2 0.7853,-1.653787 0.2803,-1.356625 13.816613,-8.13022 6.71135,-3.35838 12.56135,-6.2276 13,-6.37607 2.251299,-0.76197 4.743812,0.31774 5.78575,2.50629 0.34825,0.73151 0.386812,0.93086 0.386812,2 0,1.06803 -0.03883,1.26925 -0.385825,2 -0.7853,1.65379 -0.2803,1.35663 -13.816613,8.130225 -6.71135,3.358375 -12.545512,6.2217 -12.964812,6.36295 -0.865925,0.291713 -2.061438,0.326125 -2.83275,0.08156 z"
             id="path1007" />
          <path
             style="display:inline;fill:#8e5e31;fill-opacity:1;stroke-width:0.125"
             d="m -197.62498,-87.537275 c -0.44687,-0.16325 -4.46875,-2.129075 -8.9375,-4.3685 -9.02422,-4.5223 -8.97943,-4.494275 -9.73918,-6.094225 -0.347,-0.73075 -0.38582,-0.931975 -0.38582,-2 0,-1.06914 0.0386,-1.26849 0.38682,-2 1.04273,-2.19022 3.53426,-3.26831 5.78938,-2.50506 0.44066,0.14913 4.49066,2.1187 9,4.3768 9.10642,4.560147 9.0523,4.526335 9.81298,6.12826 0.347,0.73075 0.38582,0.931975 0.38582,2 0,1.069138 -0.0386,1.268487 -0.38682,2 -0.78788,1.654912 -2.27252,2.636613 -4.10751,2.716025 -0.82092,0.03552 -1.15494,-0.011 -1.81817,-0.2533 z"
             id="path1005" />
          <path
             style="display:inline;fill:#8e5e31;fill-opacity:1;stroke-width:0.125"
             d="m -213.3125,-63.425263 c -1.38354,-0.438712 -2.38002,-1.297325 -2.98818,-2.574737 -0.34826,-0.731513 -0.38682,-0.930862 -0.38682,-2 0,-1.068025 0.0388,-1.26925 0.38582,-2 0.76668,-1.61455 0.65574,-1.545925 10.27476,-6.356362 l 8.66059,-4.331138 h 1.27691 c 1.1691,0 1.34553,0.03266 2.08942,0.386812 1.03263,0.491625 1.80906,1.268063 2.30068,2.300688 0.34826,0.731513 0.38682,0.930862 0.38682,2 0,1.068025 -0.0388,1.26925 -0.38582,2 -0.76068,1.601925 -0.70656,1.568113 -9.81298,6.128263 -4.50934,2.2581 -8.5435,4.221762 -8.96481,4.363687 -0.8696,0.29295 -2.06368,0.3278 -2.83639,0.08279 z"
             id="path1003" />
          <path
             style="display:inline;fill:#8e5e31;fill-opacity:1;stroke-width:0.125"
             d="m -53.625,-59.537575 c -0.446875,-0.163412 -6.26875,-3.0289 -12.9375,-6.367738 C -80.012237,-72.6392 -79.516912,-72.347363 -80.301675,-74 c -0.347,-0.73075 -0.385825,-0.931975 -0.385825,-2 0,-1.069138 0.03856,-1.268487 0.386812,-2 1.041938,-2.18855 3.53445,-3.268262 5.78575,-2.506288 0.43865,0.148463 6.28865,3.017688 13,6.376063 13.536313,6.7736 13.031313,6.476437 13.816613,8.130225 0.347,0.73075 0.385825,0.931975 0.385825,2 0,1.069137 -0.03856,1.268487 -0.386812,2 -0.787888,1.654912 -2.272538,2.636612 -4.107513,2.716025 -0.821313,0.03554 -1.154625,-0.011 -1.818175,-0.2536 z"
             id="path968" />
        </g>
        <path
           id="path964"
           style="display:inline;fill:#562a13;fill-opacity:1;stroke-width:0.125"
           inkscape:label="mouth"
           d="m -165.22123,-283.3287 c -2.97071,-0.95016 -3.8952,-4.43255 -5.62103,-6.7387 -3.20516,-5.50265 -6.73434,-10.83222 -9.63804,-16.50173 -1.2321,-3.20332 2.15245,-6.81955 5.46052,-5.92673 3.00612,0.62278 3.9242,4.02829 5.54086,6.23491 2.01857,3.32909 3.98273,6.69169 6.04649,9.9931 4.19094,-5.06371 8.17718,-10.29698 12.43978,-15.30095 2.42018,-2.06372 5.87195,-0.77812 7.53641,1.59525 5.27419,5.16542 10.42931,10.45241 15.7395,15.5807 7.2178,-5.7474 14.07426,-11.95098 21.42035,-17.5327 2.97989,-2.08865 7.519865,0.8255 6.963514,4.40407 -0.10224,2.99334 -3.345744,4.23227 -5.137664,6.155 -7.11358,5.93544 -14.12232,12.01 -21.43938,17.69249 -2.81137,1.5621 -5.46408,-0.65018 -7.2165,-2.70661 -4.84189,-4.78819 -9.64782,-9.61258 -14.47156,-14.41903 -4.49162,5.55691 -8.85308,11.22415 -13.51046,16.64316 -1.14764,0.86968 -2.7191,1.18613 -4.11279,0.82777 z" />
        <path
           style="display:inline;fill:#000000;fill-opacity:1;stroke-width:0.125"
           d="m -105.42056,-328.06153 c -6.29233,-0.55825 -11.68801,-4.82849 -13.70389,-10.84549 -0.75234,-2.24555 -0.81084,-2.89642 -0.81084,-9.02155 0,-6.12512 0.0585,-6.77599 0.81084,-9.02155 1.84785,-5.51547 6.61378,-9.645 12.3125,-10.6684 1.4721,-0.26436 4.1518,-0.26436 5.6239,0 5.698725,1.0234 10.46465,5.15293 12.3125,10.6684 0.752338,2.24556 0.810837,2.89643 0.810837,9.02155 0,6.12513 -0.0585,6.776 -0.810837,9.02155 -1.341625,4.00449 -4.2832,7.37593 -8.098013,9.28138 -2.481537,1.2395 -5.599097,1.81677 -8.446997,1.56411 z"
           id="path984"
           inkscape:label="left_eye" />
        <path
           style="display:inline;fill:#000000;fill-opacity:1;stroke-width:0.125"
           d="m -177.42056,-328.06153 c -6.29233,-0.55825 -11.68801,-4.82849 -13.70389,-10.84549 -0.75233,-2.24555 -0.81083,-2.89642 -0.81083,-9.02155 0,-6.12512 0.0585,-6.77599 0.81083,-9.02155 1.84785,-5.51547 6.61377,-9.645 12.3125,-10.6684 1.47211,-0.26436 4.1518,-0.26436 5.6239,0 5.69873,1.0234 10.46465,5.15293 12.31251,10.6684 0.75233,2.24556 0.81082,2.89643 0.81082,9.02155 0,6.12513 -0.0585,6.776 -0.81082,9.02155 -1.34163,4.00449 -4.28321,7.37593 -8.09802,9.28138 -2.48154,1.2395 -5.5991,1.81677 -8.447,1.56411 z"
           id="path982"
           inkscape:label="right_eye" />
      </g>
    </pattern>
    <clipPath
       clipPathUnits="userSpaceOnUse"
       id="clipPath1800">
      <rect
         style="opacity:1;fill:#000000;fill-opacity:1;stroke:none;stroke-width:15.7975;stroke-linecap:round;stroke-linejoin:round;stroke-miterlimit:4;stroke-dasharray:none;stroke-opacity:1;paint-order:markers fill stroke"
         id="rect1802"
         width="105.50423"
         height="108.78921"
         x="246.09262"
         y="364.6825"
         transform="scale(-1,1)" />
    </clipPath>
  </defs>
  <sodipodi:namedview
     id="base"
     pagecolor="#ffffff"
     bordercolor="#666666"
     borderopacity="1.0"
     inkscape:pageopacity="0.0"
     inkscape:pageshadow="2"
     inkscape:zoom="0.49497475"
     inkscape:cx="618.627"
     inkscape:cy="786.97553"
     inkscape:document-units="px"
     inkscape:current-layer="g3858"
     inkscape:document-rotation="0"
     showgrid="false"
     units="px"
     scale-x="1"
     inkscape:window-width="1920"
     inkscape:window-height="1001"
     inkscape:window-x="-9"
     inkscape:window-y="-9"
     inkscape:window-maximized="1" />
  <metadata
     id="metadata5">
    <rdf:RDF>
      <cc:Work
         rdf:about="">
        <dc:format>image/svg+xml</dc:format>
        <dc:type
           rdf:resource="http://purl.org/dc/dcmitype/StillImage" />
        <dc:title></dc:title>
        <cc:license
           rdf:resource="http://creativecommons.org/licenses/by-nc-sa/4.0/" />
      </cc:Work>
      <cc:License
         rdf:about="http://creativecommons.org/licenses/by-nc-sa/4.0/">
        <cc:permits
           rdf:resource="http://creativecommons.org/ns#Reproduction" />
        <cc:permits
           rdf:resource="http://creativecommons.org/ns#Distribution" />
        <cc:requires
           rdf:resource="http://creativecommons.org/ns#Notice" />
        <cc:requires
           rdf:resource="http://creativecommons.org/ns#Attribution" />
        <cc:prohibits
           rdf:resource="http://creativecommons.org/ns#CommercialUse" />
        <cc:permits
           rdf:resource="http://creativecommons.org/ns#DerivativeWorks" />
        <cc:requires
           rdf:resource="http://creativecommons.org/ns#ShareAlike" />
      </cc:License>
    </rdf:RDF>
  </metadata>
  <g
     inkscape:label="Layer 1"
     inkscape:groupmode="layer"
     id="layer1">
    <path
       style="fill:none;stroke:#000000;stroke-width:256;stroke-linecap:round;stroke-linejoin:miter;stroke-miterlimit:4;stroke-dasharray:none;stroke-opacity:1"
       d="M 1215.2744,1029.8125 V 955.27943"
       id="path4014"
       sodipodi:nodetypes="cc" />
    <use
       x="0"
       y="0"
       xlink:href="#path4014"
       id="use4056"
       width="100%"
       height="100%"
       transform="translate(-572.85714)" />
    <g
       id="g4012"
       inkscape:label="glasses"
       style="display:inline">
      <path
         style="opacity:1;fill:none;stroke:#000000;stroke-width:128;stroke-linecap:round;stroke-linejoin:miter;stroke-miterlimit:4;stroke-dasharray:none;stroke-opacity:1"
         d="m 1508.2237,959.64492 h 295.99"
         id="path2752"
         sodipodi:nodetypes="cc"
         inkscape:label="over_ear_loop" />
      <path
         style="opacity:1;fill:none;stroke:#000000;stroke-width:91.2926;stroke-linecap:round;stroke-linejoin:miter;stroke-miterlimit:4;stroke-dasharray:none;stroke-opacity:1"
         d="m 862.58073,945.93909 c 0,0 12.40821,-32.93986 68.8849,-32.57733 56.47669,0.36253 68.88487,32.57733 68.88487,32.57733"
         id="path2754"
         sodipodi:nodetypes="czc"
         inkscape:label="bridge" />
      <g
         id="g863"
         inkscape:label="left eye"
         transform="matrix(1.879958,0,0,1.879958,-1052.8937,-866.83748)">
        <g
           id="g3858"
           transform="matrix(1.3687944,0,0,1.3687944,858.24187,523.51322)"
           style="opacity:1">
          <path
             id="path3836"
             style="display:inline;fill:#000000;stroke:#000000;stroke-width:0.272338"
             d="m 1068.1055,730.29297 v 0.002 c -16.5196,0.37094 -32.8382,7.5433 -44.0586,19.71289 -11.33,11.75293 -17.5418,28.13762 -17.2598,44.42578 -0.087,18.70039 -0.1854,37.40087 -0.1699,56.10157 -0.027,27.88571 -0.042,55.7705 -0.057,83.65625 -11.32234,29.64151 -17.22474,61.3413 -17.30464,93.07234 -0.20123,13.6219 -0.16417,27.2556 0.48828,40.8652 2.73112,40.0699 19.17416,79.0258 45.83396,109.0488 18.0528,20.4484 40.64,36.9034 65.7422,47.6075 23.6957,10.1757 49.5279,15.3854 75.3223,15.0136 57.9745,0.105 115.9495,0.1668 173.9238,-0.033 11.0334,-0.091 22.0553,-1.4034 32.7852,-3.9824 26.3454,-6.2551 50.943,-19.7851 70.2285,-38.8066 19.0932,-18.639 33.1272,-42.4428 39.9922,-68.2403 3.4709,-12.8143 5.1069,-26.098 5.0976,-39.3672 0.2713,-16.7866 0.163,-33.5771 0.1934,-50.3652 -0.026,-13.9461 0,-27.8983 -0.5391,-41.83598 -0.8916,-17.38714 -3.9167,-34.63079 -8.4707,-51.42188 -1.6316,-5.92916 -3.4875,-11.79704 -5.5625,-17.58593 4.7808,-43.61448 9.8017,-87.20211 14.418,-130.83399 1.0846,-16.9478 -4.9778,-34.32236 -16.7344,-46.63672 -5.321,-5.7454 -11.6076,-10.66065 -18.7226,-13.98437 -15.046,-7.24138 -33.0747,-8.44453 -48.7579,-2.51367 -4.1592,1.57914 -8.1772,3.45121 -12.2695,5.10742 -27.5796,11.61065 -55.0651,23.44293 -82.5859,35.19336 -26.5093,-7.46685 -54.2651,-10.4853 -81.7598,-8.8418 -17.902,0.9622 -35.7134,3.71274 -53.0488,8.29492 -31.2449,-13.36541 -62.4087,-26.91233 -93.7832,-39.96875 -7.3101,-2.72414 -15.1607,-3.82811 -22.9414,-3.68359 z m 1.9883,50.99219 c 0.9702,0.0226 1.9309,0.14146 2.8476,0.50781 10.7921,4.46028 21.5412,9.03248 32.2891,13.59765 24.0082,10.24545 47.988,20.54352 71.9687,30.84376 1.8499,0.70579 3.6934,2.00479 5.7696,1.52539 3.2301,-0.96141 6.4116,-2.09623 9.6523,-3.03125 12.9327,-3.76363 26.2356,-6.21026 39.6289,-7.58985 7.4484,-0.71817 14.9421,-0.88029 22.4219,-0.84375 11.5638,0.0195 23.104,1.25895 34.4629,3.39063 11.2746,2.03839 22.2762,5.36139 33.0332,9.27148 7.7136,-3.30198 15.427,-6.60427 23.1406,-9.90625 28.4311,-12.13742 56.8007,-24.42295 85.3223,-36.33984 2.8025,-1.42277 6.1619,-1.64819 9.1406,-0.66016 3.9862,1.53825 7.2678,5.1872 7.9062,9.47461 0.1442,2.45182 -0.2388,4.90696 -0.4609,7.34766 -4.2419,39.72705 -8.7332,79.42855 -13.1504,119.13672 -0.5839,5.00512 -1.0732,10.02325 -1.7031,15.02148 -0.32,1.52618 0.3012,2.98503 0.8262,4.38477 6.1661,15.10507 10.4604,30.97323 12.7167,47.13281 1.2038,8.01197 1.6167,16.11587 1.6993,24.21097 0.1088,23.9625 0.028,47.9261 -0.092,71.8886 -0.09,6.704 0.077,13.4213 -0.3985,20.1133 -1.1901,11.0707 -4.3713,21.917 -9.2129,31.9395 -8.3809,17.4151 -21.994,32.25 -38.5859,42.1523 -8.4187,4.965 -17.5145,8.8796 -27.041,11.1309 -5.0102,1.1653 -10.0808,2.2664 -15.2383,2.4453 -12.6978,0.2046 -25.4001,0.1762 -38.0996,0.2051 -47.8446,0.033 -95.6888,0.055 -143.5332,-0.1055 -4.5937,-0.075 -9.2002,0.081 -13.7813,-0.3301 -13.1054,-1.2776 -26.032,-4.4453 -38.2246,-9.4258 -22.8836,-9.3112 -42.9296,-25.2726 -57.4902,-45.1953 -8.7232,-11.884 -15.4242,-25.2393 -19.7305,-39.3379 -3.1856,-10.505 -5.3052,-21.3827 -5.6738,-32.3711 -0.3224,-8.9907 -0.1627,-17.9897 -0.1992,-26.9843 0.032,-9.0111 0.039,-18.0435 0.8945,-27.0215 2.1896,-22.04273 7.6829,-43.78909 16.5508,-64.10158 0.013,-37.47053 0.035,-74.94158 0.07,-112.41211 0.066,-13.21328 -0.1285,-26.4329 0.3477,-39.64063 -0.1225,-2.34016 0.9822,-4.55868 2.5781,-6.21093 2.0856,-2.44114 5.1245,-4.13899 8.375,-4.20899 0.3244,-0.008 0.6492,-0.0114 0.9727,-0.004 z"
             transform="matrix(0.3886097,0,0,0.3886097,-217.84098,-45.601555)" />
          <path
             id="path3838"
             style="display:inline;opacity:0.671569;fill:#fdc75a;fill-opacity:1;stroke-width:0.105833;stroke-miterlimit:4;stroke-dasharray:none"
             d="m 197.63017,258.01496 c -1.26318,0.0272 -2.44426,0.68688 -3.25476,1.63553 -0.62018,0.64208 -1.0495,1.5047 -1.00189,2.41411 -0.18506,5.13265 -0.10984,10.26961 -0.13533,15.40442 -0.0138,14.56141 -0.0224,29.12281 -0.0275,43.68422 -3.44617,7.89363 -5.58045,16.34469 -6.43134,24.9107 -0.33229,3.48895 -0.33569,6.99861 -0.34819,10.50039 0.0142,3.49539 -0.0477,6.9926 0.0776,10.48647 0.14325,4.27018 0.96745,8.49797 2.20543,12.58033 1.67347,5.47882 4.27747,10.66852 7.66741,15.28678 5.65839,7.74215 13.44807,13.94485 22.34086,17.5633 4.73814,1.93547 9.76177,3.16644 14.85469,3.66294 1.78023,0.15966 3.57034,0.0995 5.35551,0.12853 18.5928,0.0622 37.18575,0.0536 55.77862,0.0408 4.93513,-0.0112 9.8709,-4e-4 14.8054,-0.0799 2.00424,-0.0695 3.97494,-0.49749 5.92195,-0.95034 3.7021,-0.87488 7.2365,-2.39589 10.5081,-4.32533 6.44776,-3.84812 11.73807,-9.6131 14.99498,-16.3808 1.88149,-3.89484 3.1175,-8.10968 3.57999,-12.41184 0.18476,-2.60057 0.12056,-5.21092 0.15551,-7.81616 0.0467,-9.31206 0.0777,-18.62445 0.0354,-27.93653 -0.0321,-3.14583 -0.19286,-6.2957 -0.66065,-9.40923 -0.87685,-6.27977 -2.54506,-12.44603 -4.9413,-18.31601 -0.20402,-0.54395 -0.44544,-1.11102 -0.32109,-1.70411 0.24479,-1.94236 0.4343,-3.89227 0.6612,-5.83731 1.71656,-15.43098 3.46256,-30.85899 5.11102,-46.29731 0.0863,-0.94848 0.2345,-1.90276 0.17846,-2.85556 -0.24812,-1.66613 -1.52266,-3.08416 -3.07175,-3.68194 -1.15756,-0.38396 -2.46305,-0.29625 -3.55213,0.25665 -11.08377,4.63102 -22.10886,9.40523 -33.15746,14.12195 -2.99758,1.28318 -5.99517,2.56635 -8.99275,3.84953 -4.18028,-1.5195 -8.45517,-2.81123 -12.83659,-3.60337 -4.41418,-0.82839 -8.89896,-1.3098 -13.39278,-1.31738 -2.90671,-0.0142 -5.81871,0.0487 -8.71323,0.32779 -5.20477,0.53612 -10.37463,1.48721 -15.40039,2.94979 -1.25938,0.36336 -2.49584,0.80449 -3.75112,1.1781 -0.80681,0.1863 -1.52297,-0.31866 -2.24186,-0.59294 -9.31913,-4.00277 -18.63775,-8.00478 -27.96758,-11.98626 -4.17673,-1.77407 -8.35418,-3.55092 -12.5481,-5.28423 -0.47498,-0.18982 -0.98006,-0.20833 -1.48429,-0.19572 z" />
        </g>
      </g>
      <use
         x="0"
         y="0"
         xlink:href="#g863"
         id="use869"
         width="100%"
         height="100%"
         transform="translate(-629.21742)"
         inkscape:label="right eye" />
    </g>
  </g>
</svg>
