<?xml version="1.0" encoding="UTF-8" standalone="no"?>
<svg
   viewBox="0 0 2048 2048"
   version="1.1"
   id="svg1"
   sodipodi:docname="eyes_neogob_medic.svg"
   inkscape:export-filename="..\..\parts\eyes_neogob_medic.png"
   inkscape:export-xdpi="12"
   inkscape:export-ydpi="12"
   inkscape:version="1.3.2 (091e20e, 2023-11-25, custom)"
   xml:space="preserve"
   xmlns:inkscape="http://www.inkscape.org/namespaces/inkscape"
   xmlns:sodipodi="http://sodipodi.sourceforge.net/DTD/sodipodi-0.dtd"
   xmlns="http://www.w3.org/2000/svg"
   xmlns:svg="http://www.w3.org/2000/svg"><defs
     id="defs1"><inkscape:path-effect
       effect="fillet_chamfer"
       id="path-effect6"
       is_visible="true"
       lpeversion="1"
       nodesatellites_param="F,0,0,1,0,0,0,1 @ F,0,0,1,0,0,0,1 @ F,0,0,1,0,20.354361,0,1 @ F,0,0,1,0,0,0,1 @ F,0,0,1,0,0,0,1 @ F,0,0,1,0,0,0,1 @ F,0,0,1,0,0,0,1 @ F,0,0,1,0,24.171759,0,1 @ F,0,0,1,0,0,0,1 @ F,0,0,1,0,0,0,1 @ F,0,0,1,0,0,0,1 @ F,0,0,1,0,0,0,1 @ F,0,0,1,0,25.130702,0,1 @ F,0,0,1,0,0,0,1 @ F,0,0,1,0,0,0,1 @ F,0,0,1,0,0,0,1 @ F,0,0,1,0,0,0,1 @ F,0,0,1,0,21.036697,0,1 @ F,0,0,1,0,0,0,1 @ F,0,0,1,0,0,0,1"
       radius="0"
       unit="px"
       method="auto"
       mode="F"
       chamfer_steps="1"
       flexible="false"
       use_knot_distance="true"
       apply_no_radius="true"
       apply_with_radius="true"
       only_selected="false"
       hide_knots="false" /><inkscape:path-effect
       effect="fillet_chamfer"
       id="path-effect4"
       is_visible="true"
       lpeversion="1"
       nodesatellites_param="F,0,0,1,0,0,0,1 @ F,0,0,1,0,20.354361,0,1 @ F,0,0,1,0,0,0,1 @ F,0,0,1,0,0,0,1 @ F,0,0,1,0,0,0,1 @ F,0,0,1,0,24.171759,0,1 @ F,0,0,1,0,0,0,1 @ F,0,0,1,0,0,0,1 @ F,0,0,1,0,0,0,1 @ F,0,0,1,0,25.130702,0,1 @ F,0,0,1,0,0,0,1 @ F,0,0,1,0,0,0,1 @ F,0,0,1,0,0,0,1 @ F,0,0,1,0,21.036697,0,1 @ F,0,0,1,0,0,0,1 @ F,0,0,1,0,0,0,1"
       radius="0"
       unit="px"
       method="auto"
       mode="F"
       chamfer_steps="1"
       flexible="false"
       use_knot_distance="true"
       apply_no_radius="true"
       apply_with_radius="true"
       only_selected="false"
       hide_knots="false" /></defs><sodipodi:namedview
     id="namedview1"
     pagecolor="#ffffff"
     bordercolor="#666666"
     borderopacity="1.0"
     inkscape:showpageshadow="2"
     inkscape:pageopacity="0.0"
     inkscape:pagecheckerboard="0"
     inkscape:deskcolor="#d1d1d1"
     inkscape:zoom="0.36181641"
     inkscape:cx="921.73818"
     inkscape:cy="1012.9447"
     inkscape:window-width="1920"
     inkscape:window-height="1001"
     inkscape:window-x="-9"
     inkscape:window-y="-9"
     inkscape:window-maximized="1"
     inkscape:current-layer="svg1" /><style
     id="style1">.iris{fill:#000000}</style><g
     id="g1"
     inkscape:label="neogob"
     style="display:inline"><g
       id="left_eye"
       style="display:inline"
       transform="matrix(1.0126406,0,0,1.0126406,4.900408,-27.46072)"><circle
         id="sclera"
         cx="1226"
         cy="1004"
         r="227"
         fill="#fc5900"
         style="display:inline" /><path
         id="left_eye-9"
         style="display:inline;opacity:1;fill:#000000;fill-opacity:1;stroke-width:0.71809"
         class="iris"
         d="m 1165.4631,886.62049 v 16.73733 a 28.62037,28.62037 125.41984 0 1 -19.2268,27.03491 l -37.6152,13.06979 c -31.0066,10.77358 -59.251,26.426 -59.251,60.53748 0,34.1115 28.2444,71.3111 59.251,60.5375 l 34.0093,-11.8168 a 17.19059,17.19059 35.419862 0 1 22.8327,16.2383 v 52.4206 c 0,32.825 26.426,59.251 60.5365,59.251 34.1106,0 60.5366,-26.426 60.5366,-59.251 v -51.4617 a 25.130702,25.130702 135 0 1 25.1307,-25.1307 l 51.4617,0 c 32.825,0 59.251,-26.426 59.251,-60.53751 0,-34.11151 -26.426,-60.53751 -59.251,-60.53751 h -55.5557 a 21.036697,21.036697 45 0 1 -21.0367,-21.0367 v -16.05499 c 0,-32.82504 -26.426,-59.25103 -60.5366,-59.25103 -34.1105,0 -60.5365,26.42599 -60.5365,59.25103 z"
         inkscape:path-effect="#path-effect4"
         inkscape:original-d="m 1165.4631,886.62049 v 37.09169 l -56.842,19.75034 c -31.0066,10.77358 -59.251,26.426 -59.251,60.53748 0,34.1115 28.2444,71.3111 59.251,60.5375 l 56.842,-19.7503 v 76.5924 c 0,32.825 26.426,59.251 60.5365,59.251 34.1106,0 60.5366,-26.426 60.5366,-59.251 v -76.5924 h 76.5924 c 32.825,0 59.251,-26.426 59.251,-60.53751 0,-34.11151 -26.426,-60.53751 -59.251,-60.53751 h -76.5924 v -37.09169 c 0,-32.82504 -26.426,-59.25103 -60.5366,-59.25103 -34.1105,0 -60.5365,26.42599 -60.5365,59.25103 z"
         sodipodi:nodetypes="scscscscscscscscs" /></g><g
       id="#right_eye"
       style="display:inline"
       transform="matrix(1.0126406,0,0,1.0126406,-641.09959,-27.46072)"
       inkscape:label="right_eye"><circle
         id="circle4"
         cx="1226"
         cy="1004"
         r="227"
         fill="#fc5900"
         style="display:inline;fill:#fefe00;fill-opacity:1" /><path
         id="path4"
         style="display:inline;opacity:1;fill:#000000;fill-opacity:1;stroke-width:0.71809"
         class="iris"
         d="m 1224.7142,827.36946 c -32.8251,0 -59.2511,26.42599 -59.2511,59.25103 l 13.0698,37.61521 a 14.475716,14.475716 125.41987 0 1 -13.6739,19.22682 h -36.4876 c -32.825,0 -59.251,26.426 -59.251,59.25108 v 2.5729 c 0,32.825 26.426,59.251 59.251,59.251 h 32.6702 a 17.190599,17.190599 54.580122 0 1 16.2384,22.8327 l -11.8169,34.0094 c -10.7736,31.0066 26.426,59.251 59.2511,59.251 h 2.571 c 32.825,0 59.251,-26.426 59.251,-59.251 l 11.5021,-33.1035 a 35.336364,35.336364 144.58012 0 1 33.3789,-23.7386 l 31.7114,0 c 32.825,0 59.251,-26.426 59.251,-59.251 v -2.5729 c 0,-32.82508 -26.426,-59.25108 -59.251,-59.25108 h -35.8054 a 29.579781,29.579781 35.419867 0 1 -27.9412,-19.87135 l -12.8458,-36.97068 c -10.7736,-31.00666 -26.426,-59.25103 -59.251,-59.25103 z"
         inkscape:path-effect="#path-effect6"
         inkscape:original-d="m 1224.7142,827.36946 c -32.8251,0 -59.2511,26.42599 -59.2511,59.25103 l 19.7503,56.84203 h -56.842 c -32.825,0 -59.251,26.426 -59.251,59.25108 v 2.5729 c 0,32.825 26.426,59.251 59.251,59.251 h 56.842 l -19.7503,56.8421 c -10.7736,31.0066 26.426,59.251 59.2511,59.251 h 2.571 c 32.825,0 59.251,-26.426 59.251,-59.251 l 19.7503,-56.8421 h 56.8421 c 32.825,0 59.251,-26.426 59.251,-59.251 v -2.5729 c 0,-32.82508 -26.426,-59.25108 -59.251,-59.25108 h -56.8421 l -19.7503,-56.84203 c -10.7736,-31.00666 -26.426,-59.25103 -59.251,-59.25103 z"
         sodipodi:nodetypes="sscsssscsssscsssscsss" /></g></g></svg>
