<?xml version="1.0" encoding="UTF-8" standalone="no"?>
<!-- Created with Inkscape (http://www.inkscape.org/) -->

<svg
   width="2048"
   height="2048"
   viewBox="0 0 2048 2048"
   version="1.1"
   id="svg1"
   sodipodi:docname="front_tire_tracks.svg"
   inkscape:export-filename="../../../front_tire_tracks_2048.png"
   inkscape:export-xdpi="96"
   inkscape:export-ydpi="96"
   inkscape:version="1.3.2 (091e20ef0f, 2023-11-25, custom)"
   xmlns:inkscape="http://www.inkscape.org/namespaces/inkscape"
   xmlns:sodipodi="http://sodipodi.sourceforge.net/DTD/sodipodi-0.dtd"
   xmlns="http://www.w3.org/2000/svg"
   xmlns:svg="http://www.w3.org/2000/svg">
  <sodipodi:namedview
     id="namedview1"
     pagecolor="#505050"
     bordercolor="#ffffff"
     borderopacity="1"
     inkscape:showpageshadow="0"
     inkscape:pageopacity="0"
     inkscape:pagecheckerboard="1"
     inkscape:deskcolor="#505050"
     inkscape:document-units="px"
     inkscape:zoom="0.12661556"
     inkscape:cx="1026.73"
     inkscape:cy="1050.4238"
     inkscape:window-width="1920"
     inkscape:window-height="1008"
     inkscape:window-x="0"
     inkscape:window-y="0"
     inkscape:window-maximized="1"
     inkscape:current-layer="layer1" />
  <defs
     id="defs1" />
  <g
     inkscape:label="Ebene 1"
     inkscape:groupmode="layer"
     id="layer1">
    <a
       id="use285"
       inkscape:tile-x0="502.40471"
       inkscape:tile-y0="1398.6319"
       transform="matrix(1.2822952,1.2822952,-1.5791666,1.5791666,3486.0153,-3380.4563)"
       style="fill:#000000;fill-opacity:0.69999999">
      <path
         style="fill:#000000;fill-opacity:0.69999999;stroke-width:7.37203;stroke-linecap:square"
         d="m 569.05092,1612.7265 -65.54339,0.013 c 0,0 -17.60545,-101.1355 87.86855,-170.6617 68.95049,-45.4506 238.13862,-47.4683 238.01971,-40.3478 l -1.26809,75.9329 c 0,0 -158.66093,-11.9884 -217.22538,48.8192 -34.35582,35.6718 -41.8514,86.245 -41.8514,86.245 z"
         id="path293"
         sodipodi:nodetypes="ccsscscc" />
      <path
         style="fill:#000000;fill-opacity:0.69999999;stroke-width:7.37203;stroke-linecap:square"
         d="m 1000.7941,1701.9836 65.5434,0.013 c 0,0 17.6054,-101.1356 -87.86853,-170.6617 -68.95051,-45.4506 -238.13863,-47.4683 -238.01971,-40.3478 l 1.26809,75.9328 c 0,0 158.66092,-11.9884 217.22539,48.8193 34.35581,35.6717 41.85136,86.245 41.85136,86.245 z"
         id="path294"
         sodipodi:nodetypes="ccsscscc" />
    </a>
    <a
       id="use286"
       inkscape:tile-x0="502.40471"
       inkscape:tile-y0="1398.6319"
       transform="matrix(1.2822952,1.2822952,-1.5791666,1.5791666,3205.0056,-3099.4466)"
       style="fill:#000000;fill-opacity:0.69999999">
      <path
         style="fill:#000000;fill-opacity:0.69999999;stroke-width:7.37203;stroke-linecap:square"
         d="m 569.05092,1612.7265 -65.54339,0.013 c 0,0 -17.60545,-101.1355 87.86855,-170.6617 68.95049,-45.4506 238.13862,-47.4683 238.01971,-40.3478 l -1.26809,75.9329 c 0,0 -158.66093,-11.9884 -217.22538,48.8192 -34.35582,35.6718 -41.8514,86.245 -41.8514,86.245 z"
         id="path295"
         sodipodi:nodetypes="ccsscscc" />
      <path
         style="fill:#000000;fill-opacity:0.69999999;stroke-width:7.37203;stroke-linecap:square"
         d="m 1000.7941,1701.9836 65.5434,0.013 c 0,0 17.6054,-101.1356 -87.86853,-170.6617 -68.95051,-45.4506 -238.13863,-47.4683 -238.01971,-40.3478 l 1.26809,75.9328 c 0,0 158.66092,-11.9884 217.22539,48.8193 34.35581,35.6717 41.85136,86.245 41.85136,86.245 z"
         id="path296"
         sodipodi:nodetypes="ccsscscc" />
    </a>
    <a
       id="use287"
       inkscape:tile-x0="502.40471"
       inkscape:tile-y0="1398.6319"
       transform="matrix(1.2822952,1.2822952,-1.5791666,1.5791666,2923.9958,-2818.4368)"
       style="fill:#000000;fill-opacity:0.69999999">
      <path
         style="fill:#000000;fill-opacity:0.69999999;stroke-width:7.37203;stroke-linecap:square"
         d="m 569.05092,1612.7265 -65.54339,0.013 c 0,0 -17.60545,-101.1355 87.86855,-170.6617 68.95049,-45.4506 238.13862,-47.4683 238.01971,-40.3478 l -1.26809,75.9329 c 0,0 -158.66093,-11.9884 -217.22538,48.8192 -34.35582,35.6718 -41.8514,86.245 -41.8514,86.245 z"
         id="path297"
         sodipodi:nodetypes="ccsscscc" />
      <path
         style="fill:#000000;fill-opacity:0.69999999;stroke-width:7.37203;stroke-linecap:square"
         d="m 1000.7941,1701.9836 65.5434,0.013 c 0,0 17.6054,-101.1356 -87.86853,-170.6617 -68.95051,-45.4506 -238.13863,-47.4683 -238.01971,-40.3478 l 1.26809,75.9328 c 0,0 158.66092,-11.9884 217.22539,48.8193 34.35581,35.6717 41.85136,86.245 41.85136,86.245 z"
         id="path298"
         sodipodi:nodetypes="ccsscscc" />
    </a>
    <a
       id="use288"
       inkscape:tile-x0="502.40471"
       inkscape:tile-y0="1398.6319"
       transform="matrix(1.2822952,1.2822952,-1.5791666,1.5791666,2642.9861,-2537.4271)"
       style="fill:#000000;fill-opacity:0.69999999">
      <path
         style="fill:#000000;fill-opacity:0.69999999;stroke-width:7.37203;stroke-linecap:square"
         d="m 569.05092,1612.7265 -65.54339,0.013 c 0,0 -17.60545,-101.1355 87.86855,-170.6617 68.95049,-45.4506 238.13862,-47.4683 238.01971,-40.3478 l -1.26809,75.9329 c 0,0 -158.66093,-11.9884 -217.22538,48.8192 -34.35582,35.6718 -41.8514,86.245 -41.8514,86.245 z"
         id="path299"
         sodipodi:nodetypes="ccsscscc" />
      <path
         style="fill:#000000;fill-opacity:0.69999999;stroke-width:7.37203;stroke-linecap:square"
         d="m 1000.7941,1701.9836 65.5434,0.013 c 0,0 17.6054,-101.1356 -87.86853,-170.6617 -68.95051,-45.4506 -238.13863,-47.4683 -238.01971,-40.3478 l 1.26809,75.9328 c 0,0 158.66092,-11.9884 217.22539,48.8193 34.35581,35.6717 41.85136,86.245 41.85136,86.245 z"
         id="path300"
         sodipodi:nodetypes="ccsscscc" />
    </a>
    <a
       id="use289"
       inkscape:tile-x0="502.40471"
       inkscape:tile-y0="1398.6319"
       transform="matrix(1.2822952,1.2822952,-1.5791666,1.5791666,2361.9764,-2256.4174)"
       style="fill:#000000;fill-opacity:0.69999999">
      <path
         style="fill:#000000;fill-opacity:0.69999999;stroke-width:7.37203;stroke-linecap:square"
         d="m 569.05092,1612.7265 -65.54339,0.013 c 0,0 -17.60545,-101.1355 87.86855,-170.6617 68.95049,-45.4506 238.13862,-47.4683 238.01971,-40.3478 l -1.26809,75.9329 c 0,0 -158.66093,-11.9884 -217.22538,48.8192 -34.35582,35.6718 -41.8514,86.245 -41.8514,86.245 z"
         id="path301"
         sodipodi:nodetypes="ccsscscc" />
      <path
         style="fill:#000000;fill-opacity:0.69999999;stroke-width:7.37203;stroke-linecap:square"
         d="m 1000.7941,1701.9836 65.5434,0.013 c 0,0 17.6054,-101.1356 -87.86853,-170.6617 -68.95051,-45.4506 -238.13863,-47.4683 -238.01971,-40.3478 l 1.26809,75.9328 c 0,0 158.66092,-11.9884 217.22539,48.8193 34.35581,35.6717 41.85136,86.245 41.85136,86.245 z"
         id="path302"
         sodipodi:nodetypes="ccsscscc" />
    </a>
    <a
       id="use290"
       inkscape:tile-x0="502.40471"
       inkscape:tile-y0="1398.6319"
       transform="matrix(1.2822952,1.2822952,-1.5791666,1.5791666,2080.9667,-1975.4077)"
       style="fill:#000000;fill-opacity:0.69999999">
      <path
         style="fill:#000000;fill-opacity:0.69999999;stroke-width:7.37203;stroke-linecap:square"
         d="m 569.05092,1612.7265 -65.54339,0.013 c 0,0 -17.60545,-101.1355 87.86855,-170.6617 68.95049,-45.4506 238.13862,-47.4683 238.01971,-40.3478 l -1.26809,75.9329 c 0,0 -158.66093,-11.9884 -217.22538,48.8192 -34.35582,35.6718 -41.8514,86.245 -41.8514,86.245 z"
         id="path303"
         sodipodi:nodetypes="ccsscscc" />
      <path
         style="fill:#000000;fill-opacity:0.69999999;stroke-width:7.37203;stroke-linecap:square"
         d="m 1000.7941,1701.9836 65.5434,0.013 c 0,0 17.6054,-101.1356 -87.86853,-170.6617 -68.95051,-45.4506 -238.13863,-47.4683 -238.01971,-40.3478 l 1.26809,75.9328 c 0,0 158.66092,-11.9884 217.22539,48.8193 34.35581,35.6717 41.85136,86.245 41.85136,86.245 z"
         id="path304"
         sodipodi:nodetypes="ccsscscc" />
    </a>
    <a
       id="use291"
       inkscape:tile-x0="502.40471"
       inkscape:tile-y0="1398.6319"
       transform="matrix(1.2822952,1.2822952,-1.5791666,1.5791666,1799.957,-1694.398)"
       style="fill:#000000;fill-opacity:0.69999999">
      <path
         style="fill:#000000;fill-opacity:0.69999999;stroke-width:7.37203;stroke-linecap:square"
         d="m 569.05092,1612.7265 -65.54339,0.013 c 0,0 -17.60545,-101.1355 87.86855,-170.6617 68.95049,-45.4506 238.13862,-47.4683 238.01971,-40.3478 l -1.26809,75.9329 c 0,0 -158.66093,-11.9884 -217.22538,48.8192 -34.35582,35.6718 -41.8514,86.245 -41.8514,86.245 z"
         id="path305"
         sodipodi:nodetypes="ccsscscc" />
      <path
         style="fill:#000000;fill-opacity:0.69999999;stroke-width:7.37203;stroke-linecap:square"
         d="m 1000.7941,1701.9836 65.5434,0.013 c 0,0 17.6054,-101.1356 -87.86853,-170.6617 -68.95051,-45.4506 -238.13863,-47.4683 -238.01971,-40.3478 l 1.26809,75.9328 c 0,0 158.66092,-11.9884 217.22539,48.8193 34.35581,35.6717 41.85136,86.245 41.85136,86.245 z"
         id="path306"
         sodipodi:nodetypes="ccsscscc" />
    </a>
    <a
       id="use292"
       inkscape:tile-x0="502.40471"
       inkscape:tile-y0="1398.6319"
       transform="matrix(1.2822952,1.2822952,-1.5791666,1.5791666,1518.9472,-1413.3882)"
       style="fill:#000000;fill-opacity:0.69999999">
      <path
         style="fill:#000000;fill-opacity:0.69999999;stroke-width:7.37203;stroke-linecap:square"
         d="m 569.05092,1612.7265 -65.54339,0.013 c 0,0 -17.60545,-101.1355 87.86855,-170.6617 68.95049,-45.4506 238.13862,-47.4683 238.01971,-40.3478 l -1.26809,75.9329 c 0,0 -158.66093,-11.9884 -217.22538,48.8192 -34.35582,35.6718 -41.8514,86.245 -41.8514,86.245 z"
         id="path307"
         sodipodi:nodetypes="ccsscscc" />
      <path
         style="fill:#000000;fill-opacity:0.69999999;stroke-width:7.37203;stroke-linecap:square"
         d="m 1000.7941,1701.9836 65.5434,0.013 c 0,0 17.6054,-101.1356 -87.86853,-170.6617 -68.95051,-45.4506 -238.13863,-47.4683 -238.01971,-40.3478 l 1.26809,75.9328 c 0,0 158.66092,-11.9884 217.22539,48.8193 34.35581,35.6717 41.85136,86.245 41.85136,86.245 z"
         id="path308"
         sodipodi:nodetypes="ccsscscc" />
    </a>
  </g>
</svg>
