<svg xmlns="http://www.w3.org/2000/svg" version="2.0" viewBox="0 0 2048 2048">
  <g id="neocat_devil">
    <path id="devil_outline" fill="#1a1a1a" fill-opacity="1" stroke-width=".5" d="M1529 1261c-36 1-68 28-76 63l-10 40c-36 5-67 34-77 69-8 24-6 50-6 75v103a417 417 0 0 0-25 83c-30 31-37 81-17 119-19 36-15 83 12 115 19 22 48 36 77 37 52 51 126 78 198 74 84-1 168 1 251-3 71-10 135-59 163-125 15-34 19-71 18-108 0-48 1-97-10-144-3-16-8-31-14-47 8-51 18-102 23-153 0-30-15-57-38-75a93 93 0 0 0-77-19c-19 4-36 12-54 19 0-21 2-43-3-63-7-27-28-50-54-57-32-9-69 4-88 30a482 482 0 0 0-57 98c-1 2-1 5-4 5l-30 3c-9-32-18-64-29-96a82 82 0 0 0-73-43Z" display="inline"/>
    <path id="devil_fur" fill="#f2725a" fill-opacity="1" stroke-width=".5" d="M1939 1429c-26 4-50 18-75 27l-64 26c-67-27-142-28-210-3-42-17-85-35-128-50-34-4-39 35-36 60v137c-21 40-30 86-33 130-1 23 2 47 6 69 23 92 109 155 204 148 81-1 162 1 243-2 75-10 129-77 124-152 0-62 6-127-20-185-8-11-4-23-2-34 7-47 16-93 22-139 1-17-15-33-31-32Z" display="inline"/>
    <g id="devil_whiskers" stroke="#872a11" stroke-linecap="round" stroke-width="76">
      <path id="devil_whisker_tr" d="m1442 1780-32-15"/>
      <path id="devil_whisker_tl" d="m1858 1781 64-31"/>
      <path id="devil_whisker_br" d="m1410 1861 32-15"/>
      <path id="devil_whisker_bl" d="m1922 1876-64-31"/>
    </g>
    <path id="devil_mouth" fill="none" stroke="#562a13" stroke-linecap="round" stroke-linejoin="round" stroke-width="76" d="m1538 1781 32 64 49-65 63 65 65-64"/>
    <g id="devil_horns" fill="#9b3f32">
      <path id="left_horn"  d="M1511 1558c-17 2-20-16-19-29-1-65 11-151 27-193 6-16 23-9 26 1 2 11 34 123 50 181-1 13-15 22-25 28-18 10-39 14-59 12Z"/>
      <path id="right_horn" d="M1744 1559c-22-3-44-18-46-41 11-80 41-130 54-152s26-44 41-38 7 33 7 83v124c-4 8-23 27-56 24Z"/>
    </g>
    <g id="devil_left_eye">
      <path id="devil_eye_outline" fill="none" stroke="#000" stroke-width="32" d="M1671 1676a55 55 0 0 0 40 25h33l13-2c21-7 33-24 37-41 1-7 3-14 1-21-1-7-5-13-8-19"/>
      <path id="devil_iris" fill="#ffcf50" d="M1773 1625c3 4 6 9 7 15l-1 15c-2 12-11 24-27 29-6 2-8 1-24 1s-18 0-24-2c-8-2-15-7-20-14"/>
    </g>
    <use id="devil_right_eye" href="#devil_left_eye" transform="matrix(-1 0 0 1 3267 0)" />
    <g id="Megaphone">
      <path id="devil_megaphone_outline" d="m1580 1864 13 5c13 3 25 0 35-6 16-11 31-30 39-57 4-29 0-55-7-68s-18-20-31-22l-15-2-183-107c-9-10-20-16-30-19-17-4-33 1-51 15-25 19-49 62-65 116-11 55-9 106 5 132 9 22 24 33 40 35 10 3 22 3 32-3Zm12-31-238 22-20 5c-26-8-34-67-19-135 18-66 50-114 79-108 6 2 11 7 16 14l200 115 15-1c13 2 17 28 13 54-8 26-24 46-38 41Z"/>
      <path id="devil_megaphone_mouthpiece" fill="#e3e3e3" d="M1625 1745c-16-5-32 15-37 40-8 27 0 52 12 55 14 5 30-15 38-41 4-26 0-52-13-54Z"/>
      <path id="devil_megaphone_body" fill="#696969" d="m1611 1746-219-127-56 242 259-27c24-13 33-71 16-88Z"/>
      <path id="devil_megaphone_outside" fill="#e3e3e3" d="M1394 1617c-29-6-61 42-79 108-15 68-7 127 19 135 29 4 64-45 79-111 15-65 7-126-19-132Z"/>
      <path id="devil_megaphone_inside" fill="#2a2a2a" d="M1381 1637c-16-5-44 36-56 92-12 55-8 102 9 107 19 4 44-37 56-92s8-103-9-107Z"/>
    </g>
    <path id="devil_arm" fill="#f2725a" stroke="#000" stroke-linecap="butt" stroke-linejoin="round" stroke-width="72" paint-order="markers stroke fill" d="m1635 1921c-8-19-41-71-41-71-8-15-17-22-28-25l-3 0c-12-2-26 0-40 8-24 13-30 42-21 59l44 76"/>
  </g>
</svg>