<?xml version="1.0" encoding="UTF-8" standalone="no"?>
<svg
   xmlns:dc="http://purl.org/dc/elements/1.1/"
   xmlns:cc="http://creativecommons.org/ns#"
   xmlns:rdf="http://www.w3.org/1999/02/22-rdf-syntax-ns#"
   xmlns:svg="http://www.w3.org/2000/svg"
   xmlns="http://www.w3.org/2000/svg"
   xmlns:xlink="http://www.w3.org/1999/xlink"
   xmlns:sodipodi="http://sodipodi.sourceforge.net/DTD/sodipodi-0.dtd"
   xmlns:inkscape="http://www.inkscape.org/namespaces/inkscape"
   version="1.1"
   viewBox="0 0 2048 2048"
   id="svg30"
   sodipodi:docname="front_litter.svg"
   inkscape:version="1.0.2-2 (e86c870879, 2021-01-15)"
   inkscape:export-filename="../../parts/front_litter.png"
   inkscape:export-xdpi="12"
   inkscape:export-ydpi="12">
  <metadata
     id="metadata34">
    <rdf:RDF>
      <cc:Work
         rdf:about="">
        <dc:format>image/svg+xml</dc:format>
        <dc:type
           rdf:resource="http://purl.org/dc/dcmitype/StillImage" />
      </cc:Work>
    </rdf:RDF>
  </metadata>
  <sodipodi:namedview
     pagecolor="#ffffff"
     bordercolor="#666666"
     borderopacity="1"
     objecttolerance="10"
     gridtolerance="10"
     guidetolerance="10"
     inkscape:pageopacity="0"
     inkscape:pageshadow="2"
     inkscape:window-width="1920"
     inkscape:window-height="1001"
     id="namedview32"
     showgrid="false"
     inkscape:zoom="0.35888672"
     inkscape:cx="1409.6735"
     inkscape:cy="1067.2295"
     inkscape:window-x="-9"
     inkscape:window-y="-9"
     inkscape:window-maximized="1"
     inkscape:current-layer="layer1" />
  <defs
     id="defs4">
    <clipPath
       id="clipPath2763"
       clipPathUnits="userSpaceOnUse">
      <ellipse
         id="ellipse2765"
         cx="97.1"
         cy="460.6"
         fill="#fdc75a"
         stroke="#000"
         stroke-linecap="round"
         stroke-linejoin="round"
         stroke-width="19.1"
         display="inline"
         paint-order="markers stroke fill"
         rx="40.7"
         ry="56.7" />
    </clipPath>
  </defs>
  <style
     id="style6">
    .fur{fill:#e3dedb}.paw{fill:#e9afaf}.outline{stroke:#000}
  </style>
  <g
     id="layer1"
     transform="translate(217.6)"
     inkscape:groupmode="layer">
    <g
       id="baby"
       transform="translate(58.017502,754.45075)"
       inkscape:label="babies">
      <use
         x="0"
         y="0"
         xlink:href="#neocat"
         id="use887"
         width="100%"
         height="100%"
         transform="rotate(-15,824.35282,625.67679)" />
      <use
         x="0"
         y="0"
         xlink:href="#neocat"
         id="use891"
         width="100%"
         height="100%"
         transform="rotate(180,1310.2031,960.11934)" />
      <use
         x="0"
         y="0"
         xlink:href="#neocat"
         id="use889"
         width="100%"
         height="100%"
         transform="matrix(-1,0,0,1,1876.198,-2.7198712)" />
      <use
         x="0"
         y="0"
         xlink:href="#neocat"
         id="use893"
         width="100%"
         height="100%"
         transform="rotate(30,1258.7362,373.6697)" />
      <g
         id="neocat"
         transform="matrix(3.7793,0,0,3.7793,1355.1885,-514.2842)">
        <path
           id="path11524"
           fill="#000000"
           fill-fill-rule="nonzero"
           stroke="#000000"
           stroke-linecap="round"
           stroke-linejoin="round"
           stroke-width="11.1"
           d="m -13,380.7 a 9.2,9.2 0 0 0 -6.8,4 c -1.4,1.8 -2,4.2 -2,6.4 -0.1,4.2 0.2,8.4 0,12.6 0,2.5 0.1,5 -0.1,7.5 a 44,44 0 0 0 -2.5,6.8 c -0.5,0.7 -1.4,0.5 -2,0.9 -4.3,1.6 -7.4,6.3 -6.6,10.9 0.3,2.5 1.6,5 3.6,6.6 0.1,0.7 -0.3,1 -0.8,1.5 a 10.2,10.2 0 0 0 -2.3,11 c 1.3,3.5 4.7,6.2 8.5,6.5 1.4,0 2.6,0 3.8,-0.3 1,-0.2 1.8,-0.7 2.7,-1 0.8,0 1.2,0.9 1.8,1.3 a 33.2,33.2 0 0 0 23.4,8 c 10.3,-0.3 20.6,0.1 31,-0.4 a 20,20 0 0 0 6.7,-1.5 c 2,-0.8 4,-2 5.9,-3.3 0.8,-0.2 1.5,0.5 2.3,0.7 2.8,1 6.2,1.1 8.9,-0.5 4,-2.2 6.4,-7.5 4.9,-12 a 11,11 0 0 0 -6.3,-6.8 c -0.6,-0.7 -0.2,-1.6 -0.3,-2.4 v -2.7 c 0.4,-0.7 1.3,-0.8 1.8,-1.3 a 10,10 0 0 0 5.1,-7.5 c 0.7,-4.8 -2.4,-10 -7.2,-11.2 -0.7,-0.2 -1.8,-0.3 -2,-1.2 -0.5,-1.3 -1.2,-2.7 -0.7,-4.2 1,-6.5 2.4,-13 3,-19.5 -0.2,-5.5 -6.2,-10 -11.5,-8.6 -2.8,0.8 -5.4,2 -8.1,3 -2.8,1 -5.5,2.3 -8.3,3.3 -1.3,-0.2 -2.5,-0.8 -3.8,-1 a 44,44 0 0 0 -23.6,0.6 c -1,-0.1 -2,-0.7 -3,-1 -4.6,-1.9 -9,-3.8 -13.7,-5.1 H -13 Z"
           baseline-shift="baseline"
           clip-rule="nonzero"
           color="#000000"
           color-interpolation="sRGB"
           color-interpolation-filters="linearRGB"
           color-rendering="auto"
           direction="ltr"
           display="inline"
           dominant-baseline="auto"
           font-family="sans-serif"
           font-size="medium"
           font-stretch="normal"
           font-style="normal"
           font-variant="normal"
           font-weight="400"
           image-rendering="auto"
           letter-spacing="normal"
           overflow="visible"
           shape-rendering="auto"
           stop-color="#000000"
           stop-style="line-height:normal;font-variant-ligatures:normal;font-variant-position:normal;font-variant-caps:normal;font-variant-numeric:normal;font-variant-alternates:normal;font-variant-east-asian:normal;font-feature-settings:normal;font-variation-settings:normal;text-indent:0;text-align:start;text-decoration-line:none;text-decoration-style:solid;text-decoration-color:#000;text-transform:none;text-orientation:mixed;white-space:normal;shape-padding:0;shape-margin:0;inline-size:0;isolation:auto;mix-blend-mode:normal;solid-color:#000;solid-opacity:1"
           text-anchor="start"
           text-decoration="none"
           text-rendering="auto"
           vector-effect="none"
           visibility="visible"
           word-spacing="normal"
           writing-mode="lr-tb"
           style="text-decoration:none;text-decoration-line:none" />
        <path
           id="baby_fur"
           fill="#fdc75a"
           stroke-width="0.1"
           d="m 51.3,386 c -3.4,0.6 -6.6,2.5 -9.9,3.6 L 33,393 A 38.3,38.3 0 0 0 5.3,392.6 c -5.7,-2.2 -11.3,-4.6 -17,-6.6 -4.5,-0.4 -5.2,4.6 -4.8,8 v 18 a 45,45 0 0 0 -4.4,17.3 c -0.1,3 0.3,6.2 0.9,9.2 A 25.8,25.8 0 0 0 6.9,458 c 10.7,0 21.5,0.1 32.2,-0.2 a 19.2,19.2 0 0 0 16.4,-20.1 c 0,-8.2 0.8,-16.8 -2.6,-24.6 -1.2,-1.4 -0.6,-3 -0.4,-4.5 1,-6.1 2.1,-12.2 3,-18.4 0,-2.2 -2,-4.3 -4.2,-4.2 z"
           display="inline" />
        <g
           id="whiskers"
           fill="none"
           stroke="#8e5e31"
           stroke-linecap="round"
           stroke-linejoin="round"
           stroke-width="78"
           display="inline"
           transform="matrix(0.06615,0,0,0.06615,-50.3,335.2)">
          <path
             id="path11487"
             stroke-width="152"
             d="M 544,1471 416,1411" />
          <use
             xlink:href="#path11487"
             id="use11492"
             width="100%"
             height="100%"
             x="0"
             y="0"
             transform="matrix(-1,0,0,1,959,191)" />
          <path
             id="path11494"
             stroke-width="152"
             d="m 1630,1347 -254,126" />
          <use
             xlink:href="#path11494"
             id="use11508"
             width="100%"
             height="100%"
             x="0"
             y="0"
             transform="matrix(-1,0,0,1,3006,253)" />
        </g>
        <path
           id="mouth"
           fill="none"
           stroke="#562a13"
           stroke-linecap="round"
           stroke-linejoin="round"
           stroke-width="10.1"
           d="m -1.6,437.9 4.2,8.4 6.4,-8.5 8.4,8.5 8.5,-8.4"
           display="inline" />
        <g
           id="eyes"
           display="inline"
           transform="matrix(0.09922,0,0,0.09922,-78.4,295)">
          <path
             id="left_eye"
             d="m 1067.7,1089 c 54,0 97,43 97,97 v 60 a 97.5,97.5 0 1 1 -195,0 v -60 c 0,-54 44,-97 98,-97 z" />
          <use
             xlink:href="#left_eye"
             id="right_eye"
             width="100%"
             height="100%"
             x="0"
             y="0"
             transform="translate(-278.3)" />
        </g>
      </g>
    </g>
  </g>
</svg>
