<?xml version="1.0" encoding="UTF-8" standalone="no"?>
<svg
   width="2048"
   height="2048"
   viewBox="0 0 2048 2048"
   version="1.1"
   id="svg8"
   inkscape:version="1.3.2 (091e20e, 2023-11-25, custom)"
   xml:space="preserve"
   sodipodi:docname="front_neobot_delivery.svg"
   inkscape:export-filename="../../parts/front_neobot_delivery.png"
   inkscape:export-xdpi="12"
   inkscape:export-ydpi="12"
   xmlns:inkscape="http://www.inkscape.org/namespaces/inkscape"
   xmlns:sodipodi="http://sodipodi.sourceforge.net/DTD/sodipodi-0.dtd"
   xmlns="http://www.w3.org/2000/svg"
   xmlns:svg="http://www.w3.org/2000/svg"
   xmlns:rdf="http://www.w3.org/1999/02/22-rdf-syntax-ns#"
   xmlns:cc="http://creativecommons.org/ns#"
   xmlns:dc="http://purl.org/dc/elements/1.1/"
   xmlns:serif="http://www.serif.com/"><sodipodi:namedview
     id="base"
     pagecolor="#ffffff"
     bordercolor="#666666"
     borderopacity="1.0"
     inkscape:pageopacity="0.0"
     inkscape:pageshadow="2"
     inkscape:zoom="0.35"
     inkscape:cx="948.57143"
     inkscape:cy="1244.2857"
     inkscape:document-units="px"
     inkscape:current-layer="svg8"
     inkscape:document-rotation="0"
     showgrid="false"
     units="px"
     scale-x="1"
     inkscape:showpageshadow="2"
     inkscape:pagecheckerboard="0"
     inkscape:deskcolor="#d1d1d1"
     inkscape:window-width="1920"
     inkscape:window-height="1001"
     inkscape:window-x="-9"
     inkscape:window-y="-9"
     inkscape:window-maximized="1" /><defs
     id="defs2"><inkscape:path-effect
       effect="powerclip"
       id="path-effect17509"
       is_visible="true"
       lpeversion="1"
       inverse="true"
       flatten="false"
       hide_clip="false"
       message="Use fill-rule evenodd on &lt;b&gt;fill and stroke&lt;/b&gt; dialog if no flatten result after convert clip to paths." /><inkscape:path-effect
       effect="powerclip"
       id="path-effect17492"
       is_visible="true"
       lpeversion="1"
       inverse="true"
       flatten="false"
       hide_clip="false"
       message="Use fill-rule evenodd on &lt;b&gt;fill and stroke&lt;/b&gt; dialog if no flatten result after convert clip to paths." /><inkscape:path-effect
       effect="powerclip"
       id="path-effect17482"
       is_visible="true"
       lpeversion="1"
       inverse="true"
       flatten="false"
       hide_clip="false"
       message="Use fill-rule evenodd on &lt;b&gt;fill and stroke&lt;/b&gt; dialog if no flatten result after convert clip to paths." /><inkscape:path-effect
       effect="powermask"
       id="path-effect7"
       is_visible="true"
       lpeversion="1"
       uri="#mask-powermask-path-effect7"
       invert="false"
       hide_mask="false"
       background="true"
       background_color="#ffffffff" /><linearGradient
       id="swatch3"
       inkscape:swatch="solid"><stop
         style="stop-color:#000000;stop-opacity:1;"
         offset="0"
         id="stop3" /></linearGradient><clipPath
       clipPathUnits="userSpaceOnUse"
       id="clipPath11"><ellipse
         style="fill:#d84848;fill-opacity:1;stroke:none;stroke-width:2.53246;stroke-linecap:round;stroke-linejoin:round;stroke-opacity:1"
         id="ellipse11"
         ry="4.6219215"
         rx="4.8717556"
         cy="59.085651"
         cx="33.935734" /></clipPath><clipPath
       clipPathUnits="userSpaceOnUse"
       id="clipPath17488"><path
         style="display:none;fill:none;stroke:none;stroke-width:0.0219128px;stroke-linecap:butt;stroke-linejoin:miter;stroke-opacity:1"
         d="m 72.021239,30.382498 11.80099,5.87171 4.67334,0.680511 0.08141,-15.183025 -10.746163,-1.424681 -8.873728,1.01763 -1.506087,8.833021 z"
         id="path17490" /><path
         id="lpe_path-effect17492"
         style="fill:none;stroke:none;stroke-width:0.0219128px;stroke-linecap:butt;stroke-linejoin:miter;stroke-opacity:1"
         class="powerclip"
         d="M 66.155438,22.148583 H 89.313342 V 45.306487 H 66.155438 Z m 5.865801,8.233915 11.80099,5.87171 4.67334,0.680511 0.08141,-15.183025 -10.746163,-1.424681 -8.873728,1.01763 -1.506087,8.833021 z" /></clipPath><clipPath
       clipPathUnits="userSpaceOnUse"
       id="clipPath17505"><path
         style="display:none;fill:#ff0000;stroke:none;stroke-width:0.0219128px;stroke-linecap:butt;stroke-linejoin:miter;stroke-opacity:1"
         d="M 83.698836,31.075033 71.279018,34.642366 62.259955,29.70756 86.149847,17.185502 Z"
         id="path17507" /><path
         id="lpe_path-effect17509"
         style="display:block;fill:#ff0000;stroke:none;stroke-width:0.0219128px;stroke-linecap:butt;stroke-linejoin:miter;stroke-opacity:1"
         class="powerclip"
         d="M 66.155438,22.148583 H 89.313342 V 45.306487 H 66.155438 Z m 17.543398,8.92645 2.451011,-13.889531 -23.889892,12.522058 9.019063,4.934806 z" /></clipPath><filter
       style="color-interpolation-filters:sRGB"
       inkscape:label="Silhouette"
       id="filter1503"><feFlood
         flood-opacity="1"
         flood-color="rgb(42,152,14)"
         result="flood"
         id="feFlood1497" /><feComposite
         in="flood"
         in2="SourceGraphic"
         operator="in"
         result="composite"
         id="feComposite1499" /><feGaussianBlur
         stdDeviation="0.01"
         id="feGaussianBlur1501" /></filter><filter
       style="color-interpolation-filters:sRGB"
       inkscape:label="Silhouette"
       id="filter1555"><feFlood
         flood-opacity="1"
         flood-color="rgb(0,0,0)"
         result="flood"
         id="feFlood1549" /><feComposite
         in="flood"
         in2="SourceGraphic"
         operator="in"
         result="composite"
         id="feComposite1551" /><feGaussianBlur
         stdDeviation="0.01"
         id="feGaussianBlur1553" /></filter><filter
       style="color-interpolation-filters:sRGB"
       inkscape:label="Silhouette"
       id="filter1482"><feFlood
         flood-opacity="1"
         flood-color="rgb(42,152,14)"
         result="flood"
         id="feFlood1476" /><feComposite
         in="flood"
         in2="SourceGraphic"
         operator="in"
         result="composite"
         id="feComposite1478" /><feGaussianBlur
         stdDeviation="0.01"
         id="feGaussianBlur1480" /></filter><filter
       style="color-interpolation-filters:sRGB"
       inkscape:label="Silhouette"
       id="filter1490"><feFlood
         flood-opacity="1"
         flood-color="rgb(42,152,14)"
         result="flood"
         id="feFlood1484" /><feComposite
         in="flood"
         in2="SourceGraphic"
         operator="in"
         result="composite"
         id="feComposite1486" /><feGaussianBlur
         stdDeviation="0.01"
         id="feGaussianBlur1488" /></filter><inkscape:path-effect
       effect="fillet_chamfer"
       id="path-effect4"
       is_visible="true"
       lpeversion="1"
       nodesatellites_param=""
       radius="0"
       unit="px"
       method="auto"
       mode="F"
       chamfer_steps="1"
       flexible="false"
       use_knot_distance="true"
       apply_no_radius="true"
       apply_with_radius="true"
       only_selected="false"
       hide_knots="false"
       satellites_param="" /><inkscape:path-effect
       effect="fillet_chamfer"
       id="path-effect30-0-3-9"
       is_visible="true"
       lpeversion="1"
       nodesatellites_param=""
       radius="0"
       unit="px"
       method="auto"
       mode="F"
       chamfer_steps="1"
       flexible="false"
       use_knot_distance="true"
       apply_no_radius="true"
       apply_with_radius="true"
       only_selected="false"
       hide_knots="false"
       satellites_param="" /><inkscape:path-effect
       effect="fillet_chamfer"
       id="path-effect30-0-3-9-6"
       is_visible="true"
       lpeversion="1"
       nodesatellites_param=""
       radius="0"
       unit="px"
       method="auto"
       mode="F"
       chamfer_steps="1"
       flexible="false"
       use_knot_distance="true"
       apply_no_radius="true"
       apply_with_radius="true"
       only_selected="false"
       hide_knots="false"
       satellites_param="" /><filter
       id="eye_glow"
       width="4.484494"
       height="2.6798176"
       x="-1.742247"
       y="-0.8399088"><feGaussianBlur
         in="SourceGraphic"
         result="blur1"
         stdDeviation="50"
         id="feGaussianBlur1" /><feGaussianBlur
         in="SourceGraphic"
         result="blur2"
         stdDeviation="25"
         id="feGaussianBlur2" /><feGaussianBlur
         in="SourceGraphic"
         result="blur3"
         stdDeviation="12.5 "
         id="feGaussianBlur3" /><feComposite
         in="SourceGraphic"
         in2="blur1"
         result="comp1"
         id="feComposite3" /><feComposite
         in="comp1"
         in2="blur2"
         result="comp2"
         id="feComposite4" /><feComposite
         in="comp2"
         in2="blur3"
         id="feComposite5" /></filter><inkscape:path-effect
       effect="powerclip"
       id="path-effect17509-5"
       is_visible="true"
       lpeversion="1"
       inverse="true"
       flatten="false"
       hide_clip="false"
       message="Use fill-rule evenodd on &lt;b&gt;fill and stroke&lt;/b&gt; dialog if no flatten result after convert clip to paths." /><inkscape:path-effect
       effect="powerclip"
       id="path-effect17492-9"
       is_visible="true"
       lpeversion="1"
       inverse="true"
       flatten="false"
       hide_clip="false"
       message="Use fill-rule evenodd on &lt;b&gt;fill and stroke&lt;/b&gt; dialog if no flatten result after convert clip to paths." /><inkscape:path-effect
       effect="powerclip"
       id="path-effect17482-1"
       is_visible="true"
       lpeversion="1"
       inverse="true"
       flatten="false"
       hide_clip="false"
       message="Use fill-rule evenodd on &lt;b&gt;fill and stroke&lt;/b&gt; dialog if no flatten result after convert clip to paths." /><inkscape:path-effect
       effect="powermask"
       id="path-effect7-2"
       is_visible="true"
       lpeversion="1"
       uri="#mask-powermask-path-effect7"
       invert="false"
       hide_mask="false"
       background="true"
       background_color="#ffffffff" /><clipPath
       clipPathUnits="userSpaceOnUse"
       id="clipPath11-0"><ellipse
         style="fill:#d84848;fill-opacity:1;stroke:none;stroke-width:2.53246;stroke-linecap:round;stroke-linejoin:round;stroke-opacity:1"
         id="ellipse11-5"
         ry="4.6219215"
         rx="4.8717556"
         cy="59.085651"
         cx="33.935734" /></clipPath><clipPath
       clipPathUnits="userSpaceOnUse"
       id="clipPath17488-1"><path
         style="display:none;fill:none;stroke:none;stroke-width:0.0219128px;stroke-linecap:butt;stroke-linejoin:miter;stroke-opacity:1"
         d="m 72.021239,30.382498 11.80099,5.87171 4.67334,0.680511 0.08141,-15.183025 -10.746163,-1.424681 -8.873728,1.01763 -1.506087,8.833021 z"
         id="path17490-1" /><path
         id="lpe_path-effect17492-3"
         style="fill:none;stroke:none;stroke-width:0.0219128px;stroke-linecap:butt;stroke-linejoin:miter;stroke-opacity:1"
         class="powerclip"
         d="M 66.155438,22.148583 H 89.313342 V 45.306487 H 66.155438 Z m 5.865801,8.233915 11.80099,5.87171 4.67334,0.680511 0.08141,-15.183025 -10.746163,-1.424681 -8.873728,1.01763 -1.506087,8.833021 z" /></clipPath><clipPath
       clipPathUnits="userSpaceOnUse"
       id="clipPath17505-3"><path
         style="display:none;fill:#ff0000;stroke:none;stroke-width:0.0219128px;stroke-linecap:butt;stroke-linejoin:miter;stroke-opacity:1"
         d="M 83.698836,31.075033 71.279018,34.642366 62.259955,29.70756 86.149847,17.185502 Z"
         id="path17507-5" /><path
         id="lpe_path-effect17509-6"
         style="display:block;fill:#ff0000;stroke:none;stroke-width:0.0219128px;stroke-linecap:butt;stroke-linejoin:miter;stroke-opacity:1"
         class="powerclip"
         d="M 66.155438,22.148583 H 89.313342 V 45.306487 H 66.155438 Z m 17.543398,8.92645 2.451011,-13.889531 -23.889892,12.522058 9.019063,4.934806 z" /></clipPath><filter
       style="color-interpolation-filters:sRGB;"
       inkscape:label="Silhouette"
       id="filter1503-5"><feFlood
         flood-opacity="1"
         flood-color="rgb(42,152,14)"
         result="flood"
         id="feFlood1497-2" /><feComposite
         in="flood"
         in2="SourceGraphic"
         operator="in"
         result="composite"
         id="feComposite1499-9" /><feGaussianBlur
         stdDeviation="0.01"
         id="feGaussianBlur1501-9" /></filter><filter
       style="color-interpolation-filters:sRGB;"
       inkscape:label="Silhouette"
       id="filter1555-7"><feFlood
         flood-opacity="1"
         flood-color="rgb(0,0,0)"
         result="flood"
         id="feFlood1549-9" /><feComposite
         in="flood"
         in2="SourceGraphic"
         operator="in"
         result="composite"
         id="feComposite1551-3" /><feGaussianBlur
         stdDeviation="0.01"
         id="feGaussianBlur1553-0" /></filter><filter
       style="color-interpolation-filters:sRGB;"
       inkscape:label="Silhouette"
       id="filter1482-9"><feFlood
         flood-opacity="1"
         flood-color="rgb(42,152,14)"
         result="flood"
         id="feFlood1476-1" /><feComposite
         in="flood"
         in2="SourceGraphic"
         operator="in"
         result="composite"
         id="feComposite1478-2" /><feGaussianBlur
         stdDeviation="0.01"
         id="feGaussianBlur1480-8" /></filter><filter
       style="color-interpolation-filters:sRGB;"
       inkscape:label="Silhouette"
       id="filter1490-5"><feFlood
         flood-opacity="1"
         flood-color="rgb(42,152,14)"
         result="flood"
         id="feFlood1484-2" /><feComposite
         in="flood"
         in2="SourceGraphic"
         operator="in"
         result="composite"
         id="feComposite1486-3" /><feGaussianBlur
         stdDeviation="0.01"
         id="feGaussianBlur1488-9" /></filter><inkscape:path-effect
       effect="fillet_chamfer"
       id="path-effect4-9"
       is_visible="true"
       lpeversion="1"
       nodesatellites_param="F,0,0,1,0,0,0,1 @ F,0,0,1,0,15,0,1 @ F,0,0,1,0,15,0,1 @ F,0,0,1,0,0,0,1"
       radius="0"
       unit="px"
       method="auto"
       mode="F"
       chamfer_steps="1"
       flexible="false"
       use_knot_distance="true"
       apply_no_radius="true"
       apply_with_radius="true"
       only_selected="false"
       hide_knots="false" /><inkscape:path-effect
       effect="fillet_chamfer"
       id="path-effect30-0-3-9-9"
       is_visible="true"
       lpeversion="1"
       nodesatellites_param="F,0,0,1,0,0,0,1 @ F,0,0,1,0,0,0,1 @ F,0,0,1,0,8.2056445,0,1 @ F,0,0,1,0,0,0,1 @ F,0,0,1,0,0,0,1"
       radius="0"
       unit="px"
       method="auto"
       mode="F"
       chamfer_steps="1"
       flexible="false"
       use_knot_distance="true"
       apply_no_radius="true"
       apply_with_radius="true"
       only_selected="false"
       hide_knots="false" /><inkscape:path-effect
       effect="fillet_chamfer"
       id="path-effect30-0-3-9-6-8"
       is_visible="true"
       lpeversion="1"
       nodesatellites_param="F,0,0,1,0,0,0,1 @ F,0,0,1,0,0,0,1 @ F,0,0,1,0,8.2056445,0,1 @ F,0,0,1,0,0,0,1 @ F,0,0,1,0,0,0,1"
       radius="0"
       unit="px"
       method="auto"
       mode="F"
       chamfer_steps="1"
       flexible="false"
       use_knot_distance="true"
       apply_no_radius="true"
       apply_with_radius="true"
       only_selected="false"
       hide_knots="false" /><path
       id="mouth_path"
       d="m 768 1471 a 128 128 0 0 1 256 0 v 130 a 128 128 0 0 1 -256 0 z" /><clipPath
       id="mouth_clip"><use
         href="#mouth_path"
         id="use1-3" /></clipPath><path
       id="mouth_path-0"
       d="m 685 1664 c -43 0 -109 -48 -109 -109 v -27 c 0 -84 86 -184 192 -184 h 308 c 126 0 204 98 204 198 c 0 72 -51 122 -122 122 z" /><clipPath
       clipPathUnits="userSpaceOnUse"
       id="clipPath18"><path
         id="path19"
         d="m 751.4491,1719.7315 c -100.16017,0 -174.47775,-90.711 -165.51748,-191.9742 10.5124,-118.8037 114.9828,-193.4031 210.17419,-193.4031 h 252.45709 c 109.9955,0 205.5333,75.109 218.4331,193.4031 10.6561,97.7195 -52.6382,191.9742 -152.4127,191.9742 z"
         style="display:inline;opacity:1;fill:#a01919;fill-opacity:1;stroke:none;stroke-width:0.999809;stroke-dasharray:none" /></clipPath><clipPath
       id="below_mouth"
       clipPathUnits="userSpaceOnUse"><path
         id="path2-8"
         d="m 610,1334 98,154 c 14,24 47,25 64,4 l 97,-124 125,130 c 14,15 38,16 54,3 l 190,-160 V 0 h 810 V 2048 H 0 V 0 h 610 z" /></clipPath><clipPath
       clipPathUnits="userSpaceOnUse"
       id="clipPath39"><path
         id="path40"
         fill="#cbcbcb"
         stroke="none"
         d="m 384.81287,909.58364 c -44.06652,-0.64331 -87.4897,25.08895 -126.7314,63.68733 A 266.32887,532.65773 0 0 0 137.13986,1218.3707 257.96588,515.93176 0 0 0 116.2324,1448.6744 c 0.32166,78.4834 6.43307,161.4699 29.91375,226.4439 a 161.14826,322.29653 0 0 0 96.81762,132.5211 c 25.73226,11.5795 52.42948,7.7197 78.48339,9.0063 64.65233,0.6433 128.98297,1.2866 193.63527,-0.6433 19.29919,-3.2165 38.59838,-16.726 54.68105,-38.5984 29.91375,-41.1716 44.70979,-113.2219 51.14286,-182.0557 6.75472,-64.3306 4.18149,-129.9479 4.50314,-195.5652 0.32166,-62.4007 -4.18149,-125.4447 -15.1177,-184.6289 -9.32794,-47.6047 -20.5858,-95.8527 -59.50584,-170.4762 -38.59839,-74.62356 -52.42948,-81.05662 -63.36569,-91.99283 -31.52201,-31.52202 -67.22552,-44.38815 -102.60738,-43.10153 z"
         display="inline"
         paint-order="markers stroke fill"
         style="font-variation-settings:'wght' 400;stroke-width:0.454886" /></clipPath></defs><metadata
     id="metadata5"><rdf:RDF><cc:Work
         rdf:about=""><dc:format>image/svg+xml</dc:format><dc:type
           rdf:resource="http://purl.org/dc/dcmitype/StillImage" /><cc:license
           rdf:resource="http://creativecommons.org/licenses/by-nc-sa/4.0/" /></cc:Work><cc:License
         rdf:about="http://creativecommons.org/licenses/by-nc-sa/4.0/"><cc:permits
           rdf:resource="http://creativecommons.org/ns#Reproduction" /><cc:permits
           rdf:resource="http://creativecommons.org/ns#Distribution" /><cc:requires
           rdf:resource="http://creativecommons.org/ns#Notice" /><cc:requires
           rdf:resource="http://creativecommons.org/ns#Attribution" /><cc:prohibits
           rdf:resource="http://creativecommons.org/ns#CommercialUse" /><cc:permits
           rdf:resource="http://creativecommons.org/ns#DerivativeWorks" /><cc:requires
           rdf:resource="http://creativecommons.org/ns#ShareAlike" /></cc:License></rdf:RDF></metadata><path
     style="font-variation-settings:'wght' 400;fill:none;stroke:#000000;stroke-width:88.776;stroke-dasharray:none;paint-order:markers stroke fill"
     d="m 321.33493,1257.3147 c 0,-5.7735 -4.0967,-10.4204 -9.18597,-10.4204 h -42.03417 c -5.08927,0 -9.18596,4.6469 -9.18596,10.4204 l 0.38447,124.084 c -14.05343,-8.6036 -28.90549,-12.2997 -43.68327,-11.7623 -26.43988,-0.386 -52.4927,15.053 -76.03769,38.212 -31.66282,31.5988 -57.185913,83.3231 -72.566103,147.0602 -9.41943,43.5301 -13.71137,90.8072 -12.54447,138.1815 0.19299,47.09 3.85947,96.8828 17.94787,135.867 13.68062,40.1614 34.420253,68.5488 58.091713,79.5131 15.43933,6.9477 31.45656,4.6314 47.0889,5.4034 38.79135,0.386 77.39017,0.7716 116.18152,-0.3864 0.28922,-0.048 0.57776,-0.1457 0.86695,-0.2016 H 1145.9929 V 1747.5783 H 361.4976 c 1.02443,-27.7591 0.35258,-55.7836 0.49002,-83.8214 0.19299,-37.4405 -2.50739,-75.2677 -9.06911,-110.7782 -5.20306,-26.5535 -11.58771,-53.6117 -31.19723,-93.2373 z"
     id="path7" /><path
     id="body"
     fill="#cbcbcb"
     stroke="none"
     d="m 217.63057,1369.6365 c -26.43991,-0.386 -52.49382,15.0534 -76.03884,38.2124 a 159.79732,319.59464 0 0 0 -72.564963,147.0599 154.77953,309.55906 0 0 0 -12.54448,138.1822 c 0.193,47.09 3.85984,96.8819 17.94825,135.8663 a 96.688956,193.37792 0 0 0 58.090573,79.5127 c 15.43936,6.9477 31.45769,4.6318 47.09004,5.4038 38.79139,0.3859 77.38977,0.7719 116.18115,-0.386 11.57952,-1.9299 23.15904,-10.0356 32.80863,-23.1591 17.94825,-24.7029 26.82588,-67.9331 30.68572,-109.2334 4.05283,-38.5983 2.50889,-77.9687 2.70189,-117.3391 0.19299,-37.4404 -2.5089,-75.2668 -9.07063,-110.7773 -5.59676,-28.5629 -12.35148,-57.5117 -35.7035,-102.2858 -23.15904,-44.7741 -31.45769,-48.6339 -38.01942,-55.1957 -18.9132,-18.9132 -40.33531,-26.6328 -61.56442,-25.8609 z"
     display="inline"
     paint-order="markers stroke fill"
     style="font-variation-settings:'wght' 400;stroke-width:0.272932" /><path
     id="light"
     style="fill:#58d3d7;stroke-width:0.385984;paint-order:markers stroke fill"
     d="m 270.11438,1246.8937 h 42.03365 c 5.08927,0 9.18641,4.648 9.18641,10.4215 v 33.3876 c 0,5.7736 -4.09714,10.4216 -9.18641,10.4216 h -42.03365 c -5.08927,0 -9.18642,-4.648 -9.18642,-10.4216 v -33.3876 c 0,-5.7735 4.09715,-10.4215 9.18642,-10.4215 z" /><path
     id="stem"
     style="fill:#a0a0a0;stroke-width:0.385984;paint-order:markers stroke fill"
     d="m 271.38813,1304.0193 h 40.25812 c 5.58109,0 10.07418,4.4242 10.07418,9.9198 v 185.3108 c 0,5.4956 -4.49309,9.9198 -10.07418,9.9198 h -40.25812 c -5.5811,0 -10.07418,-4.4242 -10.07418,-9.9198 v -185.3108 c 0,-5.4956 4.49308,-9.9198 10.07418,-9.9198 z" /><path
     id="rect5"
     style="fill:#cbcbcb;stroke-width:43.1255;stroke-linecap:round;stroke-linejoin:round;paint-order:markers stroke fill"
     d="m 284.07938,1747.5775 h 861.91422 v 165.7086 H 284.07938 Z" /><g
     id="Right-wheel"
     serif:id="Right wheel"
     style="clip-rule:evenodd;fill-rule:evenodd;stroke-linejoin:round;stroke-miterlimit:2"
     transform="matrix(0.6,0,0,0.6,-13.257153,823.88635)">
        <path
   d="m 507.958,1578.2 c 121.073,0 219.374,98.3 219.374,219.38 0,121.09 -98.301,219.39 -219.374,219.39 -121.083,0 -219.384,-98.3 -219.384,-219.39 0,-121.08 98.301,-219.38 219.384,-219.38 z m 0,77.2 c -78.48,0 -142.187,63.71 -142.187,142.18 0,78.48 63.707,142.19 142.187,142.19 78.47,0 142.177,-63.71 142.177,-142.19 0,-78.47 -63.707,-142.18 -142.177,-142.18 z"
   id="path2" />
        
        <path
   d="m 507.958,1655.4 v 284.37"
   style="fill:none;stroke:#a0a0a0;stroke-width:48.248;stroke-linecap:round;stroke-miterlimit:1.5;stroke-opacity:1"
   id="path3" />
        <path
   d="m 384.819,1726.5 246.268,142.17"
   style="fill:none;stroke:#a0a0a0;stroke-width:48.248;stroke-linecap:round;stroke-miterlimit:1.5;stroke-opacity:1"
   id="path4" />
        <path
   d="M 384.819,1868.67 631.087,1726.5"
   style="fill:none;stroke:#a0a0a0;stroke-width:48.248;stroke-linecap:round;stroke-miterlimit:1.5;stroke-opacity:1"
   id="path5" /><path
   id="circle2-0"
   style="fill:none;stroke:#58d3d7;stroke-width:48.248"
   d="m 650.145,1797.58 c 0,37.71 -14.981,73.88 -41.646,100.55 -26.665,26.66 -62.831,41.64 -100.541,41.64 -37.71,0 -73.876,-14.98 -100.541,-41.64 -26.666,-26.67 -41.646,-62.84 -41.646,-100.55 0,-37.71 14.98,-73.87 41.646,-100.54 26.665,-26.66 62.831,-41.64 100.541,-41.64 37.71,0 73.876,14.98 100.541,41.64 26.665,26.67 41.646,62.83 41.646,100.54 z" />
    </g><g
     id="g6"
     clip-path="url(#clipPath39)"
     transform="matrix(0.6,0,0,0.6,-13.257153,823.88635)"><path
       id="visor"
       fill="#353535"
       d="M 28.5608,1397.72 7.37316,1385.89 c -16.47925,-9.92 -29.66266,-20.45 -41.90436,-33.84 -24.9543,-27.61 -40.9628,-62.6 -46.1419,-102.91 -1.8834,-13.07 -2.3542,-19.09 -2.3542,-31.4 0,-47.92 12.2417,-87 36.2543,-119.35 31.0752,-41.15 73.4504,-56.34 127.1257,-45.58 59.1303,14.64 118.8453,38.86 177.9763,72.2 53.675,32.78 96.05,82.36 127.125,148.72 24.013,51.84 36.255,100.84 36.255,148.77 0,12.3 -0.471,17.94 -2.354,29.48 -8.005,52.45 -37.667,74.75 -86.163,66.08 -16.48,-2.8 -6.121,0.76 -160.555,-61.24 z"
       display="inline"
       style="stroke-width:0.552211" /><path
       id="mouth"
       fill="none"
       stroke="#353535"
       stroke-linecap="round"
       stroke-linejoin="round"
       stroke-width="69.015"
       d="m 25.2649,1466.33 45.6711,119.56 59.796,-80.01 73.921,136.2 90.401,-67.6" /><g
       id="eyes"
       clip-path="url(#visor)"><path
         id="left_eye"
         fill="#58d3d7"
         d="m 296.937,1263.07 c -15.984,-6.48 -31.313,-3.96 -42.615,7 -11.303,10.96 -17.652,29.47 -17.652,51.46 v 41.44 c 0,21.99 6.349,45.65 17.652,65.78 11.302,20.14 26.631,35.09 42.615,41.57 15.984,6.49 31.313,3.97 42.615,-6.99 11.302,-10.96 17.652,-29.47 17.652,-51.46 v -41.45 c 0,-21.98 -6.35,-45.65 -17.652,-65.78 -11.302,-20.13 -26.631,-35.08 -42.615,-41.57 z"
         filter="url(#eye_glow)" /></g></g><g
     id="use13"
     serif:id="Right wheel"
     style="clip-rule:evenodd;fill-rule:evenodd;stroke-linejoin:round;stroke-miterlimit:2"
     transform="matrix(0.6,0,0,0.6,-13.257153,823.88635)">
        <path
   d="m 956.351,1578.2 c 121.069,0 219.369,98.3 219.369,219.38 0,121.09 -98.3,219.39 -219.369,219.39 -121.083,0 -219.384,-98.3 -219.384,-219.39 0,-121.08 98.301,-219.38 219.384,-219.38 z m 0,77.2 c -78.48,0 -142.187,63.71 -142.187,142.18 0,78.48 63.707,142.19 142.187,142.19 78.469,0 142.179,-63.71 142.179,-142.19 0,-78.47 -63.71,-142.18 -142.179,-142.18 z"
   id="path36" />
        
        <path
   d="m 956.351,1655.4 v 284.37"
   style="fill:none;stroke:#a0a0a0;stroke-width:48.248;stroke-linecap:round;stroke-miterlimit:1.5;stroke-opacity:1"
   id="path37" />
        <path
   d="m 833.212,1726.5 246.268,142.17"
   style="fill:none;stroke:#a0a0a0;stroke-width:48.248;stroke-linecap:round;stroke-miterlimit:1.5;stroke-opacity:1"
   id="path38" />
        <path
   d="M 833.212,1868.67 1079.48,1726.5"
   style="fill:none;stroke:#a0a0a0;stroke-width:48.248;stroke-linecap:round;stroke-miterlimit:1.5;stroke-opacity:1"
   id="path39" /><path
   id="circle39"
   style="fill:none;stroke:#58d3d7;stroke-width:48.248"
   d="m 1098.54,1797.58 c 0,37.71 -14.98,73.88 -41.65,100.55 -26.66,26.66 -62.829,41.64 -100.539,41.64 -37.71,0 -73.876,-14.98 -100.541,-41.64 -26.666,-26.67 -41.646,-62.84 -41.646,-100.55 0,-37.71 14.98,-73.87 41.646,-100.54 26.665,-26.66 62.831,-41.64 100.541,-41.64 37.71,0 73.879,14.98 100.539,41.64 26.67,26.67 41.65,62.83 41.65,100.54 z" />
    </g><g
     id="use14"
     serif:id="Right wheel"
     style="clip-rule:evenodd;fill-rule:evenodd;stroke-linejoin:round;stroke-miterlimit:2"
     transform="matrix(0.6,0,0,0.6,-13.257153,823.88635)">
        <path
   d="m 1697.17,1578.2 c 121.07,0 219.37,98.3 219.37,219.38 0,121.09 -98.3,219.39 -219.37,219.39 -121.09,0 -219.39,-98.3 -219.39,-219.39 0,-121.08 98.3,-219.38 219.39,-219.38 z m 0,77.2 c -78.48,0 -142.19,63.71 -142.19,142.18 0,78.48 63.71,142.19 142.19,142.19 78.47,0 142.17,-63.71 142.17,-142.19 0,-78.47 -63.7,-142.18 -142.17,-142.18 z"
   id="path32" />
        
        <path
   d="m 1697.17,1655.4 v 284.37"
   style="fill:none;stroke:#a0a0a0;stroke-width:48.248;stroke-linecap:round;stroke-miterlimit:1.5;stroke-opacity:1"
   id="path33" />
        <path
   d="m 1574.03,1726.5 246.26,142.17"
   style="fill:none;stroke:#a0a0a0;stroke-width:48.248;stroke-linecap:round;stroke-miterlimit:1.5;stroke-opacity:1"
   id="path34" />
        <path
   d="M 1574.03,1868.67 1820.29,1726.5"
   style="fill:none;stroke:#a0a0a0;stroke-width:48.248;stroke-linecap:round;stroke-miterlimit:1.5;stroke-opacity:1"
   id="path35" /><path
   id="circle35"
   style="fill:none;stroke:#58d3d7;stroke-width:48.248"
   d="m 1839.35,1797.58 c 0,37.71 -14.98,73.88 -41.64,100.55 -26.67,26.66 -62.83,41.64 -100.54,41.64 -37.71,0 -73.88,-14.98 -100.55,-41.64 -26.66,-26.67 -41.64,-62.84 -41.64,-100.55 0,-37.71 14.98,-73.87 41.64,-100.54 26.67,-26.66 62.84,-41.64 100.55,-41.64 37.71,0 73.87,14.98 100.54,41.64 26.66,26.67 41.64,62.83 41.64,100.54 z" />
    </g><style
     id="style1">
    .mouth{stroke:#37270c}
  </style><style
     id="style1-7">
    .mouth{fill:#a01919}
    .tongue{fill:#d84848}
  </style><style
     id="style1-2">
    .mouth{fill:#a01919}
    .tongue{fill:#d84848}
  </style></svg>
