<svg xmlns="http://www.w3.org/2000/svg" version="1.2" viewBox="0 0 2048 2048">
  <g id="g16" transform="translate(0 -20)">
    <path id="rect24" fill="#000" stroke-width=".2" d="m63 1084-3 1c-6 3-11 9-13 16l-1 14v152c1 11 11 21 22 23h30l8-1c10-3 17-12 18-23l1-22-1-136c0-11-8-21-18-24l-9-1H63z" paint-order="markers stroke fill"/>
    <path id="path17" fill="#dcdcdc" fill-opacity="1" stroke="#000" stroke-dasharray="none" stroke-linecap="round" stroke-linejoin="round" stroke-opacity="1" stroke-width="24" d="M729 1984v-566l120 57v566z"/>
    <rect id="rect1" width="684.3" height="754.2" x="43" y="1230" fill="#cbcbcb" fill-opacity="1" stroke="#000" stroke-dasharray="none" stroke-linejoin="round" stroke-width="24" ry="7.5"/>
    <rect id="rect2" width="680" height="113.8" x="163" y="1928" fill="#cbcbcb" fill-opacity="1" stroke="#000" stroke-dasharray="none" stroke-linejoin="round" stroke-width="24" ry="7.5"/>
    <path id="path5" fill="#dcdcdc" fill-opacity="1" stroke="#000" stroke-dasharray="none" stroke-linecap="round" stroke-linejoin="round" stroke-opacity="1" stroke-width="24" d="M43 1984v-566l120 57v566z"/>
  </g>
  <g id="g24" transform="translate(-8 20)">
    <rect id="light" width="108.5" height="97.4" x="2137" y="572" fill="#58d3d7" stroke-width=".7" paint-order="markers stroke fill" rx="16.5" ry="18.7" transform="translate(-684 860) scale(.35468)"/>
    <rect id="stem" width="108.5" height="368.4" x="2137" y="675" fill="#a0a0a0" stroke-width=".7" paint-order="markers stroke fill" rx="18.1" ry="17.8" transform="translate(-684 860) scale(.35468)"/>
  </g>
  <path id="rect17" fill="#000" fill-opacity=".8" stroke="none" stroke-dasharray="none" stroke-linecap="round" stroke-linejoin="round" stroke-width="12" d="M163 1455h681v452H163z"/>
  <g id="g14" transform="translate(0 -20)">
    <path id="rect3" fill="#0ff" fill-opacity=".2" stroke="#000" stroke-dasharray="none" stroke-linejoin="round" stroke-width="17.2" d="M423 1697h424c34 0 50 19 36 43l-71 115c-14 23-52 42-85 42H312c-33 0-50-19-38-42l64-115c13-24 50-43 85-43z"/>
    <path id="path26" fill="#cbcbcb" fill-opacity="1" stroke="#000" stroke-dasharray="none" stroke-linejoin="round" stroke-width="24" d="m333 1608-171 319h682l197-319Zm90 89h424c34 0 50 19 36 43l-71 115c-14 23-52 42-85 42H312c-33 0-50-19-38-42l64-115c13-24 50-43 85-43z"/>
    <g id="g13">
      <path id="path8" fill="none" stroke="#000" stroke-dasharray="none" stroke-linecap="butt" stroke-linejoin="miter" stroke-opacity="1" stroke-width="24" d="m397 1633 69 26h523l-67-26"/>
      <path id="ellipse9" fill="gray" fill-opacity="1" stroke="#000" stroke-dasharray="none" stroke-linecap="round" stroke-linejoin="round" stroke-width="12" d="M986 1659c-6 11-20 20-29 20-10 0-12-9-5-20 6-11 20-20 29-20 10 0 12 9 5 20z"/>
      <path id="path10" fill="gray" stroke="#000" stroke-dasharray="none" stroke-linecap="butt" stroke-linejoin="miter" stroke-opacity="1" stroke-width="12" d="M957 1679H454l22-40h505"/>
      <path id="path9" fill="gray" fill-opacity="1" stroke="#000" stroke-dasharray="none" stroke-linecap="round" stroke-linejoin="round" stroke-width="12" d="M483 1659c-7 11-19 20-29 20-9 0-12-9-6-20s19-20 28-20c10 0 13 9 7 20z"/>
    </g>
  </g>
  <g id="g15" transform="translate(0 -20)">
    <path id="path7" fill="#cbcbcb" fill-opacity="1" stroke="#000" stroke-dasharray="none" stroke-linecap="round" stroke-linejoin="round" stroke-opacity="1" stroke-width="24" d="M725 1418H43l120 57h682Z"/>
    <ellipse id="path11" cx="-2975.3" cy="3395" fill="gray" fill-opacity="1" stroke="none" stroke-dasharray="none" stroke-linecap="round" stroke-linejoin="round" stroke-width="7.2" opacity="1" rx="46" ry="34.4" transform="matrix(.99584 -.09113 .93824 .346 0 0)"/>
    <use href="#path11" id="use11" x="0" y="0" transform="translate(152)"/>
    <use href="#path11" id="use12" x="0" y="0" transform="translate(304)"/>
    <use href="#path11" id="use13" x="0" y="0" transform="translate(456)"/>
  </g>
  <g id="g23" transform="translate(0 -20)">
    <g id="g19" transform="translate(-27)">
      <circle id="path18" cx="155.7" cy="1329.3" r="62.1" fill="#56d2d6" fill-opacity="1" stroke="none" stroke-dasharray="none" stroke-linecap="round" stroke-linejoin="round" stroke-width="12" opacity="1"/>
      <path id="path19" fill="none" stroke="#1b6b6e" stroke-dasharray="none" stroke-linecap="butt" stroke-linejoin="miter" stroke-opacity="1" stroke-width="8" d="M156 1267v37"/>
    </g>
    <use href="#g19" id="use20" x="0" y="0" transform="rotate(-130 384 1210)"/>
    <use href="#g19" id="use21" x="0" y="0" transform="rotate(50 -455 1459) scale(.45)"/>
    <use href="#g19" id="use22" x="0" y="0" transform="matrix(.45 0 0 .45 476 762)"/>
    <path id="visor" fill="#353535" stroke-width=".3" d="m271 1398-11-1c-9-1-16-3-23-7-14-7-23-18-25-33l-2-12c0-19 7-37 20-54 17-21 40-34 70-38a427 427 0 0 1 97 0c30 4 53 17 70 38 13 17 20 35 20 54l-2 12c-4 22-20 36-47 40-9 2-3 1-88 2z" display="inline"/>
    <text xml:space="preserve" id="text23" fill="#56d2d6" fill-opacity="1" stroke="none" display="inline" font-family="sans-serif" font-size="13.3" font-style="normal" font-weight="normal" letter-spacing="0" style="line-height:1.25;white-space:pre;shape-inside:url(#rect23)" transform="translate(-39 -135)" word-spacing="0"><tspan id="tspan4" x="264" y="1513"><tspan id="tspan3" font-family="DisposableDigi BB" font-size="150" style="-inkscape-font-specification:'DisposableDigi BB, Normal'">6:09</tspan></tspan></text>
  </g>
</svg>
