<?xml version="1.0" encoding="UTF-8" standalone="no"?>
<svg
   version="1.2"
   viewBox="0 0 2048 2048"
   id="svg7"
   sodipodi:docname="front_fries.svg"
   xml:space="preserve"
   inkscape:version="1.3.2 (091e20e, 2023-11-25, custom)"
   xmlns:inkscape="http://www.inkscape.org/namespaces/inkscape"
   xmlns:sodipodi="http://sodipodi.sourceforge.net/DTD/sodipodi-0.dtd"
   xmlns:xlink="http://www.w3.org/1999/xlink"
   xmlns="http://www.w3.org/2000/svg"
   xmlns:svg="http://www.w3.org/2000/svg"><sodipodi:namedview
     id="namedview7"
     pagecolor="#ffffff"
     bordercolor="#666666"
     borderopacity="1.0"
     inkscape:showpageshadow="2"
     inkscape:pageopacity="0.0"
     inkscape:pagecheckerboard="0"
     inkscape:deskcolor="#d1d1d1"
     inkscape:zoom="0.51168567"
     inkscape:cx="918.53266"
     inkscape:cy="1662.1533"
     inkscape:window-width="1920"
     inkscape:window-height="1001"
     inkscape:window-x="-9"
     inkscape:window-y="-9"
     inkscape:window-maximized="1"
     inkscape:current-layer="svg7" /><style
     id="style1">
    .mouth{stroke:#37270c}
  </style><defs
     id="defs3"><inkscape:path-effect
       effect="perspective-envelope"
       up_left_point="625,1285"
       up_right_point="1625,1285"
       down_left_point="350,1460"
       down_right_point="1350,1460"
       id="path-effect17"
       is_visible="true"
       lpeversion="1"
       deform_type="perspective"
       horizontal_mirror="false"
       vertical_mirror="false"
       overflow_perspective="false" /><inkscape:path-effect
       effect="fillet_chamfer"
       id="path-effect16"
       is_visible="true"
       lpeversion="1"
       nodesatellites_param="F,0,0,1,0,0,0,1 @ F,0,0,1,0,88.975307,0,1 @ F,0,0,1,0,82.728536,0,1 @ F,0,0,1,0,0,0,1"
       radius="0"
       unit="px"
       method="auto"
       mode="F"
       chamfer_steps="1"
       flexible="false"
       use_knot_distance="true"
       apply_no_radius="true"
       apply_with_radius="true"
       only_selected="false"
       hide_knots="false" /><inkscape:path-effect
       effect="curvestitching"
       id="path-effect15"
       is_visible="true"
       lpeversion="1"
       count="13"
       startpoint_edge_variation="0;1060753294"
       startpoint_spacing_variation="0;1"
       endpoint_edge_variation="0;1"
       endpoint_spacing_variation="0;1"
       strokepath="M0,0 L1,0"
       prop_scale="1"
       scale_y_rel="false" /><inkscape:path-effect
       effect="curvestitching"
       id="path-effect13"
       is_visible="true"
       lpeversion="1"
       count="13"
       startpoint_edge_variation="0;1060753294"
       startpoint_spacing_variation="0;1"
       endpoint_edge_variation="0;1"
       endpoint_spacing_variation="0;1"
       strokepath="m 16,16 62.09931,11.28048 c 25.81164,4.68874 42.9231,9.76784 42.9173,36.00188 l -0.0108,48.8096 c -0.005,24.39187 -16.0253,27.65364 -40.03231,31.9695 l -62.0642,11.1576"
       prop_scale="1"
       scale_y_rel="true" /><symbol
       id="fry"><path
         fill="#ffaf2d"
         d="m 15 0 l 16 0 c 17 0 32 14 32 32 l 0 368 c 0 18 -15 32 -32 32 l -31 0"
         id="path1" /><path
         fill="#fbcc3e"
         d="m 0 432 l -34 0 c -18 0 -32 -14 -32 -32 l 0 -368 c 0 -18 14 -32 32 -32 l 0 0 l 49 0 z"
         id="path3" /></symbol></defs><g
     id="french_fries"
     clip-path="none"
     transform="translate(1217.1789,233.22576)"
     style="display:inline"><path
       id="path9"
       d="M 402.19024,903.70588 C 224.28881,904.79719 66.438279,1018.9385 58.000787,1228.0008 v 1 l 88.000003,447 c 6.99999,38 41.00004,65 80,65 h 365 c 41.99996,0 78.00001,-30 86,-71 l 87,-442 h -0.19727 l 0.19727,-1 c 0,-182.9998 -136.00019,-306.00001 -326,-322 -11.99999,-0.9375 -23.95045,-1.36767 -35.81055,-1.29492 z"
       style="fill:none;stroke:#000000;stroke-width:64;stroke-linejoin:round;stroke-dasharray:none"
       inkscape:label="outline" /><path
       id="box_back"
       fill="#c1124c"
       d="m 58,1228 88,447 c 7,38 41,65 80,65 h 365 c 42,0 78,-30 86,-71 l 87,-442 C 764,1044 628,921 438,905 246,890 67,1005 58,1228" /><use
       href="#fry"
       transform="rotate(7.36794,-7116.0801,4624.8165)"
       id="use1" /><use
       href="#fry"
       transform="rotate(14.415045,-3660.0766,2994.1381)"
       id="use2" /><use
       href="#fry"
       transform="rotate(-5.7543619,9367.7194,-3255.6904)"
       id="use9" /><use
       href="#fry"
       transform="rotate(-15.191431,3792.6784,-396.2622)"
       id="use8" /><use
       href="#fry"
       transform="rotate(2.6514048,-22268.33,9502.8539)"
       id="use3" /><use
       href="#fry"
       transform="rotate(-11.615163,5708.404,-358.87488)"
       id="use4" /><use
       href="#fry"
       transform="rotate(-4.1459222,16304.069,-3880.8054)"
       id="use5" /><use
       href="#fry"
       transform="rotate(10.813175,-5577.2558,3866.5086)"
       id="use6" /><use
       href="#fry"
       transform="rotate(10.688769,-5952.4484,3490.7778)"
       id="use7" /><path
       id="box_front"
       fill="#ef3837"
       d="m 58,1228 c 0,0 0,1 0,1 l 88,447 c 7,38 41,65 80,65 h 365 c 42,0 78,-30 86,-71 l 87,-442 h -80 c -37,0 -62,23 -68,53 -19,96 -109,168 -203,168 -94,0 -184,-73 -206,-166 -7,-30 -28,-55 -65,-55 z" /><image
       width="260.74875"
       height="260.74875"
       preserveAspectRatio="none"
       xlink:href="../../../../emoji/Volpeon/drgn/drgn_nom_burger_2048.png"
       id="image1"
       x="1793.7333"
       y="1211.979"
       transform="translate(-1513.1068,256.60045)" /></g><style
     id="style2">
    .fur{fill:#e3dedb}.paw{fill:#e9afaf}.outline{stroke:#000}
  </style><g
     id="g16"
     inkscape:label="plate"
     transform="rotate(2.3782701,-11946.853,-6883.3721)"><path
       id="path35"
       style="fill:none;stroke:#000000;stroke-width:32;stroke-linecap:round;stroke-linejoin:round;stroke-dasharray:none"
       d="M 827.73921 1095.6871 C 818.58202 1095.9488 809.65587 1100.2416 803.45627 1108.2466 L 773.45204 1146.986 L 763.65603 1159.6358 C 756.3491 1169.0706 755.1252 1181.9418 759.95211 1192.5932 L 676.31427 1272.4335 L 594.18271 1265.3199 C 576.24987 1263.7667 561.09409 1276.5059 559.54089 1294.4388 L 556.60612 1328.3124 L 553.93226 1359.1961 C 553.42461 1365.0572 554.64001 1370.8083 557.1481 1375.909 C 547.43215 1379.9798 538.70135 1384.0893 532.16405 1388.2494 C 495.69682 1411.4558 513.40144 1433.7122 581.38332 1450.1216 C 649.36518 1466.5311 762.05577 1475.749 894.66388 1475.749 C 1027.272 1475.749 1168.9361 1466.5302 1288.4904 1450.1207 C 1408.0448 1433.7114 1495.6968 1411.4551 1532.1641 1388.2488 C 1568.6313 1365.0424 1550.9266 1342.786 1482.9448 1326.3766 C 1414.9629 1309.9671 1302.2723 1300.7492 1169.6642 1300.7492 C 1148.409 1300.7492 1126.8879 1301.0708 1105.2957 1301.5361 L 1100.1392 1297.5416 L 1158.706 1263.2947 C 1174.2444 1254.2086 1178.758 1234.1925 1170.1766 1219.5173 L 1154.5292 1192.7568 L 1137.3649 1163.4067 C 1128.2787 1147.8683 1109.1277 1142.8498 1093.5895 1151.936 L 990.19678 1212.3958 L 950.84544 1181.9185 C 953.47515 1171.4221 950.75259 1159.8997 943.09 1151.8726 L 921.68596 1129.4485 L 898.20768 1104.8547 C 885.77884 1091.8347 865.98504 1091.3746 852.96493 1103.8035 L 851.62803 1105.0789 L 848.34996 1102.5408 C 842.12384 1097.7189 834.86147 1095.4835 827.73921 1095.6871 z M 860.4072 1275.0406 L 870.15465 1282.5899 L 868.70421 1283.4379 L 862.17773 1282.8411 C 858.42762 1282.4984 854.81035 1282.8139 851.39694 1283.6407 L 860.4072 1275.0406 z " /><path
       style="fill:#ffffff;stroke:#000000;stroke-width:8;stroke-linecap:round;stroke-linejoin:round;stroke-dasharray:none"
       d="m 1532.1643,1388.2491 c -36.4673,23.2064 -124.1193,45.4624 -243.6738,61.8718 -119.5544,16.4095 -261.218,25.6282 -393.8262,25.6282 -132.60825,0 -245.29864,-9.2187 -313.28057,-25.6282 -67.98194,-16.4094 -85.68669,-38.6654 -49.21942,-61.8718 36.46727,-23.2064 124.11935,-45.4624 243.67379,-61.8718 119.55444,-16.4095 261.218,-25.6282 393.8262,-25.6282 132.6082,0 245.2986,9.2187 313.2806,25.6282 67.9819,16.4094 85.6867,38.6654 49.2194,61.8718 z"
       id="path13" /><path
       style="fill:none;stroke:#000000;stroke-width:8;stroke-linecap:round;stroke-linejoin:round;stroke-dasharray:none"
       d="m 1344.3677,1408.2319 c -47.2909,30.0942 -225.0344,54.4904 -397.00122,54.4904 -171.96689,0 -273.03676,-24.3962 -225.74587,-54.4904 47.29091,-30.0942 225.03447,-54.4904 397.00129,-54.4904 171.9669,0 273.0367,24.3962 225.7458,54.4904 z"
       id="path16" /><use
       href="#fry"
       transform="rotate(94.950159,-132.71452,1135.3966)"
       id="use17"
       style="display:inline" /><use
       href="#fry"
       transform="matrix(0.69049216,0.72333988,0.72333988,-0.69049216,609.20238,1427.7413)"
       id="use20"
       style="display:inline" /><use
       href="#fry"
       transform="matrix(-0.61230753,0.79061969,0.79061969,0.61230753,782.6373,1135.1271)"
       id="use19"
       style="display:inline" /><use
       href="#fry"
       transform="matrix(0.50478707,0.86324389,0.86324389,-0.50478707,781.60715,1410.8242)"
       id="use21"
       style="display:inline" /><use
       href="#fry"
       transform="matrix(-0.09099503,0.99585135,0.99585135,0.09099503,824.30577,1345.655)"
       id="use18"
       style="display:inline" /></g></svg>
