<?xml version="1.0" encoding="UTF-8" standalone="no"?>
<svg
   viewBox="0 0 2048 2048"
   version="1.1"
   id="svg954"
   sodipodi:docname="front_neopumpkin.svg"
   inkscape:version="1.3.2 (091e20e, 2023-11-25, custom)"
   inkscape:export-filename="..\png\neopumpkin_wink.png"
   inkscape:export-xdpi="96"
   inkscape:export-ydpi="96"
   xml:space="preserve"
   xmlns:inkscape="http://www.inkscape.org/namespaces/inkscape"
   xmlns:sodipodi="http://sodipodi.sourceforge.net/DTD/sodipodi-0.dtd"
   xmlns="http://www.w3.org/2000/svg"
   xmlns:svg="http://www.w3.org/2000/svg"
   xmlns:rdf="http://www.w3.org/1999/02/22-rdf-syntax-ns#"
   xmlns:cc="http://creativecommons.org/ns#"
   xmlns:dc="http://purl.org/dc/elements/1.1/"><metadata
     id="metadata958"><rdf:RDF><cc:Work
         rdf:about=""><dc:format>image/svg+xml</dc:format><dc:type
           rdf:resource="http://purl.org/dc/dcmitype/StillImage" /></cc:Work></rdf:RDF></metadata><sodipodi:namedview
     pagecolor="#ffffff"
     bordercolor="#666666"
     borderopacity="1"
     objecttolerance="10"
     gridtolerance="10"
     guidetolerance="10"
     inkscape:pageopacity="0"
     inkscape:pageshadow="2"
     inkscape:window-width="1920"
     inkscape:window-height="1001"
     id="namedview956"
     showgrid="false"
     inkscape:zoom="0.26205764"
     inkscape:cx="1150.5102"
     inkscape:cy="898.65726"
     inkscape:window-x="-9"
     inkscape:window-y="-9"
     inkscape:window-maximized="1"
     inkscape:current-layer="svg954"
     inkscape:showpageshadow="2"
     inkscape:pagecheckerboard="0"
     inkscape:deskcolor="#d1d1d1" /><defs
     id="defs917"><inkscape:path-effect
       effect="powerclip"
       id="path-effect3"
       is_visible="true"
       lpeversion="1"
       inverse="true"
       flatten="false"
       hide_clip="false"
       message="Use fill-rule evenodd on &lt;b&gt;fill and stroke&lt;/b&gt; dialog if no flatten result after convert clip to paths." /><inkscape:path-effect
       effect="powermask"
       id="path-effect63"
       is_visible="true"
       lpeversion="1"
       uri="#mask-powermask-path-effect63"
       invert="false"
       hide_mask="false"
       background="true"
       background_color="#ffffffff" /><inkscape:path-effect
       effect="powerclip"
       id="path-effect61"
       is_visible="true"
       lpeversion="1"
       inverse="true"
       flatten="false"
       hide_clip="false"
       message="Use fill-rule evenodd on &lt;b&gt;fill and stroke&lt;/b&gt; dialog if no flatten result after convert clip to paths." /><inkscape:path-effect
       effect="powermask"
       id="path-effect994"
       is_visible="true"
       lpeversion="1"
       uri="#mask-powermask-path-effect994"
       invert="false"
       hide_mask="false"
       background="true"
       background_color="#ffffffff" /><filter
       inkscape:collect="always"
       style="color-interpolation-filters:sRGB"
       id="filter75"
       x="-1.0460792"
       y="-0.49825301"
       width="3.0921584"
       height="1.996506"><feGaussianBlur
         inkscape:collect="always"
         stdDeviation="79.611574"
         id="feGaussianBlur75" /></filter><filter
       inkscape:collect="always"
       style="color-interpolation-filters:sRGB"
       id="filter78"
       x="-0.46492412"
       y="-0.22144579"
       width="1.9298482"
       height="1.4428916"><feGaussianBlur
         inkscape:collect="always"
         stdDeviation="35.382922"
         id="feGaussianBlur78" /></filter><clipPath
       clipPathUnits="userSpaceOnUse"
       id="clipPath79"><path
         fill="#a63701"
         stroke="#a63701"
         stroke-linecap="round"
         stroke-linejoin="round"
         stroke-width="70"
         d="m 1203,541 a 193,77 0 0 1 6,20 193,77 0 0 1 -193,76 193,77 0 0 1 -193,-76 193,77 0 0 1 6,-18 646,646 0 0 0 -407,156 c -152,122 -200,292 -200,467 0,175 33,368 235,521 156,117 355,139 568,139 253,0 522,-46 665,-225 A 699,699 0 0 0 1559,656 584,584 0 0 0 1203,541 Z"
         paint-order="markers fill stroke"
         style="font-variation-settings:'wght' 400"
         id="path80" /></clipPath><clipPath
       clipPathUnits="userSpaceOnUse"
       id="clipPath1"><g
         id="g3"
         style="display:none"><path
           id="path1"
           style="color:#000000;fill:#000000;stroke-linecap:round;stroke-linejoin:round;-inkscape-stroke:none"
           d="m 894.97852,1266.0156 a 44.583609,44.583609 0 0 0 -34.5918,8.7754 L 685.07812,1410.9316 555.51758,1284.1387 A 44.583609,44.583609 0 0 0 479.75781,1316 v 160 a 44.583609,44.583609 0 0 0 13.39844,31.8613 l 157.36328,154 a 44.583609,44.583609 0 0 0 58.52149,3.3477 l 181.01562,-140.5742 224.87886,145.7734 a 44.583609,44.583609 0 0 0 44.6172,2.2461 l 311.4785,-160 A 44.583609,44.583609 0 0 0 1495.2422,1473 v -160 a 44.583609,44.583609 0 0 0 -64.9492,-39.6543 l -288.5196,148.207 -229.79488,-148.9609 a 44.583609,44.583609 0 0 0 -17,-6.5762 z" /><rect
           width="381.15002"
           height="476.09998"
           x="490.47501"
           y="753.65002"
           class="eye"
           ry="178.04999"
           id="rect2"
           style="stroke-width:1.5" /><rect
           width="381.15002"
           height="476.09998"
           x="1066.475"
           y="753.65002"
           class="eye"
           ry="178.04999"
           id="rect3"
           style="stroke-width:1.5" /></g><path
         id="lpe_path-effect3"
         style="display:block"
         class="powerclip"
         d="M 123.96471,12.227675 H 1914.8332 V 1986.8001 H 123.96471 Z M 894.97852,1266.0156 a 44.583609,44.583609 0 0 0 -34.5918,8.7754 L 685.07812,1410.9316 555.51758,1284.1387 A 44.583609,44.583609 0 0 0 479.75781,1316 v 160 a 44.583609,44.583609 0 0 0 13.39844,31.8613 l 157.36328,154 a 44.583609,44.583609 0 0 0 58.52149,3.3477 l 181.01562,-140.5742 224.87886,145.7734 a 44.583609,44.583609 0 0 0 44.6172,2.2461 l 311.4785,-160 A 44.583609,44.583609 0 0 0 1495.2422,1473 v -160 a 44.583609,44.583609 0 0 0 -64.9492,-39.6543 l -288.5196,148.207 -229.79488,-148.9609 a 44.583609,44.583609 0 0 0 -17,-6.5762 z M 668.52499,753.65002 c -98.63969,0 -178.04998,79.4103 -178.04998,178.04999 V 1051.7 c 0,98.6397 79.41029,178.05 178.04998,178.05 h 25.05005 c 98.6397,0 178.04999,-79.4103 178.04999,-178.05 V 931.70001 c 0,-98.63969 -79.41029,-178.04999 -178.04999,-178.04999 z m 576.00001,0 c -98.6397,0 -178.05,79.4103 -178.05,178.04999 V 1051.7 c 0,98.6397 79.4103,178.05 178.05,178.05 h 25.05 c 98.6397,0 178.05,-79.4103 178.05,-178.05 V 931.70001 c 0,-98.63969 -79.4103,-178.04999 -178.05,-178.04999 z" /></clipPath></defs><g
     id="back"
     transform="matrix(0.4,0,0,0.4,1130.6092,1133.942)"><path
       fill="#a63701"
       stroke="#a63701"
       stroke-linecap="round"
       stroke-linejoin="round"
       stroke-width="70"
       d="m 1203,541 a 193,77 0 0 1 6,20 193,77 0 0 1 -193,76 193,77 0 0 1 -193,-76 193,77 0 0 1 6,-18 646,646 0 0 0 -407,156 c -152,122 -200,292 -200,467 0,175 33,368 235,521 156,117 355,139 568,139 253,0 522,-46 665,-225 A 699,699 0 0 0 1559,656 584,584 0 0 0 1203,541 Z"
       paint-order="markers fill stroke"
       style="font-variation-settings:'wght' 400;fill:#4d1900;fill-opacity:1"
       id="path919" /><g
       id="g79"
       clip-path="url(#clipPath79)"><g
         id="g78"
         transform="matrix(4,0,0,4,-2697.1905,-3677.1312)"
         style="filter:url(#filter78)"><path
           id="path76"
           style="display:inline;fill:#ff0000;stroke-width:0.523583"
           d="m 911.70703,1033.9727 c 3.54143,25.6839 8.76007,57.3295 -1.02198,80.269 -9.21047,23.4425 -28.45572,16.8387 -35.70426,-7.4506 -4.93851,-11.2324 -2.75688,-39.3992 -7.7849,-43.1033 -12.72939,24.1464 -12.19861,63.6139 -6.93966,94.4937 3.9677,24.2589 -6.55932,53.1797 -19.78756,46.7989 -11.85971,-5.9432 -15.37467,-33.1785 -14.21224,-54.5372 1.326,-13.3165 -3.55316,-25.4698 -6.21935,-6.8891 -13.19001,43.7592 -15.24769,98.3131 -8.66677,146.9707 2.37308,14.5983 6.51835,32.0676 12.83884,48.28 14.54228,41.2166 37.38959,70.7578 62.67135,76.9973 32.49302,8.9821 67.13126,-19.2545 85.82427,-73.5032 11.97487,-29.9303 18.82627,-67.9796 17.52766,-106.4326 -0.83804,-14.5032 1.29286,-40.9902 -4.63759,-47.5727 -5.13491,18.9864 -6.33102,44.5105 -17.77882,54.7666 -12.05073,17.2633 -28.13313,-7.7154 -24.68175,-35.2445 3.08919,-40.4846 7.11675,-85.6187 -3.54038,-123.2485 -6.56782,-21.8599 -16.83783,-38.3028 -27.88686,-50.5945 z m 74.72655,151.0351 0.13675,0.2109 z m 0.38086,0.6074 0.2012,0.6367 z m 0.73829,2.4473 0.11916,0.6621 z m 1.21485,8.8086 c 0.15968,2.1654 0.10242,1.3888 0,0 z m -180.49024,59.791 c 0.14244,2.8637 0.24373,4.9002 0,0 z m 0.51953,10.2988 c 0.84427,10.6268 1.87704,18.9365 0.26232,3.5994 -0.10349,-1.195 -0.17461,-2.3997 -0.26232,-3.5994 z m 179.39061,14.0958 -0.62685,4.271 z m -177.06443,6.9472 c 0.48518,3.3004 0.33739,2.295 0,0 z m 175.92577,0.6914 c -0.46417,2.7431 -0.66908,3.9543 0,0 z m -171.34765,22.9649 0.24805,0.9238 z m 0.91211,3.1581 c 0.64981,1.7753 0.42432,1.1593 0,0 z m 0.92578,2.4044 0.16602,0.2773 z m 0.35742,0.5644 0.35352,0.2344 z m 36.11524,75.709 c 1.44493,1.6526 1.16003,1.3267 0,0 z" /><path
           id="path77"
           style="fill:#ff6600;stroke-width:0.523583"
           d="m 871.65625,1133.7051 c -8.08497,7.4014 -7.26095,28.3684 -5.85548,42.9404 3.78752,26.7847 14.05754,48.9795 15.68151,77.1021 0.54395,17.4926 -11.73285,31.9259 -18.74986,20.6626 -6.13463,-15.9182 -2.29576,-36.6857 -2.875,-54.7227 -7.40928,2.1685 -10.83884,21.1111 -15.51513,31.8762 -2.53255,8.3028 -8.01744,22.9963 -9.63539,4.7936 -5.65358,-9.0737 -9.38688,18.8638 -11.60671,28.1774 -1.10719,12.0036 -5.18245,27.1335 -3.49245,37.2083 5.92976,15.6815 11.32762,32.2921 17.65265,47.2791 5.60038,10.6778 12.00285,19.6102 18.86451,26.7764 3.7626,4.473 13.67961,12.7923 20.48044,16.0244 32.31118,16.4642 69.51778,-4.4462 90.79101,-56.6174 4.18211,-13.8109 15.05936,-26.6106 8.4668,-40.9647 -3.116,-21.2311 -8.21053,-45.677 -19.90634,-52.5506 -5.00524,-6.7977 -15.12574,-0.5875 -7.68814,11.3294 7.1233,14.4625 -6.12515,28.4832 -12.63036,22.9976 -7.35481,-8.8703 -1.57361,-30.3647 -1.31573,-43.8727 2.1205,-26.0282 5.74088,-55.5904 -1.65349,-79.5739 -1.38374,-8.5475 -14.24711,-24.195 -9.05909,-6.2592 3.63691,13.7636 8.43895,30.8923 4.42292,46.3436 -8.26121,17.0196 -15.37965,-11.9275 -14.81038,-26.7209 0.89383,-11.8053 -4.10398,-20.383 -6.47771,-5.7095 -1.73363,15.9195 -13.03539,28.4861 -14.03102,4.4283 -2.14753,-11.1507 0.0958,-34.3237 -5.98525,-37.341 -1.14556,13.0357 -10.61612,29.1939 -12.4213,7.5151 -1.91288,-5.9997 0.42248,-17.6514 -2.65101,-21.1219 z m 23.00976,99.3105 c 0.17446,-0.021 -0.28039,0.1073 0,0 z m -60.78515,119.832 -0.0391,1.5352 z m 20.13086,40.6485 0.97851,1.1191 z m 4.27148,4.4883 c 2.97667,2.8761 2.97675,2.8761 0,0 z m 9.35938,8.1406 0.27148,0.1992 z" /><path
           d="m 895.30223,1232.9667 c -4.05434,6.3661 0.8339,22.4982 0.11335,32.7165 1.17409,26.7451 -8.51244,53.1967 -21.36541,60.3409 -7.98249,4.6682 -16.71329,-6.2467 -19.04571,-21.5939 -0.0218,-7.5492 -3.16344,-21.8365 -6.92669,-10.4137 -9.52464,16.1771 -15.19832,41.5612 -13.98458,66.4764 3.0187,11.2471 8.99263,18.1868 13.96102,25.7843 18.48232,24.7087 41.49602,35.889 63.5807,29.2549 19.22734,-5.3121 38.01935,-22.2596 51.33844,-50.7896 2.83868,-8.426 0.79522,-19.3739 -0.2424,-28.4348 -0.90977,-7.9294 -5.26282,-27.0108 -8.3626,-11.3309 -3.19323,12.4384 -8.9188,24.6327 -16.25764,25.7707 -6.23935,-1.8668 -11.7753,-11.0532 -12.92361,-23.6966 -2.52577,-21.8141 -2.68185,-45.9303 -9.78809,-64.5016 -4.89115,-12.554 -11.18023,-23.9932 -18.84463,-29.1833 z"
           style="display:inline;fill:#ffcc00;stroke-width:0.523583"
           id="path78" /></g><g
         id="g75"
         transform="matrix(2,0,0,2,-899.06351,-1225.7104)"
         style="filter:url(#filter75)"><path
           id="path73"
           style="display:inline;fill:#ff0000;stroke-width:0.523583"
           d="m 911.70703,1033.9727 c 3.54143,25.6839 8.76007,57.3295 -1.02198,80.269 -9.21047,23.4425 -28.45572,16.8387 -35.70426,-7.4506 -4.93851,-11.2324 -2.75688,-39.3992 -7.7849,-43.1033 -12.72939,24.1464 -12.19861,63.6139 -6.93966,94.4937 3.9677,24.2589 -6.55932,53.1797 -19.78756,46.7989 -11.85971,-5.9432 -15.37467,-33.1785 -14.21224,-54.5372 1.326,-13.3165 -3.55316,-25.4698 -6.21935,-6.8891 -13.19001,43.7592 -15.24769,98.3131 -8.66677,146.9707 2.37308,14.5983 6.51835,32.0676 12.83884,48.28 14.54228,41.2166 37.38959,70.7578 62.67135,76.9973 32.49302,8.9821 67.13126,-19.2545 85.82427,-73.5032 11.97487,-29.9303 18.82627,-67.9796 17.52766,-106.4326 -0.83804,-14.5032 1.29286,-40.9902 -4.63759,-47.5727 -5.13491,18.9864 -6.33102,44.5105 -17.77882,54.7666 -12.05073,17.2633 -28.13313,-7.7154 -24.68175,-35.2445 3.08919,-40.4846 7.11675,-85.6187 -3.54038,-123.2485 -6.56782,-21.8599 -16.83783,-38.3028 -27.88686,-50.5945 z m 74.72655,151.0351 0.13675,0.2109 z m 0.38086,0.6074 0.2012,0.6367 z m 0.73829,2.4473 0.11916,0.6621 z m 1.21485,8.8086 c 0.15968,2.1654 0.10242,1.3888 0,0 z m -180.49024,59.791 c 0.14244,2.8637 0.24373,4.9002 0,0 z m 0.51953,10.2988 c 0.84427,10.6268 1.87704,18.9365 0.26232,3.5994 -0.10349,-1.195 -0.17461,-2.3997 -0.26232,-3.5994 z m 179.39061,14.0958 -0.62685,4.271 z m -177.06443,6.9472 c 0.48518,3.3004 0.33739,2.295 0,0 z m 175.92577,0.6914 c -0.46417,2.7431 -0.66908,3.9543 0,0 z m -171.34765,22.9649 0.24805,0.9238 z m 0.91211,3.1581 c 0.64981,1.7753 0.42432,1.1593 0,0 z m 0.92578,2.4044 0.16602,0.2773 z m 0.35742,0.5644 0.35352,0.2344 z m 36.11524,75.709 c 1.44493,1.6526 1.16003,1.3267 0,0 z" /><path
           id="path74"
           style="fill:#ff6600;stroke-width:0.523583"
           d="m 871.65625,1133.7051 c -8.08497,7.4014 -7.26095,28.3684 -5.85548,42.9404 3.78752,26.7847 14.05754,48.9795 15.68151,77.1021 0.54395,17.4926 -11.73285,31.9259 -18.74986,20.6626 -6.13463,-15.9182 -2.29576,-36.6857 -2.875,-54.7227 -7.40928,2.1685 -10.83884,21.1111 -15.51513,31.8762 -2.53255,8.3028 -8.01744,22.9963 -9.63539,4.7936 -5.65358,-9.0737 -9.38688,18.8638 -11.60671,28.1774 -1.10719,12.0036 -5.18245,27.1335 -3.49245,37.2083 5.92976,15.6815 11.32762,32.2921 17.65265,47.2791 5.60038,10.6778 12.00285,19.6102 18.86451,26.7764 3.7626,4.473 13.67961,12.7923 20.48044,16.0244 32.31118,16.4642 69.51778,-4.4462 90.79101,-56.6174 4.18211,-13.8109 15.05936,-26.6106 8.4668,-40.9647 -3.116,-21.2311 -8.21053,-45.677 -19.90634,-52.5506 -5.00524,-6.7977 -15.12574,-0.5875 -7.68814,11.3294 7.1233,14.4625 -6.12515,28.4832 -12.63036,22.9976 -7.35481,-8.8703 -1.57361,-30.3647 -1.31573,-43.8727 2.1205,-26.0282 5.74088,-55.5904 -1.65349,-79.5739 -1.38374,-8.5475 -14.24711,-24.195 -9.05909,-6.2592 3.63691,13.7636 8.43895,30.8923 4.42292,46.3436 -8.26121,17.0196 -15.37965,-11.9275 -14.81038,-26.7209 0.89383,-11.8053 -4.10398,-20.383 -6.47771,-5.7095 -1.73363,15.9195 -13.03539,28.4861 -14.03102,4.4283 -2.14753,-11.1507 0.0958,-34.3237 -5.98525,-37.341 -1.14556,13.0357 -10.61612,29.1939 -12.4213,7.5151 -1.91288,-5.9997 0.42248,-17.6514 -2.65101,-21.1219 z m 23.00976,99.3105 c 0.17446,-0.021 -0.28039,0.1073 0,0 z m -60.78515,119.832 -0.0391,1.5352 z m 20.13086,40.6485 0.97851,1.1191 z m 4.27148,4.4883 c 2.97667,2.8761 2.97675,2.8761 0,0 z m 9.35938,8.1406 0.27148,0.1992 z" /><path
           d="m 895.30223,1232.9667 c -4.05434,6.3661 0.8339,22.4982 0.11335,32.7165 1.17409,26.7451 -8.51244,53.1967 -21.36541,60.3409 -7.98249,4.6682 -16.71329,-6.2467 -19.04571,-21.5939 -0.0218,-7.5492 -3.16344,-21.8365 -6.92669,-10.4137 -9.52464,16.1771 -15.19832,41.5612 -13.98458,66.4764 3.0187,11.2471 8.99263,18.1868 13.96102,25.7843 18.48232,24.7087 41.49602,35.889 63.5807,29.2549 19.22734,-5.3121 38.01935,-22.2596 51.33844,-50.7896 2.83868,-8.426 0.79522,-19.3739 -0.2424,-28.4348 -0.90977,-7.9294 -5.26282,-27.0108 -8.3626,-11.3309 -3.19323,12.4384 -8.9188,24.6327 -16.25764,25.7707 -6.23935,-1.8668 -11.7753,-11.0532 -12.92361,-23.6966 -2.52577,-21.8141 -2.68185,-45.9303 -9.78809,-64.5016 -4.89115,-12.554 -11.18023,-23.9932 -18.84463,-29.1833 z"
           style="display:inline;fill:#ffcc00;stroke-width:0.523583"
           id="path75" /></g><g
         id="g73"><path
           id="path68"
           style="display:inline;fill:#ff0000;stroke-width:0.523583"
           d="m 911.70703,1033.9727 c 3.54143,25.6839 8.76007,57.3295 -1.02198,80.269 -9.21047,23.4425 -28.45572,16.8387 -35.70426,-7.4506 -4.93851,-11.2324 -2.75688,-39.3992 -7.7849,-43.1033 -12.72939,24.1464 -12.19861,63.6139 -6.93966,94.4937 3.9677,24.2589 -6.55932,53.1797 -19.78756,46.7989 -11.85971,-5.9432 -15.37467,-33.1785 -14.21224,-54.5372 1.326,-13.3165 -3.55316,-25.4698 -6.21935,-6.8891 -13.19001,43.7592 -15.24769,98.3131 -8.66677,146.9707 2.37308,14.5983 6.51835,32.0676 12.83884,48.28 14.54228,41.2166 37.38959,70.7578 62.67135,76.9973 32.49302,8.9821 67.13126,-19.2545 85.82427,-73.5032 11.97487,-29.9303 18.82627,-67.9796 17.52766,-106.4326 -0.83804,-14.5032 1.29286,-40.9902 -4.63759,-47.5727 -5.13491,18.9864 -6.33102,44.5105 -17.77882,54.7666 -12.05073,17.2633 -28.13313,-7.7154 -24.68175,-35.2445 3.08919,-40.4846 7.11675,-85.6187 -3.54038,-123.2485 -6.56782,-21.8599 -16.83783,-38.3028 -27.88686,-50.5945 z m 74.72655,151.0351 0.13675,0.2109 z m 0.38086,0.6074 0.2012,0.6367 z m 0.73829,2.4473 0.11916,0.6621 z m 1.21485,8.8086 c 0.15968,2.1654 0.10242,1.3888 0,0 z m -180.49024,59.791 c 0.14244,2.8637 0.24373,4.9002 0,0 z m 0.51953,10.2988 c 0.84427,10.6268 1.87704,18.9365 0.26232,3.5994 -0.10349,-1.195 -0.17461,-2.3997 -0.26232,-3.5994 z m 179.39061,14.0958 -0.62685,4.271 z m -177.06443,6.9472 c 0.48518,3.3004 0.33739,2.295 0,0 z m 175.92577,0.6914 c -0.46417,2.7431 -0.66908,3.9543 0,0 z m -171.34765,22.9649 0.24805,0.9238 z m 0.91211,3.1581 c 0.64981,1.7753 0.42432,1.1593 0,0 z m 0.92578,2.4044 0.16602,0.2773 z m 0.35742,0.5644 0.35352,0.2344 z m 36.11524,75.709 c 1.44493,1.6526 1.16003,1.3267 0,0 z" /><path
           id="path69"
           style="fill:#ff6600;stroke-width:0.523583"
           d="m 871.65625,1133.7051 c -8.08497,7.4014 -7.26095,28.3684 -5.85548,42.9404 3.78752,26.7847 14.05754,48.9795 15.68151,77.1021 0.54395,17.4926 -11.73285,31.9259 -18.74986,20.6626 -6.13463,-15.9182 -2.29576,-36.6857 -2.875,-54.7227 -7.40928,2.1685 -10.83884,21.1111 -15.51513,31.8762 -2.53255,8.3028 -8.01744,22.9963 -9.63539,4.7936 -5.65358,-9.0737 -9.38688,18.8638 -11.60671,28.1774 -1.10719,12.0036 -5.18245,27.1335 -3.49245,37.2083 5.92976,15.6815 11.32762,32.2921 17.65265,47.2791 5.60038,10.6778 12.00285,19.6102 18.86451,26.7764 3.7626,4.473 13.67961,12.7923 20.48044,16.0244 32.31118,16.4642 69.51778,-4.4462 90.79101,-56.6174 4.18211,-13.8109 15.05936,-26.6106 8.4668,-40.9647 -3.116,-21.2311 -8.21053,-45.677 -19.90634,-52.5506 -5.00524,-6.7977 -15.12574,-0.5875 -7.68814,11.3294 7.1233,14.4625 -6.12515,28.4832 -12.63036,22.9976 -7.35481,-8.8703 -1.57361,-30.3647 -1.31573,-43.8727 2.1205,-26.0282 5.74088,-55.5904 -1.65349,-79.5739 -1.38374,-8.5475 -14.24711,-24.195 -9.05909,-6.2592 3.63691,13.7636 8.43895,30.8923 4.42292,46.3436 -8.26121,17.0196 -15.37965,-11.9275 -14.81038,-26.7209 0.89383,-11.8053 -4.10398,-20.383 -6.47771,-5.7095 -1.73363,15.9195 -13.03539,28.4861 -14.03102,4.4283 -2.14753,-11.1507 0.0958,-34.3237 -5.98525,-37.341 -1.14556,13.0357 -10.61612,29.1939 -12.4213,7.5151 -1.91288,-5.9997 0.42248,-17.6514 -2.65101,-21.1219 z m 23.00976,99.3105 c 0.17446,-0.021 -0.28039,0.1073 0,0 z m -60.78515,119.832 -0.0391,1.5352 z m 20.13086,40.6485 0.97851,1.1191 z m 4.27148,4.4883 c 2.97667,2.8761 2.97675,2.8761 0,0 z m 9.35938,8.1406 0.27148,0.1992 z" /><path
           d="m 895.30223,1232.9667 c -4.05434,6.3661 0.8339,22.4982 0.11335,32.7165 1.17409,26.7451 -8.51244,53.1967 -21.36541,60.3409 -7.98249,4.6682 -16.71329,-6.2467 -19.04571,-21.5939 -0.0218,-7.5492 -3.16344,-21.8365 -6.92669,-10.4137 -9.52464,16.1771 -15.19832,41.5612 -13.98458,66.4764 3.0187,11.2471 8.99263,18.1868 13.96102,25.7843 18.48232,24.7087 41.49602,35.889 63.5807,29.2549 19.22734,-5.3121 38.01935,-22.2596 51.33844,-50.7896 2.83868,-8.426 0.79522,-19.3739 -0.2424,-28.4348 -0.90977,-7.9294 -5.26282,-27.0108 -8.3626,-11.3309 -3.19323,12.4384 -8.9188,24.6327 -16.25764,25.7707 -6.23935,-1.8668 -11.7753,-11.0532 -12.92361,-23.6966 -2.52577,-21.8141 -2.68185,-45.9303 -9.78809,-64.5016 -4.89115,-12.554 -11.18023,-23.9932 -18.84463,-29.1833 z"
           style="display:inline;fill:#ffcc00;stroke-width:0.523583"
           id="path67" /></g></g><path
       fill="#ffffff"
       d="m 824.67194,1498.9657 162,-60 v 407 h -162 z"
       paint-order="markers stroke fill"
       id="path921" /></g><g
     id="pumpkin"
     stroke-linecap="round"
     stroke-linejoin="round"
     stroke-width="70"
     mask="none"
     clip-path="url(#clipPath1)"
     style="display:inline"
     inkscape:path-effect="#path-effect3"
     transform="matrix(0.4,0,0,0.4,1130.6092,1133.942)"><path
       fill="#fb9530"
       stroke="#a63701"
       d="m 1187,594 a 193,77 0 0 0 21,-35 193,77 0 0 0 -5,-18 c 164,11 273,48 407,156 151,122 199,292 199,467 0,175 -33,369 -235,521 -72,55 -154,89 -242,109 l -11,-9 4,-1 a 195,195 0 0 0 27,-9 332,332 0 0 0 91,-50 415,415 0 0 0 108,-117 520,520 0 0 0 66,-139 719,719 0 0 0 33,-152 1027,1027 0 0 0 -17,-341 604,604 0 0 0 -74,-162 483,483 0 0 0 -259,-192 572,572 0 0 0 -103,-23 l -6,-1 z"
       paint-order="markers fill stroke"
       style="font-variation-settings:'wght' 400"
       transform="matrix(1.06933,0,0,1.20892,-71,-268)"
       id="path926"
       inkscape:original-d="m 1187,594 a 193,77 0 0 0 21,-35 193,77 0 0 0 -5,-18 c 164,11 273,48 407,156 151,122 199,292 199,467 0,175 -33,369 -235,521 -72,55 -154,89 -242,109 l -11,-9 4,-1 a 195,195 0 0 0 27,-9 332,332 0 0 0 91,-50 415,415 0 0 0 108,-117 520,520 0 0 0 66,-139 719,719 0 0 0 33,-152 1027,1027 0 0 0 -17,-341 604,604 0 0 0 -74,-162 483,483 0 0 0 -259,-192 572,572 0 0 0 -103,-23 l -6,-1 z" /><path
       fill="#fb9530"
       stroke="#a63701"
       d="m 1191,598 c 0,0 467,34 467,578 0,545 -337,609 -337,609 l -119,25 c 0,0 245,-132 245,-662 0,-531 -307,-534 -307,-534"
       transform="matrix(1.06933,0,0,1.20892,-71,-268)"
       id="path928"
       inkscape:original-d="m 1191,598 c 0,0 467,34 467,578 0,545 -337,609 -337,609 l -119,25 c 0,0 245,-132 245,-662 0,-531 -307,-534 -307,-534" /><path
       fill="#fb9530"
       stroke="#a63701"
       d="m 1080,1818 c 0,0 112,-132 112,-662 0,-531 -112,-546 -112,-546 l 60,4 c 0,0 307,3 307,534 0,530 -245,662 -245,662 z"
       transform="matrix(1.06933,0,0,1.20892,-71,-268)"
       id="path930"
       inkscape:original-d="m 1080,1818 c 0,0 112,-132 112,-662 0,-531 -112,-546 -112,-546 l 60,4 c 0,0 307,3 307,534 0,530 -245,662 -245,662 z" /><path
       fill="#fb9530"
       stroke="#a63701"
       d="m 1073,1824 c 0,0 113,-136 113,-666 0,-531 -113,-546 -113,-546 H 952 c 0,0 -113,15 -113,546 0,530 113,666 113,666 z"
       transform="matrix(1.06933,0,0,1.20892,-71,-268)"
       id="path932"
       inkscape:original-d="m 1073,1824 c 0,0 113,-136 113,-666 0,-531 -113,-546 -113,-546 H 952 c 0,0 -113,15 -113,546 0,530 113,666 113,666 z" /><path
       fill="#fb9530"
       stroke="#a63701"
       d="m 952,1820 c 0,0 -113,-132 -113,-662 0,-531 113,-546 113,-546 l -61,4 c 0,0 -306,3 -306,534 0,530 245,662 245,662 z"
       transform="matrix(1.06933,0,0,1.20892,-71,-268)"
       id="path934"
       inkscape:original-d="m 952,1820 c 0,0 -113,-132 -113,-662 0,-531 113,-546 113,-546 l -61,4 c 0,0 -306,3 -306,534 0,530 245,662 245,662 z" /><path
       fill="#fb9530"
       stroke="#a63701"
       d="m 840,600 c 0,0 -467,33 -467,578 0,545 337,608 337,608 l 120,26 c 0,0 -245,-132 -245,-662 0,-531 306,-534 306,-534"
       transform="matrix(1.06933,0,0,1.20892,-71,-268)"
       id="path936"
       inkscape:original-d="m 840,600 c 0,0 -467,33 -467,578 0,545 337,608 337,608 l 120,26 c 0,0 -245,-132 -245,-662 0,-531 306,-534 306,-534" /><path
       fill="#fb9530"
       stroke="#a63701"
       d="m 844,595 a 193,77 0 0 1 -21,-34 193,77 0 0 1 6,-18 646,646 0 0 0 -407,156 c -152,122 -200,292 -200,467 0,175 33,368 235,521 73,55 155,88 243,109 l 10,-9 -3,-1 a 195,195 0 0 1 -28,-9 332,332 0 0 1 -90,-50 415,415 0 0 1 -109,-117 520,520 0 0 1 -65,-139 719,719 0 0 1 -33,-152 1027,1027 0 0 1 16,-342 605,605 0 0 1 74,-161 483,483 0 0 1 260,-192 572,572 0 0 1 103,-24 h 5 z"
       paint-order="markers fill stroke"
       style="font-variation-settings:'wght' 400"
       transform="matrix(1.06933,0,0,1.20892,-71,-268)"
       id="path938"
       inkscape:original-d="m 844,595 a 193,77 0 0 1 -21,-34 193,77 0 0 1 6,-18 646,646 0 0 0 -407,156 c -152,122 -200,292 -200,467 0,175 33,368 235,521 73,55 155,88 243,109 l 10,-9 -3,-1 a 195,195 0 0 1 -28,-9 332,332 0 0 1 -90,-50 415,415 0 0 1 -109,-117 520,520 0 0 1 -65,-139 719,719 0 0 1 -33,-152 1027,1027 0 0 1 16,-342 605,605 0 0 1 74,-161 483,483 0 0 1 260,-192 572,572 0 0 1 103,-24 h 5 z" /><path
       fill="none"
       stroke="#a63701"
       d="m 1203,541 a 193,77 0 0 1 6,20 193,77 0 0 1 -193,76 193,77 0 0 1 -193,-76 193,77 0 0 1 6,-18 646,646 0 0 0 -407,156 c -152,122 -200,292 -200,467 0,175 33,368 235,521 156,117 355,139 568,139 253,0 522,-46 665,-225 A 699,699 0 0 0 1559,656 584,584 0 0 0 1203,541 Z"
       paint-order="markers fill stroke"
       style="font-variation-settings:'wght' 400"
       transform="matrix(1.06933,0,0,1.20892,-71,-268)"
       id="path940"
       inkscape:original-d="m 1203,541 a 193,77 0 0 1 6,20 193,77 0 0 1 -193,76 193,77 0 0 1 -193,-76 193,77 0 0 1 6,-18 646,646 0 0 0 -407,156 c -152,122 -200,292 -200,467 0,175 33,368 235,521 156,117 355,139 568,139 253,0 522,-46 665,-225 A 699,699 0 0 0 1559,656 584,584 0 0 0 1203,541 Z" /><path
       fill="#00ff00"
       stroke="#008000"
       d="m 829,543 c -4,5 -6,12 -6,18 0,42 87,76 193,76 107,0 193,-34 193,-76 0,-7 -2,-14 -6,-20"
       paint-order="markers fill stroke"
       style="font-variation-settings:'wght' 400"
       transform="matrix(1.06933,0,0,1.20892,-71,-268)"
       id="path942"
       inkscape:original-d="m 829,543 c -4,5 -6,12 -6,18 0,42 87,76 193,76 107,0 193,-34 193,-76 0,-7 -2,-14 -6,-20" /><path
       fill="#0f0"
       stroke="#008000"
       d="m 1203,541 -94,-10 c -92,-34 25,-223 152,-215 48,-25 1,-42 1,-42 C 986,239 982,491 943,529 l -114,14"
       transform="matrix(1.06933,0,0,1.20892,-71,-268)"
       id="path944"
       style="fill:#00ff00;fill-opacity:1"
       inkscape:original-d="m 1203,541 -94,-10 c -92,-34 25,-223 152,-215 48,-25 1,-42 1,-42 C 986,239 982,491 943,529 l -114,14" /></g></svg>
