<?xml version="1.0" encoding="UTF-8" standalone="no"?>
<svg
   version="1.2"
   viewBox="0 0 2048 2048"
   id="svg1"
   sodipodi:docname="front_cauldron.svg"
   xml:space="preserve"
   inkscape:version="1.3.2 (091e20e, 2023-11-25, custom)"
   inkscape:export-filename="..\front_cauldron_2048.png"
   inkscape:export-xdpi="96"
   inkscape:export-ydpi="96"
   xmlns:inkscape="http://www.inkscape.org/namespaces/inkscape"
   xmlns:sodipodi="http://sodipodi.sourceforge.net/DTD/sodipodi-0.dtd"
   xmlns:xlink="http://www.w3.org/1999/xlink"
   xmlns="http://www.w3.org/2000/svg"
   xmlns:svg="http://www.w3.org/2000/svg"><defs
     id="defs1"><linearGradient
       id="linearGradient19"
       inkscape:collect="always"><stop
         style="stop-color:#ffd700;stop-opacity:1;"
         offset="0.21507761"
         id="stop19" /><stop
         style="stop-color:#ff00ff;stop-opacity:1;"
         offset="1"
         id="stop20" /></linearGradient><linearGradient
       id="steam_gradient"
       x1="989.42868"
       x2="989.42868"
       y1="1353.3874"
       y2="848.49677"
       gradientTransform="matrix(0.76429339,0,0,0.9947419,700.63031,248.5162)"
       gradientUnits="userSpaceOnUse"><stop
         id="stop3"
         offset="0"
         stop-color="#fff"
         stop-opacity=".4"
         style="stop-color:#00ced1;stop-opacity:0.40000001;" /><stop
         id="stop4"
         offset="1"
         stop-color="#fff"
         stop-opacity=".1"
         style="stop-color:#00ced1;stop-opacity:0.1;" /></linearGradient><radialGradient
       inkscape:collect="always"
       xlink:href="#linearGradient19"
       id="radialGradient20"
       cx="477.51224"
       cy="1199.6494"
       fx="477.51224"
       fy="1199.6494"
       r="385"
       gradientTransform="matrix(-1,0,0,-0.25444228,955.02448,1841.3225)"
       gradientUnits="userSpaceOnUse" /></defs><sodipodi:namedview
     id="namedview1"
     pagecolor="#ffffff"
     bordercolor="#666666"
     borderopacity="1.0"
     inkscape:showpageshadow="2"
     inkscape:pageopacity="0.0"
     inkscape:pagecheckerboard="0"
     inkscape:deskcolor="#d1d1d1"
     inkscape:zoom="0.36181641"
     inkscape:cx="1836.5668"
     inkscape:cy="1507.6707"
     inkscape:window-width="1920"
     inkscape:window-height="1001"
     inkscape:window-x="-9"
     inkscape:window-y="-9"
     inkscape:window-maximized="1"
     inkscape:current-layer="g1" /><style
     id="style1">
    .paw{fill:#8bb9a0}
    .outline{stroke:#000}
  </style><g
     id="g1"
     transform="matrix(0.47287166,0,0,1.2562748,1591.3739,-530.09907)"><path
       id="right_leg"
       fill="#2e2e2e"
       stroke="#000000"
       stroke-width="24"
       d="m 296,1982 c 0,0 -40,35 -73,49 -34,15 -61,9 -35,-71 z" /><path
       id="left_leg"
       fill="#2e2e2e"
       stroke="#000000"
       stroke-width="24"
       d="m 664,1982 c 0,0 40,35 73,49 34,15 61,9 35,-71 z" /><path
       id="cauldron_interior"
       fill="#333333"
       d="m 479,1457 c -213,0 -385,39 -385,88 0,23 40,45 112,61 73,17 171,26 273,26 102,0 200,-9 272,-26 72,-16 113,-38 113,-61 0,-49 -173,-88 -385,-88 z" /><path
       id="potion"
       fill="#00ff00"
       d="m 103,1536 -7,1 -2,8 c 0,3 0,6 2,10 l 8,10 c 4,3 8,7 14,10 56,34 200,57 361,57 161,0 305,-23 361,-57 10,-6 18,-13 21,-20 l 3,-10 -1,-4 c -5,3 -22,10 -41,1 -23,-11 -44,1 -44,1 0,0 -20,12 -43,1 -23,-11 -43,1 -43,1 0,0 -21,12 -44,1 -5,-3 -11,-4 -16,-5 -15,-1 -27,6 -27,6 0,0 -21,12 -43,1 -23,-11 -44,0 -44,0 0,0 -21,12 -43,0 l -2,-1 c -21,-9 -41,1 -41,1 0,0 -22,11 -44,0 -21,-12 -43,-1 -43,-1 0,0 -14,7 -30,4 -4,-1 -9,-2 -13,-5 -22,-12 -44,-1 -44,-1 0,0 -21,11 -43,-1 -21,-12 -43,-1 -43,-1 0,0 -22,11 -43,-1 -9,-5 -19,-6 -26,-6 z"
       style="fill:#fc8600;fill-opacity:1" /><path
       id="cauldron_exterior"
       fill="#333333"
       stroke="#000000"
       stroke-width="36"
       d="m 118,1575 c -6,26 -19,59 -47,83 -52,43 -77,106 17,214 a 336,336 0 0 0 270,111 h 242 c 55,0 177,-3 270,-111 93,-108 68,-171 17,-214 -28,-24 -41,-57 -47,-83 -19,12 -49,22 -89,31 -72,17 -170,26 -272,26 -102,0 -200,-9 -273,-26 -39,-9 -69,-19 -88,-31 z" /><path
       id="rim"
       fill="none"
       stroke="#000000"
       stroke-width="48"
       d="m 479,1457 c -213,0 -385,39 -385,88 0,23 40,45 112,61 73,17 171,26 273,26 102,0 200,-9 272,-26 72,-16 113,-38 113,-61 0,-49 -173,-88 -385,-88 z"
       style="stroke-width:47.99995202;stroke-dasharray:none" /></g><g
     id="use1"
     transform="matrix(0.53811892,0,0,0.97090208,1201.9281,52.486081)"><path
       id="path7"
       fill="#2e2e2e"
       stroke="#000000"
       stroke-width="24"
       d="m 296,1982 c 0,0 -40,35 -73,49 -34,15 -61,9 -35,-71 z" /><path
       id="path8"
       fill="#2e2e2e"
       stroke="#000000"
       stroke-width="24"
       d="m 664,1982 c 0,0 40,35 73,49 34,15 61,9 35,-71 z" /><path
       id="path9"
       fill="#333333"
       d="m 479,1457 c -213,0 -385,39 -385,88 0,23 40,45 112,61 73,17 171,26 273,26 102,0 200,-9 272,-26 72,-16 113,-38 113,-61 0,-49 -173,-88 -385,-88 z" /><path
       id="path10"
       fill="#00ff00"
       d="m 103,1536 -7,1 -2,8 c 0,3 0,6 2,10 l 8,10 c 4,3 8,7 14,10 56,34 200,57 361,57 161,0 305,-23 361,-57 10,-6 18,-13 21,-20 l 3,-10 -1,-4 c -5,3 -22,10 -41,1 -23,-11 -44,1 -44,1 0,0 -20,12 -43,1 -23,-11 -43,1 -43,1 0,0 -21,12 -44,1 -5,-3 -11,-4 -16,-5 -15,-1 -27,6 -27,6 0,0 -21,12 -43,1 -23,-11 -44,0 -44,0 0,0 -21,12 -43,0 l -2,-1 c -21,-9 -41,1 -41,1 0,0 -22,11 -44,0 -21,-12 -43,-1 -43,-1 0,0 -14,7 -30,4 -4,-1 -9,-2 -13,-5 -22,-12 -44,-1 -44,-1 0,0 -21,11 -43,-1 -21,-12 -43,-1 -43,-1 0,0 -22,11 -43,-1 -9,-5 -19,-6 -26,-6 z"
       style="fill:#00ced1" /><path
       id="steam"
       fill="url(#steam_gradient)"
       d="m 1263.9019,1566.8854 c 0,-27.902 20.9264,-55.804 41.853,-76.7304 20.9264,-27.9021 62.7794,-27.9021 76.7305,-55.8041 20.9264,-55.804 -41.853,-111.6079 -27.9021,-167.4119 20.9265,-69.755 27.9021,-146.4855 125.559,-174.3875 -20.9265,41.853 -20.9265,90.6815 -13.951,139.51 6.9756,34.8775 20.9265,62.7794 41.853,90.6815 20.9265,34.8775 69.755,48.8284 83.706,69.7549 55.8039,62.7795 62.7794,111.608 55.8039,202.2895"
       style="fill:url(#steam_gradient);stroke-width:0.871937"
       transform="matrix(1.8583253,0,0,1.02997,-2233.5734,-54.059088)" /><path
       id="path11"
       fill="#333333"
       stroke="#000000"
       stroke-width="36"
       d="m 118,1575 c -6,26 -19,59 -47,83 -52,43 -77,106 17,214 a 336,336 0 0 0 270,111 h 242 c 55,0 177,-3 270,-111 93,-108 68,-171 17,-214 -28,-24 -41,-57 -47,-83 -19,12 -49,22 -89,31 -72,17 -170,26 -272,26 -102,0 -200,-9 -273,-26 -39,-9 -69,-19 -88,-31 z" /><path
       id="path12"
       fill="none"
       stroke="#000000"
       stroke-width="48"
       d="m 479,1457 c -213,0 -385,39 -385,88 0,23 40,45 112,61 73,17 171,26 273,26 102,0 200,-9 272,-26 72,-16 113,-38 113,-61 0,-49 -173,-88 -385,-88 z" /></g><g
     id="use2"
     transform="matrix(0.46443096,0,0,0.62723886,1533.4181,755.91681)"><path
       id="path1"
       fill="#2e2e2e"
       stroke="#000000"
       stroke-width="24"
       d="m 296,1982 c 0,0 -40,35 -73,49 -34,15 -61,9 -35,-71 z" /><path
       id="path2"
       fill="#2e2e2e"
       stroke="#000000"
       stroke-width="24"
       d="m 664,1982 c 0,0 40,35 73,49 34,15 61,9 35,-71 z" /><path
       id="path3"
       fill="#333333"
       d="m 479,1457 c -213,0 -385,39 -385,88 0,23 40,45 112,61 73,17 171,26 273,26 102,0 200,-9 272,-26 72,-16 113,-38 113,-61 0,-49 -173,-88 -385,-88 z" /><path
       id="path4"
       fill="#00ff00"
       d="m 103,1536 -7,1 -2,8 c 0,3 0,6 2,10 l 8,10 c 4,3 8,7 14,10 56,34 200,57 361,57 161,0 305,-23 361,-57 10,-6 18,-13 21,-20 l 3,-10 -1,-4 c -5,3 -22,10 -41,1 -23,-11 -44,1 -44,1 0,0 -20,12 -43,1 -23,-11 -43,1 -43,1 0,0 -21,12 -44,1 -5,-3 -11,-4 -16,-5 -15,-1 -27,6 -27,6 0,0 -21,12 -43,1 -23,-11 -44,0 -44,0 0,0 -21,12 -43,0 l -2,-1 c -21,-9 -41,1 -41,1 0,0 -22,11 -44,0 -21,-12 -43,-1 -43,-1 0,0 -14,7 -30,4 -4,-1 -9,-2 -13,-5 -22,-12 -44,-1 -44,-1 0,0 -21,11 -43,-1 -21,-12 -43,-1 -43,-1 0,0 -22,11 -43,-1 -9,-5 -19,-6 -26,-6 z"
       style="fill:url(#radialGradient20)" /><path
       id="path5"
       fill="#333333"
       stroke="#000000"
       stroke-width="36"
       d="m 118,1575 c -6,26 -19,59 -47,83 -52,43 -77,106 17,214 a 336,336 0 0 0 270,111 h 242 c 55,0 177,-3 270,-111 93,-108 68,-171 17,-214 -28,-24 -41,-57 -47,-83 -19,12 -49,22 -89,31 -72,17 -170,26 -272,26 -102,0 -200,-9 -273,-26 -39,-9 -69,-19 -88,-31 z" /><path
       id="path6"
       fill="none"
       stroke="#000000"
       stroke-width="48"
       d="m 479,1457 c -213,0 -385,39 -385,88 0,23 40,45 112,61 73,17 171,26 273,26 102,0 200,-9 272,-26 72,-16 113,-38 113,-61 0,-49 -173,-88 -385,-88 z" /></g><g
     id="g19"
     style="fill:#fc8600;fill-opacity:1"><circle
       style="opacity:1;fill:#fc8600;stroke:none;stroke-width:55.494;stroke-linecap:round;stroke-dasharray:none;fill-opacity:1"
       id="path13"
       cx="1745.212"
       cy="1330.8951"
       r="43.972309" /><circle
       style="opacity:1;fill:#fc8600;stroke:none;stroke-width:36.996;stroke-linecap:round;stroke-dasharray:none;fill-opacity:1"
       id="circle13"
       cx="1809.7047"
       cy="1242.9506"
       r="29.314873" /><circle
       style="opacity:1;fill:#fc8600;stroke:none;stroke-width:55.494;stroke-linecap:round;stroke-dasharray:none;fill-opacity:1"
       id="circle14"
       cx="1866.3801"
       cy="1358.2557"
       r="43.972309" /><circle
       style="opacity:1;fill:#fc8600;stroke:none;stroke-width:16.0316;stroke-linecap:round;stroke-dasharray:none;fill-opacity:1"
       id="circle15"
       cx="1966.0507"
       cy="1286.9229"
       r="12.703112" /><circle
       style="opacity:1;fill:#fc8600;stroke:none;stroke-width:32.0632;stroke-linecap:round;stroke-dasharray:none;fill-opacity:1"
       id="circle16"
       cx="1900.5808"
       cy="1238.0647"
       r="25.406223" /><circle
       style="opacity:1;fill:#fc8600;stroke:none;stroke-width:28.3636;stroke-linecap:round;stroke-dasharray:none;fill-opacity:1"
       id="circle17"
       cx="1736.8743"
       cy="1132.5312"
       r="22.474735" /><circle
       style="opacity:1;fill:#fc8600;stroke:none;stroke-width:22.1976;stroke-linecap:round;stroke-dasharray:none;fill-opacity:1"
       id="circle18"
       cx="1682.6736"
       cy="1240.0192"
       r="17.588924" /><circle
       style="opacity:1;fill:#fc8600;stroke:none;stroke-width:18.498;stroke-linecap:round;stroke-dasharray:none;fill-opacity:1"
       id="circle19"
       cx="1858.5629"
       cy="1157.9374"
       r="14.657436" /></g></svg>
