<?xml version="1.0" encoding="UTF-8" standalone="no"?>
<svg
   width="2048"
   height="2048"
   viewBox="0 0 2048 2048"
   version="1.1"
   id="svg8"
   inkscape:version="1.3.2 (091e20e, 2023-11-25, custom)"
   xml:space="preserve"
   sodipodi:docname="hat_remlit_ears.svg"
   xmlns:inkscape="http://www.inkscape.org/namespaces/inkscape"
   xmlns:sodipodi="http://sodipodi.sourceforge.net/DTD/sodipodi-0.dtd"
   xmlns="http://www.w3.org/2000/svg"
   xmlns:svg="http://www.w3.org/2000/svg"
   xmlns:rdf="http://www.w3.org/1999/02/22-rdf-syntax-ns#"
   xmlns:cc="http://creativecommons.org/ns#"
   xmlns:dc="http://purl.org/dc/elements/1.1/"><defs
     id="defs2"><style
       id="style1">.cls-1{fill:#ebdab5;stroke-width:4px;}.cls-1,.cls-3{stroke:#000;stroke-miterlimit:10;}.cls-2{fill:#ab7e59;}.cls-4{fill:none;stroke:#492c1b;stroke-linecap:round;stroke-linejoin:round;stroke-width:2px;}</style></defs><sodipodi:namedview
     id="base"
     pagecolor="#ffffff"
     bordercolor="#666666"
     borderopacity="1.0"
     inkscape:pageopacity="0.0"
     inkscape:pageshadow="2"
     inkscape:zoom="0.24748737"
     inkscape:cx="1066.7211"
     inkscape:cy="923.27943"
     inkscape:document-units="px"
     inkscape:current-layer="layer1"
     inkscape:document-rotation="0"
     showgrid="false"
     units="px"
     scale-x="1"
     inkscape:showpageshadow="2"
     inkscape:pagecheckerboard="0"
     inkscape:deskcolor="#d1d1d1"
     inkscape:window-width="1920"
     inkscape:window-height="1001"
     inkscape:window-x="-9"
     inkscape:window-y="-9"
     inkscape:window-maximized="1" /><metadata
     id="metadata5"><rdf:RDF><cc:Work
         rdf:about=""><dc:format>image/svg+xml</dc:format><dc:type
           rdf:resource="http://purl.org/dc/dcmitype/StillImage" /><cc:license
           rdf:resource="http://creativecommons.org/licenses/by-nc-sa/4.0/" /></cc:Work><cc:License
         rdf:about="http://creativecommons.org/licenses/by-nc-sa/4.0/"><cc:permits
           rdf:resource="http://creativecommons.org/ns#Reproduction" /><cc:permits
           rdf:resource="http://creativecommons.org/ns#Distribution" /><cc:requires
           rdf:resource="http://creativecommons.org/ns#Notice" /><cc:requires
           rdf:resource="http://creativecommons.org/ns#Attribution" /><cc:prohibits
           rdf:resource="http://creativecommons.org/ns#CommercialUse" /><cc:permits
           rdf:resource="http://creativecommons.org/ns#DerivativeWorks" /><cc:requires
           rdf:resource="http://creativecommons.org/ns#ShareAlike" /></cc:License></rdf:RDF></metadata><g
     inkscape:label="Layer 1"
     inkscape:groupmode="layer"
     id="layer1"><path
       id="path17"
       style="display:inline;fill:#ebdab5;stroke:#000000;stroke-width:24;stroke-miterlimit:10;stroke-dasharray:none"
       d="M 340.33719,67.138428 C 76.636988,64.439889 2.5078412,673.34105 36.547652,983.37177 67.579274,1264.4663 163.20813,1387.4032 236.88177,1630.3953 c 61.85229,203.8116 61.85396,273.9041 187.88014,309.1308 45.24676,11.2765 91.16713,12.366 136.58057,3.2374 -102.97933,-143.1077 -159.26637,-434.8462 -216.16442,-716.552 -77.27217,-382.58055 259.34914,-782.343 670.71154,-782.343 582.7749,0 747.9511,507.38984 692.4171,782.343 -56.898,281.7058 -113.1871,573.4443 -216.1664,716.552 45.4134,9.1286 91.3337,8.0391 136.5804,-3.2374 126.0263,-35.2267 126.0279,-105.3192 187.8803,-309.1308 73.6736,-242.9921 169.3024,-365.929 200.334,-647.02353 34.0399,-310.03072 -40.0893,-918.931881 -303.7895,-916.233342 -154.1451,9.379079 -296.1745,100.438582 -338.3327,250.362622 -73.8575,-17.11507 -205.7295,-41.61981 -358.9232,-41.61981 -148.41828,0 -268.85702,23.10286 -337.56741,40.11045 C 644.5263,169.17744 488.20634,70.926456 340.33719,67.138428 Z"
       sodipodi:nodetypes="cccccsssccccscscc" /></g></svg>
