<?xml version="1.0" encoding="UTF-8" standalone="no"?>
<svg
   viewBox="0 0 2048 2048"
   version="1.1"
   id="svg1"
   sodipodi:docname="hat_authority.svg"
   inkscape:export-filename="..\..\parts\hat_authority.png"
   inkscape:export-xdpi="12"
   inkscape:export-ydpi="12"
   inkscape:version="1.3.2 (091e20e, 2023-11-25, custom)"
   xml:space="preserve"
   xmlns:inkscape="http://www.inkscape.org/namespaces/inkscape"
   xmlns:sodipodi="http://sodipodi.sourceforge.net/DTD/sodipodi-0.dtd"
   xmlns="http://www.w3.org/2000/svg"
   xmlns:svg="http://www.w3.org/2000/svg"><defs
     id="defs1"><inkscape:path-effect
       effect="fillet_chamfer"
       id="path-effect6"
       is_visible="true"
       lpeversion="1"
       nodesatellites_param="F,0,0,1,0,0,0,1 @ F,0,0,1,0,0,0,1 @ F,0,0,1,0,20.354361,0,1 @ F,0,0,1,0,0,0,1 @ F,0,0,1,0,0,0,1 @ F,0,0,1,0,0,0,1 @ F,0,0,1,0,0,0,1 @ F,0,0,1,0,24.171759,0,1 @ F,0,0,1,0,0,0,1 @ F,0,0,1,0,0,0,1 @ F,0,0,1,0,0,0,1 @ F,0,0,1,0,0,0,1 @ F,0,0,1,0,25.130702,0,1 @ F,0,0,1,0,0,0,1 @ F,0,0,1,0,0,0,1 @ F,0,0,1,0,0,0,1 @ F,0,0,1,0,0,0,1 @ F,0,0,1,0,21.036697,0,1 @ F,0,0,1,0,0,0,1 @ F,0,0,1,0,0,0,1"
       radius="0"
       unit="px"
       method="auto"
       mode="F"
       chamfer_steps="1"
       flexible="false"
       use_knot_distance="true"
       apply_no_radius="true"
       apply_with_radius="true"
       only_selected="false"
       hide_knots="false" /><inkscape:path-effect
       effect="fillet_chamfer"
       id="path-effect4"
       is_visible="true"
       lpeversion="1"
       nodesatellites_param="F,0,0,1,0,0,0,1 @ F,0,0,1,0,20.354361,0,1 @ F,0,0,1,0,0,0,1 @ F,0,0,1,0,0,0,1 @ F,0,0,1,0,0,0,1 @ F,0,0,1,0,24.171759,0,1 @ F,0,0,1,0,0,0,1 @ F,0,0,1,0,0,0,1 @ F,0,0,1,0,0,0,1 @ F,0,0,1,0,25.130702,0,1 @ F,0,0,1,0,0,0,1 @ F,0,0,1,0,0,0,1 @ F,0,0,1,0,0,0,1 @ F,0,0,1,0,21.036697,0,1 @ F,0,0,1,0,0,0,1 @ F,0,0,1,0,0,0,1"
       radius="0"
       unit="px"
       method="auto"
       mode="F"
       chamfer_steps="1"
       flexible="false"
       use_knot_distance="true"
       apply_no_radius="true"
       apply_with_radius="true"
       only_selected="false"
       hide_knots="false" /></defs><sodipodi:namedview
     id="namedview1"
     pagecolor="#ffffff"
     bordercolor="#666666"
     borderopacity="1.0"
     inkscape:showpageshadow="2"
     inkscape:pageopacity="0.0"
     inkscape:pagecheckerboard="0"
     inkscape:deskcolor="#d1d1d1"
     inkscape:zoom="0.36181641"
     inkscape:cx="921.73818"
     inkscape:cy="1012.9447"
     inkscape:window-width="1920"
     inkscape:window-height="1001"
     inkscape:window-x="-9"
     inkscape:window-y="-9"
     inkscape:window-maximized="1"
     inkscape:current-layer="svg1" /><style
     id="style1">.iris{fill:#000000}</style><g
     id="g829"
     transform="matrix(0.78225014,-0.13619517,0.13619517,0.78225014,-259.68369,153.16213)"
     style="display:inline"
     inkscape:label="authority_point"><path
       id="path2"
       style="fill:#000000;fill-opacity:1"
       d="m 1263.9609,59.339844 c -51.8851,5.222401 -89.5407,60.996326 -86.4146,109.734716 -19.1995,53.26292 -27.3822,125.19513 22.4915,164.71864 39.1116,33.43053 90.3332,7.794 135.5285,10.67774 49.6826,-7.17131 11.7905,67.59855 14.5119,98.01877 -15.4257,93.99271 -45.1498,192.20029 -14.4766,286.34037 -67.0387,3.54886 -103.776,75.3756 -102.6005,135.89024 -4.0972,78.23283 51.114,155.93248 129.7375,170.20658 63.6887,17.3294 145.5475,10.4507 183.3835,-50.99601 38.5728,-68.25678 43.358,-164.10557 -12.417,-224.72972 53.412,-110.17424 83.5505,-230.36395 106.3082,-350.2061 -0.2719,-31.77678 8.6174,-50.335 43.0445,-40.50561 62.3126,-0.4833 132.8752,-5.89092 180.4908,-50.83586 49.1015,-50.54092 35.033,-148.60315 -34.1329,-173.781 -93.5762,-32.888 -193.0092,-44.793813 -290.5535,-60.551953 -91.109,-12.586722 -182.7945,-23.846576 -274.9013,-23.980803 z" /><path
       id="shape06"
       style="fill:#ef7b93;fill-opacity:1"
       d="m 1402.6914,778.5918 c -6.5349,0.10431 -12.6073,3.76347 -16.636,8.76557 -7.2079,8.76101 -9.2414,21.14453 -6.1774,31.95629 3.1906,11.37348 11.565,21.2319 22.4273,25.95176 8.1405,3.69591 17.1366,4.76245 25.9583,5.47239 4.9727,0.4827 10.0266,0.71878 14.8516,2.1118 1.4922,0.47582 3.1198,1.30339 3.5673,2.93615 1.1039,2.9274 1.1163,6.1088 1.356,9.18888 0.1768,5.32266 -0.5824,10.95664 -3.6694,15.43356 -3.0551,4.24718 -8.1288,6.62553 -13.2236,7.29 -0.6892,0.099 -1.1156,0.15304 -1.8173,0.21786 -7.85,0.68406 -15.7316,-1.31361 -22.8223,-4.59575 -5.2456,-2.48793 -10.2284,-5.72129 -14.1912,-10.00014 -5.7977,-6.42682 -9.1234,-14.6162 -11.6017,-22.79967 -3.2316,-10.56449 -5.2662,-21.56552 -9.9962,-31.61816 -3.185,-6.51959 -7.9654,-12.52209 -14.4726,-15.94979 -6.3869,-3.4594 -14.0773,-4.85309 -21.1783,-3.03059 -6.8539,1.89438 -12.5276,6.7594 -16.607,12.45587 -6.1023,8.4092 -9.6263,18.37781 -11.9861,28.41457 -3.3721,14.77263 -3.9014,30.1669 -1.7921,45.16256 2.4171,16.79107 8.5571,33.23826 18.9328,46.75867 7.2439,9.50729 16.5173,17.44577 27.0162,23.1565 8.0272,4.4359 16.7351,7.50805 25.6024,9.77243 16.357,4.37847 33.2442,7.03506 50.2007,7.03784 11.617,-0.0606 23.3748,-1.52245 34.2742,-5.69993 8.7433,-3.39361 16.8617,-8.77214 22.6745,-16.20799 3.3247,-4.17729 5.7381,-8.9838 7.7588,-13.90201 7.2527,-16.7362 11.8224,-34.65784 13.2808,-52.84573 1.3662,-17.33052 -0.2557,-35.14467 -6.6388,-51.41915 -4.6918,-12.01022 -12.1269,-23.01084 -21.9052,-31.45985 -9.0482,-7.91972 -19.9213,-13.59165 -31.3799,-17.13307 -13.4931,-4.2176 -27.7187,-5.58468 -41.8058,-5.42087 z" /><path
       id="shape011"
       style="fill:#ef7b93;fill-opacity:1"
       d="m 1429.4043,243.61328 c -3.2784,3.77818 -6.5542,7.56193 -9.8301,11.34375 3.4552,11.9719 6.3084,24.13073 8.1387,36.46209 0.6031,3.93373 1.1503,8.10014 1.5941,12.15114 0.4936,4.45668 0.8801,8.92454 1.2047,13.39654 0.048,0.85371 0.1224,1.99641 0.1805,2.96112 0.2445,4.07743 0.4166,8.35082 0.5197,12.52053 0.1493,6.02136 0.1514,12.33104 0.025,18.36501 -0.145,6.02563 -0.3998,12.04434 -0.755,17.99709 -1.483,24.73564 -4.8165,49.44209 -8.8407,73.93644 -6.4748,39.10035 -14.8217,77.88481 -21.2461,117.02212 -4.5039,27.88541 -8.0175,56.05955 -7.6899,84.35617 0.2755,20.87334 2.853,41.88212 9.5028,61.73817 5.3507,15.8432 13.2692,30.92194 24.0095,43.78555 4.5725,5.11588 12.1369,7.31846 18.7253,5.34767 5.9128,-1.66578 10.7347,-5.86593 14.5593,-10.53019 6.8256,-8.27384 11.8901,-17.80486 16.6912,-27.34574 10.0807,-20.35572 18.3151,-41.55912 26.1196,-62.87151 11.6075,-31.8766 21.781,-64.26147 31.1145,-96.87074 12.8288,-44.89904 23.9249,-90.30567 32.8031,-136.15425 5.7166,-29.82429 10.4279,-59.8686 13.1811,-90.12072 1.1793,-13.51215 1.868,-27.06851 1.9531,-40.63282 -2.9239,-2.83649 -4.9825,-6.65502 -8.6949,-8.60207 -1.2411,-0.6263 -2.6865,-0.70203 -4.0348,-0.99124 -12.8681,-2.36799 -25.5273,-5.78433 -37.9366,-9.91867 -21.8289,-7.25384 -43.0749,-16.31531 -65.386,-22.07157 -11.5136,-3.00422 -23.2847,-4.92307 -35.1078,-6.19965 -0.2669,0.30859 -0.5339,0.61719 -0.8008,0.92578 z" /><path
       id="shape0111"
       style="fill:#ef7b93;fill-opacity:1"
       d="m 1021.4766,261.67969 c -81.49186,0.39564 -162.98761,2.29816 -244.37068,6.59136 -42.01838,2.23549 -84.00684,5.31615 -125.81295,10.1352 -1.19911,0.0614 -2.08964,1.00129 -2.625,1.99805 -3.7724,5.27497 -7.51157,10.57639 -11.27149,15.86132 0.97366,3.43378 2.07555,7.05374 2.61329,10.4629 0.56156,3.29836 0.57676,6.68476 -0.0255,9.97832 -1.47063,10.2315 -4.71514,20.21344 -4.91005,30.61738 -0.22758,9.98333 1.55287,20.19176 6.28603,29.05891 2.69238,3.95191 7.03977,6.23269 11.16369,8.39473 2.85264,1.65975 6.29236,2.06954 9.51254,1.50143 5.86194,-0.65121 11.48474,-2.53787 17.27242,-3.59598 8.24569,-1.73491 16.49831,-3.41616 24.81178,-4.8868 20.46782,-3.67044 41.0532,-6.52911 61.61499,-8.86968 16.47231,-1.88614 32.99743,-3.43916 49.5582,-4.78074 58.89878,-4.78846 118.05445,-6.90893 177.12115,-9.81053 42.76408,-2.10858 85.56318,-4.32371 128.11218,-9.24194 17.9682,-2.10636 35.8989,-4.67723 53.6238,-8.32826 15.1973,-3.15152 30.2781,-7.05202 44.832,-12.48363 8.1074,-3.06155 16.0828,-6.57263 23.5231,-11.03636 8.2539,-5.56493 12.2545,-16.79273 9.0762,-26.27592 -2.1936,-7.04999 -7.9836,-12.63755 -14.7834,-15.30521 -5.0231,-2.03235 -10.4229,-2.83357 -15.7358,-3.72391 -9.0262,-1.3091 -18.1346,-1.9011 -27.2221,-2.60256 -25.3719,-1.75158 -50.8047,-2.3482 -76.2251,-2.94097 -32.0421,-0.6286 -64.0917,-0.77771 -96.1393,-0.71711 z"
       transform="matrix(0.92809322,0.16158746,-0.24140327,1.386523,730.0851,-361.49109)" /></g></svg>
