<?xml version="1.0" encoding="UTF-8" standalone="no"?>
<svg
   width="2048"
   height="2048"
   viewBox="0 0 2048 2048"
   version="1.1"
   id="svg8"
   inkscape:version="1.3.2 (091e20e, 2023-11-25, custom)"
   xml:space="preserve"
   sodipodi:docname="hat_carnival.svg"
   inkscape:export-filename="..\..\parts\hat_carnival_2048.png"
   inkscape:export-xdpi="12"
   inkscape:export-ydpi="12"
   xmlns:inkscape="http://www.inkscape.org/namespaces/inkscape"
   xmlns:sodipodi="http://sodipodi.sourceforge.net/DTD/sodipodi-0.dtd"
   xmlns:xlink="http://www.w3.org/1999/xlink"
   xmlns="http://www.w3.org/2000/svg"
   xmlns:svg="http://www.w3.org/2000/svg"
   xmlns:rdf="http://www.w3.org/1999/02/22-rdf-syntax-ns#"
   xmlns:cc="http://creativecommons.org/ns#"
   xmlns:dc="http://purl.org/dc/elements/1.1/"><sodipodi:namedview
     id="base"
     pagecolor="#ffffff"
     bordercolor="#666666"
     borderopacity="1.0"
     inkscape:pageopacity="0.0"
     inkscape:pageshadow="2"
     inkscape:zoom="0.49497475"
     inkscape:cx="1327.3404"
     inkscape:cy="629.32504"
     inkscape:document-units="px"
     inkscape:current-layer="svg8"
     inkscape:document-rotation="0"
     showgrid="false"
     units="px"
     scale-x="1"
     inkscape:showpageshadow="2"
     inkscape:pagecheckerboard="0"
     inkscape:deskcolor="#d1d1d1"
     inkscape:window-width="1920"
     inkscape:window-height="1001"
     inkscape:window-x="-9"
     inkscape:window-y="-9"
     inkscape:window-maximized="1" /><defs
     id="defs2"><linearGradient
       id="linearGradient6"
       inkscape:collect="always"><stop
         style="stop-color:#ff0000;stop-opacity:1;"
         offset="0"
         id="stop6" /><stop
         style="stop-color:#ff0000;stop-opacity:1;"
         offset="0.5"
         id="stop8" /><stop
         style="stop-color:#ffffff;stop-opacity:1;"
         offset="0.5"
         id="stop9" /><stop
         style="stop-color:#ffffff;stop-opacity:1;"
         offset="1"
         id="stop7" /></linearGradient><inkscape:path-effect
       effect="fillet_chamfer"
       id="path-effect46"
       is_visible="true"
       lpeversion="1"
       nodesatellites_param="F,0,0,1,0,20,0,1 @ F,0,0,1,0,20,0,1 @ F,0,0,1,0,20,0,1 @ F,0,0,1,0,20,0,1"
       radius="20"
       unit="px"
       method="auto"
       mode="F"
       chamfer_steps="1"
       flexible="false"
       use_knot_distance="true"
       apply_no_radius="true"
       apply_with_radius="true"
       only_selected="false"
       hide_knots="false" /><inkscape:path-effect
       effect="fillet_chamfer"
       id="path-effect34"
       is_visible="true"
       lpeversion="1"
       nodesatellites_param="F,0,0,1,0,20,0,1 @ F,0,0,1,0,20,0,1 @ F,0,0,1,0,20,0,1 @ F,0,0,1,0,20,0,1"
       radius="20"
       unit="px"
       method="auto"
       mode="F"
       chamfer_steps="1"
       flexible="false"
       use_knot_distance="true"
       apply_no_radius="true"
       apply_with_radius="true"
       only_selected="false"
       hide_knots="false" /><inkscape:path-effect
       effect="fillet_chamfer"
       id="path-effect26"
       is_visible="true"
       lpeversion="1"
       nodesatellites_param="F,0,0,1,0,20,0,1 @ F,0,0,1,0,20,0,1 @ F,0,0,1,0,20,0,1 @ F,0,0,1,0,20,0,1"
       radius="20"
       unit="px"
       method="auto"
       mode="F"
       chamfer_steps="1"
       flexible="false"
       use_knot_distance="true"
       apply_no_radius="true"
       apply_with_radius="true"
       only_selected="false"
       hide_knots="false" /><rect
       x="1142.1538"
       y="1356.3509"
       width="343.4062"
       height="118.8448"
       id="rect18" /><clipPath
       id="clipPath2763"
       clipPathUnits="userSpaceOnUse"><ellipse
         id="ellipse2765"
         cx="97.1"
         cy="460.6"
         fill="#fdc75a"
         stroke="#000"
         stroke-linecap="round"
         stroke-linejoin="round"
         stroke-width="19.1"
         display="inline"
         paint-order="markers stroke fill"
         rx="40.7"
         ry="56.7" /></clipPath><filter
       id="eye_glow"
       width="2.640625"
       height="2.125"
       x="-0.8203125"
       y="-0.5625"><feGaussianBlur
         in="SourceGraphic"
         result="blur1"
         stdDeviation="50"
         id="feGaussianBlur1" /><feGaussianBlur
         in="SourceGraphic"
         result="blur2"
         stdDeviation="25"
         id="feGaussianBlur2" /><feGaussianBlur
         in="SourceGraphic"
         result="blur3"
         stdDeviation="12.5 "
         id="feGaussianBlur3" /><feComposite
         in="SourceGraphic"
         in2="blur1"
         result="comp1"
         id="feComposite3" /><feComposite
         in="comp1"
         in2="blur2"
         result="comp2"
         id="feComposite4" /><feComposite
         in="comp2"
         in2="blur3"
         id="feComposite5" /></filter><rect
       x="1142.1538"
       y="1356.3509"
       width="343.4062"
       height="118.8448"
       id="rect33" /><linearGradient
       inkscape:collect="always"
       xlink:href="#linearGradient6"
       id="linearGradient7"
       x1="611.42773"
       y1="464.28513"
       x2="793.60474"
       y2="592.61353"
       gradientUnits="userSpaceOnUse"
       spreadMethod="repeat"
       gradientTransform="matrix(1.2838681,0,0,0.85729344,-311.38738,0.0074375)" /><clipPath
       clipPathUnits="userSpaceOnUse"
       id="clipPath53"><path
         id="path54"
         style="font-variation-settings:'wght' 400;display:inline;opacity:1;fill:#a01919;fill-opacity:1;stroke:none;stroke-width:81.7511;stroke-linecap:round;stroke-linejoin:round;paint-order:markers fill stroke"
         d="m 817.5967,1792.2067 c -139.7268,0.7444 -267.63091,-105.2974 -301.59796,-239.3804 -30.34931,-108.4928 -48.61401,-237.5431 50.18918,-297.2633 64.77301,-41.6464 144.11928,-41.9334 218.26378,-39.131 153.25105,0.9254 306.5987,-1.508 459.7897,1.183 114.3023,10.2392 156.4266,106.0658 168.1795,220.9272 21.9474,160.9165 -101.3277,326.374 -262.4723,349.7271 -110.0828,7.5065 -221.91401,3.9374 -332.3519,3.9374 z"
         inkscape:label="mouth"
         sodipodi:nodetypes="cccccccc" /></clipPath></defs><metadata
     id="metadata5"><rdf:RDF><cc:Work
         rdf:about=""><dc:format>image/svg+xml</dc:format><dc:type
           rdf:resource="http://purl.org/dc/dcmitype/StillImage" /><cc:license
           rdf:resource="http://creativecommons.org/licenses/by-nc-sa/4.0/" /></cc:Work><cc:License
         rdf:about="http://creativecommons.org/licenses/by-nc-sa/4.0/"><cc:permits
           rdf:resource="http://creativecommons.org/ns#Reproduction" /><cc:permits
           rdf:resource="http://creativecommons.org/ns#Distribution" /><cc:requires
           rdf:resource="http://creativecommons.org/ns#Notice" /><cc:requires
           rdf:resource="http://creativecommons.org/ns#Attribution" /><cc:prohibits
           rdf:resource="http://creativecommons.org/ns#CommercialUse" /><cc:permits
           rdf:resource="http://creativecommons.org/ns#DerivativeWorks" /><cc:requires
           rdf:resource="http://creativecommons.org/ns#ShareAlike" /></cc:License></rdf:RDF></metadata><path
     id="ellipse9"
     style="fill:#000000;fill-opacity:1;stroke:none;stroke-width:50.3578;stroke-linecap:square;stroke-linejoin:round;stroke-dasharray:none;stroke-opacity:1"
     d="m 0.4624492,542.73614 c 0.43971961,13.09211 7.561598,25.87429 18.8817168,36.49324 11.352796,10.63401 26.250001,19.37309 42.34094,26.7011 26.10104,11.9262 55.167834,20.57057 84.618514,28.08154 39.72722,10.06403 80.76701,17.60674 122.04491,24.23508 57.42834,9.10312 115.60297,15.96199 173.97655,21.7238 75.10785,7.3383 150.6481,12.59004 226.31638,16.5438 73.50938,3.80798 147.16828,6.28872 220.86849,7.65384 96.12826,1.76924 192.33435,1.61488 288.45155,-0.38915 90.7485,-1.91365 181.4281,-5.55783 271.8096,-11.35852 76.9662,-4.96156 153.7482,-11.44754 229.8917,-20.48973 51.3351,-6.1124 102.3989,-13.40475 152.6035,-22.85431 31.8041,-6.02424 63.2629,-12.98514 93.6668,-21.68371 22.8029,-6.56555 45.0573,-14.19394 65.2363,-23.91283 15.2607,-7.37285 29.2589,-16.14707 39.6362,-26.70875 9.7487,-9.97698 15.9344,-21.65845 16.3851,-33.62294 0.5541,-12.57379 -4.9158,-25.16519 -14.9988,-35.76397 -10.5351,-11.35912 -25.3567,-20.67158 -41.497,-28.4426 -18.0404,-8.66011 -37.7874,-15.60655 -58.0089,-21.69487 -30.0069,-8.95411 -61.2162,-15.9768 -92.7166,-22.17693 -44.3743,-8.63407 -89.5279,-15.36521 -134.8942,-21.21356 -26.4667,-3.38421 -53.0384,-6.39442 -79.6694,-9.14235 -0.025,-99.71636 -0.037,-199.4328 -0.068,-299.14907 -0.8362,-11.775327 -8.2299,-23.13836 -19.6514,-32.054781 -11.548,-9.08721 -26.4302,-15.998159 -42.0837,-21.578879 -25.9942,-9.291016 -54.2051,-15.368784 -82.5178,-20.627498 C 1440.6186,23.900433 1399.2595,18.929941 1357.8024,14.756719 1291.7803,8.263679 1225.2123,4.5288747 1158.5856,2.2425846 1077.4651,-0.44612733 996.16548,-0.61512916 915.00972,1.4908413 853.56934,3.1148246 792.19294,6.1344771 731.1418,11.057655 c -44.7655,3.643921 -89.37161,8.374101 -133.36576,15.035972 -28.82118,4.412344 -57.40014,9.739646 -84.93644,16.981365 -18.72857,5.005807 -37.03362,11.035582 -53.11885,19.240595 -12.17478,6.275193 -22.88664,14.065701 -29.67061,23.350079 -5.52196,7.547046 -8.24563,16.002074 -7.76295,24.399064 -0.008,98.22223 -0.0157,196.44446 -0.0235,294.66669 -65.34298,6.71557 -130.40127,15.01597 -194.2553,26.5349 -37.50666,6.82211 -74.66747,14.74018 -110.29832,25.18179 -22.624944,6.68136 -44.685666,14.44412 -64.526148,24.37115 -14.701756,7.40111 -28.0903,16.19107 -37.842106,26.68153 -9.1215713,9.8758 -14.69098146,21.33201 -14.86888439,32.97943 -0.0232314,0.75183 -0.007659,1.50383 -0.0103818,2.25592 z" /><ellipse
     style="display:inline;fill:#e9ddaf;fill-opacity:1;stroke:#000000;stroke-width:33.5718;stroke-linecap:square;stroke-linejoin:round;stroke-dasharray:none;stroke-opacity:1"
     id="path1"
     cx="1023.8355"
     cy="541.32709"
     rx="972.07159"
     ry="129.81874" /><ellipse
     style="display:inline;fill:#e9ddaf;fill-opacity:1;stroke:#000000;stroke-width:33.5718;stroke-linecap:square;stroke-linejoin:round;stroke-dasharray:none;stroke-opacity:1"
     id="ellipse2"
     cx="1023.8355"
     cy="107.78148"
     rx="550.22925"
     ry="73.4823" /><path
     id="path2"
     style="display:inline;fill:#e9ddaf;fill-opacity:1;stroke:#000000;stroke-width:33.5718;stroke-linecap:butt;stroke-linejoin:miter;stroke-dasharray:none;stroke-opacity:1"
     d="m 473.60521,107.78193 v 433.54441 a 550.22921,73.4823 0 0 0 550.23029,73.48278 550.22921,73.4823 0 0 0 550.2304,-73.48278 V 107.78193 a 550.22921,73.4823 0 0 1 -550.2304,73.48116 550.22921,73.4823 0 0 1 -550.23029,-73.48116 z" /><path
     id="path4"
     style="display:inline;fill:url(#linearGradient7);stroke:none;stroke-width:1.04911px;stroke-linecap:butt;stroke-linejoin:miter;stroke-opacity:1"
     d="m 473.60521,255.5759 v 200.02107 c -8.3e-4,19.48874 57.96918,38.17944 161.1575,51.96015 103.18833,13.78071 243.14211,21.52271 389.07279,21.52263 145.9306,8e-5 285.8844,-7.74192 389.0728,-21.52263 103.1883,-13.78071 161.1584,-32.47141 161.1576,-51.96015 V 255.5759 c 0,19.48882 -57.9693,38.17944 -161.1576,51.96015 -103.1884,13.78071 -243.1422,21.52272 -389.0728,21.52263 -145.93068,9e-5 -285.88446,-7.74192 -389.07279,-21.52263 C 531.57439,293.75534 473.60425,275.06472 473.60521,255.5759 Z" /><path
     id="path10"
     style="display:inline;fill:none;fill-opacity:1;stroke:#000000;stroke-width:33.5718;stroke-linecap:butt;stroke-linejoin:miter;stroke-dasharray:none;stroke-opacity:1"
     d="m 473.60521,107.78193 v 433.54441 a 550.22921,73.4823 0 0 0 550.23029,73.48278 550.22921,73.4823 0 0 0 550.2304,-73.48278 V 107.78193 a 550.22921,73.4823 0 0 1 -550.2304,73.48116 550.22921,73.4823 0 0 1 -550.23029,-73.48116 z" /><style
     id="style1">
    .fur{fill:#e3dedb}.paw{fill:#e9afaf}.outline{stroke:#000}
  </style><style
     id="style1-3">
    #forearm {
      fill: #e3dedb
    }
    #paw {
      fill: #e9afaf
    }
    #outline {
      stroke: #000F
    }
  </style><style
     id="style2">
    .fur{fill:#e3dedb}.paw{fill:#e9afaf}.outline{stroke:#000}
  </style><style
     id="style1-8">.sclera{fill:#fc5900} .iris{fill:#000000}</style></svg>
