<svg xmlns="http://www.w3.org/2000/svg" width="2048" height="2048">
  <defs>
    <symbol id="petal">
      <path fill="#dddee3" stroke="#b7bed0" stroke-width="4" d="M1314 292c-17 72 18 120 18 120h30s35-49 17-120c-13-54-27-58-35-56-7 1-19 12-30 56z"/>
      <path fill="none" stroke="#b7bed0" stroke-linecap="round" stroke-width="4" d="M1343 408s-17-26-10-61"/>
      <path fill="none" stroke="#b7bed0" stroke-linecap="round" stroke-width="4" d="M1348 408s17-26 10-61"/>
    </symbol>
  </defs>
  <path id="outline" fill="black" d="m 1396,47c -17,0 -33,7 -46,18 -2,2 -4,4 -6,6 -14,1 -28,6 -40,15 -10,-9 -22,-17 -36,-21 -14,-5 -30,-5 -45,0 -18,6 -33,20 -41,37 -2,5 -4,10 -6,16 -12,8 -22,19 -27,33 -14,-3 -29,-4 -43,-0 -14,4 -28,11 -37,22 -12,14 -18,34 -17,53 0,5 1,11 3,16 -7,13 -9,28 -7,42 -13,4 -26,11 -36,20 -11,10 -19,24 -22,39 -4,19 1,39 12,54 3,5 7,9 11,13 1,14 6,28 15,40 -10,11 -18,23 -22,38 -4,14 -4,29 1,43 6,18 20,33 37,42 5,2 10,4 16,6 8,12 19,22 33,27 -3,14 -4,28 -1,42 3,15 11,29 22,38 14,13 34,19 53,17 6,-0 11,-1 16,-3 13,7 28,9 42,7 4,13 11,26 20,36 10,11 24,19 39,22 19,4 39,-1 55,-12 5,-3 9,-7 13,-11 14,-1 28,-6 40,-15 10,9 22,17 36,21 14,5 30,5 45,-0 18,-6 33,-20 41,-37 2,-5 4,-10 6,-15 12,-8 22,-19 27,-33 14,3 28,4 42,1 15,-3 29,-11 39,-23 13,-14 19,-34 17,-53 -0,-6 -1,-11 -3,-16 7,-13 9,-28 7,-42 13,-4 26,-11 36,-20 11,-10 19,-24 22,-39 4,-19 -1,-39 -12,-54 -3,-5 -7,-9 -11,-13 -1,-14 -6,-28 -15,-40 9,-10 17,-22 21,-36 5,-15 5,-31 -0,-45 -6,-18 -20,-33 -37,-41 -5,-2 -10,-4 -15,-6 -8,-12 -19,-22 -33,-27 3,-14 4,-28 1,-42 -3,-15 -11,-29 -23,-39 -14,-12 -34,-19 -53,-17 -6,0 -11,1 -16,3 -13,-7 -28,-9 -42,-7 -4,-13 -11,-26 -20,-36 -11,-12 -25,-20 -41,-23 -4,-1 -8,-1 -13,-1z" />
  <g transform="translate(0 -100)">
    <use href="#ring" transform="rotate(10 1703 -239) scale(1.1)"/>
    <use href="#ring" transform="rotate(20 1241 684) scale(.95)"/>
    <g id="ring">
      <use href="#petal" transform="rotate(90 1351 510)"/>
      <use href="#petal" transform="rotate(120 1349 510)"/>
      <use href="#petal" transform="rotate(150 1348 510)"/>
      <use href="#petal" transform="rotate(180 1347 510)"/>
      <use href="#petal" transform="rotate(-150 1346 510)"/>
      <use href="#petal" transform="rotate(-120 1344 510)"/>
      <use href="#petal" transform="rotate(-90 1342 510)"/>
      <use href="#petal" transform="rotate(-60 1339 510)"/>
      <use href="#petal" transform="rotate(-30 1330 510)"/>
      <use href="#petal" transform="translate(0 -9)"/>
      <use href="#petal" transform="rotate(30 1363 510)"/>
      <use href="#petal" transform="rotate(60 1354 510)"/>
    </g>
    <circle id="middle" cx="1346.8" cy="505.7" r="118.7" fill="#e2ad28"/>
  </g>
</svg>
