<?xml version="1.0" encoding="UTF-8" standalone="no"?>
<svg
   width="2048"
   height="2048"
   viewBox="0 0 2048 2048"
   version="1.1"
   id="svg8"
   inkscape:version="1.3.2 (091e20e, 2023-11-25, custom)"
   xml:space="preserve"
   sodipodi:docname="hat_apple_shot.svg"
   xmlns:inkscape="http://www.inkscape.org/namespaces/inkscape"
   xmlns:sodipodi="http://sodipodi.sourceforge.net/DTD/sodipodi-0.dtd"
   xmlns="http://www.w3.org/2000/svg"
   xmlns:svg="http://www.w3.org/2000/svg"
   xmlns:rdf="http://www.w3.org/1999/02/22-rdf-syntax-ns#"
   xmlns:cc="http://creativecommons.org/ns#"
   xmlns:dc="http://purl.org/dc/elements/1.1/"><sodipodi:namedview
     id="base"
     pagecolor="#ffffff"
     bordercolor="#666666"
     borderopacity="1.0"
     inkscape:pageopacity="0.0"
     inkscape:pageshadow="2"
     inkscape:zoom="0.35"
     inkscape:cx="512.85714"
     inkscape:cy="712.85714"
     inkscape:document-units="px"
     inkscape:current-layer="layer1"
     inkscape:document-rotation="0"
     showgrid="false"
     units="px"
     scale-x="1"
     inkscape:showpageshadow="2"
     inkscape:pagecheckerboard="0"
     inkscape:deskcolor="#d1d1d1"
     inkscape:window-width="1920"
     inkscape:window-height="1001"
     inkscape:window-x="-9"
     inkscape:window-y="-9"
     inkscape:window-maximized="1" /><defs
     id="defs2" /><metadata
     id="metadata5"><rdf:RDF><cc:Work
         rdf:about=""><dc:format>image/svg+xml</dc:format><dc:type
           rdf:resource="http://purl.org/dc/dcmitype/StillImage" /><dc:title /><cc:license
           rdf:resource="http://creativecommons.org/licenses/by-nc-sa/4.0/" /></cc:Work><cc:License
         rdf:about="http://creativecommons.org/licenses/by-nc-sa/4.0/"><cc:permits
           rdf:resource="http://creativecommons.org/ns#Reproduction" /><cc:permits
           rdf:resource="http://creativecommons.org/ns#Distribution" /><cc:requires
           rdf:resource="http://creativecommons.org/ns#Notice" /><cc:requires
           rdf:resource="http://creativecommons.org/ns#Attribution" /><cc:prohibits
           rdf:resource="http://creativecommons.org/ns#CommercialUse" /><cc:permits
           rdf:resource="http://creativecommons.org/ns#DerivativeWorks" /><cc:requires
           rdf:resource="http://creativecommons.org/ns#ShareAlike" /></cc:License></rdf:RDF></metadata><g
     inkscape:label="Layer 1"
     inkscape:groupmode="layer"
     id="layer1"><g
       id="g7"
       inkscape:label="bolt"
       style="display:inline"><path
         id="path3"
         style="fill:#c6c3c4;fill-opacity:1;stroke:none;stroke-linecap:butt;stroke-linejoin:miter;stroke-opacity:1;stroke-width:1.7229351186154123"
         d="M 1273.89 195.059 C 1273.89 195.059 1288 189.311 1297.79 176.373 C 1307.58 163.436 1308.89 150.394 1308.89 150.394 L 1465.18 110.222 L 1354.88 228.011 C 1354.88 228.011 1342.81 222.891 1326.76 225.265 C 1310.71 227.64 1298.89 237.25 1298.89 237.25 Z" /><path
         id="rect4"
         style="fill:#4d4d4d;paint-order:stroke fill markers;stroke:none;stroke-linecap:round;stroke-linejoin:round;stroke-width:27.006863185713037"
         d="M 1277.24 207.238 L 1357.24 159.842 C 1362.95 156.458 1370.27 158.331 1373.65 164.042 C 1377.03 169.752 1375.16 177.073 1369.45 180.457 L 1289.46 227.853 C 1283.75 231.237 1276.43 229.363 1273.04 223.653 C 1269.66 217.943 1271.53 210.622 1277.24 207.238 Z" /><path
         style="fill:#4d4d4d;fill-opacity:1;stroke:#000000;stroke-linecap:butt;stroke-linejoin:miter;stroke-opacity:1;stroke-width:1.9767724717073536"
         d="M 732.528 568.875 L 624.107 667.933 L 430.841 782.448 L 390.83 772.21 Z"
         id="path6" /><path
         style="fill:#4d4d4d;fill-opacity:1;stroke:#000000;stroke-linecap:butt;stroke-linejoin:miter;stroke-opacity:1;stroke-width:1.9767724717073536"
         d="M 711.407 533.228 L 572.448 580.749 L 379.183 695.264 L 368.945 735.275 Z"
         id="path7" /><path
         id="rect5"
         style="display:inline;fill:#4d4d4d;opacity:1;paint-order:stroke fill markers;stroke-linecap:round;stroke-linejoin:round;stroke-width:37.506094814692304"
         d="M 335.144 752.692 L 877.484 431.341 L 902.169 473 L 359.828 794.351 Z" /><path
         id="rect2"
         style="fill:#0000ff;opacity:1;paint-order:stroke fill markers;stroke-linecap:round;stroke-linejoin:round;stroke-width:37.506094814692304"
         d="M 733.7 516.537 L 1276.04 195.185 L 1300.73 236.845 L 758.385 558.196 Z" /><path
         id="path5"
         style="fill:#4d4d4d;paint-order:stroke fill markers;stroke-linecap:round;stroke-linejoin:round;stroke-width:39.53544943414707"
         d="M 353.418 770.049 C 356.709 775.602 359.298 781.263 360.618 785.786 C 361.938 790.309 361.879 793.324 360.456 794.167 C 357.491 795.924 349.533 787.974 342.681 776.411 C 335.83 764.848 332.679 754.05 335.644 752.293 C 337.068 751.449 339.74 752.846 343.074 756.176 C 346.407 759.506 350.128 764.496 353.418 770.049 Z" /></g><g
       id="g2"
       inkscape:label="apple"><path
         id="leaf"
         fill="#7eb865"
         stroke="#344714"
         stroke-linecap="round"
         stroke-linejoin="round"
         stroke-width="16.1084"
         d="M 958.248 189.624 C 958.248 189.624 973.483 132.547 929.645 100.849 C 885.808 69.1514 845.859 53.6171 845.859 53.6171 C 844.477 129.389 885.61 161.134 958.248 189.624 Z" /><path
         id="leaf_midrib"
         fill="none"
         stroke="#344714"
         stroke-linecap="round"
         stroke-width="8.05421"
         d="M 954.516 182.475 C 954.516 182.475 913.844 125.473 888.319 109.687" /><path
         id="stem"
         fill="#79473c"
         d="M 1000.13 109.538 L 984.065 118.836 C 1027.27 165.875 946.733 201.548 946.733 201.548 L 981.843 198.23 C 981.843 198.23 1044.24 156.562 1000.13 109.538 Z"
         style="stroke-width:0.9016190505935814" /><path
         id="stem_top"
         style="fill:#ebb889;stroke-width:0.9016190505935813"
         d="M 1004.35 113.162 C 1004.41 116.846 998.973 119.929 992.202 120.047 C 985.431 120.165 979.889 117.274 979.825 113.59 C 979.761 109.906 985.198 106.823 991.969 106.705 C 998.74 106.587 1004.28 109.478 1004.35 113.162 Z" /><path
         id="apple"
         fill="#cf380a"
         d="M 996.157 191.668 C 996.157 191.668 1120.41 129.081 1206.02 229.485 C 1291.66 330.791 1255.27 467.591 1175.31 588.019 C 1095.35 708.446 1008.52 641.428 959.836 642.278 C 912.058 643.112 909.726 716.195 787.752 599.292 C 666.664 481.472 675.661 325.311 719.508 254.209 C 762.453 183.122 849.535 160.862 883.283 182.817 C 917.015 203.87 996.157 191.668 996.157 191.668 Z"
         style="stroke-width:0.9016190505935814" /></g><g
       id="g12"
       inkscape:label="bolt"><path
         style="fill:#4d4d4d;fill-opacity:1;stroke:#000000;stroke-linecap:butt;stroke-linejoin:miter;stroke-opacity:1;stroke-width:1.9767724717073536"
         d="M 732.528 568.875 L 624.107 667.933 L 430.841 782.448 L 390.83 772.21 Z"
         id="path10" /><path
         style="fill:#4d4d4d;fill-opacity:1;stroke:#000000;stroke-linecap:butt;stroke-linejoin:miter;stroke-opacity:1;stroke-width:1.9767724717073536"
         d="M 711.407 533.228 L 572.448 580.749 L 379.183 695.264 L 368.945 735.275 Z"
         id="path11" /><path
         id="rect11"
         style="display:inline;fill:#4d4d4d;fill-opacity:1;opacity:1;paint-order:stroke fill markers;stroke:none;stroke-linecap:round;stroke-linejoin:round;stroke-width:37.506094814692304"
         d="M 818.976 466.008 L 335.143 752.692 L 359.828 794.352 L 848.075 505.053 Z" /><path
         id="rect12"
         style="fill:#0000ff;opacity:1;paint-order:stroke fill markers;stroke:none;stroke-linecap:round;stroke-linejoin:round;stroke-width:37.506094814692304"
         d="M 818.974 466.008 L 733.7 516.536 L 758.384 558.195 L 848.075 505.051 Z" /><path
         id="ellipse12"
         style="fill:#4d4d4d;paint-order:stroke fill markers;stroke-linecap:round;stroke-linejoin:round;stroke-width:39.53544943414707"
         d="M 353.418 770.049 C 356.709 775.602 359.298 781.263 360.618 785.786 C 361.938 790.309 361.879 793.324 360.456 794.167 C 357.491 795.924 349.533 787.974 342.681 776.411 C 335.83 764.848 332.679 754.05 335.644 752.293 C 337.068 751.449 339.74 752.846 343.074 756.176 C 346.407 759.506 350.128 764.496 353.418 770.049 Z" /></g></g></svg>
