<?xml version="1.0" encoding="UTF-8" standalone="no"?>
<svg
   width="2048"
   height="2048"
   viewBox="0 0 2048 2048"
   version="1.1"
   id="svg8"
   inkscape:version="1.3.2 (091e20e, 2023-11-25, custom)"
   xml:space="preserve"
   sodipodi:docname="hat_doctor_mirror.svg"
   inkscape:export-filename="..\hat_doctor_mirror_2048.png"
   inkscape:export-xdpi="96"
   inkscape:export-ydpi="96"
   xmlns:inkscape="http://www.inkscape.org/namespaces/inkscape"
   xmlns:sodipodi="http://sodipodi.sourceforge.net/DTD/sodipodi-0.dtd"
   xmlns:xlink="http://www.w3.org/1999/xlink"
   xmlns="http://www.w3.org/2000/svg"
   xmlns:svg="http://www.w3.org/2000/svg"
   xmlns:rdf="http://www.w3.org/1999/02/22-rdf-syntax-ns#"
   xmlns:cc="http://creativecommons.org/ns#"
   xmlns:dc="http://purl.org/dc/elements/1.1/"><defs
     id="defs2"><linearGradient
       id="disk_gradient"
       gradientTransform="matrix(0.87195506,-0.75797897,1.9866384,2.2853661,-1707.4024,-445.53194)"
       x1="1306.4848"
       y1="817.20122"
       x2="1507.2334"
       y2="817.20122"
       gradientUnits="userSpaceOnUse"><stop
         offset="0"
         stop-color="#fff"
         id="stop1" /><stop
         offset=".5"
         stop-color="#fff"
         stop-opacity=".8"
         id="stop2" /><stop
         offset="1"
         stop-color="#fff"
         stop-opacity="0"
         id="stop3" /></linearGradient><linearGradient
       inkscape:collect="always"
       xlink:href="#disk_gradient"
       id="linearGradient1"
       gradientUnits="userSpaceOnUse"
       gradientTransform="matrix(-0.87195506,-0.75797897,-1.9866384,2.2853661,4391.8152,-445.53194)"
       x1="1306.4848"
       y1="817.20122"
       x2="1507.2334"
       y2="817.20122" /><clipPath
       clipPathUnits="userSpaceOnUse"
       id="clipPath5"><path
         id="path5"
         style="fill:none;fill-opacity:1;stroke:none;stroke-width:150;stroke-dasharray:none;stroke-opacity:1;paint-order:stroke fill markers"
         d="m 1360.6094,281.78906 a 303.01219,303.01219 0 0 0 -127.3282,19.54688 303.01219,303.01219 0 0 0 -193.4921,300.98047 h 182.4023 c -8.1067,-54.90662 22.4457,-110.03052 76.4219,-130.75 13.6704,-5.24759 27.7063,-7.85345 41.5429,-8.06836 49.4169,-0.76754 96.3055,28.96416 115.0469,77.78711 7.6512,19.57017 9.9202,40.58896 7.041,61.03125 h 182.7911 a 303.01219,303.01219 0 0 0 -20.2774,-126.68555 303.01219,303.01219 0 0 0 -264.1484,-193.8418 z" /></clipPath><linearGradient
       inkscape:collect="always"
       xlink:href="#disk_gradient"
       id="linearGradient5"
       gradientUnits="userSpaceOnUse"
       gradientTransform="matrix(0.87195506,-0.75797897,1.9866384,2.2853661,-1707.4024,-445.53194)"
       x1="1306.4848"
       y1="817.20122"
       x2="1507.2334"
       y2="817.20122" /><clipPath
       id="clipPath1800"
       clipPathUnits="userSpaceOnUse"><path
         id="rect1802"
         fill="#000000"
         fill-opacity="1"
         stroke="none"
         stroke-dasharray="none"
         stroke-linecap="round"
         stroke-linejoin="round"
         stroke-miterlimit="4"
         stroke-opacity="1"
         stroke-width="15.8"
         d="M 246.1,364.7 H 351.6 V 473.5 H 246.1 Z"
         opacity="1"
         paint-order="markers fill stroke"
         transform="scale(-1,1)" /></clipPath><clipPath
       id="clipPath2763"
       clipPathUnits="userSpaceOnUse"><ellipse
         id="ellipse2765"
         cx="97.099998"
         cy="460.60001"
         fill="#fdc75a"
         fill-opacity="1"
         stroke="#000000"
         stroke-dasharray="none"
         stroke-linecap="round"
         stroke-linejoin="round"
         stroke-miterlimit="4"
         stroke-width="19.1"
         display="inline"
         opacity="1"
         paint-order="markers stroke fill"
         rx="40.700001"
         ry="56.700001" /></clipPath></defs><sodipodi:namedview
     id="base"
     pagecolor="#ffffff"
     bordercolor="#666666"
     borderopacity="1.0"
     inkscape:pageopacity="0.0"
     inkscape:pageshadow="2"
     inkscape:zoom="0.24748737"
     inkscape:cx="551.54329"
     inkscape:cy="878.83271"
     inkscape:document-units="px"
     inkscape:current-layer="layer1"
     inkscape:document-rotation="0"
     showgrid="false"
     units="px"
     scale-x="1"
     inkscape:showpageshadow="2"
     inkscape:pagecheckerboard="0"
     inkscape:deskcolor="#d1d1d1"
     inkscape:window-width="1920"
     inkscape:window-height="1001"
     inkscape:window-x="-9"
     inkscape:window-y="-9"
     inkscape:window-maximized="1" /><metadata
     id="metadata5"><rdf:RDF><cc:Work
         rdf:about=""><dc:format>image/svg+xml</dc:format><dc:type
           rdf:resource="http://purl.org/dc/dcmitype/StillImage" /><cc:license
           rdf:resource="http://creativecommons.org/licenses/by-nc-sa/4.0/" /></cc:Work><cc:License
         rdf:about="http://creativecommons.org/licenses/by-nc-sa/4.0/"><cc:permits
           rdf:resource="http://creativecommons.org/ns#Reproduction" /><cc:permits
           rdf:resource="http://creativecommons.org/ns#Distribution" /><cc:requires
           rdf:resource="http://creativecommons.org/ns#Notice" /><cc:requires
           rdf:resource="http://creativecommons.org/ns#Attribution" /><cc:prohibits
           rdf:resource="http://creativecommons.org/ns#CommercialUse" /><cc:permits
           rdf:resource="http://creativecommons.org/ns#DerivativeWorks" /><cc:requires
           rdf:resource="http://creativecommons.org/ns#ShareAlike" /></cc:License></rdf:RDF></metadata><g
     inkscape:label="Layer 1"
     inkscape:groupmode="layer"
     id="layer1"><path
       id="path8"
       style="fill:#227a45;fill-opacity:1;stroke:none;stroke-width:20;stroke-linecap:butt;stroke-linejoin:miter;stroke-dasharray:none;stroke-opacity:1"
       d="m 260.625,733.39286 c 0,0 150.22324,-137.67857 767.3661,-137.67857 617.1429,0 767.366,105.35714 767.366,105.35714 v 160.35714 c 0,0 -150.2231,-105.71428 -767.366,-105.71428 -617.14286,0 -767.3661,138.26224 -767.3661,138.26224 z"
       sodipodi:nodetypes="csccscc"
       inkscape:label="headband" /><path
       id="path9"
       style="fill:#227a45;fill-opacity:1;stroke:none;stroke-width:24.4949;stroke-linecap:butt;stroke-linejoin:miter;stroke-dasharray:none;stroke-opacity:1"
       d="m 1027.9902,541.14844 c -40.92331,0 -79.65301,0.96441 -116.56247,2.66015 v 240.01172 c 36.90947,-1.70293 75.63915,-2.67187 116.56247,-2.67187 232.0391,0 398.0099,22.4236 514.8672,50.40039 V 591.37891 c -116.8573,-27.8823 -282.828,-50.23047 -514.8672,-50.23047 z"
       inkscape:label="band_mount" /><g
       id="g5"
       inkscape:label="mirror"
       transform="translate(-125.13708,-207.9899)"
       style="opacity:1"><path
         id="path3"
         style="fill:#ebe5dc;fill-opacity:1;stroke:#000000;stroke-width:150;stroke-dasharray:none;stroke-opacity:1;paint-order:stroke fill markers"
         d="m 1360.6094,281.78906 a 303.01219,303.01219 0 0 0 -127.3282,19.54688 303.01219,303.01219 0 0 0 -174.2968,391.47461 303.01219,303.01219 0 0 0 392.1465,176.04297 303.01219,303.01219 0 0 0 173.6269,-393.22266 303.01219,303.01219 0 0 0 -264.1484,-193.8418 z m -20.4532,181.70899 c 49.4169,-0.76754 96.3055,28.96411 115.0469,77.78711 11.7523,30.05985 11.0311,63.56635 -2.0058,93.09179 -13.0369,29.52543 -37.3113,52.63132 -67.4434,64.19727 -30.1316,11.5671 -63.6334,10.63823 -93.0781,-2.58008 -29.4447,-13.21832 -52.401,-37.63525 -63.7813,-67.83789 -23.9889,-62.49345 7.2253,-132.60086 69.7188,-156.58984 13.6704,-5.24759 27.7062,-7.85345 41.5429,-8.06836 z" /><g
         id="g3"
         clip-path="url(#clipPath5)"><path
           fill="url(#disk_gradient)"
           d="M 1012.3278,382.37646 1672.085,787.81231 1556.2658,908.31938 1128.147,261.86939 Z"
           clip-path="none"
           style="display:inline;mix-blend-mode:normal;fill:url(#linearGradient5);stroke-width:1.87045"
           id="path6" /><path
           fill="url(#disk_gradient)"
           d="M 1672.085,382.37646 1012.3278,787.81231 1128.147,908.31938 1556.2658,261.86939 Z"
           clip-path="none"
           style="display:inline;mix-blend-mode:normal;fill:url(#linearGradient1);stroke-width:1.87045"
           id="path1" /></g></g></g><style
     id="style2650">
    .fur{fill:#e3dedb}.paw{fill:#e9afaf}.outline{stroke:#000}
  </style></svg>
