<svg xmlns="http://www.w3.org/2000/svg" version="1.2" viewBox="0 0 2048 2048">
  <path fill="#000" d="m 855 75 c -8 25 -44 49 -29 75 c 13 24 22 51 24 78 c -54 7 -115 17 -154 60 c -36 43 -17 121 40 136 c 39 9 80 9 121 12 c 4 29 10 59 25 85 c -50 11 -69 70 -62 116 c 6 61 57 116 120 119 c 53 6 119 -9 141 -63 c 22 -59 13 -136 -40 -176 c 14 -24 7 -69 27 -83 c 46 -2 91 -4 135 -14 c 28 -12 48 -47 48 -75 c -4 -33 9 -67 -3 -100 c -11 -38 -56 -66 -95 -49 c -23 5 -61 20 -78 10 c -2 -29 -1 -60 -11 -88 c -18 -35 -60 -35 -93 -39 c -38 -8 -78 -11 -116 -4 z"/>
  <path fill="#ef7b93" d="m942 551c11-3 22-3 33-2 20 2 38 13 49 31 6 12 10 25 11 39 2 14 1 29-3 43 0 4-1 9-4 12-3 6-9 12-15 16-8 4-17 8-26 9-14 3-27 3-41 2l-20-5c-23-7-40-25-46-48-4-11-6-23-6-35 1-9 2-17 6-25 3-4 6-9 12-11 5-3 11-3 16-1 6 1 11 5 14 11l13 23c2 6 6 12 11 16 4 3 8 5 13 6 6 2 12 2 18 0h2c3-1 7-4 9-8 2-3 2-8 1-12l-2-7c-1-1-2-2-4-2-4-1-8 0-12 1-7 0-14 1-21-1-9-2-17-9-21-18-3-7-4-18 1-26 2-4 6-7 12-8z"/>
  <path fill="#ef7b93" d="m 888 129 l -5 10 c 7 15 13 30 17 47 l 0 2 c 3 13 5 26 6 39 c 3 19 4 38 4 58 l -1 95 c 1 22 2 45 6 67 c 3 16 8 32 16 47 c 7 12 14 22 25 31 c 4 3 10 4 15 1 c 5 -2 8 -6 11 -10 c 9 -25 16 -51 21 -77 c 16 -97 20 -197 11 -295 l -8 -5 l -3 0 c -11 0 -21 -2 -31 -3 c -18 -2 -36 -7 -55 -8 c -9 -1 -18 -1 -28 0 l -1 1 z"/>
  <path fill="#ef7b93" d="m906 381c61 1 122 0 183-4 33-2 65-6 97-11l8-18-1-12-1-11c2-11 4-22 5-34 0-11-1-22-4-33-2-4-5-6-8-9-2-2-5-2-7-2l-13 4c-34 11-68 17-103 19-43 4-88 6-132 8-32 2-64 3-96 8-13 2-27 5-41 9-11 3-22 7-34 13-5 3-11 7-17 12-6 6-9 19-7 30 1 7 5 14 11 17l11 4 21 3 56 5 72 2z"/>
</svg>
