<svg xmlns="http://www.w3.org/2000/svg" version="1.2" viewBox="0 0 2048 2048">
  <path fill="#000" d="m963 15c-36 16-48 13-84 31-28 14-44 31-44 65 0 35 9 49 35 63 34 27 57 65 79 103-38 64-83 134-72 212 4 20 12 35-14 39-50 30-53 100-33 149 20 52 75 85 130 83 52 2 112-20 128-74 18-59 7-133-46-171 24-15 37-71 68-50 34 17 81 11 102-24 27-43 4-96-10-140 4-31 30-61 38-94 6-25-18-56-41-69-35-26-78-58-108-74-31-15-38-37-55-54-11-18-55 7-73 5z"/>
  <path fill="#ef7b93" d="m942 551c11-3 22-3 33-2 20 2 38 13 49 31 6 12 10 25 11 39 2 14 1 29-3 43 0 4-1 9-4 12-3 6-9 12-15 16-8 4-17 8-26 9-14 3-27 3-41 2l-20-5c-23-7-40-25-46-48-4-11-6-23-6-35 1-9 2-17 6-25 3-4 6-9 12-11 5-3 11-3 16-1 6 1 11 5 14 11l13 23c2 6 6 12 11 16 4 3 8 5 13 6 6 2 12 2 18 0h2c3-1 7-4 9-8 2-3 2-8 1-12l-2-7c-1-1-2-2-4-2-4-1-8 0-12 1-7 0-14 1-21-1-9-2-17-9-21-18-3-7-4-18 1-26 2-4 6-7 12-8z"/>
  <path fill="#ef7b93" d="m1080 124s0 0 0 0c9 4 17 9 25 14 15 11 28 23 43 34 8 7 16 13 25 18 1 1 2 1 3 2 2 3 3 6 4 9-4 10-8 20-13 30-10 21-22 43-34 63-19 32-40 63-62 93-15 22-32 43-49 63-12 14-24 28-37 40-6 6-12 12-20 16-4 2-9 4-14 4s-10-4-12-9c-5-13-6-26-6-39 0-17 4-33 10-49 7-21 18-41 29-61 15-27 32-54 47-81 10-17 19-35 27-53 2-4 4-9 6-13 1-5 3-9 5-14 1-3 2-6 3-9 0-1 0-2 0-3 1-3 2-6 3-10 1-3 2-6 2-9 2-10 3-20 4-30 4-2 7-4 11-6z"/>
  <path fill="#ef7b93" d="m893 107c0 4 0 8 0 11 8 6 16 12 23 19 3 2 5 4 8 6 2 3 5 5 7 8 1 0 1 1 2 1 2 3 4 5 6 8 4 3 7 7 10 11s6 8 9 11c11 16 22 33 32 50 16 27 30 55 46 82 12 19 24 38 39 55 10 13 23 24 37 33 11 7 24 12 37 15 5 0 11-2 14-7 3-4 4-9 3-14 0-8-1-16-3-25-4-17-10-34-16-51-10-26-20-51-31-75-15-34-31-67-49-100-12-21-24-42-38-61-6-9-13-18-19-26-4 0-7-2-10-1-1 0-2 1-3 1-9 6-19 10-28 14-17 6-35 12-51 20-9 4-17 8-25 14 0 0 0 0 0 1z"/>
</svg>
