<?xml version="1.0" encoding="UTF-8" standalone="no"?>
<svg
   version="2.0"
   viewBox="0 0 2048 2048"
   id="svg2"
   sodipodi:docname="hat_headphones.svg"
   xml:space="preserve"
   inkscape:version="1.3.2 (091e20e, 2023-11-25, custom)"
   inkscape:export-filename="..\..\parts\hat_headphones.png"
   inkscape:export-xdpi="12"
   inkscape:export-ydpi="12"
   xmlns:inkscape="http://www.inkscape.org/namespaces/inkscape"
   xmlns:sodipodi="http://sodipodi.sourceforge.net/DTD/sodipodi-0.dtd"
   xmlns="http://www.w3.org/2000/svg"
   xmlns:svg="http://www.w3.org/2000/svg"><defs
     id="defs2"><filter
       style="color-interpolation-filters:sRGB"
       id="filter7"
       inkscape:label="music_glow"
       x="-0.49339207"
       y="-0.22615617"
       width="1.9867841"
       height="1.4523123"><feFlood
         id="feFlood7"
         flood-color="rgb(113,195,252)" /><feComposite
         id="feComposite7"
         in2="SourceGraphic"
         operator="in" /><feMorphology
         radius="40"
         id="feMorphology7"
         operator="dilate" /><feGaussianBlur
         stdDeviation="30"
         id="feGaussianBlur7" /><feComposite
         id="feComposite8"
         in="SourceGraphic" /></filter><symbol
       id="symbol17"><path
         id="path3"
         style="fill:#980c22;fill-opacity:1;stroke:none;stroke-width:44.9115;stroke-linejoin:round;paint-order:markers stroke fill"
         d="M 1970.6519 84.05734 L 1694.2691 204.05734 L 1694.2691 559.89132 A 120 60 0 0 0 1612.0054 543.55734 A 120 60 0 0 0 1492.0054 603.55734 A 120 60 0 0 0 1612.0054 663.55734 A 120 60 0 0 0 1731.939 604.05734 L 1732.9995 604.05734 L 1732.9995 324.05734 L 1970.6519 220.87375 L 1970.6519 439.89132 A 120 60 0 0 0 1888.3882 423.55734 A 120 60 0 0 0 1768.3882 483.55734 A 120 60 0 0 0 1888.3882 543.55734 A 120 60 0 0 0 2008.3218 484.05734 L 2009.3824 484.05734 L 2009.3824 204.05734 L 2009.3824 84.05734 L 1970.6519 84.05734 z " /></symbol></defs><sodipodi:namedview
     id="namedview2"
     pagecolor="#ffffff"
     bordercolor="#666666"
     borderopacity="1.0"
     inkscape:showpageshadow="2"
     inkscape:pageopacity="0.0"
     inkscape:pagecheckerboard="0"
     inkscape:deskcolor="#d1d1d1"
     inkscape:zoom="0.36181641"
     inkscape:cx="1181.5385"
     inkscape:cy="1062.6937"
     inkscape:window-width="1920"
     inkscape:window-height="1001"
     inkscape:window-x="-9"
     inkscape:window-y="-9"
     inkscape:window-maximized="1"
     inkscape:current-layer="headphones" /><style
     id="style1">
    .fur{fill:#070362}
    .paw{fill:#393581}
    .hand{fill:#393581}
    .outline{stroke:#000}
    .iris{fill:#2a980e}
    .sclera{fill:#FFF}
    .mouth{fill:#000}
    .nose{fill:#000}
    .spots{fill:#000}
  </style><g
     id="headphones"
     transform="translate(-28.291498,191.20648)"><g
       id="left_headphone"
       stroke-linejoin="round"
       transform="rotate(-15,1465.2318,44.002099)"><path
         id="headphone_outline"
         stroke="#000000"
         stroke-width="64"
         d="m 1541,244 c -11,0 -24,2 -37,6 l -8,3 c -40,15 -65,48 -55,74 l 188,516 c 9,26 49,36 90,21 l 8,-3 c 40,-15 65,-47 55,-74 l -5,-13 3,-1 c 26,-10 44,-29 46,-47 -9,-88 -44,-191 -57,-226 -25.22,-73.935 -59.48,-144.47 -102,-210 -13,-12 -39,-15 -65,-6 l -3,1 -5,-14 c -6,-18 -27,-28 -53,-27 z" /><path
         id="headphone_led"
         fill="#1907fa"
         d="m 1602,284 c 26,-9 52,-6 65,6 17,25 60,94 102,210 13,35 48,138 57,226 -2,18 -20,37 -46,47 l -3,1 -178,-489 z"
         style="filter:url(#filter7)" /><path
         id="headphone_earcover"
         fill="#272c29"
         d="m 1504,250 c 41,-14 81,-5 90,21 l 188,516 c 10,27 -15,59 -55,74 l -8,3 c -41,15 -81,5 -90,-21 L 1441,327 c -10,-26 15,-59 55,-74 z" /></g><use
       href="#left_headphone"
       id="right_headphone"
       x="-2102"
       y="0"
       transform="matrix(-1,0,0,1,0,-2.582579e-6)" /><path
       id="headphone_band"
       fill="#272c29"
       stroke="#000000"
       stroke-linejoin="round"
       stroke-width="69.3172"
       d="m 1051,181.65774 c -438.81647,0 -539.25402,113.80557 -539.25402,113.80557 l -69.34974,161.8786 c 0,0 68.15405,-81.42984 608.60376,-81.42984 540.4497,0 608.6038,81.42984 608.6038,81.42984 l -69.3498,-161.8786 c 0,0 -100.4375,-113.80557 -539.254,-113.80557 z"
       style="stroke-width:32;stroke-dasharray:none" /></g></svg>
