<?xml version="1.0" encoding="UTF-8" standalone="no"?>
<svg
   width="2048"
   height="2048"
   viewBox="0 0 2048 2048"
   version="1.1"
   id="svg8"
   inkscape:version="1.3.2 (091e20e, 2023-11-25, custom)"
   xml:space="preserve"
   sodipodi:docname="hat_apple_shot.svg"
   inkscape:export-filename="..\hat_apple_2048.png"
   inkscape:export-xdpi="96"
   inkscape:export-ydpi="96"
   xmlns:inkscape="http://www.inkscape.org/namespaces/inkscape"
   xmlns:sodipodi="http://sodipodi.sourceforge.net/DTD/sodipodi-0.dtd"
   xmlns="http://www.w3.org/2000/svg"
   xmlns:svg="http://www.w3.org/2000/svg"
   xmlns:rdf="http://www.w3.org/1999/02/22-rdf-syntax-ns#"
   xmlns:cc="http://creativecommons.org/ns#"
   xmlns:dc="http://purl.org/dc/elements/1.1/"><sodipodi:namedview
     id="base"
     pagecolor="#ffffff"
     bordercolor="#666666"
     borderopacity="1.0"
     inkscape:pageopacity="0.0"
     inkscape:pageshadow="2"
     inkscape:zoom="0.49497475"
     inkscape:cx="1048.5383"
     inkscape:cy="548.51283"
     inkscape:document-units="px"
     inkscape:current-layer="layer1"
     inkscape:document-rotation="0"
     showgrid="false"
     units="px"
     scale-x="1"
     inkscape:showpageshadow="2"
     inkscape:pagecheckerboard="0"
     inkscape:deskcolor="#d1d1d1"
     inkscape:window-width="1920"
     inkscape:window-height="1001"
     inkscape:window-x="-9"
     inkscape:window-y="-9"
     inkscape:window-maximized="1" /><defs
     id="defs2" /><metadata
     id="metadata5"><rdf:RDF><cc:Work
         rdf:about=""><dc:format>image/svg+xml</dc:format><dc:type
           rdf:resource="http://purl.org/dc/dcmitype/StillImage" /><dc:title /><cc:license
           rdf:resource="http://creativecommons.org/licenses/by-nc-sa/4.0/" /></cc:Work><cc:License
         rdf:about="http://creativecommons.org/licenses/by-nc-sa/4.0/"><cc:permits
           rdf:resource="http://creativecommons.org/ns#Reproduction" /><cc:permits
           rdf:resource="http://creativecommons.org/ns#Distribution" /><cc:requires
           rdf:resource="http://creativecommons.org/ns#Notice" /><cc:requires
           rdf:resource="http://creativecommons.org/ns#Attribution" /><cc:prohibits
           rdf:resource="http://creativecommons.org/ns#CommercialUse" /><cc:permits
           rdf:resource="http://creativecommons.org/ns#DerivativeWorks" /><cc:requires
           rdf:resource="http://creativecommons.org/ns#ShareAlike" /></cc:License></rdf:RDF></metadata><g
     inkscape:label="Layer 1"
     inkscape:groupmode="layer"
     id="layer1"><path
       id="path1"
       style="display:inline;fill:#000000;fill-opacity:1;stroke:none;stroke-width:1.72294;stroke-linecap:butt;stroke-linejoin:miter;stroke-opacity:1"
       d="m 808.63281,2.9042969 c -0.2062,20.1403561 -0.76508,40.2774311 -0.72732,60.4198721 0.25109,23.004482 4.48669,46.164131 14.03396,67.181691 1.59305,3.49298 3.3281,6.92134 5.20703,10.26953 -21.26297,3.32973 -41.76001,10.76377 -60.73544,20.83304 -37.33764,19.97378 -68.47836,51.55363 -87.36499,89.50188 -13.27262,26.51263 -21.00488,55.53916 -24.74998,84.87417 -7.14447,56.79749 1.10979,115.26441 22.54548,168.27104 0.33507,0.82176 0.66298,1.64643 1.01001,2.46323 -40.46957,13.81871 -80.9314,27.66298 -121.39844,41.49023 -70.06178,41.51183 -140.12327,83.02416 -210.18554,124.53516 -3.14985,12.31459 -6.30087,24.62888 -9.45117,36.94336 -8.93478,5.34387 -18.02152,10.45457 -26.70173,16.20813 -9.66901,7.48861 -14.79109,20.18349 -13.54958,32.29027 0.20794,10.31499 3.62665,20.26807 8.0267,29.49769 5.62493,11.76281 12.9148,22.81924 22.11955,32.09373 6.47568,6.41147 14.45472,11.55131 23.39769,13.65004 8.38003,2.0022 17.39554,1.23762 25.29146,-2.22639 3.37971,-1.42471 6.4875,-3.38988 9.55989,-5.37073 5.37731,-3.21362 10.75999,-6.41813 16.14703,-9.6154 11.85354,3.0331 23.70687,6.06705 35.56055,9.09961 70.06292,-41.51036 140.12507,-83.02202 210.1875,-124.5332 31.3299,-28.61472 62.65877,-57.23056 93.98828,-85.84571 1.52409,-0.90429 3.04818,-1.80859 4.57227,-2.71289 16.89015,18.42478 35.48674,35.21976 54.87023,50.97442 14.70946,11.74761 30.24293,22.64516 47.21417,30.88927 13.76802,6.63183 28.75311,11.22935 44.11467,11.62311 14.53911,0.39314 29.10046,-3.12832 42.01373,-9.77669 7.86829,-3.86147 15.16733,-8.79009 23.08993,-12.54409 2.97247,-1.42505 6.3501,-0.90599 9.47336,-0.39493 8.43314,1.29718 16.67574,3.7411 24.91291,5.77102 16.83128,4.36736 33.77328,8.65105 51.11408,10.40844 18.7229,2.00839 37.8508,1.30393 56.171,-3.2425 19.2141,-4.69301 37.3801,-13.38691 53.3419,-25.03561 18.9144,-13.66921 34.8789,-31.06505 48.433,-49.97978 10.4167,-14.49471 19.7085,-29.75599 28.765,-45.1252 22.4917,-38.75657 41.0783,-80.01434 52.6492,-123.38449 9.2746,-35.0202 13.6776,-71.5735 10.5497,-107.75625 -1.4886,-17.15623 -4.6534,-34.18069 -9.6387,-50.6689 16.0925,-9.53581 32.1849,-19.07162 48.2774,-28.60743 4.721,-1.17486 9.7805,-0.38464 14.132,1.70058 8.9835,3.52676 19.5065,2.52715 27.8021,-2.34373 3.998,-2.27628 7.4034,-5.4535 10.3495,-8.9601 11.0631,-11.99803 22.2914,-23.8425 33.4168,-35.77537 55.2146,-58.96549 110.4283,-117.93178 165.6433,-176.896764 -103.1494,26.50895 -206.298,53.021353 -309.4472,79.531244 -0.5524,7.63507 -0.3897,15.3112 -1.1783,22.9299 -0.5105,4.05504 -2.0854,8.04649 -4.9151,11.04789 -16.1492,11.03511 -32.6734,21.53327 -49.6859,31.62182 -22.0632,-20.44084 -48.8475,-35.92134 -77.855,-44.03494 -27.1678,-7.72409 -55.9012,-9.3301 -83.8832,-5.89729 -0.5639,0.0684 -1.1287,0.13035 -1.6915,0.20762 -1.384,-13.29628 -6.2309,-26.12568 -13.4637,-37.33143 -1.1893,-2.228156 -1.9947,-4.647731 -3.352,-6.790285 -6.1219,-10.540738 -16.6996,-18.239096 -28.4534,-21.299772 -15.60533,-4.480616 -33.17369,-2.103448 -46.77389,6.862899 C 952.80904,72.209703 943.02541,65.966176 933.41168,59.589187 906.73081,42.173911 878.30314,27.395123 848.56681,15.927654 835.27363,10.608526 821.97509,5.3038795 808.67578,0 c -0.0143,0.9680989 -0.0286,1.9361979 -0.043,2.9042969 z"
       sodipodi:nodetypes="sccccccccccccccccccccccccccccccccccccccccccccccccccccccccccss"
       inkscape:label="bolt_outline" /><path
       id="path34"
       style="fill:#1a1a1a"
       d="m 808.57812,7.8847656 c -0.25495,18.9078124 -0.73284,37.8151254 -0.65149,56.7255894 0.41986,24.198496 5.31965,48.757545 16.24398,70.550405 0.94051,1.87795 1.94178,3.72447 2.91533,5.58533 -4.92301,0.855 -9.83302,1.79773 -14.68164,3.01172 -1.70896,0.42736 -3.61791,0.92427 -5.39232,1.42573 -7.38073,2.06452 -14.62714,4.59916 -21.7112,7.52154 -1.42638,0.58945 -3.04612,1.27794 -4.47405,1.9129 -14.23539,6.2633 -27.78114,14.09756 -40.25476,23.39063 -3.05951,2.27194 -6.26877,4.80213 -9.25166,7.28827 -6.4523,5.38834 -12.58178,11.16216 -18.3457,17.28124 -1.69932,1.81691 -3.55288,3.85201 -5.19727,5.73633 -3.81552,4.37167 -7.51582,8.98956 -10.90625,13.61328 -8.99369,12.2103 -16.52848,25.47304 -22.59844,39.3656 -7.34132,16.71627 -12.63736,34.29062 -16.2746,52.16956 -1.18659,5.85255 -2.23846,11.95657 -3.07527,17.87142 -1.66852,11.69924 -2.65266,23.49327 -3.02044,35.30436 -0.0432,1.96347 -0.1087,4.13009 -0.11987,6.1725 -0.06,4.53927 0.003,9.21243 0.12573,13.66539 0.36908,11.92618 1.37277,23.8313 2.99414,35.65235 0.28267,1.94429 0.57824,4.09241 0.90355,6.10956 1.30952,8.44077 2.95673,16.82786 4.88747,25.14825 0.45442,1.87521 0.93794,3.95481 1.44048,5.89972 1.77011,7.06802 3.81887,14.17954 6.0146,21.0534 1.05543,3.25935 2.13861,6.50675 3.2711,9.68011 1.52432,4.33605 3.20111,8.75654 4.86952,12.95075 7.67474,19.1985 17.12317,37.87209 28.11201,55.47013 1.02404,1.66795 2.12883,3.3561 3.15752,4.98105 16.88429,26.06901 37.17864,49.86713 59.82099,71.10349 6.0087,5.61876 12.23826,11.14492 18.46146,16.58678 14.19787,12.34067 29.03574,24.03473 45.09255,33.88004 6.93276,4.25645 14.33033,8.27041 21.80867,11.49459 13.14826,5.66896 27.34726,9.4065 41.74325,9.22778 10.25775,-0.0999 20.49932,-2.03436 30.07113,-5.72823 0.628,-0.25526 1.56132,-0.61288 2.29713,-0.93119 0.97465,-0.40674 1.87654,-0.8102 2.75844,-1.22432 9.12917,-4.06448 17.48195,-9.61945 26.36394,-14.16245 2.6048,-1.2202 5.58945,-1.50528 8.39691,-0.92443 7.68042,0.97899 15.14111,3.12872 22.64197,4.97579 11.99592,3.06142 23.96857,6.26159 36.13147,8.60644 1.7966,0.33341 3.7984,0.70781 5.6809,1.01795 4.6327,0.77472 9.2922,1.38392 13.9617,1.8883 0.7436,0.0735 1.7921,0.16992 2.6528,0.25222 3.9082,0.35587 8.1473,0.6047 12.1389,0.69819 8.0384,0.19787 16.0215,-0.14976 24.0266,-1.15158 7.806,-0.98763 15.8307,-2.64984 23.384,-4.88477 2.5437,-0.75599 5.2767,-1.63737 7.8549,-2.56407 10.9935,-3.9146 21.6486,-9.22244 31.4873,-15.61686 15.0705,-9.71477 28.4684,-21.87464 40.2582,-35.34836 14.8951,-17.00628 27.1856,-36.292 38.8746,-55.61279 13.5047,-22.34464 25.6561,-45.52581 36.0246,-69.49312 3.194,-7.39974 6.2261,-14.90794 9.0399,-22.40636 8.6272,-23.0282 15.523,-46.75011 19.763,-70.99005 0.7248,-4.12355 1.3687,-8.21892 1.9453,-12.4037 1.4075,-10.18354 2.3505,-20.59633 2.7353,-30.93544 0.3114,-8.16122 0.2758,-16.5314 -0.1285,-24.7662 -0.2062,-4.08886 -0.5134,-8.19234 -0.9149,-12.32484 -0.297,-3.04906 -0.6749,-6.29081 -1.0976,-9.40432 -0.821,-6.02923 -1.8785,-12.22911 -3.1573,-18.25832 -1.2579,-5.94687 -2.7733,-12.05172 -4.5042,-17.96651 -4.6892,-16.18776 -11.158,-31.8519 -19.2133,-46.6543 -13.5543,-25.03576 -31.4437,-47.79234 -52.9842,-66.44249 -6.8101,-5.83698 -14.0252,-11.19903 -21.5702,-16.04859 -1.2491,-0.79069 -2.6952,-1.69992 -4.0325,-2.51495 -2.636,-1.5936 -5.3247,-3.14512 -7.9728,-4.57787 -13.5068,-7.35909 -27.9309,-13.02197 -42.8267,-16.85445 -0.8565,-0.21422 -2.0578,-0.52182 -2.9326,-0.72905 -7.0405,-1.69783 -14.1763,-2.99244 -21.3585,-3.91939 -1.6363,-0.20652 -3.4934,-0.42455 -5.2179,-0.60278 -2.3166,-0.233 -4.4895,-0.42568 -6.8287,-0.5861 -1.9822,-0.14322 -3.9556,-0.25307 -5.9972,-0.33685 -7.7253,-0.33138 -15.4668,-0.23324 -23.1847,0.22886 -1.6459,0.11004 -3.5108,0.2396 -5.2382,0.38594 -3.4461,0.28874 -6.8839,0.66791 -10.3165,1.08671 -0.8048,-6.83587 -2.3689,-13.58735 -4.8052,-20.02935 -1.5479,-4.16279 -3.4777,-8.28744 -5.5893,-12.1015 -0.9332,-1.67562 -2.0141,-3.49975 -3.0957,-5.17774 -1.4364,-2.807056 -2.5396,-5.794535 -4.3496,-8.398437 -6.4592,-10.081684 -17.0566,-17.262723 -28.664,-20.019049 -15.03005,-3.969159 -31.69744,-1.623687 -44.86778,6.707131 -0.54876,0.590862 -1.02501,0.316697 -1.47943,-0.217779 C 951.22424,71.019326 940.59337,64.354825 930.16586,57.496823 906.29941,42.174618 881.02762,28.948642 854.65757,18.343607 840.953,12.900009 827.16682,7.3431226 813.42451,1.8675322 c -1.58296,-0.6320348 -3.16554,-1.26600216 -4.74873,-1.89682908 -0.0326,2.63802088 -0.0651,5.27604168 -0.0977,7.91406248 z"
       inkscape:label="apple_outline" /><g
       id="g7"
       inkscape:label="bolt"
       style="display:inline"
       transform="translate(0,2.1582031)"><path
         id="path3"
         style="fill:#c6c3c4;fill-opacity:1;stroke:none;stroke-width:1.72294;stroke-linecap:butt;stroke-linejoin:miter;stroke-opacity:1"
         d="m 1273.89,195.059 c 0,0 14.11,-5.748 23.9,-18.686 9.79,-12.937 11.1,-25.979 11.1,-25.979 l 156.29,-40.172 -110.3,117.789 c 0,0 -12.07,-5.12 -28.12,-2.746 -16.05,2.375 -27.87,11.985 -27.87,11.985 z" /><path
         id="rect4"
         style="fill:#4d4d4d;stroke:none;stroke-width:27.0069;stroke-linecap:round;stroke-linejoin:round;paint-order:stroke fill markers"
         d="m 1277.24,207.238 80,-47.396 c 5.71,-3.384 13.03,-1.511 16.41,4.2 3.38,5.71 1.51,13.031 -4.2,16.415 l -79.99,47.396 c -5.71,3.384 -13.03,1.51 -16.42,-4.2 -3.38,-5.71 -1.51,-13.031 4.2,-16.415 z" /><path
         style="fill:#4d4d4d;fill-opacity:1;stroke:#000000;stroke-width:1.97677;stroke-linecap:butt;stroke-linejoin:miter;stroke-opacity:1"
         d="M 732.528,568.875 624.107,667.933 430.841,782.448 390.83,772.21 Z"
         id="path6" /><path
         style="fill:#4d4d4d;fill-opacity:1;stroke:#000000;stroke-width:1.97677;stroke-linecap:butt;stroke-linejoin:miter;stroke-opacity:1"
         d="M 711.407,533.228 572.448,580.749 379.183,695.264 368.945,735.275 Z"
         id="path7" /><path
         id="rect5"
         style="display:inline;opacity:1;fill:#4d4d4d;stroke-width:37.5061;stroke-linecap:round;stroke-linejoin:round;paint-order:stroke fill markers"
         d="M 335.144,752.692 877.484,431.341 902.169,473 359.828,794.351 Z" /><path
         id="rect2"
         style="opacity:1;fill:#0000ff;stroke-width:37.5061;stroke-linecap:round;stroke-linejoin:round;paint-order:stroke fill markers"
         d="M 733.7,516.537 1274.6082,194.55365 1300.73,236.845 758.385,558.196 Z"
         sodipodi:nodetypes="ccccc" /><path
         id="path5"
         style="fill:#4d4d4d;stroke-width:39.5354;stroke-linecap:round;stroke-linejoin:round;paint-order:stroke fill markers"
         d="m 353.418,770.049 c 3.291,5.553 5.88,11.214 7.2,15.737 1.32,4.523 1.261,7.538 -0.162,8.381 -2.965,1.757 -10.923,-6.193 -17.775,-17.756 -6.851,-11.563 -10.002,-22.361 -7.037,-24.118 1.424,-0.844 4.096,0.553 7.43,3.883 3.333,3.33 7.054,8.32 10.344,13.873 z" /></g><g
       id="g2"
       inkscape:label="apple"
       transform="translate(0,2.1582031)"><path
         id="leaf"
         fill="#7eb865"
         stroke="#344714"
         stroke-linecap="round"
         stroke-linejoin="round"
         stroke-width="16.1084"
         d="m 958.248,189.624 c 0,0 15.235,-57.077 -28.603,-88.775 C 885.808,69.1514 845.859,53.6171 845.859,53.6171 844.477,129.389 885.61,161.134 958.248,189.624 Z" /><path
         id="leaf_midrib"
         fill="none"
         stroke="#344714"
         stroke-linecap="round"
         stroke-width="8.05421"
         d="m 954.516,182.475 c 0,0 -40.672,-57.002 -66.197,-72.788" /><path
         id="stem"
         fill="#79473c"
         d="m 1000.13,109.538 -16.065,9.298 c 43.205,47.039 -37.332,82.712 -37.332,82.712 l 35.11,-3.318 c 0,0 62.397,-41.668 18.287,-88.692 z"
         style="stroke-width:0.901619" /><path
         id="stem_top"
         style="fill:#ebb889;stroke-width:0.901619"
         d="m 1004.35,113.162 c 0.06,3.684 -5.377,6.767 -12.148,6.885 -6.771,0.118 -12.313,-2.773 -12.377,-6.457 -0.064,-3.684 5.373,-6.767 12.144,-6.885 6.771,-0.118 12.311,2.773 12.381,6.457 z" /><path
         id="apple"
         fill="#cf380a"
         d="m 996.157,191.668 c 0,0 124.253,-62.587 209.863,37.817 85.64,101.306 49.25,238.106 -30.71,358.534 -79.96,120.427 -166.79,53.409 -215.474,54.259 -47.778,0.834 -50.11,73.917 -172.084,-42.986 -121.088,-117.82 -112.091,-273.981 -68.244,-345.083 42.945,-71.087 130.027,-93.347 163.775,-71.392 33.732,21.053 112.874,8.851 112.874,8.851 z"
         style="stroke-width:0.901619" /></g><g
       id="g12"
       inkscape:label="bolt"
       transform="translate(0,2.1582031)"
       style="display:inline"><path
         style="fill:#4d4d4d;fill-opacity:1;stroke:#000000;stroke-width:1.97677;stroke-linecap:butt;stroke-linejoin:miter;stroke-opacity:1"
         d="M 732.528,568.875 624.107,667.933 430.841,782.448 390.83,772.21 Z"
         id="path10" /><path
         style="fill:#4d4d4d;fill-opacity:1;stroke:#000000;stroke-width:1.97677;stroke-linecap:butt;stroke-linejoin:miter;stroke-opacity:1"
         d="M 711.407,533.228 572.448,580.749 379.183,695.264 368.945,735.275 Z"
         id="path11" /><path
         id="rect11"
         style="display:inline;opacity:1;fill:#4d4d4d;fill-opacity:1;stroke:none;stroke-width:37.5061;stroke-linecap:round;stroke-linejoin:round;paint-order:stroke fill markers"
         d="m 818.976,466.008 -483.833,286.684 24.685,41.66 488.247,-289.299 z" /><path
         id="rect12"
         style="opacity:1;fill:#0000ff;stroke:none;stroke-width:37.5061;stroke-linecap:round;stroke-linejoin:round;paint-order:stroke fill markers"
         d="m 818.974,466.008 -85.274,50.528 24.684,41.659 89.691,-53.144 z" /><path
         id="ellipse12"
         style="fill:#4d4d4d;stroke-width:39.5354;stroke-linecap:round;stroke-linejoin:round;paint-order:stroke fill markers"
         d="m 353.418,770.049 c 3.291,5.553 5.88,11.214 7.2,15.737 1.32,4.523 1.261,7.538 -0.162,8.381 -2.965,1.757 -10.923,-6.193 -17.775,-17.756 -6.851,-11.563 -10.002,-22.361 -7.037,-24.118 1.424,-0.844 4.096,0.553 7.43,3.883 3.333,3.33 7.054,8.32 10.344,13.873 z" /></g></g></svg>
