<?xml version="1.0" encoding="UTF-8" standalone="no"?>
<svg
   width="2048"
   height="2048"
   viewBox="0 0 2048 2048"
   version="1.1"
   id="svg8"
   inkscape:version="1.3.2 (091e20e, 2023-11-25, custom)"
   xml:space="preserve"
   sodipodi:docname="hat_chef.svg"
   xmlns:inkscape="http://www.inkscape.org/namespaces/inkscape"
   xmlns:sodipodi="http://sodipodi.sourceforge.net/DTD/sodipodi-0.dtd"
   xmlns="http://www.w3.org/2000/svg"
   xmlns:svg="http://www.w3.org/2000/svg"
   xmlns:rdf="http://www.w3.org/1999/02/22-rdf-syntax-ns#"
   xmlns:cc="http://creativecommons.org/ns#"
   xmlns:dc="http://purl.org/dc/elements/1.1/"><defs
     id="defs2" /><sodipodi:namedview
     id="base"
     pagecolor="#ffffff"
     bordercolor="#666666"
     borderopacity="1.0"
     inkscape:pageopacity="0.0"
     inkscape:pageshadow="2"
     inkscape:zoom="0.49497475"
     inkscape:cx="939.44187"
     inkscape:cy="550.53314"
     inkscape:document-units="px"
     inkscape:current-layer="layer1"
     inkscape:document-rotation="0"
     showgrid="false"
     units="px"
     scale-x="1"
     inkscape:showpageshadow="2"
     inkscape:pagecheckerboard="0"
     inkscape:deskcolor="#d1d1d1"
     inkscape:window-width="1920"
     inkscape:window-height="1001"
     inkscape:window-x="-9"
     inkscape:window-y="-9"
     inkscape:window-maximized="1" /><metadata
     id="metadata5"><rdf:RDF><cc:Work
         rdf:about=""><dc:format>image/svg+xml</dc:format><dc:type
           rdf:resource="http://purl.org/dc/dcmitype/StillImage" /><cc:license
           rdf:resource="http://creativecommons.org/licenses/by-nc-sa/4.0/" /></cc:Work><cc:License
         rdf:about="http://creativecommons.org/licenses/by-nc-sa/4.0/"><cc:permits
           rdf:resource="http://creativecommons.org/ns#Reproduction" /><cc:permits
           rdf:resource="http://creativecommons.org/ns#Distribution" /><cc:requires
           rdf:resource="http://creativecommons.org/ns#Notice" /><cc:requires
           rdf:resource="http://creativecommons.org/ns#Attribution" /><cc:prohibits
           rdf:resource="http://creativecommons.org/ns#CommercialUse" /><cc:permits
           rdf:resource="http://creativecommons.org/ns#DerivativeWorks" /><cc:requires
           rdf:resource="http://creativecommons.org/ns#ShareAlike" /></cc:License></rdf:RDF></metadata><g
     inkscape:label="Layer 1"
     inkscape:groupmode="layer"
     id="layer1"><path
       id="path14"
       style="fill:none;stroke:#000000;stroke-width:96;stroke-linecap:butt;stroke-linejoin:round;stroke-dasharray:none"
       d="M 1475.9227 317.41404 C 1483.221 297.28466 1487.8789 272.76619 1487.8789 240.87109 C 1487.8786 141.56686 1427.3765 101.06475 1328.0723 101.06445 C 1289.0365 101.22929 1271.1146 114.09321 1240.0352 137.71289 C 1216.6212 62.595204 1167.0864 51.425508 1088.4043 51.412109 C 1034.1212 51.542546 1002.8022 76.189558 968.76562 118.47656 C 934.64353 76.083641 903.15773 51.425118 848.73828 51.412109 L 848.73828 51.412109 C 770.24802 51.507649 720.88946 62.505099 697.39453 137.39648 C 666.19742 113.83114 648.16938 101.07628 609.07227 101.06445 C 509.76725 101.06365 449.26395 141.56607 449.26367 240.87109 C 449.26367 272.76619 453.92169 297.28466 461.22008 317.41403 " /><path
       id="path1"
       style="fill:#ffffff;stroke:#000000;stroke-width:48;stroke-linecap:round;stroke-linejoin:round;stroke-dasharray:none"
       d="m 848.73828,51.412109 c -78.49034,0.09554 -127.8488,11.092915 -151.34375,85.984371 -31.19714,-23.56536 -49.22511,-36.3202 -88.32226,-36.33203 -99.30512,-8e-4 -159.80832,40.50152 -159.8086,139.80664 0,147.27115 99.3086,137.27115 99.3086,264.11231 v 110.33887 c 0,62.74014 26.76003,113.25 60,113.25 h 720.00003 c 33.2399,0 60,-50.50986 60,-113.25 V 504.9834 c 0,-126.84116 99.3066,-116.84116 99.3066,-264.11231 -3e-4,-99.30433 -60.5023,-139.80634 -159.8066,-139.80664 -39.0358,0.16484 -56.9577,13.02874 -88.0371,36.64844 -23.414,-75.117761 -72.9487,-86.287382 -151.6309,-86.300781 -54.2832,0.130437 -85.6021,24.777407 -119.63868,67.064451 C 934.6435,76.083599 903.15778,51.425118 848.73828,51.412109 Z"
       sodipodi:nodetypes="cccccssssccccccc" /><path
       id="path7"
       style="fill:none;stroke:#000000;stroke-width:24;stroke-linecap:round;stroke-linejoin:miter;stroke-dasharray:none;stroke-opacity:1"
       d="m 735.89268,324.27773 c 17.26129,75.71608 29.82161,173.34684 29.82161,297.1508" /><path
       id="path8"
       style="fill:none;stroke:#000000;stroke-width:24;stroke-linecap:round;stroke-linejoin:miter;stroke-dasharray:none;stroke-opacity:1"
       d="m 1201.9534,324.27773 c -17.2613,75.71608 -29.8216,173.34684 -29.8216,297.1508" /><path
       id="path9"
       style="fill:none;stroke:#000000;stroke-width:24;stroke-linecap:round;stroke-linejoin:miter;stroke-opacity:1;stroke-dasharray:none"
       d="M 968.76562 324.28552 L 968.76562 621.42853 " /><rect
       style="fill:#ffffff;stroke:#000000;stroke-width:48;stroke-linecap:round;stroke-linejoin:round;stroke-dasharray:none"
       id="rect1"
       width="840"
       height="147.14285"
       x="548.57147"
       y="581.42853"
       rx="60"
       ry="31.530613" /></g></svg>
