<svg xmlns="http://www.w3.org/2000/svg" viewBox="0 0 2048 2048">
  <defs>
    <linearGradient id="bow_gradient" x1="1569" y1="669" x2="1596" y2="304" gradientUnits="userSpaceOnUse">
      <stop offset="0" stop-color="#f09bad"/>
      <stop offset=".4" stop-color="#f09bad"/>
      <stop offset=".6" stop-color="#f5bfc4"/>
      <stop offset="1" stop-color="#f5bfc4"/>
    </linearGradient>
  </defs>
  <path id="bow_background" fill="#fff" d="M2010 420c-42-21-90-9-134-7-90 10-174 42-259 71-4-44-7-88-20-131-19-75-48-151-97-212-29-29-69-6-89 22-67 73-97 174-105 271-4 57 1 120 39 165 39 35 96 27 141 11 32-11 62-29 91-47 3 59-2 126 37 175 34 28 81 19 120 15a357 357 0 0 0 286-232c10-30 25-81-10-101Z"/>
  <path id="bow_fill" fill="url(#bow_gradient)" d="M1802 426c-63 15-124 37-185 58-4-44-7-88-20-131l-13-45c-20-21-56-43-90 22-45 87-43 261 27 265l56-32c1 23 1 47 3 70 31 36 83 22 128-3 55-31 94-74 115-136 14-41-7-60-21-68Z"/>
  <path id="outline" fill="none"  stroke="#000" stroke-linejoin="round" stroke-width="48" d="M2010 420c-42-21-90-9-134-7-90 10-174 42-259 71-4-44-7-88-20-131-19-75-48-151-97-212-29-29-69-6-89 22-67 73-97 174-105 271-4 57 1 120 39 165 39 35 96 27 141 11 32-11 62-29 91-47 3 59-2 126 37 175 34 28 81 19 120 15a357 357 0 0 0 286-232c10-30 25-81-10-101Z"/>
</svg>
