<?xml version="1.0" encoding="UTF-8" standalone="no"?>
<svg
   viewBox="0 0 2048 2048"
   version="1.1"
   id="svg6"
   sodipodi:docname="mouth_nom_wrench.svg"
   xml:space="preserve"
   inkscape:export-filename="..\..\..\..\..\..\..\Downloads\neoDLR_nom_wrench.png"
   inkscape:export-xdpi="96"
   inkscape:export-ydpi="96"
   inkscape:version="1.3.2 (091e20e, 2023-11-25, custom)"
   xmlns:inkscape="http://www.inkscape.org/namespaces/inkscape"
   xmlns:sodipodi="http://sodipodi.sourceforge.net/DTD/sodipodi-0.dtd"
   xmlns:xlink="http://www.w3.org/1999/xlink"
   xmlns="http://www.w3.org/2000/svg"
   xmlns:svg="http://www.w3.org/2000/svg"><sodipodi:namedview
     id="namedview6"
     pagecolor="#ffffff"
     bordercolor="#666666"
     borderopacity="1.0"
     inkscape:showpageshadow="2"
     inkscape:pageopacity="0.0"
     inkscape:pagecheckerboard="0"
     inkscape:deskcolor="#d1d1d1"
     inkscape:zoom="0.51168567"
     inkscape:cx="1261.5167"
     inkscape:cy="1456.9491"
     inkscape:window-width="1920"
     inkscape:window-height="1001"
     inkscape:window-x="-9"
     inkscape:window-y="-9"
     inkscape:window-maximized="1"
     inkscape:current-layer="svg6" /><defs
     id="defs4"><linearGradient
       id="disk_gradient"
       gradientTransform="scale(0.617688,1.6189403)"
       x1="1306.4848"
       y1="817.20122"
       x2="1507.2334"
       y2="817.20122"
       gradientUnits="userSpaceOnUse"><stop
         offset="0"
         stop-color="#fff"
         id="stop1" /><stop
         offset=".5"
         stop-color="#fff"
         stop-opacity=".8"
         id="stop2" /><stop
         offset="1"
         stop-color="#fff"
         stop-opacity="0"
         id="stop3" /></linearGradient><clipPath
       id="disk_clip"><path
         d="M869 1323a162 162 0 0 0-162 162 162 162 0 0 0 162 163 162 162 0 0 0 162-163 162 162 0 0 0-162-162zm0 127a35 35 0 0 1 35 35 35 35 0 0 1-35 36 35 35 0 0 1-35-36 35 35 0 0 1 35-35z"
         id="path3" /></clipPath><clipPath
       id="mouth_clip"><path
         d="m1187 1284-191 162-159-158-127 157-99-156-322 3 6 690 1104-9-5-690z"
         id="path4" /></clipPath><clipPath
       clipPathUnits="userSpaceOnUse"
       id="clipPath8"><path
         style="fill:none;stroke:#000000;stroke-width:1px;stroke-linecap:butt;stroke-linejoin:miter;stroke-opacity:1"
         d="m -770.17328,908.93842 -693.47592,642.19848 -257.4783,-480.3843 36.7588,-524.88891 725.72593,-100.03378 z"
         id="path9"
         sodipodi:nodetypes="cccccc" /></clipPath></defs><g
     clip-path="url(#mouth_clip)"
     transform="matrix(0.98697665,0,0,0.98697665,34.217664,44.583741)"
     id="g6"><path
       fill="#bdeaf3"
       stroke="#000000"
       stroke-linecap="round"
       stroke-linejoin="round"
       stroke-width="100"
       d="m 804,1298 a 191,191 0 0 0 -110,247 191,191 0 0 0 247,111 191,191 0 0 0 110,-248 191,191 0 0 0 -247,-110 z m 54,140 a 41,41 0 0 1 53,24 41,41 0 0 1 -23,54 41,41 0 0 1 -54,-25 41,41 0 0 1 24,-53 z"
       paint-order="markers stroke fill"
       id="path5"
       style="display:none" /><path
       fill="url(#disk_gradient)"
       d="m 807,1288 124,395 -89,8 54,-411 z"
       clip-path="url(#disk_clip)"
       style="display:none;mix-blend-mode:normal;fill:url(#disk_gradient)"
       transform="matrix(1.1014382,-0.42280251,0.42280251,1.1014382,-712.37103,208.38985)"
       id="path6" /><image
       width="693.11182"
       height="693.11182"
       preserveAspectRatio="none"
       xlink:href="../../../../../../../Documents/Python%20Scripts/neocat_compare/emoji/neowrench_googly_woozy2.png"
       id="image1"
       x="-1502.8385"
       y="824.64404"
       transform="rotate(-75)" /></g><path
     id="mouth"
     fill="none"
     stroke="#000000"
     stroke-linecap="round"
     stroke-linejoin="round"
     stroke-width="78.9582"
     d="m 643.18225,1312.8489 97.71069,154.9553 125.34604,-159.8902 155.94222,162.8511 190.4865,-159.8902"
     style="stroke:#32120b;stroke-opacity:1" /><image
     width="693.11182"
     height="693.11182"
     preserveAspectRatio="none"
     xlink:href="../../../../../../../Documents/Python%20Scripts/neocat_compare/emoji/neowrench_googly_woozy2.png"
     id="image6"
     x="-1513.5873"
     y="843.26147"
     transform="matrix(0.25544836,-0.95334623,0.95334623,0.25544836,19.214559,29.580625)"
     clip-path="url(#clipPath8)" /></svg>
