<svg xmlns="http://www.w3.org/2000/svg" version="1.2" viewBox="0 0 2048 2048">
  <style>
    .mouth{stroke:#292023}
  </style>
  <defs>
    <clipPath id="below_mouth" clipPathUnits="userSpaceOnUse">
      <path id="path2" d="m 610 1334 l 98 154 c 14 24 47 25 64 4 l 97 -124 l 125 130 c 14 15 38 16 54 3 l 190 -160 v -1341 h 810 v 2048 h -2048 v -2048 h 610 z"/>
    </clipPath>
    <symbol id="fry">
      <path fill="#ffaf2d" d="m 15 0 l 16 0 c 17 0 32 14 32 32 l 0 368 c 0 18 -15 32 -32 32 l -31 0" />
      <path fill="#fbcc3e" d="m 0 432 l -34 0 c -18 0 -32 -14 -32 -32 l 0 -368 c 0 -18 14 -32 32 -32 l 0 0 l 49 0 z"/>
    </symbol>
  </defs>
  <path id="mouth" fill="none" stroke-linecap="round" stroke-linejoin="round" stroke-width="80" d="m643 1313 98 155 125-160 156 163 191-160" class="mouth"/>
  <g id="french_fries" clip-path="url(#below_mouth)">
    <path id="fry_outline" class="mouth" stroke-opacity="0.75" stroke-width="32" fill="none" d="m 802 1249 l -114 350 c -6 17 3 35 21 40 l 62 20 c 16 5 35 -3 40 -21 l 33 -100 l 1 35 c 0 18 15 32 33 31 l 65 -1 c 17 0 32 -15 31 -33 v -27 l 25 107 c 4 18 21 28 38 24 l 63 -15 c 17 -4 28 -21 24 -38 l -83 -359 z" />
    <use href="#fry" x="907" y="1173" transform="rotate(-1 907 1373)" />
    <use href="#fry" x="804" y="1228" transform="rotate(18 804 1458)" />
    <use href="#fry" x="1017" y="1242" transform="rotate(-13 1017 1442)" />
  </g>
</svg>