<?xml version="1.0" encoding="UTF-8" standalone="no"?>
<svg
   width="2048"
   height="2048"
   viewBox="0 0 2048 2048"
   version="1.1"
   id="svg8"
   inkscape:version="1.3.2 (091e20e, 2023-11-25, custom)"
   xml:space="preserve"
   sodipodi:docname="mouth_neocat_woozy.svg"
   xmlns:inkscape="http://www.inkscape.org/namespaces/inkscape"
   xmlns:sodipodi="http://sodipodi.sourceforge.net/DTD/sodipodi-0.dtd"
   xmlns="http://www.w3.org/2000/svg"
   xmlns:svg="http://www.w3.org/2000/svg"
   xmlns:rdf="http://www.w3.org/1999/02/22-rdf-syntax-ns#"
   xmlns:cc="http://creativecommons.org/ns#"
   xmlns:dc="http://purl.org/dc/elements/1.1/"><defs
     id="defs2" /><sodipodi:namedview
     id="base"
     pagecolor="#ffffff"
     bordercolor="#666666"
     borderopacity="1.0"
     inkscape:pageopacity="0.0"
     inkscape:pageshadow="2"
     inkscape:zoom="0.49497475"
     inkscape:cx="502.04581"
     inkscape:cy="1451.5892"
     inkscape:document-units="px"
     inkscape:current-layer="layer1"
     inkscape:document-rotation="0"
     showgrid="false"
     units="px"
     scale-x="1"
     inkscape:showpageshadow="2"
     inkscape:pagecheckerboard="0"
     inkscape:deskcolor="#d1d1d1"
     inkscape:window-width="1920"
     inkscape:window-height="1001"
     inkscape:window-x="-9"
     inkscape:window-y="-9"
     inkscape:window-maximized="1" /><metadata
     id="metadata5"><rdf:RDF><cc:Work
         rdf:about=""><dc:format>image/svg+xml</dc:format><dc:type
           rdf:resource="http://purl.org/dc/dcmitype/StillImage" /><cc:license
           rdf:resource="http://creativecommons.org/licenses/by-nc-sa/4.0/" /></cc:Work><cc:License
         rdf:about="http://creativecommons.org/licenses/by-nc-sa/4.0/"><cc:permits
           rdf:resource="http://creativecommons.org/ns#Reproduction" /><cc:permits
           rdf:resource="http://creativecommons.org/ns#Distribution" /><cc:requires
           rdf:resource="http://creativecommons.org/ns#Notice" /><cc:requires
           rdf:resource="http://creativecommons.org/ns#Attribution" /><cc:prohibits
           rdf:resource="http://creativecommons.org/ns#CommercialUse" /><cc:permits
           rdf:resource="http://creativecommons.org/ns#DerivativeWorks" /><cc:requires
           rdf:resource="http://creativecommons.org/ns#ShareAlike" /></cc:License></rdf:RDF></metadata><g
     inkscape:label="Layer 1"
     inkscape:groupmode="layer"
     id="layer1"><path
       id="outline"
       class="outline"
       d="m 1022.3536,1242.5152 c -3.361,0.2241 -6.498,1.1204 -9.6349,2.0167 -5.6018,1.7925 -10.9794,4.2573 -16.35708,6.498 l -66.1004,28.0086 a 205.24736,205.24736 0 0 0 -111.81052,-0.4481 c -0.89627,0 -1.79255,-0.6722 -2.68883,-0.8963 l -68.78923,-29.8012 c -8.06649,-3.137 -16.58112,-5.3777 -25.31982,-4.9295 a 42.125004,42.125004 0 0 0 -33.16224,18.8218 41.004658,41.004658 0 0 0 -7.17021,23.3032 l -0.44814,38.0918 -0.22407,80.2167 a 216.22675,216.22675 0 0 0 -13.89229,70.1337 c -0.44813,17.2533 -0.6722,34.5066 2.01663,51.7599 a 145.86903,145.86903 0 0 0 115.84376,116.9641 c 13.22008,2.4648 26.8883,2.2407 40.55652,2.2407 h 131.30453 a 117.41225,117.41225 0 0 0 84.02589,-39.6602 c 13.6683,-15.6848 23.0792,-34.9548 26.2161,-55.5692 2.6889,-17.0292 2.0167,-34.5066 2.2407,-51.984 -0.224,-19.494 0.2241,-39.2121 -2.2407,-58.7061 -1.7925,-13.6682 -4.9295,-27.1124 -9.6349,-40.1084 -0.4482,-0.8963 -0.2241,-2.0166 0,-2.9129 l 3.5851,-34.0585 7.3943,-67.2208 c 0.4481,-8.0665 -0.2241,-16.357 -2.9129,-23.9754 a 40.780589,40.780589 0 0 0 -36.7474,-27.5605 z"
       style="stroke-width:0.224069" /><path
       id="body"
       class="fur"
       d="M 804.55841,1615.1423 A 115.17155,115.17155 0 0 1 696.10894,1509.3816 c -1.79256,-33.8344 -0.44814,-68.7892 13.66821,-100.1589 0.22407,-42.3491 -0.22406,-84.9222 0.67221,-127.2713 9.63498,-21.7347 32.26596,-2.0166 47.05453,2.4648 l 59.15426,25.3198 c 36.97141,-12.7719 78.20014,-12.7719 115.17155,0.4481 l 90.0758,-38.3158 c 24.6476,-2.4647 16.133,27.1124 14.7886,41.9009 l -9.8591,87.6111 c 12.3238,27.7846 13.6682,58.258 12.772,88.0592 -0.4482,28.6808 4.2573,59.8264 -12.772,85.1463 a 87.835115,87.835115 0 0 1 -81.78522,40.7805 c -46.83045,0 -93.66091,0.2241 -140.49137,-0.224 z"
       style="stroke-width:0.224069" /><g
       id="whiskers"
       transform="matrix(0.22406917,0,0,0.22406917,638.07502,1199.2699)"><path
         id="whisker_tr"
         class="whisker"
         stroke-linecap="round"
         stroke-width="77"
         d="M 479,1312 351,1248" /><path
         id="whisker_tl"
         class="whisker"
         stroke-linecap="round"
         stroke-width="77"
         d="m 1440,1312 192,-96" /><use
         id="whisker_br"
         href="#whisker_tr"
         transform="matrix(-1,0,0,1,830,192)" /><use
         id="whisker_bl"
         href="#whisker_tl"
         transform="matrix(-1,0,0,1,3072,224)" /></g><path
       class="mouth"
       fill="none"
       stroke="currentColor"
       stroke-linecap="round"
       stroke-linejoin="round"
       stroke-width="17.9255"
       d="m 774.12159,1493.279 c -2.01662,8.0665 6.04987,25.9921 16.80519,28.4568 19.71809,4.4814 27.78458,-24.4235 43.02128,-20.6143 14.34043,3.8091 19.04588,31.8178 45.93418,27.3364 15.23671,-2.4648 27.56051,-19.9422 30.24934,-34.9548"
       id="path7"
       style="color:#80461b" /><path
       id="left_eye-7"
       class="iris"
       fill="currentColor"
       d="m 881.7767,1414.5942 v 14.5645 a 28.680854,28.680854 0 0 0 56.0173,8.0665 l -56.0173,-22.631"
       style="color:#006400;stroke-width:0.224069" /><path
       id="left_eyebrow"
       class="iris"
       fill="none"
       stroke="currentColor"
       stroke-linejoin="round"
       stroke-linecap="round"
       stroke-width="17.9255"
       d="m 889.46429,1363.8526 c 5.60173,11.8757 23.3032,25.0958 49.29522,21.5107"
       style="color:#006400;fill:none;stroke:#000000" /><path
       id="right_eye-5"
       class="iris"
       fill="currentColor"
       d="m 752.48879,1420.8681 55.79322,-16.133 a 28.680854,28.680854 0 0 1 1.56849,7.1702 v 16.8052 a 28.680855,28.680855 0 0 1 -57.36171,0 z"
       style="color:#006400;stroke-width:0.224069" /><path
       id="right_eyebrow"
       class="iris"
       fill="none"
       stroke="currentColor"
       stroke-linejoin="round"
       stroke-linecap="round"
       stroke-width="17.9255"
       d="m 759.50418,1378.1931 c 7.39428,-9.4109 20.61437,-21.5107 43.46942,-21.9588"
       style="color:#006400;fill:none;stroke:#000000" /></g><style
     id="style1">
    .fur{fill:#fdc75a}
    .outline{fill:#000}
    .iris{fill:#000}
    .mouth{stroke:#542912}
    .whisker{stroke:#8e5e31}
  </style></svg>
