<svg xmlns="http://www.w3.org/2000/svg" version="1.2" viewBox="0 0 2048 2048">
  <style>
    .mouth{stroke:#000000}
  </style>
  <defs>
    <clipPath id="mouth_clip" clipPathUnits="userSpaceOnUse">
      <path d="m399 1768 240-482 98 154c14 24 47 25 64 4l97-124 125 130c14 15 38 16 54 3l190-160v475z"/>
    </clipPath>
  </defs>
  <path id="mouth" class="mouth" fill="none" stroke-linecap="round" stroke-linejoin="round" stroke-width="80" d="m643 1313 98 155 125-160 156 163 191-160"/>
  <g id="onigiri" stroke="none" stroke-linecap="round" stroke-linejoin="round" clip-path="url(#mouth_clip)" transform="translate(-29 48)">
    <path id="side" fill="#d9a36e" d="M1076 1684c-71 29-148 12-226 12-77 0-154 17-225-12-41-16-68-70-57-113a610 610 0 0 1 216-326c35-27 98-27 133 0a610 610 0 0 1 216 326c11 43-16 97-57 113z"/>
    <path id="rice" fill="#fff" d="M1016 1724c-71 29-148 12-226 12-77 0-154 17-225-12-41-16-68-70-57-113a610 610 0 0 1 216-326c35-27 98-27 133 0a610 610 0 0 1 216 326c11 43-16 97-57 113z"/>
    <rect id="wrap" width="295" height="235" x="643" y="1506" fill="#2d400e"/>
  </g>
</svg>
