<?xml version="1.0" encoding="UTF-8" standalone="no"?>
<svg
   version="1.2"
   viewBox="0 0 2048 2048"
   id="svg1"
   sodipodi:docname="mouth_nom_brains.svg"
   inkscape:version="1.3.2 (091e20e, 2023-11-25, custom)"
   xml:space="preserve"
   inkscape:export-filename="..\..\parts\mouth_nom_brains.png"
   inkscape:export-xdpi="12"
   inkscape:export-ydpi="12"
   xmlns:inkscape="http://www.inkscape.org/namespaces/inkscape"
   xmlns:sodipodi="http://sodipodi.sourceforge.net/DTD/sodipodi-0.dtd"
   xmlns="http://www.w3.org/2000/svg"
   xmlns:svg="http://www.w3.org/2000/svg"><sodipodi:namedview
     id="namedview1"
     pagecolor="#ffffff"
     bordercolor="#666666"
     borderopacity="1.0"
     inkscape:showpageshadow="2"
     inkscape:pageopacity="0.0"
     inkscape:pagecheckerboard="0"
     inkscape:deskcolor="#d1d1d1"
     showgrid="false"
     inkscape:zoom="0.51168567"
     inkscape:cx="855.99427"
     inkscape:cy="1767.6868"
     inkscape:window-width="1920"
     inkscape:window-height="1001"
     inkscape:window-x="-9"
     inkscape:window-y="-9"
     inkscape:window-maximized="1"
     inkscape:current-layer="chocolate" /><style
     id="style1">
    .mouth{stroke:#000}
  </style><defs
     id="defs1"><clipPath
       clipPathUnits="userSpaceOnUse"
       id="clipPath55"><path
         id="path55"
         d="m 1429.2577,-148.71918 -95.8897,433.44659 c -11.2734,66.36188 -105.23,99.39149 -179.7203,68.63294 L 723.55067,168.58192 520.69385,573.94464 c -22.18644,46.37764 -90.18784,71.00475 -152.09375,57.07637 L -373.35312,453.13132 -2709.3245,1209.3556 -1852.0457,2779.2297 4054.2127,867.19609 3188.446,-718.22139 Z"
         style="stroke-width:2.74513" /></clipPath></defs><path
     id="mouth"
     fill="none"
     stroke-linecap="round"
     stroke-linejoin="round"
     stroke-width="80"
     d="m 643,1313 98,155 125,-160 156,163 191,-160"
     class="mouth"
     style="display:inline" /><g
     id="chocolate"
     clip-path="url(#clipPath55)"
     transform="matrix(-0.29465998,0.12389144,0.16090827,0.38269978,1055.0752,1213.842)"><g
       id="g55"
       inkscape:label="brain"
       transform="matrix(1.4112469,0.21677394,-0.35203498,1.1250185,-379.67383,-335.34715)"><path
         id="path51"
         style="display:inline;fill:none;fill-opacity:1;stroke:#000000;stroke-width:131.766;stroke-linecap:butt;stroke-linejoin:round;stroke-dasharray:none;stroke-opacity:1"
         d="m 981.49805,75.017578 c -96.50431,1.354271 -106.9375,78.396482 -106.9375,78.396482 0,0 -19.54349,-58.629175 -146.57422,-51.78906 -127.03072,6.84011 -89.89844,95.76172 -89.89844,95.76172 0,0 -158.78502,10.6903 -176.86719,78.17383 -18.08215,67.48349 77.68555,150.07031 77.68555,150.07031 l 0.40039,-0.15039 c -22.52708,12.03436 -58.27702,40.56021 -75.41992,105.17578 -33.62493,126.74008 113.76599,173.04675 133.03711,178.53711 -2.29702,13.50227 -3.37887,27.47521 -3.18555,41.75781 1.06016,78.32337 90.12001,168.44922 174.94141,168.44922 85.01428,0 141.69043,-10.975 177.93164,-31.43945 3.22647,3.25427 98.68337,98.80571 189.71097,114.29496 -0.083,-0.014 -0.1666,-0.023 -0.25,-0.037 l -1.5547,0.7343 c 6.7031,1.257 15.4452,3.132 25.6992,5.8692 10.254,2.7372 22.0206,6.3372 34.7754,11.041 6.3774,2.3519 13.001,4.9793 19.8066,7.914 6.8057,2.9348 13.7938,6.1756 20.8965,9.7539 7.1027,3.5784 14.3195,7.4946 21.5879,11.7774 7.2684,4.2828 14.5877,8.9324 21.8906,13.9805 7.3029,5.048 14.5908,10.495 21.7969,16.3691 7.2061,5.8741 14.3306,12.1766 21.3086,18.9375 6.978,6.7609 13.8091,13.9789 20.4277,21.6875 6.6187,7.7086 13.0243,15.9061 19.1524,24.623 6.128,8.717 11.9782,17.9541 17.4844,27.7403 5.5061,9.7862 10.6688,20.1228 15.4218,31.039 4.753,10.9163 9.0963,22.4125 12.9649,34.5196 3.8686,12.1071 7.2623,24.8249 10.1152,38.1836 0,0 1.9445,1.3732 5.5,3.6015 3.5555,2.2284 8.7221,5.3128 15.1621,8.7344 6.44,3.4216 14.1551,7.1801 22.8086,10.7598 8.6535,3.5797 18.2454,6.9789 28.4414,9.6816 5.098,1.3514 10.3473,2.5288 15.7051,3.4668 5.3578,0.938 10.8237,1.6379 16.3574,2.0332 5.5337,0.3953 11.134,0.4858 16.7598,0.209 5.6258,-0.2768 11.2781,-0.9217 16.9121,-2 5.634,-1.0783 11.2503,-2.5904 16.8086,-4.5996 5.5583,-2.0092 11.0583,-4.5164 16.457,-7.5859 5.3988,-3.0696 10.6963,-6.6998 15.8516,-10.959 5.1553,-4.2592 10.168,-9.1464 14.9961,-14.7246 0,0 1.9879,-7.1572 4.3906,-19.1446 1.2013,-5.9937 2.507,-13.1942 3.7187,-21.3125 1.2118,-8.1183 2.3297,-17.155 3.1582,-26.8164 0.8286,-9.6614 1.3681,-19.9473 1.42,-30.5703 0.052,-10.623 -0.3836,-21.5828 -1.502,-32.5859 -1.1184,-11.0032 -2.9194,-22.0499 -5.6015,-32.8516 -1.3411,-5.4009 -2.9032,-10.7409 -4.709,-15.9824 -1.4818,-4.3011 -3.1732,-8.5149 -4.9981,-12.6641 l 2.8047,-0.4629 c 41.1311,-9.2665 82.4762,-23.7633 115.2676,-51.0937 23.9978,-19.7917 41.0367,-48.3598 44.7148,-79.45509 5.1544,-40.19761 -7.6188,-80.34682 -25.9785,-115.68946 -2.8,-4.98497 -5.1305,-10.3717 -8.334,-15.12695 l 32.5235,-18.02344 c 69.3367,-41.60209 82.7511,-115.98689 46.0722,-171.46875 15.9687,-7.32719 149.5075,-71.51847 88.7774,-145.13086 L 1807.75,406.5 c 0,0 76.2183,-173.93533 -95.7617,-193.47852 -39.2077,-4.4554 -71.4403,-3.90048 -97.9453,-0.43945 -1.1463,-2.48643 -46.7215,-99.28201 -201.0664,-103.14062 -38.633,-0.96583 -69.4835,7.75489 -94.0782,21.40234 -1.5183,-4.96197 -12.7267,-27.60057 -92.5605,-38.013672 -89.8986,-11.725913 -87.9434,91.853512 -87.9434,91.853512 0,0 2.9312,-89.899405 -124.0996,-107.488278 -11.9091,-1.648955 -22.81365,-2.317831 -32.79685,-2.177734 z M 1134.5176,1002.9531 c -9.3152,-1.7468 -15.166,-2.4453 -15.166,-2.4453 z"
         inkscape:label="outline" /><path
         id="path42"
         style="display:inline;fill:#cd6284;fill-opacity:1;stroke:#000000;stroke-width:64;stroke-linecap:butt;stroke-linejoin:round;stroke-dasharray:none;stroke-opacity:1;paint-order:markers stroke fill"
         d="m 1276.1738,936.12109 -1.4824,0.69922 c -11.8448,24.72811 -35.7688,46.87224 -78.6445,61.83985 -19.0056,6.63464 -39.3735,7.11814 -59.9746,3.55864 l -1.5547,0.7343 c 53.6249,10.0562 237.6817,59.6959 283.3281,273.4356 0,0 124.5114,87.8692 201.7598,-1.3828 0,0 31.8147,-114.5073 -5.3008,-194.6582 l -0.1582,-0.025 z m -141.6562,66.83201 c -9.3152,-1.7468 -15.166,-2.4453 -15.166,-2.4453 z"
         inkscape:label="stem" /><path
         id="path48"
         style="fill:#dc5c6f;fill-opacity:1;stroke:#000000;stroke-width:64;stroke-linecap:round;stroke-linejoin:round;stroke-dasharray:none;stroke-opacity:1;paint-order:markers stroke fill"
         d="m 1588.4395,800.20117 c -0.5776,0.0387 -1.1549,0.0766 -1.7325,0.11524 -4.6593,2.16523 -3.0615,8.46572 -5.1172,12.39062 -5.6288,20.1784 -19.2343,37.01045 -34.1855,51.19141 -25.5178,22.71062 -55.5271,41.4302 -88.5859,50.05078 -15.8693,3.99625 -32.2752,4.40442 -48.4746,2.72656 -37.2626,-5.05943 -69.2503,-26.78138 -97.4668,-50.41992 -10.9003,-8.63677 -21.1206,-18.35272 -33.084,-25.51758 -4.1429,-1.93599 -7.022,3.25966 -5.2266,6.71875 4.1038,15.14393 6.9628,30.51345 6.3789,46.32227 -15.1312,63.05346 31.505,95.56402 80.2324,133.3535 42.4829,31.9893 92.3338,55.2259 145.293,62.461 20.0671,3.1205 40.4547,2.5386 60.6602,1.4531 l 51.1562,-8.4317 c 41.1311,-9.2665 82.4762,-23.7633 115.2676,-51.0937 23.9978,-19.7917 41.0367,-48.35977 44.7148,-79.45509 5.1544,-40.19765 -7.6188,-80.34679 -25.9785,-115.68946 -3.5412,-6.3045 -6.2642,-13.29884 -11.0547,-18.77343 -4.3112,-2.18318 -9.124,1.16215 -13.5879,1.5957 -38.6557,8.19308 -78.7197,3.27544 -115.8476,-9.63867 -8.1307,-2.54046 -15.4546,-6.45644 -23.3613,-9.35938 z"
         sodipodi:nodetypes="ccccccccccccccccccccc"
         inkscape:label="cerebellum" /><path
         id="path41"
         style="display:inline;fill:#ffb1d1;fill-opacity:1;stroke:#000000;stroke-width:64;stroke-linecap:butt;stroke-linejoin:miter;stroke-dasharray:none;stroke-opacity:1;paint-order:markers stroke fill"
         inkscape:label="gray_matter"
         d="m 981.49805,75.017578 c -96.50422,1.35427 -106.9375,78.396482 -106.9375,78.396482 0,0 -19.54362,-58.629168 -146.57422,-51.78906 -127.03059,6.8401 -89.89844,95.76172 -89.89844,95.76172 0,0 -158.78503,10.69036 -176.86719,78.17383 -18.08213,67.48342 77.68555,150.07031 77.68555,150.07031 l 0.40039,-0.15039 c -22.52706,12.03435 -58.27704,40.56027 -75.41992,105.17578 -33.6249,126.73995 113.76601,173.04675 133.03711,178.53711 -2.29702,13.50226 -3.37887,27.47523 -3.18555,41.75781 1.06016,78.32329 90.12009,168.44922 174.94141,168.44922 85.01419,0 141.69046,-10.97502 177.93164,-31.43945 3.22646,3.25426 98.68337,98.80576 189.71097,114.29496 20.5157,3.5124 40.796,3.012 59.7246,-3.59574 41.9414,-14.64148 70.5519,-34.28198 77.7695,-60.2461 2.3175,-8.33661 8.0019,-19.52785 7.129,-44.63476 0.5839,-15.8088 -2.2751,-31.17836 -6.3789,-46.32227 -1.7954,-3.45909 1.0837,-8.65474 5.2266,-6.71875 11.9634,7.16484 22.1837,16.88083 33.084,25.51758 28.2163,23.6385 60.2042,45.36051 97.4668,50.41992 16.1992,1.67786 32.6053,1.26967 48.4746,-2.72656 33.0586,-8.62056 63.0681,-27.34022 88.5859,-50.05078 14.9512,-14.18094 28.5567,-31.01305 34.1855,-51.19141 2.0557,-3.92488 0.4579,-10.22541 5.1172,-12.39062 0.5776,-0.0386 1.1549,-0.0765 1.7325,-0.11524 7.9065,2.90294 15.2306,6.81892 23.3613,9.35938 37.1277,12.91407 78.9824,31.94195 156.8448,-2.9876 77.8625,-34.92955 90.586,-119.33333 53.9071,-174.81514 15.9687,-7.32718 149.5074,-71.51854 88.7774,-145.13086 L 1807.75,406.5 c 0,0 76.2181,-173.93535 -95.7617,-193.47852 -39.2077,-4.45539 -71.4404,-3.90048 -97.9453,-0.43945 -1.1463,-2.48643 -46.7217,-99.28202 -201.0664,-103.14062 -38.633,-0.96583 -69.4835,7.7549 -94.0782,21.40234 -1.5183,-4.96197 -12.7268,-27.60058 -92.5605,-38.013672 -89.8985,-11.725901 -87.9434,91.853512 -87.9434,91.853512 0,0 2.9311,-89.899422 -124.0996,-107.488278 -11.9091,-1.648953 -22.81366,-2.317831 -32.79685,-2.177734 z M 1134.5176,1002.9531 c 6.7031,1.257 15.4452,3.132 25.6992,5.8692 -10.254,-2.7372 -18.9961,-4.6122 -25.6992,-5.8692 z m 25.6992,5.8692 C 0,0 0,0 1160.2168,1008.8223 Z"
         sodipodi:nodetypes="scscsccscssccsscccccccccccccccscscscssccccc" /><g
         id="g54"
         inkscape:label="squiggles"><path
           id="path3"
           style="fill:none;stroke:#000000;stroke-width:24;stroke-linecap:round;stroke-linejoin:round;stroke-dasharray:none;stroke-opacity:1"
           d="m 1290.717,861.96456 c -13.1609,-41.15319 -51.6751,-93.91491 -51.6751,-93.91491"
           sodipodi:nodetypes="cc" /><path
           style="fill:none;stroke:#000000;stroke-width:24;stroke-linecap:round;stroke-linejoin:round;stroke-dasharray:none;stroke-opacity:1"
           d="m 1440.3374,701.60261 c 0,0 84.0359,66.44704 166.1176,-5.86298 78.9705,-69.56921 39.0865,-158.30031 39.0865,-158.30031"
           id="path7"
           sodipodi:nodetypes="csc" /><path
           id="path10"
           style="fill:none;stroke:#000000;stroke-width:24;stroke-linecap:round;stroke-linejoin:round;stroke-dasharray:none;stroke-opacity:1"
           d="m 1325.6257,114.9579 c -74.9563,40.92092 -98.6761,142.52439 -98.6761,142.52439"
           sodipodi:nodetypes="cc" /><path
           style="fill:none;stroke:#000000;stroke-width:24;stroke-linecap:round;stroke-linejoin:round;stroke-dasharray:none;stroke-opacity:1"
           d="m 1196.1282,335.13446 c 0,0 -4.1405,-87.01125 103.4978,-124.06738 92.2927,-31.77316 84.036,89.89894 84.036,89.89894 0,0 134.8484,-84.03597 218.8844,17.58893 62.2711,75.30456 13.6802,220.8387 -138.7571,201.29545"
           id="path11"
           sodipodi:nodetypes="cscsc" /><path
           id="path12"
           style="fill:none;stroke:#000000;stroke-width:24;stroke-linecap:round;stroke-linejoin:round;stroke-dasharray:none;stroke-opacity:1"
           d="m 583.74906,713.66665 c 14.12716,-83.04193 89.1258,-143.78236 206.6633,-152.07386"
           sodipodi:nodetypes="cc" /><path
           id="path49"
           style="fill:none;stroke:#000000;stroke-width:24;stroke-linecap:round;stroke-linejoin:round;stroke-dasharray:none;stroke-opacity:1"
           d="m 1002.5686,783.68425 c 0,45.01172 -13.22243,93.1338 -53.25876,116.38409"
           sodipodi:nodetypes="cc" /><path
           style="fill:none;stroke:#000000;stroke-width:24;stroke-linecap:round;stroke-linejoin:round;stroke-dasharray:none;stroke-opacity:1"
           d="m 1466.2132,516.83671 c 0,0 2.7639,226.63428 -232.1619,58.04048 0,0 -56.6585,228.0162 -223.8705,64.95007"
           id="path13"
           sodipodi:nodetypes="ccc" /><path
           style="fill:none;stroke:#000000;stroke-width:24;stroke-linecap:round;stroke-linejoin:round;stroke-dasharray:none;stroke-opacity:1"
           d="m 791.83806,561.05803 c 0,0 1.38191,-77.38731 99.49797,-100.87989 98.11606,-23.49258 153.39267,42.8394 153.39267,42.8394 0,0 41.4575,-92.58839 123.6815,-106.40755 77.9781,-13.10557 183.795,37.31174 183.795,37.31174"
           id="path14"
           sodipodi:nodetypes="cscsc" /><path
           style="fill:none;stroke:#000000;stroke-width:24;stroke-linecap:round;stroke-linejoin:round;stroke-dasharray:none;stroke-opacity:1"
           d="m 656.65314,602.90921 c 0,0 -49.85438,-79.2426 -20.12059,-152.14271 24.24451,-59.44172 87.13511,-75.13138 87.13511,-75.13138"
           id="path15"
           sodipodi:nodetypes="csc" /><path
           id="path16"
           style="fill:none;stroke:#000000;stroke-width:24;stroke-linecap:round;stroke-linejoin:round;stroke-dasharray:none;stroke-opacity:1"
           d="m 518.92394,424.29916 c 14.8016,-8.96836 33.92357,-11.10618 48.60643,-5.75125"
           sodipodi:nodetypes="cc" /><path
           style="fill:none;stroke:#000000;stroke-width:24;stroke-linecap:round;stroke-linejoin:round;stroke-dasharray:none;stroke-opacity:1"
           d="m 710.30499,381.40891 c 0,0 -38.69365,-91.20648 106.40756,-67.7139 0,0 5.52767,-92.5884 147.86505,-55.27666"
           id="path17" /><path
           style="fill:none;stroke:#000000;stroke-width:24;stroke-linecap:round;stroke-linejoin:round;stroke-dasharray:none;stroke-opacity:1"
           d="m 870.16313,127.5197 c -14.16886,32.49065 -5.3744,69.86711 6.84013,82.08164"
           id="path19"
           sodipodi:nodetypes="cc" /><path
           style="fill:none;stroke:#000000;stroke-width:24;stroke-linecap:round;stroke-linejoin:round;stroke-dasharray:none;stroke-opacity:1"
           d="m 1136.6668,130.44348 c 11.4008,50.09447 2.216,139.25334 -38.8248,152.44504"
           id="path20"
           sodipodi:nodetypes="cc" /><path
           style="fill:none;stroke:#000000;stroke-width:24;stroke-linecap:round;stroke-linejoin:round;stroke-dasharray:none;stroke-opacity:1"
           d="m 626.34076,186.33148 c 0,0 69.45411,-10.13715 96.40148,31.32034"
           id="path21"
           sodipodi:nodetypes="cc" /></g></g></g></svg>
