<svg xmlns="http://www.w3.org/2000/svg" version="1.2" viewBox="0 0 2048 2048">
  <style>
    .mouth{stroke:#37270c}
  </style>
  <defs>
    <clipPath id="below_mouth" clipPathUnits="userSpaceOnUse">
      <path id="path2" d="m 610 1334 l 98 154 c 14 24 47 25 64 4 l 97 -124 l 125 130 c 14 15 38 16 54 3 l 190 -160 v -1341 h 810 v 2048 h -2048 v -2048 h 610 z"/>
    </clipPath>
  </defs>
  <path id="mouth" class="mouth" fill="none" stroke-linecap="round" stroke-linejoin="round" stroke-width="80" d="m643 1313 98 155 125-160 156 163 191-160"/>
  <g id="bone" clip-path="url(#below_mouth)">
    <path id="outline" stroke-width="128" fill="none" stroke="#000000" d="m287 1216c50 0 96 21 128 55 80 83 221 137 308 137h602c87 0 228-54 308-137 32-34 77-55 127-55 97 0 176 79 176 176-1 32-9 63-26 90-17 27-40 41-41 74-1 35 24 46 41 74 17 27 25 58 26 90 0 97-79 175-176 175-52 0-99-22-131-58-81-81-219-134-305-134h-601c-86 0-223 52-304 133-33 36-80 59-132 59-97 0-175-78-175-175 0-32 8-63 25-90 18-28 42-39 41-74 0-33-24-47-41-74-17-27-25-58-25-90 0-97 78-176 175-176z"/>
    <path id="main_part" fill="#f2f2f2" d="m287 1216c50 0 96 21 128 55 80 83 221 137 308 137h602c87 0 228-54 308-137 32-34 77-55 127-55 97 0 176 79 176 176-1 32-9 63-26 90-17 27-40 41-41 74-1 35 24 46 41 74 17 27 25 58 26 90 0 97-79 175-176 175-52 0-99-22-131-58-81-81-219-134-305-134h-601c-86 0-223 52-304 133-33 36-80 59-132 59-97 0-175-78-175-175 0-32 8-63 25-90 18-28 42-39 41-74 0-33-24-47-41-74-17-27-25-58-25-90 0-97 78-176 175-176z"/>
    <path id="left_highlight" fill="#a6a6a6" d="m1817.5 1360a30 30 0 00-27 19c-14 33-15 69-1 104 13 34 40 66 79 97a30 30 0 007 5c-4-8-7-17-6-29 0-17 7-29 15-41-21-19-33-38-40-54-8-21-7-39 1-60a30 30 0 00-16-39 30 30 0 00-12-2z"/>
    <path id="right_highlight" fill="#a6a6a6" d="m230 1360a30 30 0 0127 19c14 33 15 69 1 104-13 34-40 66-79 97a30 30 0 01-7 5c4-8 7-17 6-29 0-17-7-29-15-41 21-19 33-38 40-54 8-21 7-39-1-60a30 30 0 0116-39 30 30 0 0112-2z"/>
  </g>
</svg>
