<svg xmlns="http://www.w3.org/2000/svg" version="1.2" viewBox="0 0 2048 2048">
  <style>
    .mouth{stroke:#37270c}
  </style>
  <defs id="defs1">
    <clipPath id="below_mouth" clipPathUnits="userSpaceOnUse">
      <path id="path2" d="m610 1334 98 154c14 24 47 25 64 4l97-124 125 130c14 15 38 16 54 3l190-160h810v707H0v-714z"/>
    </clipPath>
    <filter id="filter52" width="1" height="1" x="0" y="0" color-interpolation-filters="sRGB">
      <feColorMatrix id="feColorMatrix51" result="fbSourceGraphic" type="luminanceToAlpha"/>
      <feFlood id="feFlood51" flood-color="#862718" flood-opacity="1" result="result1"/>
      <feComposite id="feComposite51" in2="fbSourceGraphic" operator="out" result="result2"/>
      <feComposite id="feComposite52" in2="SourceGraphic" operator="in"/>
    </filter>
  </defs>
  <path id="mouth" fill="none" stroke-linecap="round" stroke-linejoin="round" stroke-width="80" d="m643 1313 98 155 125-160 156 163 191-160" class="mouth"/>
  <g id="chocolate" clip-path="url(#below_mouth)">
    <rect id="rect1" width="482.6" height="737.6" x="1209" y="573" fill="#755344" fill-opacity="1" stroke="none" stroke-linecap="round" stroke-linejoin="round" stroke-width="35.2" display="inline" rx="50" ry="50" transform="rotate(30)"/>
    <g id="g57" transform="rotate(30 766 1715)">
      <path id="use57" fill="#402d25" d="M870 1228v654h20c16 0 28-13 28-28v-598c0-16-12-28-28-28z"/>
      <path id="use58" fill="#402d25" d="M629 1228v654h20c16 0 28-13 28-28v-598c0-16-12-28-28-28z"/>
      <path id="use59" fill="#402d25" d="M508 1228v654h20c16 0 28-13 28-28v-598c0-16-12-28-28-28z"/>
      <path id="use61" fill="#402d25" d="M750 1228v654h20c15 0 28-13 28-28v-598c0-16-13-28-28-28z"/>
    </g>
    <g id="g48" transform="rotate(-60 649 1593) scale(1.09711)">
      <circle id="path38" cx="695.4" cy="1554" r="212.5" fill="#ad8573" fill-opacity="1" stroke="none" stroke-linecap="round" stroke-linejoin="round" stroke-width="75.6" display="inline" transform="rotate(90 596 1516) scale(.91148)"/>
      <path id="path50" fill="#a5a5a5" d="M576 1681c-12-7-8-24-5-35 0-4 7-10 2-14-9-10-4-24 2-33 2-32-4-65 8-95 2-4 3-9-3-10-12-4-13-16-13-27 1-11-2-27 9-33 14-3 26-8 40-8 17 1 34 2 51 0 13 5 27-3 39 3 13 12 32 17 45 31 12 12 20 27 24 44 16 7 36 11 45 27 7 16 1 34 3 50-1 19 2 38-2 57-6 16-29 24-43 11-11-9-12-24-12-38-9 0-18-1-27 1-9 11-1 26 5 37 5 9 21 31 0 32-54 1-108 2-163 0h-5zm156-147c17-9 13-38-6-43-11-4 4 4 5 8 11 12 4 31-9 38-4 3 12-2 10-3zm-58-63c7-1 18-5 6-11-22-14-50-19-75-15-9 0-17 9-5 13 22 12 48 22 74 13z" filter="url(#filter52)"/>
      <path id="path49" fill="#818181" d="M577 1681c-14-6-9-23-5-34 0-5 7-11 2-15-8-7-8-20-1-27 8-12 2-27 3-40-2-23 2-46 10-68-9-5-20-11-18-23 0-11-2-24 4-35 9-7 21-9 32-11 15-3 30-2 45 1 11-3 22-4 33 0 11-4 23-2 32 8 19 10 40 22 51 42l10 25c14 7 31 10 41 23 9 13 8 30 5 45 4 20 3 42 1 62-4 19-31 26-45 13-11-9-9-24-10-36-9 0-19-2-28 0-10 11-3 26 3 37 6 9 22 31 2 33-54 2-108 2-162 0h-5zm219-51c2-8 6-34-9-28-1 7-6 36 9 28zm-18-39c11-6-11-3-15-4-20-3-41-8-59-20-13-10 7-24 14-9 10 11 24 21 40 21 14 1 32 4 43-8 6-9 7-24 1-34-12-11-30-11-41-23-6-12-9-27-20-37-11-13-27-19-41-28-6-8-11-1-13 5-7-5-23-17-29-7-13 0-27-6-40-4-8-1-35 3-22 15 19 12 36 29 57 37 17-2 26 21 9 27-15 2 10 22-7 13-8-10-19-15-31-19-11-5-31-2-26 13s23 18 37 18c0 9-8 23 0 34 3 7 7 3 10-2 6-10 14-9 18 2 13 15 34 11 51 12 21-1 43 0 64-2zm1-44c-14-7 4-19 11-8 8 8-4 15-11 8zm-72-11c-18-9-16-39 3-45 15-3 28 13 25 28-2 13-16 21-28 17zm11-13c6-5-2-29-6-14-1 4-2 21 6 14z" filter="url(#filter52)"/>
      <path id="path48" fill="#202020" d="M578 1680c-13-4-10-20-6-30 7-11 2-20-4-29-1-13 15-22 10-36-3-27-3-55 7-82 6-14-21-12-17-27v-31c8-12 23-13 36-17 15-3 30-2 45 2 11-5 24-5 35 1 7-6 19-5 25 3 14 10 31 16 43 30 11 11 17 25 22 39 11 9 26 10 37 19 13 13 15 33 9 50 5 18 3 37 2 56 0 19-24 33-40 21-13-8-13-24-15-37-8-4-30-8-33 6-3 19 12 34 19 51 4 10-11 18-14 5-10-17-23-34-21-54-1-4 2-11-5-10-8-1-16 2-21 6-16-7-34-15-42-32-4-9 7-17 10-5 8 13 24 15 37 15 27 0 54 1 80-1 13-1 4 20 7 29-3 12 13 21 21 10 3-3 1-8 1-13 0-13 2-27-2-39-9-6 3-13 2-21 4-13-2-27-16-31-11-6-28-8-32-22-5-24-25-42-46-52-9-3-21-18-25-3-8-5-25-15-32-4-20-6-42-8-61 0-12 2-10 12-10 22 0 4 0 9 6 10 5 4 17 5 17 13-14 27-18 58-13 87 11-4 20 7 25 17 17 29 30 59 55 81 6 5 4 6-2 5-31 0-61 1-91-1h-2l-1-1zm176-95c-16-5-32-9-47-17-14-8 2-23 10-9 11 12 26 21 43 22 5-1 27 3 12 5l-18-1zm27-40c-16-12 16-10 8 2-3 2-6 0-8-2zm-74-11c-17-9-13-38 5-42 17-2 28 19 20 33-4 9-16 14-25 9zm12-10c6-7-2-33-8-16-1 5-2 24 8 16zm-84-6c-5-3-28-4-12-10 12-4 25-12 39-9 13 4 6 23-6 22-5 7-14-2-21-3z" filter="url(#filter52)"/>
    </g>
  </g>
</svg>
