<svg xmlns="http://www.w3.org/2000/svg" viewBox="0 0 2048 2048">
  <defs>
    <filter id="drop_shadow" color-interpolation-filters="sRGB">
      <feFlood flood-color="#657DFE" flood-opacity="1" result="flood"/>
      <feComposite in="flood" in2="SourceGraphic" operator="in" result="composite1"/>
      <feOffset dx="32" dy="32" result="offset"/>
      <feComposite in="SourceGraphic" in2="offset" result="composite2"/>
    </filter>
  </defs>
  <path id="mouth_guard" fill="#96c1fe" d="M660 1278c-48 0-130 88-130 202 0 113 33 272 192 250 119-16 76-46 160-46 140 0 29 41 231 41 105 0 143-156 143-179 0-24 25-268-152-268-197 0-166 254-166 254l-56 2-56-2s31-254-166-254zm464 36a55 55 0 0 1 1 0 55 55 0 0 1 55 55 55 55 0 0 1-55 55 55 55 0 0 1-55-55 55 55 0 0 1 54-55zm-501 31a48 48 0 0 1 48 48 48 48 0 0 1-48 48 48 48 0 0 1-48-48 48 48 0 0 1 48-48zm564 84a47 47 0 0 1 1 0 47 47 0 0 1 47 47 47 47 0 0 1-47 48 47 47 0 0 1-48-48 47 47 0 0 1 47-47zm-600 35a46 46 0 0 1 47 46 46 46 0 0 1-47 46 46 46 0 0 1-46-46 46 46 0 0 1 46-46zm591 114a28 28 0 0 1 28 28 28 28 0 0 1-28 29 28 28 0 0 1-28-29 28 28 0 0 1 28-28zm-515 22a34 34 0 0 1 34 34 34 34 0 0 1-34 34 34 34 0 0 1-34-34 34 34 0 0 1 34-34z"/>
  <path id="ring" fill="none" stroke="#657dfe" stroke-linejoin="round" stroke-width="64" d="M1107 1441c86 79-6 420-258 420-203 0-293-292-170-420z"/>
  <circle id="handle" cx="837.9" cy="1448.1" r="167.2" fill="#cff1ff" filter="url(#drop_shadow)" transform="translate(-40 -78) scale(1.05163)"/>
</svg>
