<?xml version="1.0" encoding="UTF-8" standalone="no"?>
<svg
   xmlns:dc="http://purl.org/dc/elements/1.1/"
   xmlns:cc="http://creativecommons.org/ns#"
   xmlns:rdf="http://www.w3.org/1999/02/22-rdf-syntax-ns#"
   xmlns:svg="http://www.w3.org/2000/svg"
   xmlns="http://www.w3.org/2000/svg"
   xmlns:xlink="http://www.w3.org/1999/xlink"
   xmlns:sodipodi="http://sodipodi.sourceforge.net/DTD/sodipodi-0.dtd"
   xmlns:inkscape="http://www.inkscape.org/namespaces/inkscape"
   width="2048"
   height="2048"
   version="1.1"
   id="svg18121"
   sodipodi:docname="neoarcticfox.svg"
   inkscape:version="1.0.2-2 (e86c870879, 2021-01-15)">
  <metadata
     id="metadata18127">
    <rdf:RDF>
      <cc:Work
         rdf:about="">
        <dc:format>image/svg+xml</dc:format>
        <dc:type
           rdf:resource="http://purl.org/dc/dcmitype/StillImage" />
        <dc:title></dc:title>
      </cc:Work>
    </rdf:RDF>
  </metadata>
  <defs
     id="defs18125" />
  <sodipodi:namedview
     pagecolor="#ffffff"
     bordercolor="#666666"
     borderopacity="1"
     objecttolerance="10"
     gridtolerance="10"
     guidetolerance="10"
     inkscape:pageopacity="0"
     inkscape:pageshadow="2"
     inkscape:window-width="1920"
     inkscape:window-height="1001"
     id="namedview18123"
     showgrid="false"
     inkscape:zoom="0.35888672"
     inkscape:cx="1024"
     inkscape:cy="1024"
     inkscape:window-x="-9"
     inkscape:window-y="-9"
     inkscape:window-maximized="1"
     inkscape:current-layer="svg18121" />
  <style
     id="style18109">
    #fur{
      fill: #fff;
    }
    #ear_inside{
      fill: #ff9695;
    }
    #nose{
      stroke: #ff9695;
    }
    #mouth{
      stroke: #000;
      fill: none;
    }
    .eye{
      stroke: #00F;
    }
    .ear_outside{
      fill: #ade3d7;
    }
    .outline{
      stroke: #000;
    }
  </style>
  <path
     id="outline"
     class="outline"
     stroke-width="160"
     d="m370 65-3 1a85 85 0 0 0-27 8l-10 5-2 1c-19 10-34 27-43 46a135 135 0 0 0-12 34 187 187 0 0 0-4 35l1 36 3 50v37l2 25a8131 8131 0 0 0 21 289c5 52 12 105 20 157l5 31-1 2a764 764 0 0 0-89 225 942 942 0 0 0-26 234l1 55v23a431 431 0 0 0 13 105 543 543 0 0 0 134 257 586 586 0 0 0 166 127 528 528 0 0 0 224 55l50 3h170a4021 4021 0 0 1 144 0l47-1c72 0 143 3 214 1a1528 1528 0 0 0 121-8l18-4a365 365 0 0 0 62-19 417 417 0 0 0 154-106 454 454 0 0 0 102-178l2-8a438 438 0 0 0 16-120l-1-25-1-44c1-66 3-131 1-196a1255 1255 0 0 0-10-130 750 750 0 0 0-48-178 1186 1186 0 0 0 73-317 1542 1542 0 0 0 6-265l-5-63a344 344 0 0 0-25-102c-4-10-10-19-16-28-8-11-18-21-29-28-10-7-22-12-34-14l-3-1-9-1h-1a99 99 0 0 0-29 3c-13 3-26 10-38 17l-16 11-37 25a1920 1920 0 0 0-323 281h-1c-21-20-42-39-61-60l-18-23-13-20-4-5-1-2-14-13-2-1c-13-8-28-10-42-6a55 55 0 0 0-39 44l-1 15v22l-1 2-1 1-3-1a517 517 0 0 0-204-86 613 613 0 0 0-238-2l-32 6c-45-50-89-100-136-148l-31-30-8-8a145 145 0 0 0-64-27l-14-1z" />
  <path
     id="hair_outline"
     class="outline"
     d="M561 296h691v304H561z" />
  <path
     id="ear_inside"
     d="m1752 168-16 1c-15 5-28 14-40 23l-37 35a877 877 0 0 0-122 182 1607 1607 0 0 1-53 96c-11 15-24 30-40 41-13 9-28 16-43 21h-3l-20 5-10 1-2 2 1 1 1 1 13 1h89v128h193l61 184 2 6h3l3-4a870 870 0 0 0 49-155 1493 1493 0 0 0 35-256l1-70v-66a548 548 0 0 0-7-91c-2-15-4-29-9-43-4-10-9-20-15-28-5-5-10-10-17-13l-9-2h-8z" />
  <path
     id="fur"
     d="M762 311c-22 0-44 1-67 4l-22 4 15 30c21 37 48 70 80 97 26 23 54 43 84 61a851 851 0 0 0-177-30 612 612 0 0 0-66 3 361 361 0 0 0-151 55l-16 10 39 1a1174 1174 0 0 1 210 28l3 1a484 484 0 0 0-49 9 305 305 0 0 0-133 74l-30 30a801 801 0 0 0-226 503l-2 69v84a585 585 0 0 0 20 139 518 518 0 0 0 383 362c29 7 59 11 89 12h44a56907 56907 0 0 0 528 1l99-1h14a387 387 0 0 0 318-205 379 379 0 0 0 44-162l1-37a20575 20575 0 0 0-1-277v-29a750 750 0 0 0-53-238l-6-16-3-3h-2l-47-138-16-49-192-1V574h-254l26-31 54-61 4-4-34-28a718 718 0 0 1-120-136v160l-12-14a473 473 0 0 0-52-48c-32-25-67-45-105-60a561 561 0 0 0-219-41z" />
  <path
     id="left_ear"
     class="ear_outside"
     d="m 1741,119 c -11,0 -22,4 -32,9 -8,3 -15,8 -22,13 a 1498,1498 0 0 0 -118,84 2206,2206 0 0 0 -344,338 l -10,11 v 2 l 2,2 h 10 a 4495,4495 0 0 0 138,-1 l 12,-1 28,-7 a 153,153 0 0 0 69,-47 c 9,-10 17,-21 24,-32 l 26,-48 33,-62 a 1198,1198 0 0 1 47,-79 l 4,-6 a 597,597 0 0 1 89,-99 l 21,-14 c 8,-5 17,-8 26,-11 l 12,-1 c 8,2 16,5 22,11 a 55,55 0 0 1 12,16 l 3,4 6,17 3,6 2,2 2,-1 v -4 l -5,-24 -7,-28 c -3,-11 -8,-22 -15,-32 -6,-7 -14,-13 -23,-16 -5,-2 -10,-2 -15,-2 z" />
  <path
     id="right_ear"
     class="ear_outside"
     d="m 370,115 c -4.45394,0.37674 -8.83137,1.38692 -13,3 -6,2 -12,5 -17,10 -7,7 -12,17 -15,27 l -3,15 -1,19 c -1.3771,64.04307 0.29145,128.11541 5,192 8.75979,146.53316 23.43843,292.65241 44,438 l 3,11 h 1 l 19,-31 c 43.73106,-62.83257 95.88511,-119.36084 155,-168 29.10961,-19.8913 61.16852,-35.0771 95,-45 18,-5 37,-8 56,-10 h 3 l -17,-5 c -35.68275,-9.62218 -72.16612,-15.98167 -109,-19 -42.17036,-4.81769 -84.55843,-7.4878 -127,-8 13.06605,-9.57937 26.76385,-18.26579 41,-26 22,-12 45,-21 69,-27 64.73073,-13.50045 126.82624,-15.02482 183,-7 L 736,478 696,433 590,318 C 535.30325,259.00049 480.96889,199.66604 427,140 c -8.83585,-7.51879 -18.57828,-13.90176 -29,-19 -9,-3 -19,-6 -28,-6 z" />
  <path
     id="nose"
     stroke-linecap="round"
     stroke-width="128"
     d="M832 1216h64" />
  <path
     id="left_eye"
     class="eye"
     stroke-linecap="round"
     stroke-width="256"
     d="M 1216,1024 V 960"
     display="none" />
  <path
     id="mouth"
     stroke-linecap="round"
     stroke-linejoin="round"
     stroke-width="80"
     d="m 621,1420 97,155 126,-160 156,163 191,-160"
     style="display:none" />
  <use
     xlink:href="#left_eye"
     id="right_eye"
     width="100%"
     height="100%"
     transform="translate(-580)"
     style="display:none"
     x="0"
     y="0" />
</svg>
