<?xml version="1.0" encoding="UTF-8" standalone="no"?>
<svg
   xmlns:dc="http://purl.org/dc/elements/1.1/"
   xmlns:cc="http://creativecommons.org/ns#"
   xmlns:rdf="http://www.w3.org/1999/02/22-rdf-syntax-ns#"
   xmlns:svg="http://www.w3.org/2000/svg"
   xmlns="http://www.w3.org/2000/svg"
   xmlns:sodipodi="http://sodipodi.sourceforge.net/DTD/sodipodi-0.dtd"
   xmlns:inkscape="http://www.inkscape.org/namespaces/inkscape"
   width="2048"
   height="2048"
   viewBox="0 0 541.86665 541.8667"
   version="1.1"
   id="svg8"
   inkscape:version="1.0.2-2 (e86c870879, 2021-01-15)"
   sodipodi:docname="neocat_circle.svg"
   inkscape:export-filename="C:\Users\endic\OneDrive\Documents\Visual Studio\Neomojimixer\neomojimixer\high-res-parts\neocircle.png"
   inkscape:export-xdpi="96"
   inkscape:export-ydpi="96">
  <defs
     id="defs2" />
  <sodipodi:namedview
     id="base"
     pagecolor="#ffffff"
     bordercolor="#666666"
     borderopacity="1.0"
     inkscape:pageopacity="0.0"
     inkscape:pageshadow="2"
     inkscape:zoom="0.24748738"
     inkscape:cx="740.40292"
     inkscape:cy="1483.3865"
     inkscape:document-units="mm"
     inkscape:current-layer="layer2"
     inkscape:document-rotation="0"
     showgrid="false"
     units="px"
     inkscape:window-width="1920"
     inkscape:window-height="1001"
     inkscape:window-x="-9"
     inkscape:window-y="-9"
     inkscape:window-maximized="1" />
  <metadata
     id="metadata5">
    <rdf:RDF>
      <cc:Work
         rdf:about="">
        <dc:format>image/svg+xml</dc:format>
        <dc:type
           rdf:resource="http://purl.org/dc/dcmitype/StillImage" />
        <dc:title></dc:title>
      </cc:Work>
    </rdf:RDF>
  </metadata>
  <g
     inkscape:groupmode="layer"
     id="layer2"
     inkscape:label="Layer 2"
     style="opacity:1">
    <circle
       style="display:inline;opacity:1;fill:#fdc75a;fill-opacity:1;stroke:#000000;stroke-width:31.7117;stroke-linecap:round;stroke-linejoin:round;stroke-miterlimit:4;stroke-dasharray:none;stroke-opacity:1;paint-order:markers fill stroke"
       id="path850"
       cx="270.93332"
       cy="287.84006"
       r="221.18526"
       inkscape:label="body" />
    <path
       style="display:inline;fill:#000000;stroke-width:0.264583"
       d="m 318.72646,304.51855 c -13.31875,-1.18163 -24.73962,-10.2203 -29.00656,-22.95628 -1.59245,-4.75308 -1.71627,-6.13077 -1.71627,-19.09562 0,-12.96483 0.12382,-14.34252 1.71627,-19.09561 3.91128,-11.67441 13.99916,-20.41524 26.06146,-22.58144 3.11594,-0.55957 8.78797,-0.55957 11.90392,0 12.0623,2.1662 22.15017,10.90703 26.06146,22.58144 1.59244,4.75309 1.71627,6.13078 1.71627,19.09561 0,12.96485 -0.12383,14.34254 -1.71627,19.09562 -2.83978,8.47616 -9.06611,15.61237 -17.1408,19.64557 -5.25258,2.62361 -11.85142,3.84551 -17.87948,3.31071 z"
       id="path1969"
       inkscape:label="left_eye" />
    <path
       style="display:inline;fill:#000000;stroke-width:0.264583"
       d="m 166.32647,304.51855 c -13.31875,-1.18163 -24.73962,-10.2203 -29.00657,-22.95628 -1.59243,-4.75308 -1.71626,-6.13077 -1.71626,-19.09562 0,-12.96483 0.12383,-14.34252 1.71626,-19.09561 3.91128,-11.67441 13.99916,-20.41524 26.06146,-22.58144 3.11596,-0.55957 8.78797,-0.55957 11.90393,0 12.0623,2.1662 22.15018,10.90703 26.06146,22.58144 1.59243,4.75309 1.71626,6.13078 1.71626,19.09561 0,12.96485 -0.12383,14.34254 -1.71626,19.09562 -2.83977,8.47616 -9.06612,15.61237 -17.1408,19.64557 -5.25259,2.62361 -11.85143,3.84551 -17.87948,3.31071 z"
       id="path1967"
       inkscape:label="right_eye" />
    <path
       style="display:inline;fill:#542912;stroke-width:0.264583"
       d="m 192.0688,399.17611 c -1.70135,-0.48275 -3.40536,-1.54119 -4.6432,-2.88409 -1.04291,-1.13141 -26.31756,-42.95925 -27.43029,-45.39527 -0.45582,-0.99788 -0.57169,-1.75668 -0.57467,-3.76343 -0.003,-2.17422 0.0916,-2.71778 0.70264,-4.02646 0.98529,-2.11029 2.8436,-4.00412 4.94337,-5.03782 1.59545,-0.78545 1.95441,-0.8576 4.26668,-0.8576 2.31226,0 2.67122,0.0722 4.26667,0.8576 1.01662,0.50048 2.23184,1.38186 2.9183,2.11666 0.7025,0.75195 4.78267,7.2803 10.12987,16.20803 4.92447,8.22193 9.03879,15.04503 9.14294,15.16243 0.10414,0.11739 5.80435,-6.80593 12.66712,-15.38523 6.86277,-8.57928 12.96748,-16.04111 13.56603,-16.58186 0.59855,-0.54076 1.7574,-1.29479 2.57523,-1.67564 1.27252,-0.59258 1.84943,-0.69297 4.0005,-0.69622 4.41722,-0.007 2.84873,-1.30149 24.08137,19.87928 10.26157,10.23649 18.73289,18.61182 18.82518,18.61182 0.0923,0 10.0916,-8.27685 22.22071,-18.39301 16.19229,-13.50499 22.5085,-18.62034 23.76718,-19.24843 1.57353,-0.78521 1.92098,-0.85522 4.23333,-0.8527 2.17212,0.003 2.72748,0.10001 4.03201,0.70911 6.51981,3.04405 8.0232,11.45042 2.93262,16.39797 -0.69879,0.67916 -12.641,10.71219 -26.53824,22.29564 -18.64833,15.54351 -25.71678,21.28489 -26.98194,21.91621 -1.57805,0.78748 -1.91431,0.85468 -4.23333,0.84621 -4.4454,-0.0161 -2.94109,1.21788 -23.44552,-19.23436 l -18.01599,-17.97015 -13.54019,16.92661 c -7.4471,9.30963 -14.02983,17.36897 -14.62828,17.90962 -2.31528,2.09172 -6.24969,3.0136 -9.2401,2.16508 z"
       id="path1811"
       inkscape:label="mouth" />
  </g>
</svg>
