<svg xmlns="http://www.w3.org/2000/svg" viewBox="0 0 2048 2048">
  <style>
    .fur{fill:#e3dedb}.outline{stroke:#000}.nose{stroke:#de8787}.whisker{stroke:#696866}
  </style>
  <path id="fur" class="fur outline" stroke-width="241.6" d="M239 1246v94c0 45 7 88 18 129 0 0 0 0 0 0l4 14a562 562 0 0 0 542 409h256c19 0 46 2 63 0h264a384 384 0 0 0 380-393v-344c2-340-196-612-836-612a682 682 0 0 0-208 32 689 689 0 0 0-402 357 760 760 0 0 0-81 314z" paint-order="stroke markers fill"/>
  <path id="nose" class="nose" stroke-linecap="round" stroke-width="120.8" d="M779 1260v0"/>
  <path id="left_whiskers" class="whisker" stroke-linecap="round" stroke-linejoin="round" stroke-width="88.8" d="M1246 1298c115-71 284-75 423-39m-394 213a552 552 0 0 1 392-3" opacity=".7"/>
  <path id="right_whiskers" class="whisker" stroke-linecap="round" stroke-linejoin="round" stroke-width="74.4" d="M557 1290c-133-56-189-59-267-29m260 212c-84-44-141-88-246-43" opacity=".7"/>
  <path id="hoodie" fill="#5a7294" d="M930 543a682 682 0 0 0-208 32 689 689 0 0 0-402 357 760 760 0 0 0-81 314v94c0 45 7 88 18 129l4 14a562 562 0 0 0 542 409h256c19 0 46 2 63 0h264a384 384 0 0 0 380-393v-344c2-340-196-612-836-612zM813 705h199a484 484 0 0 1 486 486 484 484 0 0 1-486 485H813a484 484 0 0 1-485-485 484 484 0 0 1 485-485z"/>
  <g id="right_ear">
    <path fill="#e9afaf" d="M471 153c-3 0-8 0-9 2-8 2-146-32-263 198-79 157-16 378 121 438l71 28c62-90 277-185 344-186-92-330-211-477-264-480z"/>
    <path fill="none" stroke="#a02c2c" stroke-width="91.3" d="M370 117c-149 171-27 520 373 469" opacity=".2"/>
    <path class="outline" d="M426 35c-26 2-62 8-102 24A482 482 0 0 0 92 301a482 474 0 0 0-30 338 389 384 0 0 0 209 260c38 10 52 39 115-82l-67-26c-136-60-200-280-120-438 116-229 255-194 261-198h6c52 3 176 148 268 478 52-8 88-28 101-80l-5-23a1421 1421 0 0 0-145-331 488 481 0 0 0-96-116 210 206 0 0 0-64-39 320 320 0 0 0-99-8z"/>
  </g>
  <g id="left_ear">
    <path fill="#e9afaf" d="M1514 155c-63 1-203 147-312 490 161 204 461 153 456 146l40-13c162-59 236-279 143-432-138-229-305-195-315-198-2 0-8 6-12 7z"/>
    <path fill="none" stroke="#a02c2c" stroke-width="93.7" d="M1550 119c150 143-46 522-348 476" opacity=".2"/>
    <path class="outline" d="M1513 34c-48 0-85 21-115 42-40 27-74 64-109 111a1338 1320 0 0 0-175 342c-1 4-8 22-8 26 7 48 36 73 96 90 108-344 248-489 312-490h8s188-24 318 191c94 154 19 373-143 432l-27 10c29 51 44 112 69 102a416 416 0 0 0 205-605 504 497 0 0 0-274-232 568 568 0 0 0-157-19z"/>
  </g>
  <rect id="hoodie_liner" width="1169.6" height="970.4" x="328" y="705" ry="484.8" fill="none" stroke="#fff" stroke-linecap="round" stroke-width="80"/>
  <path id="hoodie_flap" fill="#fff" d="M859 1892a175 175 0 0 1-38-80 104 104 0 0 1 16-67c13-16 29-27 65-27a40 40 0 0 0 0-80c-56 0-102 23-128 59-28 35-36 80-32 122 1 25 8 50 18 72"/>
</svg>
