<svg xmlns="http://www.w3.org/2000/svg" version="1.1" viewBox="0 0 2048 2048">
  <path id="outline" fill="none" stroke="#000" stroke-linejoin="round" stroke-width="256" d="M821 236a474 474 0 0 0-177 40c23 38 52 71 84 102 22 23 47 44 71 66l3 2c-3 0-13-4-34-14-121-51-241-104-362-154-113-7-72 130-79 199v215l-13 5c-34 12-68 21-103 26l-11 2c-2 0 2 5 12 15 22 23 53 37 95 44l17 2h3v35l-11 7c-21 13-42 29-62 47a393 393 0 0 0-118 298c48-59 110-117 189-127a545 545 0 0 0-124 270h1c-5 36-6 72-4 109l1 4 33-33 34-33 1 7a514 514 0 0 0 517 442c226 0 452 2 677-1a390 390 0 0 0 338-348h-1l1-48v-48l32 31 32 30c2-5 4-54 3-90h2c-3-38-11-80-15-99-17-75-60-141-116-193 58 11 171 9 176-9a404 404 0 0 1-168-206c18-164 37-327 54-491-21-116-149-30-212-5l-262 112a740 740 0 0 1-166-170v153a379 379 0 0 0-338-194Z"/>
  <path id="fur" fill="#ff9fcb" d="M1158 434c-272-88-353 8-355 11 0 3-9 0-35-13-121-51-241-104-362-154-113-7-72 130-79 199v215l-13 5c-34 12-68 21-103 26l-11 2c-2 0 2 5 12 15 22 23 53 37 95 44l17 2h3v35l-11 7c-21 13-42 29-62 47a393 393 0 0 0-118 298c48-59 110-117 189-127a545 545 0 0 0-124 270h1c-5 36-6 72-4 109l1 4 33-33 34-33 1 7a514 514 0 0 0 517 442c226 0 452 2 677-1a390 390 0 0 0 338-348h-1l1-48v-48l32 31 32 30c2-5 4-54 3-90h2c-3-38-11-80-15-99-17-75-60-141-116-193 58 11 171 9 176-9a404 404 0 0 1-168-206c18-164 37-327 54-491-21-116-149-30-212-5l-262 112a740 740 0 0 1-166-170v158l-1-1Z"/>
  <path id="hair" fill="#ff709f" d="M821 236a474 474 0 0 0-177 40c23 38 52 71 84 102 22 23 47 44 71 66 6 10 19-16 30-17 59-32 128-32 193-23 48 6 95 19 141 34a379 379 0 0 0-342-202Z"/>
  <circle id="left_blush" cx="1350" cy="1284" r="194" fill="#ff709f"/>
  <use id="right_blush" href="#left_blush" transform="translate(-820)"/>
  <path id="chin" fill="#fccfe8" d="M966 1228c-164 0-441-6-441 221 0 189 117 310 266 363h356a370 370 0 0 0 261-363c0-223-277-221-442-221Z"/>
  <path id="nose" fill="#ca118c" d="M1099 1167c-43-44-160 22-160 22s-126-102-169-59c-70 70 116 157 166 157 51 0 230-54 163-120Z"/>
  <ellipse id="left_forehead_dot" cx="1120" cy="687" fill="#fccfe8" rx="88" ry="68"/>
  <use id="right_forehead_dot" href="#left_forehead_dot" transform="translate(-352)"/>
  <path id="right_ear" fill="#ffc8ea" d="M406 278c-113-7-72 130-79 199v169c157 0 294-108 333-260-85-37-169-73-254-108Z"/>
  <path id="left_ear" fill="#ff709f" d="M1739 281c-48-1-113 38-152 54l-262 112-4-3a414 414 0 0 0 432 314l46-418c-8-44-31-59-60-59Z"/>
</svg>