<svg xmlns="http://www.w3.org/2000/svg" xmlns:xlink="http://www.w3.org/1999/xlink" viewBox="0 0 2048 2048">
  <defs>
    <radialGradient id="blush_gradient">
      <stop offset="0%" stop-color="#f2725a" stop-opacity="0.98"/>
      <stop offset="30%" stop-color="#f2725a" stop-opacity="0.9"/>
      <stop offset="70%" stop-color="#f2725a" stop-opacity="0.3"/>
      <stop offset="100%" stop-color="#f2725a" stop-opacity="0"/>
    </radialGradient>
  </defs>
  <style>
    .fur{fill:#e3dedb}.outline{stroke:#000}.nose{stroke:#de8787}.whisker{stroke:#696866}
  </style>
  <g>
    <path class="outline" d="M984 277.5c-50.4-17.8-97.6-17.8-134.1-17.8a617.6 617.6 0 0 0-211.3 34.9c-65 20.3-95 61.8-119.5 97.5a763.8 763.8 0 0 0-57.7 103.2c-16.2 34.1 13.9 32.5 2.5 55.3-11.4 22-27.6 32.5-4.9 16.2A685 685 0 0 0 250.2 822c13-26 0-2.5-24.4 18.7-22.8 21-56.9 48.7-91 85.3A412 412 0 0 0 8 1261.6c7.3 54.4 23.6 65 67.5 91.8l-8.2 117.8v31c0 5.6 0 10.5 3.3 21.9.8 6.5.8 13 10.5 32.5 5 10.5 11.4 25.2 35.8 43.9 15.4 11.3 41.4 19.5 68.3 21a674 674 0 0 0 139 206.5 579.4 579.4 0 0 0 378.6 182.8c35 5.7 70.7 8.1 107.2 8.1h258.5c10.5 0 37.3 3.3 73 0H1131h270.6a570.4 570.4 0 0 0 373.8-147.9c48.8-47 127.6-134.8 148-260.8 73 0 73-100.8 74.7-139.8 0-72.3-4-134-35.8-234 5.7-1.6 15.5-4.9 30.9-14.6 16.3-9 53.6-35 59.3-93.5 5.7-58.5-30-95-45.5-108a703.7 703.7 0 0 1-158.4-188.6c-46.4-73.1-97.6-158.4-187-234 18 16.2 12.2 15.4-4-24.4-16.3-39-94.3-66.6-156-117.8A1429.4 1429.4 0 0 0 1300 323.8l-136.5-78c-68.2-39.8-151.1-77.2-180.4 31.7zm-134.1 226c40.6 0 56.8 4 58.5 4.8 2.4 1.6 11.4 3.3 30.9 52l186.9 325 44.6-342 2.5-11.4 6.5 3.2c63.4 36.6 132.4 78.8 167.4 108.1 28.4 24.4 77.2.8 86.1 22.8 8.1 21 14.6 71.5 72.3 118.6 53.7 45.5 90.2 103.2 138.2 178.8l28.4 42.2-200.7 19.5 195 183.7 16.3 17.9 8.1 223.4c4.9 125.2-30.9 195-82 243.8-52 48.8-128.5 78-215.4 81.3H810.9a508 508 0 0 1-70.7-5l-16.3-3.2-8.1-1.6h-8.1a349.4 349.4 0 0 1-208.9-108.9 396.6 396.6 0 0 1-113.7-225.9l-16.3-159.3 225.1-377.8-130.8 48c2.4-4.1 4.8-7.4 6.5-12.3 35-70.7 74.7-121.9 134-165.7 48.8-35.8 60.2-67.5 76.4-99.2 16.3-32.5-13.8-32.5.8-62.5s29.3-57 39.9-72.4c3.2-5.6 4.8-6.5 6.5-8l9.7-1.7c52.8-14.6 54.5-16.3 113-16.3z"/>
    <path class="fur" d="M238 1239.7a568.8 568.8 0 0 0-46.3 263.2l71.5-60c22 219.3 230 430.6 436.3 443.6l22 4c29.2 4.1 58.5 6.6 89.4 6.6h258.4c17.8 0 45.5 1.6 62.5 0h265.8c221.8-8.2 426.6-146.3 415.2-451l60.1 59.3c0-126.8 6.5-263.3-121.9-385.2 9-.8 191.8 4 180.4-4-172.2-137.4-203.1-304-347.8-425-39-32.6-69-67.5-158.4-141.4-95.9-79.7-286.9-172.3-332.4-204.8-14.6 14.6-33.3 60.1-38.2 125.1C1030.3 428 936 381.5 850 381.5A446.1 446.1 0 0 0 675.2 410c-78.9 26-90.2 216-143.9 256a555.8 555.8 0 0 0-170.6 209.6c-30 61-257.6 174-230.8 369.7 73.1-55.2 62.6-86 188.5-126z"/>
  </g>
  <path id="nose" class="nose" stroke-linecap="round" stroke-linejoin="round" stroke-width="142.1" d="M816.3 1270h.5"/>
  <g id="whiskers" class="whisker" fill="none" stroke-linecap="round" stroke-linejoin="round">
    <path stroke-width="11" d="M177.5 167c20.3-12.5 54.6-7.9 71.4 3.3M181 188.7c24.3-8.3 50-6.4 66.1 12.6" opacity=".7" transform="translate(-50.5 -59.7) scale(8.12605)"/>
    <path stroke-width="9.2" d="M67.3 166c-26.8-11.2-42.7-3.7-53.5 6.6m52.7 16.2C52 181.3 32.3 177 15 195.5" opacity=".7" transform="translate(-50.5 -59.7) scale(8.12605)"/>
  </g>
  <g id="right_ear">
    <path fill="#e9afaf" d="M475.7 143.7c-3.3 0-7.4 0-9.8 1.6-8.1 2.4-146.3-31.3-264 200.4-79.7 157.9-16.3 380.7 121.8 440.8l71.5 28.9C457 724.8 674 628.6 741.4 627.8c-91.8-332.6-212.1-481-265.7-484.1Z" color="#000"/>
    <path fill="none" stroke="#a02c2c" stroke-width="11.4" d="M50.5 14.3c-18.5 21.5-3.4 65.4 46.2 59" opacity=".2" transform="matrix(8.12603 0 0 8.01578 -36.3 -7)"/>
    <path d="M431 25a335 335 0 0 0-103.2 24C248 82 162 157.4 92.9 292.9a485.1 478.5 0 0 0-29.2 341.4 391.7 386.4 0 0 0 211.2 261.3c38.2 10.5 52.9 39.3 115.4-82.5l-66.6-26.5c-138.1-60-201.5-283-121.9-440.8 117.8-231 257.6-195.8 263.3-200.5h5.7c53.6 3.2 178.8 149.9 270.6 482.5 52-8 88.6-28 102.4-80.1l-5.7-24c-45.5-144.4-96-254.2-146.3-333.5a491.6 485 0 0 0-96.7-117 211.3 208.4 0 0 0-65-39.4c-13-4.8-54.4-10.4-99.1-8Z"/>
  </g>
  <g id="left_ear">
    <path fill="#e9afaf" d="M1527.3 145.4c-63.4 1.6-204.8 148.3-314.5 494.6 162.5 205.2 464.8 154 458.3 147.5 0 0 28.5-8 41.5-13.6 163.3-59.3 238-280.6 143.8-436-138.1-230.1-307.2-195.7-317-198.9-2.4-.8-8 5.6-12.1 6.4z" color="#000"/>
    <path fill="none" stroke="#a02c2c" stroke-width="11.7" d="M198.8 11c18.6 18-5.7 65.7-43.1 59.9" opacity=".2" transform="matrix(8.12603 0 0 8.01578 -52.4 21.2)"/>
    <path d="M1525.7 23.6c-48.8 0-85.4 21.6-115.4 42.5-39.8 28-74.8 64.1-110.5 112.2A1349 1330.6 0 0 0 1124.2 523c-.8 4-8 22.4-8 26.4 7.2 47.3 36.5 73.8 97.4 90.6 109-346.3 250.3-493 313.7-494.6l8.1-.8s190.2-24 321 193.2c94.3 156.3 19.5 376.8-143.8 436l-26.9 10.5c29.3 50.5 44 112.2 69.1 102.6 243.8-89 340.5-387.2 206.4-610a507.9 501 0 0 0-276.3-234c-55.2-16-106.4-18.5-158.4-19.3Z" color="#000"/>
  </g>
  <g id="blush">
    <circle id="left_blush" cx="1336" cy="1381" r="330" fill="url(#blush_gradient)" opacity=".3"/>
    <use id="right_blush" xlink:href="#left_blush" width="100%" height="100%" transform="translate(-786.5)"/>
  </g>
</svg>
