<?xml version="1.0" encoding="UTF-8" standalone="no"?>
<svg
   width="2048"
   height="2048"
   viewBox="0 0 2048 2048"
   version="1.1"
   id="svg8"
   inkscape:version="1.3.2 (091e20e, 2023-11-25, custom)"
   xml:space="preserve"
   sodipodi:docname="neoorc.svg"
   inkscape:export-filename="..\..\parts\neoorc_urukhai.png"
   inkscape:export-xdpi="12"
   inkscape:export-ydpi="12"
   xmlns:inkscape="http://www.inkscape.org/namespaces/inkscape"
   xmlns:sodipodi="http://sodipodi.sourceforge.net/DTD/sodipodi-0.dtd"
   xmlns="http://www.w3.org/2000/svg"
   xmlns:svg="http://www.w3.org/2000/svg"
   xmlns:rdf="http://www.w3.org/1999/02/22-rdf-syntax-ns#"
   xmlns:cc="http://creativecommons.org/ns#"
   xmlns:dc="http://purl.org/dc/elements/1.1/"><defs
     id="defs2"><inkscape:path-effect
       effect="mirror_symmetry"
       start_point="123.01752,29.794882"
       end_point="123.01752,70.309201"
       center_point="123.01752,50.052041"
       id="path-effect3621"
       is_visible="true"
       lpeversion="1.2"
       lpesatellites=""
       mode="free"
       discard_orig_path="false"
       fuse_paths="false"
       oposite_fuse="false"
       split_items="false"
       split_open="false"
       link_styles="false" /></defs><sodipodi:namedview
     id="base"
     pagecolor="#ffffff"
     bordercolor="#666666"
     borderopacity="1.0"
     inkscape:pageopacity="0.0"
     inkscape:pageshadow="2"
     inkscape:zoom="0.35"
     inkscape:cx="1158.5714"
     inkscape:cy="961.42857"
     inkscape:document-units="px"
     inkscape:current-layer="layer1"
     inkscape:document-rotation="0"
     showgrid="false"
     units="px"
     scale-x="1"
     inkscape:showpageshadow="2"
     inkscape:pagecheckerboard="0"
     inkscape:deskcolor="#d1d1d1"
     inkscape:window-width="1920"
     inkscape:window-height="1001"
     inkscape:window-x="-9"
     inkscape:window-y="-9"
     inkscape:window-maximized="1" /><metadata
     id="metadata5"><rdf:RDF><cc:Work
         rdf:about=""><dc:format>image/svg+xml</dc:format><dc:type
           rdf:resource="http://purl.org/dc/dcmitype/StillImage" /><cc:license
           rdf:resource="http://creativecommons.org/licenses/by-nc-sa/4.0/" /></cc:Work><cc:License
         rdf:about="http://creativecommons.org/licenses/by-nc-sa/4.0/"><cc:permits
           rdf:resource="http://creativecommons.org/ns#Reproduction" /><cc:permits
           rdf:resource="http://creativecommons.org/ns#Distribution" /><cc:requires
           rdf:resource="http://creativecommons.org/ns#Notice" /><cc:requires
           rdf:resource="http://creativecommons.org/ns#Attribution" /><cc:prohibits
           rdf:resource="http://creativecommons.org/ns#CommercialUse" /><cc:permits
           rdf:resource="http://creativecommons.org/ns#DerivativeWorks" /><cc:requires
           rdf:resource="http://creativecommons.org/ns#ShareAlike" /></cc:License></rdf:RDF></metadata><g
     inkscape:label="Layer 1"
     inkscape:groupmode="layer"
     id="layer1"><path
       id="path5"
       style="display:inline;fill:#808080;fill-opacity:1;stroke:#000000;stroke-width:128;stroke-dasharray:none"
       d="m 1031.4805,389.09766 c -354.65688,-2.56993 -683.07122,248.45542 -800.16927,578.76716 -66.01744,181.57028 -69.44315,383.78638 -17.9122,568.28328 79.82186,248.5126 341.88431,410.303 598.697,395.2796 210.97787,-1.4099 422.14537,2.8984 632.99797,-2.3093 218.5681,-17.304 402.267,-215.7536 402.7599,-435.0002 -1.2554,-140.9265 3.5132,-282.0886 -2.9349,-422.8481 -32.3033,-264.40422 -222.8092,-495.61679 -461.0122,-606.85369 -110.0793,-50.62971 -231.4151,-75.4381 -352.4263,-75.31875 z"
       sodipodi:insensitive="true"
       inkscape:label="body" /><g
       id="g36"
       inkscape:label="hand_of_sarumon"
       transform="matrix(1.1212669,-0.34277586,0.34277586,1.1212669,-961.36271,347.22343)"
       style="display:inline;fill:#ffffff"><path
         id="path25"
         style="display:inline;fill:#ffffff;stroke-width:249.127;stroke-linecap:round;paint-order:markers stroke fill"
         d="m 1664.8207,686.78821 c -74.0624,126.15415 -109.9262,182.31097 -178.9347,311.20084 -20.7726,58.52175 60.5794,111.07785 100.9912,59.03015 35.754,-47.2984 19.7735,-33.3498 52.1166,-83.19453 35.2455,-57.85668 77.5944,-121.14152 63.7145,-192.54429 -4.8297,-33.90364 -17.7,-66.77333 -37.8876,-94.49217 z"
         sodipodi:nodetypes="cccccc" /><path
         d="m 1302.6157,1116.9507 c -3.0554,0 -6.0639,0.1841 -9.0469,0.4532 -0.6368,0.057 -1.275,0.1122 -1.9082,0.1816 -2.8959,0.3173 -5.7586,0.7423 -8.5723,1.3027 -0.4451,0.089 -0.8813,0.2004 -1.3242,0.295 -2.5816,0.5513 -5.1237,1.2033 -7.625,1.9511 -0.4534,0.1356 -0.9146,0.2527 -1.3652,0.3946 -2.694,0.848 -5.3306,1.8201 -7.918,2.8867 -0.5555,0.229 -1.104,0.4702 -1.6543,0.709 -8.5041,3.6898 -16.4022,8.5018 -23.4512,14.3144 -2.4358,2.0087 -4.7714,4.1329 -7.0019,6.3633 -2.2301,2.2301 -4.3549,4.5664 -6.3633,7.0019 0,0 0,0 0,0 -2.0083,2.4355 -3.9035,4.9691 -5.6738,7.5937 0,0 0,0 0,0 -1.7702,2.6247 -3.4177,5.3392 -4.9336,8.1367 0,0 0,0 0,0 -1.5159,2.7975 -2.9012,5.6768 -4.1465,8.6308 0,0 0,0 0,0 -1.2453,2.9541 -2.3521,5.9818 -3.3105,9.0762 0,0 0,0 0,0 -0.9584,3.0944 -1.7706,6.2563 -2.4258,9.4746 0,0 0,0 0,0 -0.6552,3.2183 -1.1545,6.4942 -1.4903,9.8203 0,0 0,0 0,0 -0.3357,3.3261 -0.5078,6.7017 -0.5078,10.1192 v 0 189.2051 0 c 10e-5,3.4174 0.1721,6.793 0.5078,10.1191 0,0 0,0 0,0 0.3359,3.326 0.835,6.6019 1.4903,9.8203 0,0 0,0 0,0 0.6553,3.2184 1.4673,6.3803 2.4258,9.4746 0,0 0,0 0,0 0.9584,3.0944 2.0652,6.122 3.3105,9.0762 0,0 0,0 0,0 1.2454,2.9541 2.6306,5.8333 4.1465,8.6309 0,0 0,0 0,0 1.516,2.7976 3.1633,5.512 4.9336,8.1367 0,0 0,0 0,0 1.7703,2.6247 3.6655,5.1582 5.6738,7.5937 0,0 0,0 0,0 2.0084,2.4356 4.1313,4.7719 6.3613,7.002 0,0 0,0 0,0 0,0 0,0 0,0 2.2302,2.2301 4.5665,4.353 7.0019,6.3613 4.8719,4.0173 10.1384,7.5751 15.7344,10.6075 2.5008,1.3551 5.0903,2.5674 7.7168,3.707 0.5503,0.2387 1.0988,0.48 1.6543,0.709 2.5874,1.0665 5.224,2.0386 7.918,2.8867 0.4526,0.1425 0.9156,0.2603 1.3711,0.3965 2.4821,0.7419 5.0051,1.3889 7.5664,1.9375 0.4689,0.1004 0.9309,0.2187 1.4023,0.3125 2.8043,0.5578 5.657,0.9805 8.543,1.2968 0.6345,0.07 1.274,0.1241 1.9121,0.1817 2.983,0.269 5.9915,0.4531 9.0469,0.4531 h 194.9726 c 17.0908,0 33.1408,-4.2997 47.1309,-11.8808 5.596,-3.0324 10.8626,-6.5902 15.7344,-10.6075 2.4362,-2.0089 4.7731,-4.1325 7.0039,-6.3632 2.2301,-2.2301 4.3529,-4.5664 6.3613,-7.002 0,0 0,0 0,0 2.0083,-2.4355 3.9035,-4.969 5.6738,-7.5937 0,0 0,0 0,0 1.7703,-2.6247 3.4176,-5.3391 4.9336,-8.1367 0,0 0,0 0,0 1.5159,-2.7976 2.9011,-5.6768 4.1465,-8.6309 0,0 0,0 0,0 1.2453,-2.9542 2.3521,-5.9818 3.3106,-9.0762 0,0 0,0 0,0 0.9584,-3.0943 1.7704,-6.2562 2.4257,-9.4746 0,0 0,0 0,0 0.6553,-3.2184 1.1544,-6.4943 1.4903,-9.8203 0,0 0,0 0,0 0.3358,-3.3267 0.5078,-6.7029 0.5078,-10.1211 v -189.1855 c 0,-3.4181 -0.1721,-6.7963 -0.5078,-10.123 -0.3358,-3.3261 -0.8351,-6.602 -1.4903,-9.8203 0,0 0,0 0,0 -0.6552,-3.2183 -1.4674,-6.3802 -2.4257,-9.4746 0,0 0,0 0,0 -0.9585,-3.0944 -2.0653,-6.1221 -3.3106,-9.0762 0,0 0,0 0,0 -1.2453,-2.954 -2.6306,-5.8333 -4.1465,-8.6308 0,0 0,0 0,0 -1.5159,-2.7975 -3.1634,-5.512 -4.9336,-8.1367 0,0 0,0 0,0 -1.7702,-2.6246 -3.6655,-5.1582 -5.6738,-7.5937 0,0 0,0 0,0 -2.0084,-2.4355 -4.1332,-4.7718 -6.3633,-7.0019 -2.2305,-2.2304 -4.5661,-4.3546 -7.0019,-6.3633 0,0 0,0 0,0 -4.8714,-4.017 -10.1369,-7.5751 -15.7324,-10.6074 0,0 0,0 0,0 -2.5012,-1.3554 -5.0897,-2.5673 -7.7168,-3.707 -0.5497,-0.2385 -1.0974,-0.4803 -1.6523,-0.709 -2.5874,-1.0666 -5.224,-2.0387 -7.918,-2.8867 -0.4506,-0.1419 -0.9118,-0.259 -1.3652,-0.3946 -2.5013,-0.7478 -5.0434,-1.3998 -7.625,-1.9511 -0.4429,-0.095 -0.8791,-0.2063 -1.3242,-0.295 -2.8136,-0.5604 -5.6763,-0.9854 -8.5723,-1.3027 -0.6332,-0.069 -1.2714,-0.1242 -1.9082,-0.1816 -2.983,-0.2691 -5.9915,-0.4532 -9.0469,-0.4532 z"
         style="display:inline;fill:#ffffff;stroke-width:163.278;stroke-linecap:round;stroke-linejoin:round;stroke-opacity:0.5;paint-order:markers stroke fill"
         id="path30" /><path
         id="path34"
         style="display:inline;fill:#ffffff;stroke-width:249.127;stroke-linecap:round;paint-order:markers stroke fill"
         d="m 1032.3444,747.89055 c 72.2215,127.21705 102.9228,186.35437 180.0405,310.56245 40.2949,47.2505 126.4859,3.0756 101.6172,-57.9459 -23.0846,-54.61303 -18.995,-33.79924 -45.9903,-86.73149 -32.4826,-59.45188 -66.1144,-127.76952 -134.891,-151.45059 -31.7763,-12.76914 -66.6774,-18.05803 -100.7764,-14.43447 z"
         sodipodi:nodetypes="cccccc" /><path
         id="path35"
         style="display:inline;fill:#ffffff;stroke-width:249.127;stroke-linecap:round;paint-order:markers stroke fill"
         d="m 1340.8968,642.41058 c -1.0629,146.28393 -4.0434,212.84904 0.6384,358.97522 11.2712,61.0676 108.0022,65.9065 116.976,0.626 7.3147,-58.8386 0.4495,-38.76853 3.537,-98.10686 1.5952,-67.72813 6.628,-143.70885 -41.0937,-198.60553 -21.1345,-26.94655 -48.7153,-48.97741 -80.0577,-62.88883 z"
         sodipodi:nodetypes="cccccc" /><path
         id="path36"
         style="display:inline;fill:#ffffff;stroke-width:276.795;stroke-linecap:round;paint-order:markers stroke fill"
         d="m 1967.0234,1370.653 c -87.5172,0.6335 -175.2611,-5.21 -262.6296,0.3791 -39.9698,6.5219 -74.873,51.9491 -54.835,91.405 16.5893,35.8673 59.4416,47.9195 95.8044,42.0895 50.8081,6.0832 102.4718,-9.0071 143.5997,-39.1223 32.9797,-24.2373 62.59,-56.5422 78.0605,-94.7513 z" /></g></g></svg>
