<?xml version="1.0" encoding="UTF-8" standalone="no"?>
<svg
   width="2048"
   height="2048"
   viewBox="0 0 2048 2048"
   version="1.1"
   id="svg8"
   inkscape:version="1.3.2 (091e20e, 2023-11-25, custom)"
   xml:space="preserve"
   sodipodi:docname="neotp.svg"
   inkscape:export-filename="..\..\parts\neotp.png"
   inkscape:export-xdpi="12"
   inkscape:export-ydpi="12"
   xmlns:inkscape="http://www.inkscape.org/namespaces/inkscape"
   xmlns:sodipodi="http://sodipodi.sourceforge.net/DTD/sodipodi-0.dtd"
   xmlns="http://www.w3.org/2000/svg"
   xmlns:svg="http://www.w3.org/2000/svg"
   xmlns:rdf="http://www.w3.org/1999/02/22-rdf-syntax-ns#"
   xmlns:cc="http://creativecommons.org/ns#"
   xmlns:dc="http://purl.org/dc/elements/1.1/"><defs
     id="defs2" /><sodipodi:namedview
     id="base"
     pagecolor="#ffffff"
     bordercolor="#666666"
     borderopacity="1.0"
     inkscape:pageopacity="0.0"
     inkscape:pageshadow="2"
     inkscape:zoom="0.24748737"
     inkscape:cx="507.09658"
     inkscape:cy="591.94939"
     inkscape:document-units="px"
     inkscape:current-layer="layer1"
     inkscape:document-rotation="0"
     showgrid="false"
     units="px"
     scale-x="1"
     inkscape:showpageshadow="2"
     inkscape:pagecheckerboard="0"
     inkscape:deskcolor="#d1d1d1"
     inkscape:window-width="1920"
     inkscape:window-height="1001"
     inkscape:window-x="-9"
     inkscape:window-y="-9"
     inkscape:window-maximized="1" /><metadata
     id="metadata5"><rdf:RDF><cc:Work
         rdf:about=""><dc:format>image/svg+xml</dc:format><dc:type
           rdf:resource="http://purl.org/dc/dcmitype/StillImage" /><cc:license
           rdf:resource="http://creativecommons.org/licenses/by-nc-sa/4.0/" /></cc:Work><cc:License
         rdf:about="http://creativecommons.org/licenses/by-nc-sa/4.0/"><cc:permits
           rdf:resource="http://creativecommons.org/ns#Reproduction" /><cc:permits
           rdf:resource="http://creativecommons.org/ns#Distribution" /><cc:requires
           rdf:resource="http://creativecommons.org/ns#Notice" /><cc:requires
           rdf:resource="http://creativecommons.org/ns#Attribution" /><cc:prohibits
           rdf:resource="http://creativecommons.org/ns#CommercialUse" /><cc:permits
           rdf:resource="http://creativecommons.org/ns#DerivativeWorks" /><cc:requires
           rdf:resource="http://creativecommons.org/ns#ShareAlike" /></cc:License></rdf:RDF></metadata><g
     inkscape:label="Layer 1"
     inkscape:groupmode="layer"
     id="layer1"><path
       id="path9"
       style="fill:none;fill-opacity:1;stroke:#000000;stroke-width:256;stroke-linecap:butt;stroke-linejoin:round;stroke-dasharray:none;stroke-opacity:1"
       d="M 1018.2344,292.94141 C 813.71106,292.9413 617.56345,315.43978 472.94336,355.48828 328.32327,395.53679 247.0765,449.85495 247.07617,506.49219 V 1614.4922 c 3.1e-4,56.6372 81.2471,110.9553 225.86719,151.0039 144.62008,40.0485 340.76768,62.547 545.29104,62.5469 116.7656,0 230.424,-7.5608 333.6992,-21.3067 l 0.014,1.3653 c 83.8425,-16.1624 321.8764,-13.639 481.4804,99.498 V 815.59961 c -12.9994,-11.83692 -27.8758,-22.7523 -44.0371,-32.86328 V 506.49219 c -3e-4,-56.63715 -81.2475,-110.95542 -225.8672,-151.00391 -144.6196,-40.04848 -340.766,-62.54683 -545.289,-62.54687 z"
       inkscape:label="outline" /><path
       style="fill:#d8d8d8;fill-opacity:1;stroke:none;stroke-width:1px;stroke-linecap:butt;stroke-linejoin:miter;stroke-opacity:1"
       d="m 1789.3904,506.49249 v 304.93608 l -438.9863,4.28064 -3.8708,-309.21672 z"
       id="path5"
       inkscape:label="shaded_part" /><path
       id="ellipse2"
       style="display:inline;fill:#ffffff;fill-opacity:1;stroke:none;stroke-width:630.956;stroke-linecap:round;stroke-linejoin:round;paint-order:markers stroke fill"
       d="M 1018.2344,292.94141 C 813.71088,292.9413 617.56395,315.44027 472.94371,355.48881 328.32348,395.53736 247.0765,449.8549 247.07617,506.49219 V 1614.4922 c 3.1e-4,56.6373 81.24729,110.9548 225.86752,151.0034 144.62023,40.0485 340.76717,62.5475 545.29071,62.5474 204.5232,0 400.6696,-22.4991 545.2894,-62.5476 144.6198,-40.0485 225.8665,-94.366 225.8668,-151.0032 -0.074,-82.3923 -171.3026,-157.4231 -440,-192.8047 V 698.97461 c 268.3182,-35.3315 439.477,-110.20662 440,-192.48242 -3e-4,-56.6372 -81.247,-110.95465 -225.8668,-151.00318 -144.6198,-40.04852 -340.7662,-62.54756 -545.2894,-62.5476 z"
       sodipodi:nodetypes="ssccsssccccss"
       inkscape:label="main_roll" /><path
       style="fill:#ffffff;fill-opacity:1;stroke:none;stroke-width:1px;stroke-linecap:butt;stroke-linejoin:miter;stroke-opacity:1"
       d="m 1351.9478,1808.1025 c 83.8426,-16.1624 321.8749,-13.6404 481.4791,99.4967 V 815.59921 C 1709.1781,702.46212 1421.034,668.92381 1341.2424,700.4075 Z"
       id="path4"
       sodipodi:nodetypes="ccccc"
       inkscape:label="flap" /><path
       style="fill:none;stroke:#000000;stroke-width:24;stroke-linecap:butt;stroke-linejoin:miter;stroke-dasharray:120, 24;stroke-dashoffset:0;stroke-opacity:0.1"
       d="M 1414.7315,689.28211 V 1801.5487"
       id="path11"
       inkscape:label="perforation" /><ellipse
       style="display:inline;fill:#452900;fill-opacity:1;stroke:none;stroke-width:268.613;stroke-linecap:round;stroke-linejoin:round;paint-order:markers stroke fill"
       id="path1"
       cx="1018.2337"
       cy="506.49249"
       rx="328.29956"
       ry="90.913734"
       inkscape:label="tube" /></g></svg>
